<svg width="189" height="56" viewBox="0 0 189 56" fill="none" xmlns="http://www.w3.org/2000/svg">
<path d="M182 1.12C183.559 1.12 185.055 1.7395 186.158 2.84221C187.26 3.94493 187.88 5.44053 187.88 7V49C187.88 50.5595 187.26 52.0551 186.158 53.1578C185.055 54.2605 183.559 54.88 182 54.88H7C5.44053 54.88 3.94493 54.2605 2.84221 53.1578C1.7395 52.0551 1.12 50.5595 1.12 49V7C1.12 5.44053 1.7395 3.94493 2.84221 2.84221C3.94493 1.7395 5.44053 1.12 7 1.12H182ZM182 0H7C5.14348 0 3.36301 0.737498 2.05025 2.05025C0.737498 3.36301 0 5.14349 0 7V49C0 50.8565 0.737498 52.637 2.05025 53.9498C3.36301 55.2625 5.14348 56 7 56H182C183.857 56 185.637 55.2625 186.95 53.9498C188.262 52.637 189 50.8565 189 49V7C189 5.14349 188.262 3.36301 186.95 2.05025C185.637 0.737498 183.857 0 182 0Z" fill="#0A1033"/>
<path d="M44.9581 27.0389C44.9194 22.7397 48.4784 20.6481 48.6411 20.5507C46.6255 17.6121 43.5015 17.2106 42.4037 17.1785C39.7798 16.9024 37.2347 18.7486 35.8981 18.7486C34.5348 18.7486 32.4766 17.2052 30.2582 17.2506C27.4036 17.2946 24.7331 18.9473 23.2684 21.5138C20.2458 26.7468 22.5001 34.4369 25.3961 38.6668C26.8447 40.7384 28.5375 43.0514 30.7531 42.9701C32.9208 42.8807 33.7304 41.5881 36.3463 41.5881C38.9381 41.5881 39.6984 42.9701 41.9581 42.918C44.2845 42.8807 45.7491 40.8371 47.1471 38.7468C48.8212 36.3724 49.4935 34.0341 49.5202 33.914C49.4655 33.8953 45.0021 32.1919 44.9581 27.0389Z" fill="#0A1033"/>
<path d="M40.6905 14.3958C41.8564 12.9379 42.6541 10.9543 42.4326 8.94141C40.7452 9.01611 38.6349 10.1086 37.4197 11.5346C36.3446 12.7911 35.3841 14.8507 35.6323 16.7876C37.5278 16.929 39.474 15.8311 40.6905 14.3958Z" fill="#0A1033"/>
<path d="M76.3285 42.6699H73.2991L71.6397 37.4556H65.8718L64.2911 42.6699H61.3418L67.0563 24.918H70.5859L76.3285 42.6699ZM71.1395 35.2679L69.6388 30.6325C69.4801 30.159 69.1826 29.0438 68.7438 27.2884H68.6904C68.5157 28.0434 68.2342 29.1585 67.8474 30.6325L66.3734 35.2679H71.1395Z" fill="#0A1033"/>
<path d="M91.0222 36.1149C91.0222 38.2919 90.4339 40.0127 89.2574 41.2759C88.2036 42.4004 86.895 42.962 85.3329 42.962C83.6469 42.962 82.4356 42.3564 81.698 41.1452H81.6446V47.8882H78.8007V34.086C78.8007 32.7174 78.7647 31.3128 78.6953 29.8722H81.1964L81.3552 31.9011H81.4085C82.3569 30.3724 83.7963 29.6094 85.7278 29.6094C87.2378 29.6094 88.4984 30.2056 89.5068 31.3995C90.5179 32.5947 91.0222 34.1661 91.0222 36.1149ZM88.1249 36.219C88.1249 34.9731 87.8447 33.946 87.2818 33.1376C86.6669 32.2946 85.8412 31.8731 84.806 31.8731C84.1044 31.8731 83.4668 32.1078 82.8972 32.5707C82.3263 33.0376 81.9528 33.6472 81.778 34.4022C81.69 34.7543 81.646 35.0425 81.646 35.2692V37.4035C81.646 38.3346 81.9314 39.1203 82.5023 39.7619C83.0733 40.4035 83.8149 40.7237 84.7273 40.7237C85.7985 40.7237 86.6322 40.3102 87.2285 39.4858C87.8261 38.6601 88.1249 37.5716 88.1249 36.219Z" fill="#0A1033"/>
<path d="M105.749 36.1149C105.749 38.2919 105.161 40.0127 103.983 41.2759C102.931 42.4004 101.622 42.962 100.06 42.962C98.374 42.962 97.1628 42.3564 96.4265 41.1452H96.3731V47.8882H93.5292V34.086C93.5292 32.7174 93.4932 31.3128 93.4238 29.8722H95.9249L96.0837 31.9011H96.137C97.0841 30.3724 98.5234 29.6094 100.456 29.6094C101.965 29.6094 103.226 30.2056 104.237 31.3995C105.244 32.5947 105.749 34.1661 105.749 36.1149ZM102.852 36.219C102.852 34.9731 102.571 33.946 102.008 33.1376C101.393 32.2946 100.57 31.8731 99.5332 31.8731C98.8302 31.8731 98.194 32.1078 97.623 32.5707C97.0521 33.0376 96.6799 33.6472 96.5052 34.4022C96.4185 34.7543 96.3731 35.0425 96.3731 35.2692V37.4035C96.3731 38.3346 96.6586 39.1203 97.2269 39.7619C97.7978 40.4022 98.5395 40.7237 99.4545 40.7237C100.526 40.7237 101.359 40.3102 101.956 39.4858C102.553 38.6601 102.852 37.5716 102.852 36.219Z" fill="#0A1033"/>
<path d="M122.208 37.694C122.208 39.204 121.684 40.4325 120.632 41.381C119.475 42.4174 117.865 42.935 115.796 42.935C113.886 42.935 112.354 42.5668 111.195 41.8292L111.854 39.4588C113.103 40.2138 114.473 40.5926 115.965 40.5926C117.037 40.5926 117.87 40.3498 118.469 39.8669C119.065 39.3841 119.363 38.7358 119.363 37.9274C119.363 37.2071 119.118 36.6002 118.625 36.1079C118.136 35.6157 117.318 35.1582 116.176 34.7353C113.068 33.5761 111.515 31.878 111.515 29.6451C111.515 28.1857 112.06 26.9892 113.15 26.0581C114.235 25.1257 115.684 24.6602 117.495 24.6602C119.111 24.6602 120.453 24.9416 121.524 25.5032L120.813 27.8216C119.812 27.2773 118.681 27.0052 117.415 27.0052C116.415 27.0052 115.633 27.252 115.073 27.7429C114.6 28.1817 114.362 28.7166 114.362 29.3503C114.362 30.0519 114.633 30.6322 115.177 31.0884C115.651 31.5099 116.511 31.9661 117.76 32.4583C119.287 33.0732 120.409 33.7922 121.13 34.6166C121.849 35.4383 122.208 36.4668 122.208 37.694Z" fill="#0A1033"/>
<path d="M131.609 32.0054H128.474V38.2201C128.474 39.8008 129.026 40.5905 130.134 40.5905C130.642 40.5905 131.063 40.5465 131.397 40.4585L131.476 42.6181C130.915 42.8275 130.178 42.9329 129.264 42.9329C128.141 42.9329 127.263 42.5901 126.629 41.9058C125.998 41.2201 125.681 40.0703 125.681 38.4549V32.0027H123.813V29.8684H125.681V27.5247L128.474 26.6816V29.8684H131.609V32.0054Z" fill="#0A1033"/>
<path d="M145.752 36.1656C145.752 38.1332 145.19 39.7486 144.066 41.0118C142.888 42.3124 141.325 42.9607 139.376 42.9607C137.498 42.9607 136.003 42.3377 134.888 41.0918C133.772 39.8459 133.215 38.2732 133.215 36.3777C133.215 34.3942 133.788 32.7695 134.94 31.5062C136.088 30.2417 137.638 29.6094 139.587 29.6094C141.465 29.6094 142.977 30.2323 144.117 31.4795C145.208 32.6894 145.752 34.2514 145.752 36.1656ZM142.802 36.2577C142.802 35.0771 142.55 34.0647 142.039 33.2203C141.443 32.1985 140.59 31.689 139.486 31.689C138.342 31.689 137.474 32.1999 136.878 33.2203C136.367 34.066 136.115 35.0945 136.115 36.311C136.115 37.4916 136.367 38.504 136.878 39.3471C137.493 40.3688 138.352 40.8784 139.46 40.8784C140.546 40.8784 141.398 40.3582 142.013 39.3204C142.538 38.46 142.802 37.4369 142.802 36.2577Z" fill="#0A1033"/>
<path d="M154.997 32.3733C154.715 32.3213 154.415 32.2946 154.1 32.2946C153.1 32.2946 152.326 32.6721 151.782 33.4284C151.309 34.0954 151.071 34.9384 151.071 35.9562V42.6725H148.228L148.255 33.9033C148.255 32.428 148.219 31.0847 148.148 29.8735H150.626L150.73 32.3226H150.808C151.108 31.4809 151.582 30.8032 152.23 30.295C152.864 29.8375 153.548 29.6094 154.286 29.6094C154.549 29.6094 154.786 29.628 154.997 29.6614V32.3733Z" fill="#0A1033"/>
<path d="M167.719 35.6673C167.719 36.1769 167.686 36.6064 167.615 36.9572H159.084C159.117 38.2218 159.529 39.1889 160.322 39.8559C161.041 40.4521 161.97 40.7509 163.112 40.7509C164.375 40.7509 165.528 40.5495 166.564 40.1453L167.01 42.1195C165.799 42.6478 164.369 42.9106 162.719 42.9106C160.734 42.9106 159.176 42.3263 158.042 41.1591C156.911 39.9919 156.344 38.4245 156.344 36.4583C156.344 34.5281 156.871 32.9208 157.926 31.6389C159.03 30.2702 160.523 29.5859 162.401 29.5859C164.246 29.5859 165.643 30.2702 166.591 31.6389C167.342 32.726 167.719 34.0706 167.719 35.6673ZM165.008 34.9297C165.026 34.0866 164.841 33.3583 164.455 32.7433C163.963 31.9523 163.207 31.5575 162.189 31.5575C161.259 31.5575 160.503 31.943 159.925 32.7167C159.452 33.3316 159.17 34.0693 159.084 34.9283H165.008V34.9297Z" fill="#0A1033"/>
<path d="M70.1949 13.9985C70.1949 15.5685 69.724 16.7504 68.7836 17.5441C67.9126 18.2764 66.6747 18.6433 65.0713 18.6433C64.2763 18.6433 63.596 18.6086 63.0264 18.5392V9.96071C63.7694 9.84066 64.5697 9.7793 65.4341 9.7793C66.9615 9.7793 68.1126 10.1114 68.889 10.7757C69.7587 11.5267 70.1949 12.6006 70.1949 13.9985ZM68.7209 14.0372C68.7209 13.0194 68.4515 12.2391 67.9126 11.6948C67.3736 11.1519 66.5866 10.8798 65.5502 10.8798C65.11 10.8798 64.7351 10.9091 64.4243 10.9705V17.4921C64.5964 17.5188 64.9112 17.5308 65.3687 17.5308C66.4386 17.5308 67.2643 17.2333 67.8459 16.6384C68.4274 16.0434 68.7209 15.1764 68.7209 14.0372Z" fill="#0A1033"/>
<path d="M78.0093 15.3705C78.0093 16.3376 77.7332 17.1299 77.181 17.7516C76.602 18.3905 75.835 18.7093 74.8773 18.7093C73.9542 18.7093 73.2192 18.4038 72.671 17.7902C72.124 17.178 71.8506 16.4056 71.8506 15.4745C71.8506 14.5008 72.132 13.7017 72.6976 13.0815C73.2632 12.4612 74.0236 12.1504 74.9813 12.1504C75.9044 12.1504 76.6461 12.4559 77.2076 13.0681C77.7412 13.6631 78.0093 14.4314 78.0093 15.3705ZM76.5594 15.4158C76.5594 14.8356 76.434 14.338 76.1845 13.9232C75.8911 13.4216 75.4735 13.1708 74.9306 13.1708C74.369 13.1708 73.9422 13.4216 73.6487 13.9232C73.3979 14.338 73.2739 14.8436 73.2739 15.4412C73.2739 16.0215 73.3993 16.519 73.6487 16.9339C73.9515 17.4354 74.373 17.6862 74.9173 17.6862C75.4509 17.6862 75.8697 17.4314 76.1712 16.9205C76.43 16.4977 76.5594 15.9961 76.5594 15.4158Z" fill="#0A1033"/>
<path d="M88.4896 12.2812L86.5221 18.5694H85.2415L84.4265 15.8388C84.2197 15.1572 84.0517 14.4796 83.9209 13.8073H83.8956C83.7742 14.4982 83.6061 15.1745 83.39 15.8388L82.5243 18.5694H81.2291L79.3789 12.2812H80.8155L81.5265 15.2706C81.6986 15.9776 81.84 16.6512 81.9534 17.2888H81.9787C82.0828 16.7633 82.2549 16.0936 82.4976 15.2839L83.39 12.2826H84.5292L85.3843 15.2199C85.591 15.9362 85.7591 16.6259 85.8885 17.2902H85.9272C86.0219 16.6432 86.1646 15.9536 86.354 15.2199L87.117 12.2826H88.4896V12.2812Z" fill="#0A1033"/>
<path d="M95.7374 18.5686H94.3394V14.967C94.3394 13.8572 93.9179 13.3023 93.0722 13.3023C92.6573 13.3023 92.3225 13.4544 92.0624 13.7598C91.805 14.0653 91.6742 14.4255 91.6742 14.8376V18.5673H90.2763V14.0773C90.2763 13.5251 90.2589 12.9261 90.2256 12.2778H91.4541L91.5195 13.2609H91.5582C91.7209 12.9555 91.9637 12.7034 92.2825 12.5019C92.6613 12.2672 93.0855 12.1484 93.5497 12.1484C94.1367 12.1484 94.6249 12.3379 95.0131 12.718C95.4959 13.1836 95.7374 13.8785 95.7374 14.8016V18.5686Z" fill="#0A1033"/>
<path d="M99.5939 18.568H98.1973V9.39453H99.5939V18.568Z" fill="#0A1033"/>
<path d="M107.821 15.3705C107.821 16.3376 107.545 17.1299 106.992 17.7516C106.414 18.3905 105.645 18.7093 104.689 18.7093C103.764 18.7093 103.029 18.4038 102.482 17.7902C101.936 17.178 101.662 16.4056 101.662 15.4745C101.662 14.5008 101.944 13.7017 102.509 13.0815C103.075 12.4612 103.835 12.1504 104.792 12.1504C105.716 12.1504 106.456 12.4559 107.019 13.0681C107.553 13.6631 107.821 14.4314 107.821 15.3705ZM106.37 15.4158C106.37 14.8356 106.244 14.338 105.995 13.9232C105.703 13.4216 105.284 13.1708 104.742 13.1708C104.179 13.1708 103.752 13.4216 103.46 13.9232C103.209 14.338 103.085 14.8436 103.085 15.4412C103.085 16.0215 103.211 16.519 103.46 16.9339C103.763 17.4354 104.185 17.6862 104.729 17.6862C105.262 17.6862 105.68 17.4314 105.981 16.9205C106.241 16.4977 106.37 15.9961 106.37 15.4158Z" fill="#0A1033"/>
<path d="M114.585 18.5666H113.33L113.226 17.8423H113.187C112.758 18.4199 112.145 18.7093 111.35 18.7093C110.757 18.7093 110.277 18.5186 109.915 18.1397C109.587 17.7956 109.423 17.3674 109.423 16.8592C109.423 16.0908 109.743 15.5052 110.387 15.0997C111.03 14.6942 111.935 14.4954 113.099 14.5048V14.3874C113.099 13.559 112.664 13.1455 111.793 13.1455C111.173 13.1455 110.626 13.3016 110.154 13.611L109.87 12.6933C110.454 12.3318 111.176 12.1504 112.027 12.1504C113.67 12.1504 114.494 13.0174 114.494 14.7516V17.0673C114.494 17.6955 114.525 18.1958 114.585 18.5666ZM113.134 16.4056V15.4359C111.592 15.4092 110.821 15.832 110.821 16.7031C110.821 17.0312 110.909 17.2767 111.089 17.4408C111.269 17.6048 111.498 17.6862 111.772 17.6862C112.079 17.6862 112.365 17.5888 112.627 17.3954C112.89 17.2006 113.051 16.9539 113.111 16.6511C113.126 16.583 113.134 16.5003 113.134 16.4056Z" fill="#0A1033"/>
<path d="M122.529 18.568H121.288L121.223 17.5582H121.184C120.788 18.3265 120.113 18.7107 119.165 18.7107C118.407 18.7107 117.776 18.4132 117.276 17.8183C116.776 17.2234 116.526 16.451 116.526 15.5026C116.526 14.4848 116.797 13.6604 117.341 13.0308C117.868 12.4439 118.514 12.1504 119.282 12.1504C120.127 12.1504 120.718 12.4346 121.054 13.0041H121.08V9.39453H122.48V16.8739C122.48 17.4861 122.496 18.0504 122.529 18.568ZM121.08 15.9161V14.8676C121.08 14.6862 121.067 14.5395 121.042 14.4274C120.963 14.0913 120.794 13.8085 120.536 13.5804C120.276 13.3523 119.963 13.2376 119.601 13.2376C119.079 13.2376 118.671 13.4443 118.371 13.8592C118.074 14.274 117.923 14.8036 117.923 15.4506C117.923 16.0722 118.066 16.5764 118.353 16.9646C118.655 17.3781 119.063 17.5849 119.574 17.5849C120.033 17.5849 120.4 17.4128 120.679 17.0673C120.948 16.7485 121.08 16.3643 121.08 15.9161Z" fill="#0A1033"/>
<path d="M134.485 15.3705C134.485 16.3376 134.209 17.1299 133.657 17.7516C133.078 18.3905 132.312 18.7093 131.353 18.7093C130.431 18.7093 129.696 18.4038 129.147 17.7902C128.6 17.178 128.326 16.4056 128.326 15.4745C128.326 14.5008 128.608 13.7017 129.173 13.0815C129.739 12.4612 130.499 12.1504 131.458 12.1504C132.38 12.1504 133.123 12.4559 133.683 13.0681C134.217 13.6631 134.485 14.4314 134.485 15.3705ZM133.036 15.4158C133.036 14.8356 132.911 14.338 132.661 13.9232C132.367 13.4216 131.95 13.1708 131.406 13.1708C130.846 13.1708 130.419 13.4216 130.124 13.9232C129.874 14.338 129.749 14.8436 129.749 15.4412C129.749 16.0215 129.875 16.519 130.124 16.9339C130.427 17.4354 130.849 17.6862 131.393 17.6862C131.926 17.6862 132.347 17.4314 132.648 16.9205C132.906 16.4977 133.036 15.9961 133.036 15.4158Z" fill="#0A1033"/>
<path d="M142.003 18.5686H140.606V14.967C140.606 13.8572 140.185 13.3023 139.337 13.3023C138.923 13.3023 138.588 13.4544 138.329 13.7598C138.07 14.0653 137.941 14.4255 137.941 14.8376V18.5673H136.542V14.0773C136.542 13.5251 136.526 12.9261 136.492 12.2778H137.719L137.785 13.2609H137.823C137.988 12.9555 138.23 12.7034 138.548 12.5019C138.928 12.2672 139.351 12.1484 139.816 12.1484C140.402 12.1484 140.89 12.3379 141.278 12.718C141.763 13.1836 142.003 13.8785 142.003 14.8016V18.5686Z" fill="#0A1033"/>
<path d="M151.411 13.3261H149.871V16.3808C149.871 17.1571 150.145 17.5453 150.686 17.5453C150.937 17.5453 151.145 17.5239 151.309 17.4799L151.345 18.5404C151.069 18.6444 150.706 18.6965 150.26 18.6965C149.707 18.6965 149.278 18.5284 148.967 18.1922C148.655 17.8561 148.5 17.2905 148.5 16.4968V13.3261H147.581V12.2789H148.5V11.1264L149.87 10.7129V12.2776H151.409V13.3261H151.411Z" fill="#0A1033"/>
<path d="M158.813 18.568H157.413V14.993C157.413 13.8659 156.992 13.3016 156.147 13.3016C155.499 13.3016 155.056 13.6284 154.814 14.282C154.772 14.4194 154.748 14.5875 154.748 14.7849V18.5666H153.352V9.39453H154.748V13.1842H154.775C155.215 12.4946 155.846 12.1504 156.664 12.1504C157.243 12.1504 157.722 12.3398 158.102 12.72C158.575 13.1936 158.813 13.8979 158.813 14.829V18.568Z" fill="#0A1033"/>
<path d="M166.449 15.1253C166.449 15.3761 166.43 15.5869 166.397 15.759H162.204C162.223 16.3806 162.423 16.8541 162.811 17.1823C163.166 17.4757 163.624 17.6225 164.184 17.6225C164.804 17.6225 165.37 17.5237 165.879 17.325L166.098 18.2961C165.502 18.5549 164.8 18.6843 163.988 18.6843C163.014 18.6843 162.247 18.3975 161.692 17.8239C161.135 17.2503 160.858 16.4806 160.858 15.5148C160.858 14.5664 161.116 13.7767 161.635 13.1471C162.176 12.4748 162.909 12.1387 163.833 12.1387C164.737 12.1387 165.424 12.4748 165.889 13.1471C166.263 13.6807 166.449 14.341 166.449 15.1253ZM165.115 14.7638C165.126 14.349 165.034 13.9915 164.844 13.69C164.601 13.3019 164.232 13.1071 163.732 13.1071C163.275 13.1071 162.903 13.2965 162.619 13.6767C162.387 13.9795 162.25 14.341 162.204 14.7638H165.115Z" fill="#0A1033"/>
</svg>
