<svg width="572" height="760" viewBox="0 0 572 760" fill="none" xmlns="http://www.w3.org/2000/svg">
<path d="M323.965 377.438C290.571 348.537 244.385 334.086 185.408 334.086H67L67 662.086H185.408C242.8 662.086 288.59 647.088 322.777 617.091C356.963 587.094 374.038 547.105 374 497.123C374 446.234 357.322 406.339 323.965 377.438Z" fill="#0A1033"/>
<rect x="-21" y="86" width="392" height="399" fill="#0A1033"/>
<rect y="86" width="127" height="576" fill="#0A1033"/>
<path d="M432.226 172.297C432.226 172.297 435.826 171.751 434.958 172.81C434.584 173.108 434.827 179.394 435.407 189.325C434.481 189.084 433.556 188.844 432.884 188.768C432.242 180.599 432.088 174.731 432.226 172.297Z" fill="#322B2C"/>
<path d="M454.275 157.776C443.996 178.319 441.483 206.609 443.52 254.259C445.348 301.953 437.562 331.145 429.252 344.494C420.941 357.843 418.356 359.048 418.356 359.048L417.988 356.285C417.988 356.285 424.614 349.413 429.636 338.074C436.501 323.065 442.336 299.096 440.696 263.601C437.85 200.825 443.636 179.707 445.186 172.602C446.901 165.244 452.336 156.877 452.336 156.877L454.275 157.776Z" fill="#403737"/>
<path d="M432.226 172.297C431.564 183.584 438.183 274.408 437.921 287.577C437.146 320.962 430.331 333.119 425.518 344.414C422.909 350.651 415.846 359.582 415.846 359.582L419.61 358.783C419.61 358.783 444.138 327.126 440.217 272.665C437.346 232.405 434.134 174.077 434.792 173.063C435.825 171.751 432.226 172.297 432.226 172.297Z" fill="#4D4243"/>
<path d="M432.227 172.297C431.565 183.584 438.185 274.409 437.923 287.578C437.148 320.963 430.422 333.538 425.609 344.833C423 351.07 413.751 363.088 413.751 363.088L419.821 358.739C419.821 358.739 444.349 327.082 440.428 272.621C437.557 232.361 434.344 174.033 435.003 173.019C435.827 171.751 432.227 172.297 432.227 172.297Z" fill="#4D4243"/>
<path d="M432.657 190.783C432.255 181.689 431.923 174.984 432.018 172.341C432.018 172.341 435.617 171.795 434.749 172.854C434.375 173.152 434.587 180.319 435.091 190.921C434.419 190.846 433.538 190.814 432.657 190.783Z" fill="#322B2C"/>
<path d="M462.841 193.985C458.292 199.323 444.176 228.549 441.584 250.299C439.903 263.988 439.332 300.39 437.572 307.539C435.768 314.479 437.038 322.514 437.038 322.514C437.038 322.514 439.64 312.127 441.023 298.064C442.684 279.134 443.963 256.35 444.69 250.514C447.25 229.644 463.855 194.644 463.855 194.644L462.841 193.985Z" fill="#4D4243"/>
<path d="M461.138 195.222L463.047 197.002C463.047 197.002 460.678 202.314 456.182 212.011C455.959 210.965 455.021 209.635 454.799 208.589C456.375 203.665 459.358 197.13 461.138 195.222Z" fill="#322B2C"/>
<path d="M502.726 142.019C508.856 146.181 512.326 159.431 507.71 169.591C500.649 185.735 479.316 200.539 465.713 192.064C454.348 184.862 457.693 159.455 469.691 145.978C477.306 137.585 490.93 133.816 502.726 142.019Z" fill="#A587F9" fill-opacity="0.7"/>
<path d="M469.908 192.266C469.637 194.072 469.169 197.013 469.169 197.013C469.169 197.013 465.462 199.112 462.242 196.299C459.826 194.189 459.787 190.919 459.787 190.919C459.787 190.919 464.033 188.269 463.988 188.06C463.779 188.104 469.908 192.266 469.908 192.266Z" fill="#5B3BB8" fill-opacity="0.5"/>
<path d="M465.644 196.888C465.061 197.23 462.495 196.464 462.317 195.628C462.139 194.791 465.009 192.87 465.681 192.946C466.816 193.142 466.392 196.292 465.644 196.888Z" fill="#A587F9" fill-opacity="0.5"/>
<path d="M500.879 155.964C497.507 154.495 491.254 161.068 489.349 166.5C487.443 171.932 490.138 176.386 494.022 175.124C505.346 171.844 504.251 157.433 500.879 155.964Z" fill="#BEB3FF" fill-opacity="0.8"/>
<path d="M500.837 180.45C491.157 191.467 476.108 198.817 465.757 192.274C458.196 187.542 457.083 175.103 460.672 163.194C458.959 177.764 473.902 196.663 500.837 180.45Z" fill="#7358D6" fill-opacity="0.5"/>
<path d="M479.491 194.164C474.682 195.186 469.77 194.7 465.758 192.274C459.166 187.992 457.407 177.656 459.71 166.895C460.065 186.052 471.982 193.793 479.491 194.164Z" fill="#7358D6" fill-opacity="0.8"/>
<path opacity="0.5" d="M459.787 190.921C459.933 192.638 462.481 195.375 463.451 195.825C464.719 196.648 467.197 196.996 469.453 196.298C469.332 196.761 469.377 196.97 469.377 196.97C469.377 196.97 465.252 199.157 461.823 196.389C460.466 195.147 459.439 193.399 459.47 192.518C459.248 191.472 459.787 190.921 459.787 190.921Z" fill="#3E296D"/>
<path d="M463.305 253.772C453.549 265.461 448.16 298.733 444.223 313.12C441.457 323.762 436.061 335.399 431.753 339.811C427.445 344.223 422.758 351.994 422.758 351.994L427.814 346.986C427.814 346.986 441.203 341.082 448.265 307.453C453.7 281.602 461.051 261.681 463.281 258.804C465.511 255.926 463.305 253.772 463.305 253.772Z" fill="#4D4243"/>
<path d="M439.627 167.008C440.756 170.265 441.872 172.432 441.872 172.432C441.872 172.432 439.402 176.235 432.639 175.268C430.37 174.875 427.404 172.227 427.404 172.227L430.026 167.081L439.627 167.008Z" fill="#C22371"/>
<path d="M429.431 173.545C430.09 172.531 431.496 170.921 433.511 171.149C434.646 171.345 436.58 175.305 436.371 175.349C435.325 175.572 434.191 175.375 432.847 175.224C431.713 175.028 430.445 174.204 429.431 173.545Z" fill="#F33E9C"/>
<path d="M436.989 86.7022C467.118 88.6065 475.962 119.948 467.178 139.299C456.716 162.066 443.758 168.971 435.843 169.778C423.03 171.189 401.622 151.696 403.216 120.104C404.095 95.4391 426.583 86.0718 436.989 86.7022Z" fill="#F33E9C"/>
<path d="M421.131 96.4083C425.847 98.0291 420.344 111.219 419.802 122.043C419.399 130.434 427.052 142.795 420.347 143.127C413.434 143.503 404.633 129.856 405.371 117.897C406.247 103.504 414.8 96.442 422.639 96.3064" fill="#F57AB8"/>
<path d="M429.856 93.2446C419.421 100.707 423.175 130.726 430.073 139.532C436.122 147.427 435.698 150.576 433.74 151.648C423.234 156.721 414.53 147.643 413.872 148.657C412.674 150.222 419.961 167.033 434.505 166.566C447.959 166.112 458.413 156.678 464.308 141.22C470.412 125.717 449.725 78.7512 429.856 93.2446Z" fill="#C22371"/>
<path d="M420.529 98.7226C423.634 98.9371 418.68 105.453 417.161 111.677C415.433 117.945 415.846 120.917 413.381 121.66C410.916 122.402 408.284 116.186 409.442 111.35C410.6 106.514 415.661 98.4453 420.529 98.7226Z" fill="#FFD3EB"/>
<path d="M413.676 132.306C416.711 130.131 420.877 138.426 417.291 140.062C413.704 141.698 410.806 134.227 413.676 132.306Z" fill="#FFD3EB"/>
<path d="M388.319 108.626C390.749 119.038 404.76 175.727 411.699 195.015C418.683 214.513 434.224 301.038 433.9 315.968C433.507 335.722 429.327 343.822 425.241 349.28C422.232 353.635 419.437 354.884 415.757 359.163C412.406 362.935 412.285 363.397 411.862 366.547C410.565 373.817 415.168 380.051 415.168 380.051L418.723 379.296C418.723 379.296 411.046 371.966 417.019 363.047C421.061 357.381 442.566 346.474 435.973 300.01C434.646 290.676 432.085 269.364 428.962 253.636C422.227 219.88 410.04 178.976 407.351 171.461C403.488 160.48 390.873 108.302 390.873 108.302L388.319 108.626Z" fill="#4D4243"/>
<path d="M455.362 269.884C457.673 263.273 460.371 257.455 463.304 253.772C463.304 253.772 465.51 255.926 463.28 258.804C462.247 260.116 460.088 265.383 457.372 273.172C456.687 272.006 456.002 270.841 455.362 269.884Z" fill="#322B2C"/>
<path d="M445.185 172.601C446.9 165.243 452.335 156.876 452.335 156.876L454.274 157.775C449.48 167.099 446.461 177.575 444.748 192.146C444.241 191.816 442.39 191.335 441.927 191.215C443.065 181.138 444.552 175.795 445.185 172.601Z" fill="#322B2C"/>
<path d="M397.261 144.538C393.124 128.151 389.342 113.437 388.32 108.627L391.083 108.259C391.083 108.259 395.754 127.155 400.113 144.587C399.276 144.765 398.142 144.569 397.261 144.538Z" fill="#322B2C"/>
<path d="M516.324 93.8875C511.705 96.8359 477.162 83.4117 473.355 108.699C468.599 138.777 499.549 132.202 501.818 132.594C504.086 132.986 512.051 129.327 511.698 134.866C511.345 140.405 496.638 165.822 461.894 156.594C427.15 147.365 425.732 112.916 429.403 97.274C433.073 81.6323 451.748 58.4318 490.51 67.0255C510.227 71.3603 520.525 91.0281 516.324 93.8875Z" fill="#D5BCFE"/>
<path d="M503.646 85.6549C510.345 88.3842 514.567 90.7656 515.516 85.9743C517.406 89.7254 517.818 92.6975 516.279 93.6803C511.66 96.6286 477.117 83.2045 473.31 108.492C469.414 133.36 490.125 133.113 498.547 132.635C495.917 133.631 493.034 134.462 489.897 135.128C473.96 138.296 455.83 122.915 462.528 100.947C469.226 78.98 494.037 81.5767 503.646 85.6549Z" fill="#B396E3"/>
<path d="M505.85 80.5978C503.487 82.8483 503.466 77.6074 486.996 78.2653C474.423 78.751 468.17 85.3248 466.889 83.4113C465.653 81.707 471.822 71.654 485.992 71.4847C498.192 71.2971 507.465 78.9433 505.85 80.5978Z" fill="#E6DBFE"/>
<path d="M459.985 154.814L459.974 160.936C459.974 160.936 454.867 161.584 451.539 160.324C447.704 158.734 446.157 155.566 446.157 155.566L451.6 151.35L459.985 154.814Z" fill="#7B63A4"/>
<path d="M452.982 154.772C455.505 155.329 453.434 161.015 453.434 161.015C453.434 161.015 451.374 160.578 450.107 159.755C448.585 158.766 448.928 159.349 448.034 158.228C447.989 158.019 450.669 154.171 452.982 154.772Z" fill="#9C81C9"/>
<path d="M502.884 137.615C504.881 139.813 492.012 147.137 478.963 146.412C466.124 145.643 463.123 136.664 463.947 135.396C464.77 134.129 473.506 142.326 483.436 141.747C493.366 141.167 500.678 135.461 502.884 137.615Z" fill="#E6DBFE"/>
<path d="M429.149 97.112C432.819 81.4703 451.494 58.2698 490.256 66.8636C491.853 67.1799 493.495 67.7054 494.927 68.2753C478.075 65.0803 447.677 72.1941 443.732 99.9148C438.68 136.831 461.51 145.531 469.793 147.487C476.689 149.082 501.336 151.932 511.622 135.541C510.236 142.392 495.25 165.464 461.849 156.387C427.105 147.158 425.523 112.963 429.149 97.112Z" fill="#B396E3"/>
<path d="M479.628 65.1879C479.628 65.1879 435.875 67.0524 438.464 115.24C439.853 140.298 463.451 153.643 478.921 153.416C500.005 152.871 507.936 142.881 507.936 142.881C507.936 142.881 491.062 169.414 452.209 153.19C434.931 145.933 427.32 126.569 426.923 114.414C425.84 76.3967 452.738 64.1255 479.628 65.1879Z" fill="#9C81C9"/>
<path d="M485.199 131.536C472.043 132.364 464.568 120.839 466.503 107.315C469.12 87.7441 497.024 89.4653 499.75 93.0387C499.75 93.0387 475.859 93.7434 473.563 108.656C471.058 123.613 477.752 129.403 485.199 131.536Z" fill="#9C81C9"/>
<path d="M457.924 70.0161C457.924 70.0161 435.172 85.3406 437.165 115.296C440.145 161.216 489.194 153.418 489.194 153.418C448.46 162.29 429.306 134.888 429.103 114.386C429.11 93.8409 438.267 74.1923 457.924 70.0161Z" fill="#7B63A4"/>
<path d="M457.935 207.922C464.347 204.156 475.2 214.089 475.2 214.089C475.2 214.089 492.415 205.623 496.352 208.721C500.288 211.819 492.796 226.961 492.796 226.961C492.796 226.961 508.409 238.724 504.785 244.302C500.548 251.104 483.652 247.7 483.652 247.7C483.652 247.7 479.354 263.475 471.737 264.656C464.164 266.046 459.533 250.42 459.533 250.42C454.919 250.307 442.249 246.223 441.779 241.952C441.309 237.681 449.164 228.363 456.8 225.211C456.844 225.42 452.689 211.004 457.935 207.922Z" fill="#E5AF0D"/>
<path d="M441.856 241.279C442.431 236.786 449.583 228.272 456.845 225.418C456.845 225.418 453.654 214.513 456.364 209.784C458.5 209.549 460.262 209.612 460.262 209.612C464.368 209.395 483.086 221.373 478.817 229.055C474.295 236.573 445.957 244.123 441.856 241.279Z" fill="#FFD306"/>
<path d="M460.737 210.823C463.456 210.246 469.512 222.291 464.417 224.029C459.278 225.558 456.092 211.592 460.737 210.823Z" fill="#FFF691"/>
<path d="M462.587 228.789C463.988 230.24 456.962 235.229 452.513 234.863C448.108 234.706 454.134 230.148 457.137 228.854C460.305 227.307 462.587 228.789 462.587 228.789Z" fill="#FFF691"/>
<path d="M442.167 242.745C446.527 242.693 461.324 242.39 474.504 236.53C488.641 230.03 493.61 214.331 493.368 208.045C494.667 207.987 495.801 208.183 496.562 208.677C500.498 211.775 493.006 226.917 493.006 226.917C493.006 226.917 508.619 238.681 504.995 244.259C500.758 251.06 483.862 247.656 483.862 247.656C483.862 247.656 479.564 263.431 471.946 264.612C464.374 266.002 459.743 250.376 459.743 250.376C455.173 250.472 443.683 246.794 442.167 242.745Z" fill="#C18500"/>
<path d="M442.167 242.743C448.302 243.844 458.036 244.398 463.384 242.825C463.384 242.825 467.893 251.702 471.866 250.858C475.839 250.014 480.767 241.318 480.767 241.318C480.767 241.318 491.44 243.203 494.658 238.804C497.381 235.165 492.133 231.035 491.911 229.989C491.777 229.362 492.481 228.557 493.26 227.08C495.377 228.816 508.245 238.977 504.951 244.048C500.714 250.849 483.817 247.445 483.817 247.445C483.817 247.445 479.519 263.22 471.902 264.401C464.329 265.791 459.698 250.165 459.698 250.165C455.173 250.471 443.683 246.792 442.167 242.743Z" fill="#AA6D02"/>
<path d="M480.501 247.274C479.513 248.796 475.142 254.97 470.738 254.812C466.333 254.655 463.84 246.006 462.883 246.646C461.927 247.287 462.945 262.369 471.652 261.175C478.268 260.425 480.501 247.274 480.501 247.274Z" fill="#934E03"/>
<path d="M366.81 27.9599C392.385 20.7779 408.538 39.2017 409.439 61.9586C410.34 84.7156 399.045 97.3875 388.393 100.743C377.696 103.89 351.244 83.2832 348.456 63.987C345.921 44.8554 351.557 32.2931 366.81 27.9599Z" fill="#F0BBFF"/>
<path d="M366.81 27.9599C392.385 20.7779 408.538 39.2017 409.439 61.9586C410.34 84.7156 399.045 97.3875 388.393 100.743C377.696 103.89 351.244 83.2832 348.456 63.987C345.921 44.8554 351.557 32.2931 366.81 27.9599Z" fill="#D295E2"/>
<path d="M378.661 30.2498C402.469 26.0659 415.848 68.4646 390.735 75.7668C354.717 86.2602 336.317 37.7159 378.661 30.2498Z" fill="#F0BBFF"/>
<path d="M379.861 35.8965C394.228 34.5928 404.222 56.9477 396.555 60.9806C388.889 65.0136 388.923 53.8599 383.212 49.6094C377.247 45.1942 368.093 37.0854 379.861 35.8965Z" fill="#F1DAF9"/>
<path d="M396.068 65.8914C399.503 65.5988 399.15 71.1377 394.999 71.1454C391.101 71.3177 391.334 66.2415 396.068 65.8914Z" fill="#F1DAF9"/>
<path d="M353.568 77.7637C359.287 86.1651 367.66 88.539 374.884 89.6267C387.991 91.6504 402.684 82.6278 409.41 70.0524C407.737 87.8925 397.968 98.4916 388.437 100.953C372.469 105.002 362.547 92.2479 353.568 77.7637Z" fill="#B171C2"/>
<path d="M389.994 97.9973C394.749 102.888 395.18 103.889 395.18 103.889C395.18 103.889 395.562 107.742 388.87 109.164C386.151 109.742 381.93 107.36 381.93 107.36L384.779 100.198L389.994 97.9973Z" fill="#B171C2"/>
<path d="M388.871 109.166C387.617 109.433 386.02 109.116 384.796 108.502C384.752 108.293 384.916 108.039 384.872 107.83C385.068 106.696 385.599 101.993 386.854 101.727C387.69 101.549 389.522 104.001 389.82 104.375C390.461 105.331 391.773 106.364 392.458 107.53C391.755 108.335 390.544 108.811 388.871 109.166Z" fill="#D295E2"/>
<path d="M358.438 85.252C366.114 92.5818 373.65 95.1333 378.473 95.2015C386.61 95.4397 397.649 92.8759 406.537 82.2454C402.636 92.6906 395.458 99.0238 388.393 100.743C375.142 104.214 366.242 96.2701 358.438 85.252Z" fill="#8D559E"/>
<path d="M407.68 26.9274C408.516 26.7497 410.333 38.3844 410.333 38.3844C410.333 38.3844 416.904 37.4254 416.917 38.5154C416.721 39.6498 410.657 40.9382 410.657 40.9382C410.657 40.9382 412.086 51.7809 411.249 51.9586C410.413 52.1363 408.312 41.2178 408.312 41.2178C408.312 41.2178 401.861 41.7142 401.638 40.6686C401.461 39.8321 407.988 38.664 407.988 38.664C407.988 38.664 406.799 26.896 407.68 26.9274Z" fill="#F9F9F9"/>
<path d="M402.563 40.909C403.198 44.9267 406.837 47.6506 410.855 47.0156C414.872 46.3806 417.596 42.7421 416.961 38.7244C416.326 34.7068 412.688 31.9829 408.67 32.6179C404.652 33.2529 401.928 36.8914 402.563 40.909Z" fill="#F9F9F9" fill-opacity="0.3"/>
<path d="M401.054 41.01C401.823 45.655 406.266 49.0821 410.911 48.3138C415.556 47.5455 418.983 43.102 418.215 38.4569C417.447 33.8119 413.003 30.3849 408.358 31.1532C403.713 31.9215 400.495 36.3206 401.054 41.01Z" fill="#F9F9F9" fill-opacity="0.2"/>
<path d="M357.697 65.3022C359.161 64.9912 362.887 85.6179 362.887 85.6179C362.887 85.6179 374.731 83.7573 374.459 85.5635C374.441 87.5345 363.655 90.2629 363.655 90.2629C363.655 90.2629 366.862 109.47 365.398 109.781C363.934 110.092 359.638 90.8979 359.638 90.8979C359.638 90.8979 348.123 92.2515 347.679 90.1603C347.368 88.6965 358.87 86.2529 358.87 86.2529C358.87 86.2529 356.233 65.6132 357.697 65.3022Z" fill="#F9F9F9"/>
<path d="M349.32 90.6863C350.577 97.6316 357.467 102.287 364.367 100.821C371.313 99.5642 375.969 92.6741 374.502 85.7732C373.245 78.8279 366.355 74.1722 359.454 75.6383C352.718 76.8509 348.018 83.5319 349.32 90.6863Z" fill="#F9F9F9" fill-opacity="0.3"/>
<path d="M346.976 90.9654C348.544 99.3746 356.701 104.854 365.066 103.077C373.475 101.509 378.954 93.3508 377.177 84.9861C375.609 76.577 367.451 71.0978 359.087 72.8749C350.722 74.652 345.452 82.7654 346.976 90.9654Z" fill="#F9F9F9" fill-opacity="0.2"/>
<path d="M441.96 71.0048C443.424 70.6938 447.778 91.1873 447.778 91.1873C447.778 91.1873 459.533 88.9084 459.514 90.8793C459.496 92.8502 448.799 95.9969 448.799 95.9969C448.799 95.9969 452.633 115.071 451.214 115.591C449.794 116.111 445.035 96.7966 445.035 96.7966C445.035 96.7966 433.61 98.5684 433.165 96.4772C432.854 95.0134 444.267 92.1517 444.267 92.1517C444.267 92.1517 440.287 71.3602 441.96 71.0048Z" fill="#F9F9F9"/>
<path d="M434.255 96.4651C435.721 103.366 442.776 107.768 449.677 106.302C456.578 104.836 460.98 97.7811 459.514 90.8803C458.048 83.9794 450.993 79.5772 444.092 81.0433C437.191 82.5094 432.789 89.5643 434.255 96.4651Z" fill="#F9F9F9" fill-opacity="0.3"/>
<path d="M431.954 96.9529C433.731 105.318 442.054 110.543 450.374 108.557C458.739 106.78 463.964 98.4573 461.978 90.1371C460.201 81.7724 451.878 76.5468 443.558 78.533C435.238 80.5192 429.968 88.6326 431.954 96.9529Z" fill="#F9F9F9" fill-opacity="0.2"/>
<path d="M501.79 190.082C502.835 189.86 505.647 204.125 505.647 204.125C505.647 204.125 513.892 202.81 513.74 204.154C513.588 205.497 506.149 207.515 506.149 207.515C506.149 207.515 508.574 220.987 507.528 221.209C506.483 221.431 503.43 208.092 503.43 208.092C503.43 208.092 495.56 209.109 495.04 207.689C494.817 206.644 502.973 204.911 502.973 204.911C502.973 204.911 500.744 190.304 501.79 190.082Z" fill="#F9F9F9"/>
<path d="M496.13 207.676C497.151 212.485 501.76 215.659 506.823 214.802C511.633 213.78 514.806 209.172 513.949 204.108C512.927 199.299 508.319 196.125 503.256 196.982C498.237 198.048 495.108 202.866 496.13 207.676Z" fill="#F9F9F9" fill-opacity="0.3"/>
<path d="M494.458 208.032C495.702 213.887 501.324 217.72 507.179 216.476C513.035 215.232 516.867 209.609 515.623 203.754C514.379 197.899 508.757 194.066 502.901 195.31C497.046 196.554 493.214 202.177 494.458 208.032Z" fill="#F9F9F9" fill-opacity="0.2"/>
<path d="M411.698 366.801C412.331 363.607 412.242 363.188 415.593 359.417C419.274 355.138 422.068 353.888 425.077 349.534C427.142 346.909 429.074 343.658 430.65 338.733C431.455 339.436 432.305 340.349 432.945 341.305C427.696 354.66 419.205 359.96 416.855 363.301C415.329 365.374 414.848 367.224 414.62 369.24C413.904 368.955 413.397 368.625 412.681 368.34C412.218 368.22 411.711 367.891 411.457 367.726C411.578 367.263 411.742 367.01 411.698 366.801Z" fill="#322B2C"/>
<path d="M411.698 366.801C412.331 363.607 412.242 363.188 415.593 359.417C419.274 355.138 422.068 353.888 425.077 349.534C427.142 346.909 429.074 343.658 430.65 338.733C431.455 339.436 432.305 340.349 432.945 341.305C427.696 354.66 419.205 359.96 416.855 363.301C415.329 365.374 414.848 367.224 414.62 369.24C413.904 368.955 413.397 368.625 412.681 368.34C412.218 368.22 411.711 367.891 411.457 367.726C411.578 367.263 411.742 367.01 411.698 366.801Z" fill="#322B2C"/>
<path d="M415.803 359.371C416.461 358.357 417.329 357.299 417.988 356.284C420.173 353.198 423.512 348.336 425.266 344.248C426.285 341.845 427.514 339.399 428.489 336.788C428.996 337.117 429.801 337.82 430.144 338.403C425.99 348.683 421.872 355.022 420.016 357.602C419.478 358.154 419.104 358.451 418.939 358.705L415.803 359.371Z" fill="#322B2C"/>
<path d="M413.497 362.922C414.036 362.371 422.746 350.904 425.399 344.876C426.419 342.474 427.603 339.818 428.743 336.953C429.25 337.283 429.846 338.03 430.353 338.36C426.199 348.64 422.082 354.979 420.226 357.559C419.358 358.617 418.82 359.169 418.82 359.169L413.497 362.922Z" fill="#322B2C"/>
<path d="M318.562 350.967C322.53 355.998 341.449 357.448 341.449 357.448C341.449 357.448 337.385 348.803 344.346 343.987C350.718 338.754 356.853 338.229 360.896 340.653C365.025 343.582 371.449 353.9 371.449 353.9C371.449 353.9 368.939 357.439 368.713 365.258C368.487 373.077 379.19 381.111 391.021 374.43C403.356 367.664 403.743 357.743 398.424 350.867C393.104 343.992 382.69 346.801 382.69 346.801C382.69 346.801 373.361 322.453 360.576 320.478C348.296 318.418 342.514 324.07 332.539 332.51C322.649 341.454 318.562 350.967 318.562 350.967Z" fill="#AB6BB9"/>
<path d="M232.961 494.166C235.438 505.675 237.301 534.923 229.503 540.918C221.116 546.495 205.478 546.043 200.458 553.121C195.942 560.114 206.333 575.463 224.416 578.092C242.918 580.132 257.474 558.982 257.528 550.155C257.497 540.824 250.774 516.552 252.255 506.963C253.736 497.375 247.72 483.356 242.594 483.709C236.877 483.645 232.961 494.166 232.961 494.166Z" fill="#AB6BB9"/>
<path d="M242.509 483.202C248.042 503.528 247.448 551.867 241.162 557.605C227.669 569.756 212.847 561.903 200.738 560.851C203.451 567.652 212.052 575.525 224.836 577.499C243.338 579.539 257.894 558.389 257.948 549.562C257.917 540.231 251.194 515.959 252.675 506.37C253.148 496.953 247.636 482.849 242.509 483.202Z" fill="#783886"/>
<path d="M232.963 494.164C233.391 496.684 234.688 507.356 234.784 510.971C240.093 514.736 246.808 511.519 251.945 514.275C251.43 511.251 251.42 508.14 251.667 506.542C252.407 501.748 251.464 496.203 249.094 491.419L237.725 485.573C235.13 488.608 232.963 494.164 232.963 494.164Z" fill="#853596"/>
<path d="M227.071 541.851C219.434 545.743 208.086 546.118 202.637 550.676C203.398 552.102 205.254 553.861 208.536 554.859C216.698 557.101 226.2 558.078 231.231 554.11C235.843 550.732 231.789 545.197 227.071 541.851Z" fill="#C680D5"/>
<path d="M228.506 544.2C228.934 546.72 226.253 549.251 222.724 549.852C219.195 550.452 215.828 548.95 215.399 546.43C214.97 543.909 217.652 541.378 221.18 540.778C224.709 540.177 228.077 541.679 228.506 544.2Z" fill="#9252A1"/>
<path d="M235.458 536.276C238.654 536.769 242.258 533.563 242.999 528.769C243.739 523.974 241.959 519.609 238.763 519.115C235.567 518.622 231.963 521.828 231.222 526.623C230.482 531.417 232.262 535.782 235.458 536.276Z" fill="#AB6BB9"/>
<path d="M239.943 519.951C241.627 520.702 242.388 522.128 243.321 524.563C241.809 524.82 239.289 525.249 237.358 526.096L236.007 524.251L239.943 519.951Z" fill="#C680D5"/>
<path d="M234.774 532.245C236.372 532.492 238.635 530.551 238.796 528.449C239.375 525.757 238.442 523.322 236.34 523.161C234.742 522.914 232.479 524.855 232.318 526.958C231.738 529.65 233.175 531.999 234.774 532.245Z" fill="#783886"/>
<path d="M234.775 532.243C233.177 531.996 232.244 529.561 232.319 526.955C232.652 525.861 232.984 524.767 233.907 524.092C234.925 527.03 236.866 529.294 238.132 530.635C237.295 531.814 235.869 532.576 234.775 532.243Z" fill="#5F206E"/>
<path d="M233.635 543.844C234.321 547.877 230.384 552.178 224.335 553.207C218.79 554.15 213.148 551.479 212.462 547.446C211.776 543.414 215.713 539.113 221.762 538.084C227.811 537.055 232.949 539.812 233.635 543.844Z" fill="#AB6BB9"/>
<path d="M213.135 548.369C213.983 550.299 215.838 552.058 218.53 552.638C218.691 550.536 219.185 547.339 220.44 545.57L218.08 543.896L213.135 548.369Z" fill="#C680D5"/>
<path d="M228.667 542.097C229.01 544.114 226.833 546.559 223.808 547.074C220.783 547.588 217.92 546 217.577 543.984C217.234 541.968 219.411 539.522 222.436 539.008C225.46 538.493 228.324 540.081 228.667 542.097Z" fill="#783886"/>
<path d="M228.67 542.097C228.327 540.08 225.464 538.493 222.439 539.007C220.927 539.264 220.004 539.94 219.082 540.616C222.364 541.613 225.399 544.209 226.75 546.054C227.672 545.379 228.927 543.609 228.67 542.097Z" fill="#5F206E"/>
<path d="M270.243 505.98C266.863 525.747 271.59 556.583 265.905 565.85C260.724 575.03 241.622 569.462 237.384 584.188C234.809 593.444 252.999 602.798 274.247 596.59C284.157 593.866 287.408 585.533 290.744 577.703C297.084 563.139 288.058 503.987 288.058 503.987C288.058 503.987 282.245 500.307 276.035 503.439C270.243 505.98 270.243 505.98 270.243 505.98Z" fill="#AB6BB9"/>
<path d="M318.562 350.967C322.53 355.998 341.449 357.448 341.449 357.448C341.449 357.448 337.385 348.803 344.346 343.987C350.718 338.754 356.853 338.229 360.896 340.653C365.025 343.582 371.449 353.9 371.449 353.9C371.449 353.9 368.939 357.439 368.713 365.258C368.487 373.077 379.19 381.111 391.021 374.43C403.356 367.664 403.743 357.743 398.424 350.867C393.104 343.992 386.38 344.098 386.38 344.098C386.38 344.098 373.865 322.367 361.08 320.393C348.8 318.332 343.018 323.984 333.043 332.424C322.649 341.454 318.562 350.967 318.562 350.967Z" fill="#AB6BB9"/>
<path d="M398.005 351.458C397.415 351.04 397.33 350.536 396.74 350.117C400.482 362.967 383.878 375.128 374.944 368.349C369.635 364.584 378.249 351.188 378.249 351.188C378.249 351.188 363.954 325.092 347.672 333.049C340.035 336.942 332.515 350.67 332.451 356.386C337.245 357.127 341.535 357.953 341.535 357.953C341.535 357.953 337.471 349.308 344.432 344.493C350.803 339.259 356.938 338.734 360.982 341.159C365.111 344.087 371.535 354.405 371.535 354.405C371.535 354.405 368.52 358.03 368.799 365.763C369.719 389.467 415.229 373.426 398.005 351.458Z" fill="#9A48AC"/>
<path d="M210.571 435.732C212.736 454.556 214.526 462.032 224.424 480.577C236.102 503.488 274.937 527.484 332.138 513.085C399.838 496.38 400.144 437.197 395.952 415.606C391.76 394.015 345.646 330.28 277.452 350.181C214.298 369.224 209.778 424.975 210.571 435.732Z" fill="#D9A5E5"/>
<path d="M274.081 498.063C275.271 502.01 273.351 505.968 269.404 507.158C265.457 508.348 261.499 506.428 260.309 502.481C259.119 498.534 261.039 494.576 264.986 493.386C268.344 491.777 272.387 494.202 274.081 498.063Z" fill="#AB6BB9"/>
<path d="M317.721 400.906C323.329 418.625 323.371 431.067 308.354 440.365C280.166 457.609 266.129 433.025 266.129 433.025L317.721 400.906Z" fill="#AB6BB9"/>
<path d="M329.38 393.216C327.395 402.89 340.736 420.331 351.665 420.546C377.224 421.385 382.363 399.763 382.363 399.763L329.38 393.216Z" fill="#AB6BB9"/>
<path d="M211.024 420.094C207.675 449.192 217.584 470.847 223.589 481.756C235.267 504.666 274.102 528.663 331.303 514.263C399.004 497.559 402.591 439.373 396.383 418.126C395.107 413.675 391.204 402.927 391.461 404.44C393.808 427.382 372.729 458.977 342.6 473.958C296.189 496.896 232.695 489.543 230.126 425.662C228.831 390.611 244.653 370.802 276.617 351.36C226.731 366.071 212.903 403.695 211.024 420.094Z" fill="#C680D5"/>
<path d="M253.904 422.137C259.169 437.84 276.694 449.382 301.878 438.873C324.124 429.383 320.865 410.227 317.809 401.411C314.667 392.09 299.92 381.631 279.424 386.156C258.927 390.68 249.401 407.861 253.904 422.137Z" fill="#2DB96A"/>
<path d="M328.887 396.414C332.201 406.743 349.231 421.481 366.865 415.369C385.002 409.172 385.529 390.927 379.524 380.019C373.604 369.615 361.388 361.838 345.182 367.188C330.069 372.872 325.66 386.589 328.887 396.414Z" fill="#2DB96A"/>
<path d="M239.889 379.396C242.42 382.077 246.646 388.62 254.873 385.146C263.099 381.672 261.909 377.725 261.909 377.725C261.909 377.725 250.873 370.784 257.385 357.228C261.558 348.219 265.58 344.422 265.58 344.422C265.58 344.422 280.038 344.037 284.458 333.43C288.792 322.319 281.404 300.235 261.411 304.673C245.956 308.34 244.893 317.339 243.316 323.312C241.739 329.286 250.018 341.364 250.018 341.364C250.018 341.364 241.801 347.949 239.816 357.623C237.831 367.297 239.889 379.396 239.889 379.396Z" fill="#AC69B9"/>
<path d="M270.456 370.043C271.818 374.999 292.24 373.08 302.932 378.004C313.625 382.928 316.424 390.233 321.294 388.367C326.077 385.997 334.681 369.491 340.805 365.856C347.016 362.724 351.799 360.354 344.56 357.436C337.825 354.433 320.654 348.017 302.173 352.199C283.779 356.884 268.837 363.576 270.456 370.043Z" fill="#E5C0EC"/>
<path d="M247.51 421.149C253.56 420.12 252.185 436.433 260.862 441.7C267.769 445.712 275.502 445.434 275.512 448.544C275.523 451.655 261.408 454.056 254.158 448.027C245.31 441.752 241.375 421.674 247.51 421.149Z" fill="#AC69B9"/>
<path d="M245.603 428.218C250.644 427.36 249.174 440.059 256.166 444.575C261.389 447.836 268.114 447.73 268.039 450.336C267.964 452.942 256.788 454.325 250.889 450.141C243.725 444.617 240.562 429.076 245.603 428.218Z" fill="#C680D5"/>
<path d="M340.66 422.939C336.209 424.215 336.734 430.35 339.018 434.63C342.15 440.84 347.705 443.007 351.309 439.801C355.836 435.919 349.144 420.977 340.66 422.939Z" fill="#AB6BB9"/>
<path d="M304.295 507.967C308.455 520.227 308.602 563.772 309.202 567.301C309.803 570.83 300.235 575.57 297.585 587.432C295.096 597.192 308.416 608.412 320.246 601.731C332.163 595.554 338.009 584.186 337.474 574.94C336.938 565.695 328.406 503.347 328.406 503.347L304.209 507.463L304.295 507.967Z" fill="#AB6BB9"/>
<path d="M338.07 502.221L344.961 576.26C344.961 576.26 359.728 592.939 378.713 588.672C397.193 584.491 395.714 569.7 385.193 565.784C374.671 561.869 371.894 560.785 367.497 553.234C363.1 545.683 360.659 494.747 359.898 493.321C359.222 492.398 338.07 502.221 338.07 502.221Z" fill="#AB6BB9"/>
<path d="M362.324 489.275C362.324 489.275 373.098 543.461 385.399 551.742C397.701 560.023 413.403 554.758 424.377 543.036C435.35 531.314 429.345 520.406 420.689 521.36C417.16 521.96 413.491 530.883 403.817 528.898C394.143 526.913 375.721 473.509 375.721 473.509L362.324 489.275Z" fill="#AB6BB9"/>
<path d="M362.666 491.295C364.713 500.284 374.363 544.806 385.398 551.746C391.211 555.426 397.346 554.901 404.157 555.298C386.032 540.227 371.106 501.271 371.064 488.829L362.666 491.295Z" fill="#9252A1"/>
<path d="M269.585 410.65C267.771 421.332 283.965 437.25 299.411 430.473C320.144 421.24 310.664 402.105 305.012 396.324C295.564 386.52 273.137 391.891 269.585 410.65Z" fill="#55EE9B"/>
<path d="M340.107 383.093C337.778 390.751 343.472 408.974 359.604 406.23C375.231 403.571 382.987 385.135 367.146 374.343C359.478 368.905 344.098 369.965 340.107 383.093Z" fill="#55EE9B"/>
<path d="M297.953 397.526C297.771 393.407 301.214 392.303 305.086 393.719C308.453 395.221 308.217 399.93 305.782 400.862C301.921 402.557 298.382 400.047 297.953 397.526Z" fill="white"/>
<path d="M289.073 406.298C286.66 413.451 293.416 422.676 302.822 420.038C312.733 417.315 311.854 406.053 306.288 400.775C301.398 396.42 291.402 398.64 289.073 406.298Z" fill="#1B7E46"/>
<path d="M292.947 407.714C291.617 412.09 295.756 418.129 301.72 416.596C308.187 414.977 307.405 407.33 303.78 404.315C300.659 401.215 294.192 402.834 292.947 407.714Z" fill="#0B4A26"/>
<path d="M338.54 392.178C338.722 396.296 342.786 404.941 352.193 402.304C361.095 399.752 358.705 388.747 354.49 385.315C347.24 379.286 338.434 385.453 338.54 392.178Z" fill="#1B7E46"/>
<path d="M341.734 392.67C341.658 395.276 344.2 401.068 350.582 398.945C356.041 397.497 354.755 389.936 351.805 387.844C347.001 383.993 341.466 388.047 341.734 392.67Z" fill="#0B4D28"/>
<path d="M258.238 411.026C263.193 409.664 262.968 417.483 267.107 423.522C271.247 429.561 283.033 434.817 279.344 437.52C275.15 440.308 266.484 438.152 260.575 430.858C254.161 423.65 252.36 413.063 258.238 411.026Z" fill="#1B8046"/>
<path d="M314.58 415.964C312.499 422.024 305.548 429.949 302.276 432.062C299.091 434.678 311.2 435.731 315.544 427.73C320.479 420.147 314.58 415.964 314.58 415.964Z" fill="#1B8046"/>
<path d="M332.737 391.609C338.615 389.572 337.562 401.681 344.802 404.599C352.545 407.431 353.156 414.07 343.396 411.581C334.14 409.006 327.363 393.561 332.737 391.609Z" fill="#1B8046"/>
<path d="M377.712 390.7C374.204 397.521 370.857 402.24 367.082 404.438C363.306 406.637 361.986 414.123 371.05 409.469C380.617 404.729 377.712 390.7 377.712 390.7Z" fill="#1B8046"/>
<path d="M275.429 423.661C277.016 420.797 282.39 418.846 286.015 421.86C290.144 424.788 289.242 431.685 282.099 432.381C276.05 433.41 273.004 427.704 275.429 423.661Z" fill="white"/>
<path d="M347.431 410.894C350.809 415.506 359.122 412.536 358.35 407.999C358.34 404.888 355.476 403.301 350.939 404.073C347.41 404.673 346.08 409.049 347.431 410.894Z" fill="white"/>
<path d="M359.583 375.63C357.245 380.178 362.468 383.439 366.415 382.249C369.858 381.144 370.094 376.436 368.239 374.677C365.879 373.003 361.171 372.767 359.583 375.63Z" fill="white"/>
<path d="M297.338 363.398C296.779 372.311 308.384 373.449 318.37 368.119C326.511 364.141 325.643 355.989 318.661 354.584C305.876 352.609 297.403 357.681 297.338 363.398Z" fill="#F9E5FE"/>
<path d="M356.286 569.663C354.914 561.598 349.545 514.791 350.093 502.768L337.994 504.826L344.96 576.258C344.96 576.258 354.665 587.575 368.458 589.378C363.643 582.417 357.058 574.2 356.286 569.663Z" fill="#9252A1"/>
<path d="M308.506 560.156C308.592 560.66 308.538 569.487 307.53 569.658C312.389 564.682 317.097 564.919 317.344 563.321C317.752 559.62 315.459 527.851 314.313 511.967L301.71 514.111C305.216 531.669 308.496 557.045 308.506 560.156Z" fill="#9252A1"/>
<path d="M331.431 527.209C330.563 519.058 329.362 512 328.504 506.959L301.025 510.078C302.387 515.033 302.826 520.664 304.542 530.747C313.166 520.461 326.551 525.965 331.431 527.209Z" fill="#853596"/>
<path d="M338.5 504.741C338.768 509.364 340.15 520.54 340.15 520.54C340.15 520.54 345.342 514.47 350.716 512.518C356.175 511.071 361.645 512.733 361.645 512.733L360.509 499.959L338.5 504.741Z" fill="#853596"/>
<path d="M267.406 562.479C271.696 563.305 281.209 567.392 281.209 567.392C281.209 567.392 281.209 567.392 281.36 562.18C281.51 556.967 281.481 523.257 282.318 522.077L269.201 521.196C268.749 536.834 269.562 553.813 267.406 562.479Z" fill="#9252A1"/>
<path d="M351.535 431.982C350.173 427.026 345.701 422.081 340.156 423.025C337.635 423.454 336.97 425.642 336.895 428.248C343.201 428.731 348.081 429.976 351.535 431.982Z" fill="#894796"/>
<path d="M377.071 475.355L371.536 479.409L362.322 489.276C362.322 489.276 363.609 496.837 366.332 506.748C370.108 504.55 376.983 499.23 383.012 491.98C380.127 484.172 378.004 477.79 377.071 475.355Z" fill="#853596"/>
<path d="M291.251 528.858C290.126 519.194 289.258 511.042 288.572 507.009L271.25 505.807C270.242 505.978 270.328 506.482 270.328 506.482C269.255 512.37 269.361 519.095 268.964 525.906C275.517 524.791 284.687 526.862 291.251 528.858Z" fill="#853596"/>
<path d="M314.356 500.03C276.634 506.966 229.508 492.161 214.859 460.938C216.811 466.312 219.524 473.112 223.588 481.757C238.998 514.407 275.023 527.988 332.224 513.589C392.953 498.589 407.854 455.077 396.821 423.758C395.007 434.44 382.325 487.949 314.356 500.03Z" fill="#9A48AC"/>
<path d="M264.767 327.444C256.787 329.32 248.958 325.983 243.735 322.722C242.158 328.696 249.933 340.86 249.933 340.86C249.933 340.86 252.025 337.91 249.933 340.86C253.129 341.353 253.88 339.67 259.521 342.341C262.299 343.424 262.299 343.424 264.154 345.183C264.991 344.004 265.495 343.918 265.495 343.918C265.495 343.918 280.039 344.037 284.373 332.926C286.54 327.37 285.662 316.108 280.6 310.745C282.133 316.709 276.19 324.463 264.767 327.444Z" fill="#9A48AC"/>
<path d="M271.122 343.477L264.034 335.347C264.034 335.347 243.493 351.809 248.929 368.52C252.242 378.848 256.543 382.785 259.149 382.86C261.917 380.834 262.41 377.637 262.41 377.637C262.41 377.637 251.374 370.697 257.886 357.141C262.059 348.132 266.081 344.335 266.081 344.335C266.081 344.335 268.098 343.992 271.122 343.477Z" fill="#9A48AC"/>
<path d="M260.378 323.002C274.836 322.617 277.562 308.149 269.647 304.308C268.638 304.48 268.049 304.061 267.04 304.233C254.266 305.369 250.168 311.771 247.916 316.823C249.61 320.684 255.251 323.355 260.378 323.002Z" fill="#D9A5E5"/>
<path d="M265.132 311.302C265.647 314.326 262.965 316.857 259.437 317.457C255.908 318.058 252.454 316.052 252.026 313.531C251.511 310.507 254.193 307.976 257.721 307.375C261.25 306.775 264.704 308.781 265.132 311.302Z" fill="#F9E5FE"/>
<path d="M360.664 320.983C348.384 318.922 342.602 324.574 332.627 333.014C327.596 336.982 324.163 341.197 322.158 344.651C324.517 346.324 327.799 347.322 330.899 344.201C335.758 339.225 343.953 326.419 353.789 326.302C363.624 326.185 367.27 335.42 372.654 336.579C373.748 336.911 375.26 336.654 376.687 335.893C372.966 329.264 367.056 321.97 360.664 320.983Z" fill="#C680D5"/>
<path d="M246.08 345.662C243.484 348.697 241.06 352.74 239.815 357.62C237.83 367.294 239.792 375.778 239.792 375.778C242.238 377.956 242.419 382.075 248.05 381.635C247.622 379.115 246.613 379.286 245.927 375.253C244.48 369.794 244.202 362.061 246.616 354.907C248.611 348.343 248.354 346.831 246.08 345.662Z" fill="#D9A5E5"/>
<path d="M377.511 355.982C374.411 359.103 376.363 364.476 381.908 363.533C387.453 362.59 394.328 357.27 392.044 352.991C389.427 349.805 381.448 351.681 377.511 355.982Z" fill="#C680D5"/>
<path d="M392.227 433.357C406.16 426.838 415.203 415.963 412.705 398.233C410.122 380 398.649 343.049 405.418 331.005C412.186 318.961 438.207 307.273 445.865 309.601C453.523 311.929 459.786 324.349 450.239 335.31C441.282 346.689 435.963 339.813 432.949 343.438C430.771 345.884 424.132 346.494 426.973 366.24C430.403 386.405 436.622 410.763 432.576 432.717C428.027 454.758 393.693 469.417 391.666 466.649C380.61 453.488 392.227 433.357 392.227 433.357Z" fill="#C680D5"/>
<path d="M402.96 426.341C402.96 426.341 404.075 432.895 411.208 429.088C415.906 426.214 419.167 420.991 419.232 415.274C419.297 409.557 416.09 405.953 413.398 405.374C412.839 414.287 408.828 421.194 402.96 426.341Z" fill="#D9A5E5"/>
<path d="M444.465 319.691C441.536 323.82 434.736 326.533 427.089 327.315C419.442 328.098 416.406 325.502 416.986 322.81C417.48 319.614 433.515 313.255 437.719 313.577C442.256 312.805 446.138 317.332 444.465 319.691Z" fill="#D9A5E5"/>
<path d="M454.044 318.062C449.913 339.512 421.641 331.873 419.968 334.233C410.839 344.603 421.562 383.238 426.354 408.357C433.118 445.071 402.69 446.098 398.4 445.272C394.11 444.446 392.587 441.593 394.239 433.012C391.89 434.449 395.248 432.841 392.309 433.859C392.309 433.859 383.867 448.263 388.027 460.523C388.198 461.531 391.073 466.229 391.834 467.656C391.834 467.656 432.3 476.851 435.457 440.524C437.4 418.408 434.453 391.937 430.508 368.748C427.163 349.088 430.939 346.89 433.116 344.445C433.116 344.445 442.468 350.634 451.511 339.759C457.454 332.005 455.996 323.435 454.044 318.062Z" fill="#9A48AC"/>
<path d="M424.603 462.082C439.362 451.272 436.329 424.297 436.49 422.195C429.997 466.351 392.652 460.256 387.857 459.515C388.79 461.95 389.723 464.385 391.664 466.648C394.195 469.33 406.658 475.508 424.603 462.082Z" fill="#7A278C"/>
<path d="M336.789 570.906C331.618 583.197 319.283 589.964 313.824 591.412C302.487 594.896 297.854 592.054 296.739 585.5C296.825 586.004 295.752 591.893 295.837 592.397C297.048 602.565 307.409 608.582 319.24 601.902C331.156 595.725 337.002 584.356 336.467 575.111C337.389 574.435 337.132 572.923 336.789 570.906Z" fill="#783886"/>
<path d="M377.498 578.504C366.655 578.793 353.946 574.212 344.336 566.51L345.461 576.174C345.461 576.174 360.229 592.853 379.214 588.586C388.706 586.452 393.061 581.562 393.716 576.264C388.256 577.711 382.711 578.655 377.498 578.504Z" fill="#783886"/>
<path d="M414.377 545.257C402.621 549.332 396.572 550.361 378.725 543.023C380.924 546.799 383.712 550.992 385.986 552.162C398.287 560.443 409.453 555.95 417.594 551.971C429.092 546.384 430.734 534.694 430.552 530.575C429.307 535.455 425.124 541.354 414.377 545.257Z" fill="#783886"/>
<path d="M305.951 575.634C309.888 571.334 318.779 565.671 325.278 573.383C331.777 581.096 311.72 591.251 305.403 587.657C300.18 584.396 302.014 579.935 305.951 575.634Z" fill="#C680D5"/>
<path d="M392.698 573.323C391.68 570.384 389.063 567.199 385.277 566.287C378.123 563.873 374.251 562.457 371.635 559.271C362.99 563.335 364.029 572.495 364.029 572.495C364.029 572.495 375.902 578.255 386.402 575.95C388.837 575.017 390.768 574.17 392.698 573.323Z" fill="#C680D5"/>
<path d="M419.549 532.966C423.41 531.272 429.706 528.645 427.594 525.373C426.832 523.947 423.55 522.949 420.772 521.865C417.329 522.97 408.448 531.743 404.405 529.318C409.628 532.579 412.749 535.679 419.549 532.966Z" fill="#C680D5"/>
<path d="M269.849 589.038C255.402 592.534 244.87 585.508 238.049 582C237.631 582.59 237.212 583.179 236.794 583.769C232.031 592.36 250.06 603.816 270.975 598.702C283.91 595.464 294.036 581.812 291.635 567.697C289.811 575.269 286.313 585.2 269.849 589.038Z" fill="#783886"/>
<path d="M279.3 574.461C279.622 570.257 274.227 565.988 266.655 564.164L266.237 564.754C262.557 570.567 253.226 570.598 245.922 573.397C246.436 576.421 248.806 581.205 254.78 582.782C263.532 585.443 278.645 579.76 279.3 574.461Z" fill="#C680D5"/>
<path d="M332.809 562.765C328.776 563.452 324.98 559.429 324.541 553.798C324.187 548.671 326.944 543.534 331.063 543.352C335.096 542.666 338.892 546.689 339.331 552.319C339.685 557.446 336.842 562.079 332.809 562.765Z" fill="#AB6BB9"/>
<path d="M330.057 543.525C328.126 544.372 326.281 545.724 325.702 548.416C327.804 548.577 330.582 549.66 332.77 550.325L334.529 548.47L330.057 543.525Z" fill="#C680D5"/>
<path d="M334.56 557.799C332.544 558.142 330.099 555.964 330.088 552.854C329.574 549.829 331.247 547.47 333.768 547.041C335.784 546.698 338.229 548.875 338.24 551.986C338.754 555.011 337.167 557.874 334.56 557.799Z" fill="#783886"/>
<path d="M334.561 557.796C336.577 557.453 338.251 555.093 338.24 551.983C337.983 550.47 337.811 549.462 336.632 548.626C335.13 551.993 332.362 554.02 330.518 555.371C331.869 557.216 333.049 558.053 334.561 557.796Z" fill="#5F206E"/>
<path d="M362.936 547.788C359.826 547.798 356.705 544.698 356.609 541.084C356.427 536.965 358.937 533.426 362.047 533.415C365.158 533.405 368.278 536.505 368.375 540.119C369.061 544.152 366.551 547.691 362.936 547.788Z" fill="#C680D5"/>
<path d="M361.545 533.499C360.032 533.757 358.691 535.022 357.941 536.706C359.539 536.953 361.727 537.618 363.41 538.369L364.751 537.104L361.545 533.499Z" fill="#D9A5E5"/>
<path d="M364.943 544.335C362.927 544.678 361.576 542.833 361.147 540.312C360.804 538.296 362.477 535.936 364.075 536.183C366.092 535.84 367.443 537.685 367.872 540.205C367.711 542.308 366.456 544.077 364.943 544.335Z" fill="#783886"/>
<path d="M364.942 544.333C366.959 543.99 368.214 542.221 367.871 540.204C367.699 539.196 367.528 538.188 366.938 537.77C365.768 540.043 363.505 541.984 362.079 542.746C362.25 543.754 363.43 544.591 364.942 544.333Z" fill="#5F206E"/>
<path d="M270.931 561.882C272.786 563.641 274.062 568.093 272.056 571.546C270.468 574.41 266.607 576.104 262.992 576.2C258.874 576.382 257.351 573.529 256.675 572.607C256 571.684 263.99 572.918 267.176 570.301C269.858 567.77 270.931 561.882 270.931 561.882Z" fill="#9252A1"/>
<path d="M270.931 561.881C272.958 564.649 271.713 569.529 267.519 572.317C263.325 575.105 258.702 575.373 256.676 572.606C254.649 569.838 255.893 564.958 260.087 562.17C263.777 559.468 268.904 559.114 270.931 561.881Z" fill="#C680D5"/>
<path d="M256.848 573.615C258.114 574.956 260.216 575.117 262.736 574.688C261.889 572.757 261.46 570.237 261.203 568.725L258.597 568.649L256.848 573.615Z" fill="#D9A5E5"/>
<path d="M266.478 563.159C267.744 564.5 266.66 567.278 264.397 569.219C262.048 570.656 259.528 571.085 258.176 569.24C256.911 567.899 257.994 565.121 260.258 563.18C262.521 561.239 265.127 561.314 266.478 563.159Z" fill="#783886"/>
<path d="M266.479 563.157C265.214 561.816 262.607 561.741 260.258 563.178C259.336 563.853 258.499 565.033 258.081 565.623C261.105 565.108 264.387 566.106 266.071 566.857C266.908 565.677 267.155 564.079 266.479 563.157Z" fill="#5F206E"/>
<path d="M367.258 557.939C366.089 560.213 365.102 566.605 370.153 568.858C373.017 570.446 375.623 570.521 378.562 569.502C382.509 568.312 382.413 564.698 382.745 563.604C383.078 562.51 376.449 566.231 373.082 564.729C370.218 563.142 367.258 557.939 367.258 557.939Z" fill="#9252A1"/>
<path d="M367.26 557.939C366.262 561.221 369.051 565.415 373.512 567.25C377.974 569.084 381.835 567.39 382.833 564.108C383.831 560.826 381.043 556.632 376.581 554.798C372.623 552.877 368.258 554.658 367.26 557.939Z" fill="#C680D5"/>
<path d="M382.412 564.697C381.661 566.381 380.235 567.142 377.714 567.571C377.371 565.555 377.447 562.948 377.104 560.932L379.034 560.085L382.412 564.697Z" fill="#D9A5E5"/>
<path d="M371.295 557.254C370.629 559.442 372.485 561.201 374.758 562.37C377.032 563.539 379.467 562.606 380.132 560.418C380.797 558.23 378.942 556.471 376.668 555.302C373.976 554.723 372.045 555.57 371.295 557.254Z" fill="#783886"/>
<path d="M371.294 557.25C371.96 555.062 373.976 554.719 376.668 555.298C377.762 555.631 378.438 556.554 379.113 557.476C376.593 557.905 374.33 559.846 372.989 561.111C371.809 560.275 371.048 558.848 371.294 557.25Z" fill="#5F206E"/>
<path d="M317.934 563.741C320.293 565.414 321.483 569.361 320.486 572.643C319.488 575.925 316.806 578.456 313.278 579.056C309.245 579.743 306.714 577.061 306.038 576.139C305.362 575.216 313.181 575.442 315.187 571.989C317.783 568.954 317.934 563.741 317.934 563.741Z" fill="#9252A1"/>
<path d="M317.931 563.742C320.377 565.919 319.636 570.713 316.622 574.338C313.608 577.963 308.567 578.821 306.036 576.139C303.59 573.962 304.331 569.167 307.345 565.543C310.949 562.336 315.486 561.564 317.931 563.742Z" fill="#C680D5"/>
<path d="M307.129 576.473C308.813 577.224 310.411 577.47 312.846 576.538C312.084 575.111 311.151 572.676 310.304 570.746L308.288 571.089L307.129 576.473Z" fill="#D9A5E5"/>
<path d="M313.984 564.933C315.25 566.274 315.174 568.88 312.911 570.821C311.152 572.676 308.632 573.105 307.366 571.764C306.101 570.424 306.176 567.817 308.439 565.876C310.284 564.525 312.719 563.592 313.984 564.933Z" fill="#783886"/>
<path d="M313.985 564.932C312.72 563.591 310.199 564.02 308.44 565.875C307.517 566.551 307.185 567.645 306.852 568.739C309.791 567.72 312.483 568.299 314.585 568.461C314.918 567.367 314.661 565.854 313.985 564.932Z" fill="#5F206E"/>
<path d="M273.672 550.523C277.201 549.923 279.625 545.879 278.767 540.838C277.91 535.797 274.703 532.193 271.089 532.289C267.56 532.89 265.135 536.933 265.993 541.974C266.851 547.015 270.143 551.123 273.672 550.523Z" fill="#AB6BB9"/>
<path d="M272.181 532.62C274.283 532.781 275.549 534.122 276.9 535.967C274.969 536.814 272.62 538.251 271.194 539.013L269.338 537.253L272.181 532.62Z" fill="#C680D5"/>
<path d="M270.97 546.836C272.987 546.493 274.156 544.219 273.642 541.195C273.213 538.674 271.272 536.411 269.759 536.668C267.743 537.011 266.574 539.285 267.088 542.31C267.013 544.916 268.954 547.179 270.97 546.836Z" fill="#783886"/>
<path d="M270.969 546.833C268.953 547.176 267.012 544.913 267.087 542.307C266.915 541.299 267.162 539.701 267.581 539.111C269.607 541.878 271.967 543.551 274.155 544.217C273.318 545.396 272.481 546.576 270.969 546.833Z" fill="#5F206E"/>
<path d="M310.005 556.791C313.534 556.191 316.377 551.558 315.434 546.013C314.994 540.382 311.198 536.359 307.165 537.045C303.636 537.646 300.793 542.279 301.737 547.824C302.68 553.369 305.973 557.477 310.005 556.791Z" fill="#AB6BB9"/>
<path d="M308.761 537.294C310.863 537.455 312.633 538.71 314.07 541.059C312.139 541.907 309.79 543.344 307.945 544.695L306.09 542.936L308.761 537.294Z" fill="#C680D5"/>
<path d="M307.216 552.597C309.233 552.254 310.906 549.895 310.392 546.87C309.877 543.845 307.936 541.582 305.92 541.925C303.903 542.268 302.23 544.628 302.744 547.652C303.259 550.677 305.2 552.94 307.216 552.597Z" fill="#783886"/>
<path d="M307.217 552.599C305.201 552.942 303.259 550.678 302.745 547.654C302.488 546.141 302.82 545.047 303.153 543.953C305.18 546.721 308.043 548.308 309.813 549.564C309.566 551.162 308.729 552.341 307.217 552.599Z" fill="#5F206E"/>
<path d="M404.405 529.318C410.026 525.768 413.555 525.168 415.41 526.927C418.445 529.523 414.509 533.824 412.406 533.663C409.8 533.587 404.405 529.318 404.405 529.318Z" fill="#853596"/>
<path d="M390.635 509.357C392.147 509.1 396.437 509.926 397.038 513.455C398.142 516.898 396.05 519.847 396.05 519.847L390.635 509.357Z" fill="#853596"/>
<path d="M293.433 453.276C294.28 455.207 293.025 456.976 291.009 457.319C289.078 458.166 287.309 456.911 286.966 454.895C286.118 452.964 287.373 451.195 289.39 450.852C290.902 450.594 293.176 451.764 293.433 453.276Z" fill="#C680D5"/>
<path d="M305.609 448.611C305.867 450.123 305.116 451.807 303.185 452.654C301.254 453.501 299.485 452.246 298.723 450.82C298.466 449.307 299.217 447.624 301.148 446.776C303.164 446.433 305.352 447.099 305.609 448.611Z" fill="#AB6BB9"/>
<path d="M375.444 417.021C375.701 418.533 374.95 420.217 372.934 420.56C371.422 420.817 369.234 420.152 369.062 419.144C368.805 417.632 369.556 415.948 371.572 415.605C373.503 414.758 375.187 415.509 375.444 417.021Z" fill="#AB6BB9"/>
<path d="M310.84 454.983C311.687 456.914 309.928 458.769 307.998 459.616C306.067 460.463 303.289 459.38 302.946 457.363C302.099 455.433 303.858 453.577 305.789 452.73C308.309 452.301 310.583 453.471 310.84 454.983Z" fill="#C680D5"/>
<path d="M331.728 452.115C332.632 454.175 330.755 456.155 328.695 457.059C326.634 457.963 324.208 456.715 323.304 454.655C322.4 452.595 324.277 450.615 326.338 449.711C328.936 448.716 331.362 449.963 331.728 452.115Z" fill="#C680D5"/>
<path d="M385.293 420.011C385.55 421.523 384.209 422.789 382.782 423.55C380.766 423.893 379.586 423.056 379.329 421.544C379.072 420.032 380.413 418.766 381.839 418.005C383.351 417.748 385.035 418.499 385.293 420.011Z" fill="#C680D5"/>
<path d="M364.794 424.539C365.051 426.051 364.3 427.735 362.284 428.078C360.771 428.335 358.669 428.174 358.412 426.662C358.155 425.149 358.906 423.465 360.922 423.122C362.348 422.361 364.536 423.026 364.794 424.539Z" fill="#C680D5"/>
<path d="M377.159 427.103C377.416 428.615 376.665 430.299 374.649 430.642C373.137 430.899 371.034 430.738 370.777 429.226C370.52 427.714 371.271 426.03 373.287 425.687C375.218 424.84 376.902 425.591 377.159 427.103Z" fill="#C680D5"/>
<g clip-path="url(#clip0_649:6046)">
<path d="M147.929 421.929L147.09 419.776C148.816 424.847 148.501 430.391 146.211 435.233C143.921 440.076 139.836 443.837 134.821 445.72C129.855 447.728 124.302 447.724 119.339 445.709C114.375 443.693 110.391 439.825 108.23 434.924L109.736 438.786C111.805 443.815 115.782 447.819 120.797 449.923C125.812 452.026 131.456 452.057 136.493 450.009C141.588 448.108 145.722 444.265 147.99 439.323C150.258 434.38 150.476 428.74 148.595 423.638L147.929 421.929Z" fill="#BD7B2A"/>
<path d="M138.504 449.107L136.832 444.817C135.521 445.486 134.148 446.021 132.73 446.416L134.402 450.705C135.82 450.311 137.194 449.775 138.504 449.107V449.107Z" fill="#E5A324"/>
<path d="M128.992 447.026C127.404 447.168 125.805 447.131 124.225 446.916L125.903 451.222C127.483 451.439 129.082 451.475 130.671 451.332L128.992 447.026Z" fill="#E5A324"/>
<path d="M143.433 439.429C142.416 440.656 141.264 441.766 139.998 442.736L141.664 447.008C142.935 446.045 144.088 444.935 145.099 443.701L143.433 439.429Z" fill="#E5A324"/>
<path d="M116.531 444.246L118.21 448.552C119.696 449.45 121.293 450.151 122.96 450.638L121.288 446.349C119.618 445.856 118.019 445.149 116.531 444.246Z" fill="#E5A324"/>
<path d="M147.291 432.256C146.803 433.922 146.102 435.519 145.205 437.006L146.877 441.295C147.775 439.809 148.476 438.212 148.963 436.545L147.291 432.256Z" fill="#E5A324"/>
<path d="M147.93 421.928L147.09 419.775C147.833 421.886 148.213 424.107 148.214 426.345C148.216 427.144 148.172 427.943 148.084 428.738L149.756 433.027L149.856 431.768L149.845 431.438C149.873 431.055 149.881 430.67 149.869 430.287V430.287C149.828 428.014 149.398 425.764 148.596 423.637L147.93 421.928Z" fill="#E5A324"/>
<path d="M108.23 434.924L109.736 438.786C110.587 440.934 111.806 442.917 113.339 444.645V444.645C113.592 444.94 113.855 445.212 114.118 445.483C114.382 445.755 114.284 445.655 114.351 445.727C114.662 446.019 114.956 446.318 115.277 446.587L113.565 442.195C112.967 441.672 112.397 441.119 111.856 440.538C110.342 438.883 109.116 436.985 108.23 434.924V434.924Z" fill="#E5A324"/>
<path d="M134.828 445.735C145.559 441.552 151.051 429.936 147.097 419.791C143.142 409.645 131.237 404.811 120.506 408.994C109.775 413.177 104.282 424.793 108.237 434.939C112.192 445.084 124.097 449.918 134.828 445.735Z" fill="#FAC525"/>
<path opacity="0.5" d="M137.521 409.569L120.791 446.288C116.968 445.163 113.579 442.9 111.077 439.799L125.886 407.648C129.869 407.163 133.906 407.83 137.521 409.569V409.569Z" fill="#F1E692"/>
<path opacity="0.5" d="M144.032 414.606C142.749 413.075 141.238 411.752 139.55 410.684L123.23 446.889C125.279 447.244 127.369 447.298 129.434 447.049L144.032 414.606Z" fill="#F1E692"/>
<path d="M133.017 441.087C141.058 437.953 145.175 429.253 142.214 421.655C139.252 414.058 130.333 410.44 122.292 413.575C114.251 416.709 110.133 425.409 113.095 433.006C116.056 440.604 124.976 444.222 133.017 441.087Z" fill="#E5A324"/>
<path d="M134.14 417.007L123.661 440.068C121.824 439.686 120.109 438.861 118.664 437.664C117.22 436.467 116.09 434.934 115.374 433.2C115.165 432.661 115.002 432.106 114.884 431.541L120.828 418.712C121.716 418.08 122.669 417.544 123.669 417.112C127.024 415.769 130.759 415.732 134.14 417.007V417.007Z" fill="#F0B41C"/>
<path d="M136.22 418.047L126.142 440.42C128.264 440.534 130.386 440.19 132.363 439.412L133.013 439.159L140.398 422.756C139.5 420.809 138.046 419.171 136.22 418.047V418.047Z" fill="#F0B41C"/>
<path d="M136.379 426.432C135.118 427.584 134.056 428.936 133.234 430.433C133.199 430.527 133.171 430.624 133.15 430.722L132.363 431.028L133.196 433.164C133.474 433.865 133.98 434.451 134.632 434.829C135.529 434.772 136.385 434.44 137.086 433.878C137.786 433.316 138.296 432.552 138.546 431.689C139.127 429.947 137.884 424.939 137.884 424.939L137.024 422.735L136.379 426.432Z" fill="#BD7B2A"/>
<path d="M131.292 426.563L130.412 424.308L129.9 424.508C128.129 422.659 126.229 420.94 124.213 419.362C123.821 421.881 123.608 424.424 123.577 426.972L123.064 427.172L123.904 429.325L123.957 429.462C124.373 430.583 125.144 431.539 126.151 432.183C127.159 432.827 128.349 433.126 129.542 433.033C130.505 432.298 131.199 431.265 131.515 430.095C131.832 428.926 131.753 427.684 131.292 426.563V426.563Z" fill="#BD7B2A"/>
<path d="M126.906 435.516L126.074 433.38L125.288 433.686C125.206 433.628 125.12 433.576 125.03 433.531C123.169 432.932 121.222 432.647 119.268 432.686L117.08 430.508L117.906 432.627C117.906 432.627 120.431 437.135 121.986 438.044C122.754 438.51 123.647 438.727 124.543 438.667C125.439 438.606 126.294 438.271 126.993 437.707C127.206 436.987 127.175 436.217 126.906 435.516V435.516Z" fill="#BD7B2A"/>
<path d="M130.412 424.308C130.903 425.44 131 426.704 130.687 427.897C130.374 429.09 129.669 430.143 128.685 430.887C127.457 431.005 126.225 430.707 125.187 430.04C124.149 429.374 123.365 428.378 122.961 427.213C122.055 424.889 123.356 417.216 123.356 417.216C123.356 417.216 129.506 421.984 130.412 424.308Z" fill="#F1E692"/>
<path d="M124.198 431.395C124.979 431.732 125.608 432.344 125.967 433.116C126.326 433.887 126.388 434.763 126.143 435.577C125.448 436.142 124.595 436.477 123.701 436.536C122.807 436.595 121.917 436.376 121.154 435.908C119.554 435.036 117.08 430.508 117.08 430.508C117.08 430.508 122.598 430.522 124.198 431.395Z" fill="#F1E692"/>
<path d="M132.367 428.21C132.02 428.987 131.971 429.864 132.229 430.675C132.487 431.485 133.034 432.173 133.766 432.606C134.664 432.554 135.523 432.224 136.224 431.661C136.926 431.099 137.434 430.331 137.68 429.466C138.267 427.741 137.024 422.734 137.024 422.734C137.024 422.734 132.955 426.485 132.367 428.21Z" fill="#F1E692"/>
<path d="M122.73 414.703C126.348 413.186 130.411 413.122 134.074 414.525C137.737 415.927 140.719 418.688 142.398 422.233C142.325 422.045 142.252 421.857 142.178 421.669C140.609 417.961 137.635 415.026 133.906 413.505C130.178 411.985 125.999 412.004 122.284 413.558C118.488 414.921 115.389 417.735 113.666 421.381C111.943 425.028 111.737 429.209 113.094 433.007C113.167 433.195 113.24 433.383 113.314 433.571C112.149 429.819 112.478 425.761 114.232 422.246C115.987 418.73 119.031 416.028 122.73 414.703V414.703Z" fill="#CA822A"/>
<path d="M142.179 421.669C140.61 417.961 137.635 415.025 133.907 413.505C130.178 411.985 125.999 412.004 122.285 413.558C118.489 414.921 115.389 417.734 113.666 421.381C111.943 425.027 111.737 429.209 113.094 433.007C113.132 433.129 113.179 433.249 113.234 433.365C113.275 433.494 113.324 433.619 113.381 433.741C113.454 433.929 113.527 434.117 113.601 434.305C112.44 430.553 112.772 426.497 114.526 422.983C116.28 419.469 119.321 416.766 123.017 415.437C126.635 413.925 130.697 413.864 134.359 415.266C138.021 416.668 141.002 419.426 142.685 422.968C142.612 422.78 142.539 422.592 142.465 422.404C142.392 422.216 142.372 422.164 142.319 422.028C142.266 421.891 142.226 421.788 142.179 421.669Z" fill="#BD7B2A"/>
<path d="M133.016 441.087C129.398 442.599 125.336 442.661 121.674 441.258C118.012 439.856 115.031 437.098 113.348 433.557C113.421 433.745 113.494 433.933 113.567 434.121C115.137 437.829 118.111 440.764 121.84 442.284C125.568 443.805 129.747 443.786 133.462 442.232C137.259 440.868 140.361 438.054 142.087 434.407C143.813 430.76 144.022 426.577 142.669 422.776C142.596 422.588 142.523 422.4 142.449 422.212C143.611 425.968 143.278 430.027 141.521 433.543C139.763 437.059 136.716 439.762 133.016 441.087Z" fill="#F1E692"/>
</g>
<path d="M75.4267 384.61L75.4175 384.602L75.4083 384.594L3.27035 322.218L-5 315.067V326L-5 654.509V656.794L-3.27205 658.289L68.8652 720.721C68.8654 720.722 68.8657 720.722 68.8659 720.722C86.5928 736.07 102.894 746.382 117.739 751.223C132.722 756.109 146.442 755.468 158.36 748.569C170.162 741.736 178.602 729.754 184.089 713.488C189.568 697.25 192.24 676.374 192.298 651.058L192.298 651.053C192.363 600.019 181.744 549.537 161.124 502.854C141.865 457.468 112.565 417.039 75.4267 384.61Z" fill="#0A1033" stroke="#FF0DEE" stroke-width="10"/>
<defs>
<clipPath id="clip0_649:6046">
<rect width="44.0184" height="44.0184" fill="white" transform="translate(100 416.988) rotate(-21.2966)"/>
</clipPath>
</defs>
</svg>
