<svg width="180" height="180" viewBox="0 0 180 180" fill="none" xmlns="http://www.w3.org/2000/svg">
<path d="M101.267 172.146C146.681 165.877 178.414 123.981 172.146 78.5675C165.878 33.1539 123.982 1.42025 78.5681 7.68843C33.1545 13.9566 1.42088 55.853 7.68907 101.267C13.9573 146.68 55.8536 178.414 101.267 172.146Z" stroke="white" stroke-width="6.49403" stroke-linecap="round" stroke-linejoin="round"/>
<path d="M100.823 168.929C144.46 162.906 174.953 122.649 168.93 79.0114C162.907 35.3743 122.649 4.88197 79.0121 10.905C35.3749 16.9279 4.8826 57.1854 10.9056 100.823C16.9286 144.46 57.1861 174.952 100.823 168.929Z" fill="#1D1E5F" stroke="#0D052C" stroke-width="0.776289" stroke-linecap="round" stroke-linejoin="round"/>
<path d="M98.8496 19.4355C106.141 20.3224 113.254 22.318 119.942 25.3534" stroke="white" stroke-width="0.776289" stroke-linecap="round" stroke-linejoin="round"/>
<path d="M126.176 35.7297C154.581 54.7714 163.379 92.5638 146.303 122.193C129.227 151.822 92.1171 163.156 61.4005 148.125C30.6839 133.094 16.8635 96.8356 29.7815 65.1722C42.6995 33.5088 77.9393 17.2661 110.404 28.0117" fill="white"/>
<path d="M126.176 35.7297C154.581 54.7714 163.379 92.5638 146.303 122.193C129.227 151.822 92.1171 163.156 61.4005 148.125C30.6839 133.094 16.8635 96.8356 29.7815 65.1722C42.6995 33.5088 77.9393 17.2661 110.404 28.0117" stroke="#0D052C" stroke-width="0.776289" stroke-linecap="round" stroke-linejoin="round"/>
<path d="M86.3184 63.8379L89.8748 89.6045C89.9071 89.8385 90.0302 90.0504 90.2174 90.1945L111.585 106.356" stroke="#0D052C" stroke-width="0.776289" stroke-linecap="round" stroke-linejoin="round"/>
<path d="M82.5078 36.2188L83.2289 41.4428" stroke="#0D052C" stroke-width="0.776289" stroke-linecap="round" stroke-linejoin="round"/>
<path d="M96.6133 138.42L97.3449 143.721" stroke="#0D052C" stroke-width="0.776289" stroke-linecap="round" stroke-linejoin="round"/>
<path d="M35.8125 97.3848L41.1083 96.6538" stroke="#0D052C" stroke-width="0.776289" stroke-linecap="round" stroke-linejoin="round"/>
<path d="M138.145 83.2598L143.44 82.5288" stroke="#0D052C" stroke-width="0.776289" stroke-linecap="round" stroke-linejoin="round"/>
<path d="M46.1543 56.8691L50.3787 60.1469" stroke="#0D052C" stroke-width="0.776289" stroke-linecap="round" stroke-linejoin="round"/>
<path d="M122.578 46.3204L119.394 50.6206" stroke="#0D052C" stroke-width="0.776289" stroke-linecap="round" stroke-linejoin="round"/>
<path d="M57.0324 133.752L60.4304 129.151" stroke="#0D052C" stroke-width="0.776289" stroke-linecap="round" stroke-linejoin="round"/>
<path d="M133.45 123.205L128.928 119.697" stroke="#0D052C" stroke-width="0.776289" stroke-linecap="round" stroke-linejoin="round"/>
<path d="M75.6875 118.311L80.8235 122.894" stroke="#0D052C" stroke-width="0.776289" stroke-linecap="round" stroke-linejoin="round"/>
<path d="M76.5605 114.576L85.3085 122.391" stroke="#0D052C" stroke-width="0.776289" stroke-linecap="round" stroke-linejoin="round"/>
<path d="M81.207 114.211L84.1092 116.804" stroke="#0D052C" stroke-width="0.776289" stroke-linecap="round" stroke-linejoin="round"/>
</svg>
