<svg width="95" height="74" viewBox="0 0 95 74" fill="none" xmlns="http://www.w3.org/2000/svg">
<path d="M77.8805 18.4215C77.8805 20.3816 76.2551 21.97 74.2488 21.97C72.2426 21.97 70.6172 20.3816 70.6172 18.4215C70.6172 16.4614 72.2426 14.873 74.2488 14.873C75.2178 14.873 76.098 15.2447 76.7507 15.8494C77.446 16.4947 77.8805 17.4082 77.8805 18.4215Z" fill="#FF96B2"/>
<path d="M8.69761 49.2463C8.67542 48.2718 8.80485 47.2086 9.48717 46.5133C9.8459 46.1472 10.323 45.9235 10.7871 45.7071C12.9376 44.7049 15.0881 43.7027 17.2387 42.7005C17.4458 42.6043 17.6806 42.5044 17.8969 42.5784C18.0615 42.6339 18.178 42.78 18.2853 42.9168C19.3226 44.2648 20.3803 45.8199 20.1917 47.51C20.0179 49.0614 18.8418 50.2874 17.7305 51.3839C16.7006 52.4009 15.6595 53.4253 14.4354 54.1964C13.1817 54.986 11.242 55.9678 10.1122 54.7345C9.00271 53.5289 8.73459 50.794 8.69761 49.2463Z" fill="#0E94C4"/>
<path d="M43.125 55.6012C44.1753 57.1378 45.3236 58.6079 46.5588 60.0003C47.7996 61.3982 49.1679 62.7444 50.8728 63.5099C54.2104 65.0058 58.5466 63.741 60.5566 60.6844C61.0263 59.9688 61.3868 59.1201 61.2519 58.2751C61.0984 57.3006 60.3162 56.5313 59.4527 56.0561C58.5891 55.5809 57.6202 55.3276 56.7178 54.9319C53.0825 53.3361 50.9024 49.6489 48.9608 46.1855" fill="#0E94C4"/>
<path d="M0.797849 26.5496C0.635127 28.909 0.550061 34.5969 5.99755 40.1664C11.1751 45.4604 15.4058 45.3661 15.4058 45.3661C15.4058 45.3661 15.4058 49.6986 14.7864 50.442C14.1669 51.1853 12.9299 53.2896 11.9388 54.0311C10.9476 54.7744 7.99829 55.3144 8.22573 58.3636C8.47351 61.7068 13.5697 66.7807 16.0253 65.9153C18.1296 65.172 20.11 60.8395 20.11 60.8395C20.11 60.8395 22.2143 56.7548 23.2054 56.2593C24.1965 55.7637 28.0334 53.7833 28.0334 53.7833L32.7376 56.1354C32.7376 56.1354 29.9769 63.2822 29.7661 66.287C29.5183 69.8355 31.2509 71.9823 34.3463 72.8477C37.4417 73.7149 40.907 73.7149 41.6503 71.3628C42.3936 69.0108 41.1547 65.4216 41.1547 65.4216C41.1547 65.4216 43.259 59.4804 44.374 58.2415C45.4891 57.0045 47.7172 56.0133 51.5542 54.0329C55.3911 52.0525 61.3341 46.9767 63.4384 42.892C65.5427 38.8073 66.7816 35.3403 66.7816 35.3403C66.7816 35.3403 68.8027 36.0004 71.4857 35.8358C75.0009 35.6195 76.1899 33.8554 76.1899 33.8554C76.1899 33.8554 81.7613 35.4642 84.8548 32.3706C87.9502 29.2752 88.2794 25.8488 85.4743 23.2101C83.37 21.2297 79.1614 21.8491 79.1614 21.8491C79.1614 21.8491 76.2047 15.9652 71.9813 14.669C67.8134 13.3894 63.9136 14.1772 61.0456 16.6901C57.7024 19.6191 56.7539 25.686 55.5168 27.4187C54.2797 29.1513 50.3171 33.9793 48.5845 33.8554C46.8519 33.7315 38.4328 27.047 29.7679 28.284C21.103 29.5211 18.1314 32.1209 16.151 32.4926C14.1706 32.8643 10.2098 31.6254 8.22758 29.7689C6.24718 27.9124 5.37994 24.9408 5.37994 22.8365C5.37994 20.7323 4.11145 19.2326 2.53231 20.4845C1.15657 21.5718 0.977213 23.9479 0.797849 26.5496Z" fill="#4DD0FF"/>
<path d="M35.3698 55.4284C33.7962 54.036 31.9841 52.9154 30.0333 52.1333C30.808 49.9051 30.9708 47.0038 29.4896 44.9883C29.3361 46.5286 29.1753 48.0948 28.5799 49.5242C27.4944 52.1333 25.5732 52.2738 23.3783 53.4665C20.9079 54.8089 19.9741 56.8522 18.9978 59.3152C18.3857 60.8574 16.3443 64.012 14.1438 63.1558C12.733 62.6066 11.5236 61.6488 10.6638 60.4247C9.77992 59.1636 9.16972 57.7712 8.6982 56.327C8.36906 56.8503 8.16195 57.4975 8.22667 58.3629C8.47445 61.7061 13.5706 66.7801 16.0262 65.9147C18.1305 65.1714 20.1109 60.8389 20.1109 60.8389C20.1109 60.8389 22.2152 56.7542 23.2063 56.2586C24.1975 55.7631 28.0344 53.7827 28.0344 53.7827L32.7385 56.1347C32.7385 56.1347 29.9778 63.2816 29.767 66.2864C29.5192 69.8348 31.2518 71.9816 34.3472 72.847C34.8354 72.9839 35.3328 73.0892 35.8265 73.1762C34.1827 71.7264 32.7404 70.0641 32.3225 67.9598C31.9748 66.2031 32.4057 64.3929 32.8975 62.6695C33.5947 60.2176 34.4212 57.7989 35.3698 55.4284Z" fill="#2DB3E3"/>
<path d="M15.7042 42.4698C9.65572 42.1185 4.56142 37.4532 1.6916 32.3312C1.44936 31.9003 1.23486 31.451 1.03516 30.9961C1.53257 33.6403 2.8214 36.9188 5.99448 40.164C11.172 45.458 15.4028 45.3637 15.4028 45.3637C15.4028 45.3637 15.4028 45.4654 15.4009 45.6281C15.5248 44.5778 15.6394 43.5275 15.7042 42.4698Z" fill="#EE678A"/>
<path d="M63.4361 42.8901C65.3851 39.1049 66.5778 35.8875 66.7442 35.4308C65.631 34.828 63.9003 33.3579 63.3529 32.5332C61.0415 42.9326 55.2131 49.3102 48.0497 54.4212C46.9975 55.1719 45.9972 56.0317 45.2409 57.082C45.0744 57.315 44.9302 57.5665 44.8008 57.8254C46.0193 56.764 48.1514 55.7858 51.55 54.0328C55.3906 52.0506 61.3318 46.9748 63.4361 42.8901Z" fill="#EE678A"/>
<path d="M84.3735 22.4844C84.8876 23.2906 85.1742 24.2503 85.1372 25.2063C85.0595 27.1996 83.7356 29.0339 81.9678 29.9566C80.2001 30.8775 78.0569 30.9422 76.1487 30.369C75.7751 30.2562 74.8913 31.9481 73.2585 32.697C72.0233 33.2647 69.7914 33.8527 67.6464 33.3572C66.1616 33.3572 62.6483 30.9829 62.8591 30.3856C62.1805 31.4711 63.1882 33.1907 65.0041 34.6774C65.5144 35.0953 66.7792 35.3376 66.7792 35.3376C66.7792 35.3376 68.8003 35.9977 71.4833 35.8331C74.9985 35.6168 76.1875 33.8527 76.1875 33.8527C76.1875 33.8527 81.7589 35.4614 84.8524 32.3679C87.9478 29.2725 88.277 25.8461 85.4719 23.2074C85.1501 22.9041 84.7711 22.6785 84.3735 22.4844Z" fill="#2DB3E3"/>
<path d="M71.6071 21.3922C71.6071 23.3523 69.9817 24.9406 67.9754 24.9406C65.9691 24.9406 64.3438 23.3523 64.3438 21.3922C64.3438 19.4321 65.9691 17.8438 67.9754 17.8438C68.9443 17.8438 69.8245 18.2154 70.4773 18.8201C71.1725 19.4654 71.6071 20.3789 71.6071 21.3922Z" fill="#FF96B2"/>
<path d="M69.3475 20.2359C69.3475 21.3325 68.4378 22.2219 67.3154 22.2219C66.193 22.2219 65.2832 21.3325 65.2832 20.2359C65.2832 19.1394 66.193 18.25 67.3154 18.25C67.8572 18.25 68.3509 18.4571 68.7152 18.7955C69.1035 19.1579 69.3475 19.6683 69.3475 20.2359Z" fill="#202226"/>
<path d="M69.3475 20.2359C69.3475 21.3325 68.4378 22.2219 67.3154 22.2219C66.193 22.2219 65.2832 21.3325 65.2832 20.2359C65.2832 19.1394 66.193 18.25 67.3154 18.25C67.8572 18.25 68.3509 18.4571 68.7152 18.7955C69.1035 19.1579 69.3475 19.6683 69.3475 20.2359Z" fill="black"/>
<path d="M70.3652 20.813C70.3652 21.4787 69.8123 22.0187 69.1318 22.0187C68.4513 22.0187 67.8984 21.4787 67.8984 20.813C67.8984 20.1474 68.4513 19.6074 69.1318 19.6074C69.4609 19.6074 69.7605 19.7332 69.9805 19.9384C70.2172 20.1585 70.3652 20.4691 70.3652 20.813Z" fill="#FEF9F2"/>
<path d="M83.2561 25.5173C83.2561 26.1904 82.6976 26.7377 82.0079 26.7377C81.3182 26.7377 80.7598 26.1922 80.7598 25.5173C80.7598 24.8424 81.3182 24.2969 82.0079 24.2969C82.3408 24.2969 82.644 24.4245 82.8678 24.6316C83.1063 24.8553 83.2561 25.1697 83.2561 25.5173Z" fill="#004A63"/>
<path d="M49.5951 32.3779C49.5951 32.3779 48.5023 34.6837 53.3728 40.3531C58.0899 45.845 61.7068 45.9855 61.7068 45.9855L64.2992 41.7917C64.2992 41.7917 60.54 41.9378 56.3406 36.5513C52.7867 31.9933 52.9864 29.8945 52.9864 29.8945L49.5951 32.3779Z" fill="#1464BF"/>
<path d="M54.5652 39.9106C55.9262 39.7959 56.9284 38.6846 56.8914 38.6421C55.4066 36.9095 53.6296 34.6295 53.1007 33.043C51.9265 33.4886 50.6359 34.537 50.9557 35.7186C51.2756 36.9002 53.2043 40.0252 54.5652 39.9106Z" fill="#4091ED"/>
<path d="M18.623 38.8099C19.486 38.8099 20.1856 38.069 20.1856 37.155C20.1856 36.241 19.486 35.5 18.623 35.5C17.7601 35.5 17.0605 36.241 17.0605 37.155C17.0605 38.069 17.7601 38.8099 18.623 38.8099Z" fill="#9CE5FF"/>
<path d="M24.895 36.0516C25.8683 36.0516 26.6572 35.2155 26.6572 34.184C26.6572 33.1526 25.8683 32.3164 24.895 32.3164C23.9218 32.3164 23.1328 33.1526 23.1328 34.184C23.1328 35.2155 23.9218 36.0516 24.895 36.0516Z" fill="#9CE5FF"/>
<path d="M24.0048 42.3052C24.9688 42.1715 25.6354 41.2349 25.4936 40.2133C25.3519 39.1916 24.4556 38.4718 23.4916 38.6055C22.5276 38.7393 21.861 39.6759 22.0027 40.6975C22.1444 41.7192 23.0408 42.439 24.0048 42.3052Z" fill="#9CE5FF"/>
<path d="M27.1415 34.9595C28.1055 34.8258 28.7721 33.8892 28.6303 32.8676C28.4886 31.8459 27.5923 31.1261 26.6283 31.2598C25.6643 31.3935 24.9977 32.3302 25.1394 33.3518C25.2811 34.3735 26.1775 35.0933 27.1415 34.9595Z" fill="#C7F0FF"/>
<path d="M29.7659 41.9681C30.5114 41.9681 31.1157 41.3282 31.1157 40.5387C31.1157 39.7493 30.5114 39.1094 29.7659 39.1094C29.0204 39.1094 28.416 39.7493 28.416 40.5387C28.416 41.3282 29.0204 41.9681 29.7659 41.9681Z" fill="#9CE5FF"/>
<path d="M41.4032 35.9899C42.066 35.9899 42.6033 35.4211 42.6033 34.7196C42.6033 34.018 42.066 33.4492 41.4032 33.4492C40.7404 33.4492 40.2031 34.018 40.2031 34.7196C40.2031 35.4211 40.7404 35.9899 41.4032 35.9899Z" fill="#9CE5FF"/>
<path d="M4.42942 32.6156C5.33322 32.6156 6.06589 31.8399 6.06589 30.883C6.06589 29.9261 5.33322 29.1504 4.42942 29.1504C3.52563 29.1504 2.79297 29.9261 2.79297 30.883C2.79297 31.8399 3.52563 32.6156 4.42942 32.6156Z" fill="#9CE5FF"/>
<path d="M8.18053 33.6383C8.84332 33.6383 9.38061 33.0696 9.38061 32.368C9.38061 31.6664 8.84332 31.0977 8.18053 31.0977C7.51775 31.0977 6.98047 31.6664 6.98047 32.368C6.98047 33.0696 7.51775 33.6383 8.18053 33.6383Z" fill="#9CE5FF"/>
<path d="M15.0537 60.3528C15.9074 60.3528 16.5995 59.6193 16.5995 58.7145C16.5995 57.8097 15.9074 57.0762 15.0537 57.0762C14.1999 57.0762 13.5078 57.8097 13.5078 58.7145C13.5078 59.6193 14.1999 60.3528 15.0537 60.3528Z" fill="#9CE5FF"/>
<path d="M17.9437 55.3905C18.6503 55.3905 19.2232 54.7837 19.2232 54.0351C19.2232 53.2865 18.6503 52.6797 17.9437 52.6797C17.237 52.6797 16.6641 53.2865 16.6641 54.0351C16.6641 54.7837 17.237 55.3905 17.9437 55.3905Z" fill="#9CE5FF"/>
<path d="M41.0791 56.7551C41.9328 56.7551 42.6249 56.0216 42.6249 55.1168C42.6249 54.212 41.9328 53.4785 41.0791 53.4785C40.2253 53.4785 39.5332 54.212 39.5332 55.1168C39.5332 56.0216 40.2253 56.7551 41.0791 56.7551Z" fill="#9CE5FF"/>
<path d="M45.7874 50.4725C46.4941 50.4725 47.067 49.8657 47.067 49.1171C47.067 48.3686 46.4941 47.7617 45.7874 47.7617C45.0807 47.7617 44.5078 48.3686 44.5078 49.1171C44.5078 49.8657 45.0807 50.4725 45.7874 50.4725Z" fill="#9CE5FF"/>
<path d="M40.913 52.6301C41.7668 52.6301 42.4589 51.8966 42.4589 50.9918C42.4589 50.087 41.7668 49.3535 40.913 49.3535C40.0593 49.3535 39.3672 50.087 39.3672 50.9918C39.3672 51.8966 40.0593 52.6301 40.913 52.6301Z" fill="#C7F0FF"/>
<path d="M35.2959 68.4212C36.1496 68.4212 36.8417 67.6877 36.8417 66.7828C36.8417 65.878 36.1496 65.1445 35.2959 65.1445C34.4421 65.1445 33.75 65.878 33.75 66.7828C33.75 67.6877 34.4421 68.4212 35.2959 68.4212Z" fill="#9CE5FF"/>
<path d="M37.6063 64.9997C38.2691 64.9997 38.8064 64.4309 38.8064 63.7293C38.8064 63.0277 38.2691 62.459 37.6063 62.459C36.9435 62.459 36.4062 63.0277 36.4062 63.7293C36.4062 64.4309 36.9435 64.9997 37.6063 64.9997Z" fill="#9CE5FF"/>
<path d="M61.456 24.2551C62.3098 24.2551 63.0019 23.5216 63.0019 22.6168C63.0019 21.712 62.3098 20.9785 61.456 20.9785C60.6023 20.9785 59.9102 21.712 59.9102 22.6168C59.9102 23.5216 60.6023 24.2551 61.456 24.2551Z" fill="#C7F0FF"/>
<path d="M62.5283 29.136C63.382 29.136 64.0741 28.4025 64.0741 27.4977C64.0741 26.5929 63.382 25.8594 62.5283 25.8594C61.6745 25.8594 60.9824 26.5929 60.9824 27.4977C60.9824 28.4025 61.6745 29.136 62.5283 29.136Z" fill="#9CE5FF"/>
<path d="M59.7235 29.9235C60.3863 29.9235 60.9236 29.3548 60.9236 28.6532C60.9236 27.9516 60.3863 27.3828 59.7235 27.3828C59.0607 27.3828 58.5234 27.9516 58.5234 28.6532C58.5234 29.3548 59.0607 29.9235 59.7235 29.9235Z" fill="#9CE5FF"/>
<path d="M51.0595 44.8997C51.9133 44.8997 52.6054 44.1662 52.6054 43.2614C52.6054 42.3565 51.9133 41.623 51.0595 41.623C50.2058 41.623 49.5137 42.3565 49.5137 43.2614C49.5137 44.1662 50.2058 44.8997 51.0595 44.8997Z" fill="#9CE5FF"/>
<path d="M51.5511 42.5194C52.2578 42.5194 52.8307 41.9126 52.8307 41.164C52.8307 40.4154 52.2578 39.8086 51.5511 39.8086C50.8444 39.8086 50.2715 40.4154 50.2715 41.164C50.2715 41.9126 50.8444 42.5194 51.5511 42.5194Z" fill="#9CE5FF"/>
<path d="M30.7704 39.9107C31.7344 39.777 32.401 38.8404 32.2593 37.8187C32.1175 36.7971 31.2212 36.0773 30.2572 36.211C29.2932 36.3447 28.6266 37.2813 28.7683 38.303C28.91 39.3246 29.8064 40.0445 30.7704 39.9107Z" fill="#9CE5FF"/>
<path d="M78.0361 34.6084C75.6914 35.851 73.9847 35.9582 73.2025 34.3976C72.5609 33.1143 72.1818 30.6254 72.7661 28.7227C74.1197 31.3558 75.6267 34.1849 78.3227 34.4253" fill="#004A63"/>
<path d="M94.8855 24.4082C93.9665 36.727 83.2361 45.967 70.9173 45.0498C58.5985 44.1308 49.3585 33.4004 50.2757 21.0816C51.1947 8.76283 61.9251 -0.479044 74.2439 0.439965C81.9436 1.01504 88.4395 5.42148 92.0065 11.653C94.1459 15.3937 95.2295 19.7891 94.8855 24.4082Z" fill="white" fill-opacity="0.25"/>
<path d="M92.0067 11.656C88.4416 5.42453 81.9438 1.01624 74.2441 0.443016C73.9686 0.422676 73.6968 0.413438 73.4231 0.402344C79.0426 1.09206 83.7596 4.41492 86.402 9.034C88.0662 11.9427 88.9094 15.3617 88.6413 18.9545C87.9275 28.5347 79.5806 35.7222 70.0004 35.0066C60.4201 34.2929 53.2326 25.946 53.9482 16.3657C54.3476 11.007 57.1361 6.39901 61.1912 3.50145C55.1187 7.10167 50.8399 13.5089 50.2759 21.0828C49.3569 33.4016 58.5988 44.132 70.9176 45.051C83.2363 45.97 93.9667 36.7282 94.8858 24.4094C95.2297 19.7903 94.1461 15.3949 92.0067 11.656Z" fill="#4E5675" fill-opacity="0.2"/>
<path d="M92.0066 11.6549C88.4415 5.42343 81.9437 1.01514 74.244 0.441918C61.9252 -0.477091 51.1948 8.76478 50.2758 21.0836C49.7673 27.892 52.3746 34.2086 56.879 38.6575C57.1952 38.1953 57.5077 37.7293 57.8165 37.2615C53.5839 33.1287 51.132 27.23 51.6072 20.8691C52.4596 9.44156 62.4134 0.869065 73.8409 1.72151C80.9822 2.25405 87.0103 6.34244 90.3184 12.1228C92.3025 15.5917 93.3084 19.669 92.9885 23.9552C92.136 35.3828 82.1823 43.9552 70.7547 43.1028C65.6882 42.7256 61.1893 40.5529 57.8165 37.2615C57.5077 37.7311 57.1952 38.1953 56.879 38.6575C60.5236 42.2578 65.4071 44.6413 70.9175 45.0518C83.2363 45.9708 93.9667 36.7289 94.8857 24.4101C95.2314 19.7892 94.146 15.3939 92.0066 11.6549Z" fill="#A6AFD2" fill-opacity="0.45"/>
<path d="M71.1685 4.9367C71.0927 4.89972 71.015 4.86459 70.9336 4.82946C68.2006 3.62199 63.7276 5.38974 62.093 7.60682C60.8412 9.30431 60.7413 11.6083 62.9159 12.5624C64.1955 13.1246 65.6655 13.0247 67.0394 12.7677C70.6914 12.0909 76.701 7.57724 71.1685 4.9367Z" fill="white" fill-opacity="0.4"/>
<path d="M61.2703 14.8983C61.777 12.1283 58.3968 11.1242 56.6457 12.77C55.3753 13.9645 54.8631 16.274 56.8213 17.0747C57.3631 17.2966 57.9715 17.3058 58.5484 17.2078C59.7984 16.9952 61.0429 16.1446 61.2703 14.8983Z" fill="white" fill-opacity="0.35"/>
<path d="M77.4512 37.7386C74.8865 38.1047 70.7704 39.0127 71.6191 40.8137C72.1905 42.0286 75.4986 41.5441 76.7042 41.1983C77.5585 40.9524 82.0944 39.56 80.5485 37.8902C80.2157 37.5315 79.6628 37.5112 79.1746 37.5445C78.8603 37.5667 78.2279 37.6277 77.4512 37.7386Z" fill="white" fill-opacity="0.35"/>
<path d="M63.5687 8.29523L65.8561 8.20092L63.663 7.56484L63.6187 3.61328L62.7847 7.4354L60.5547 7.71091L62.7477 8.25456L62.8272 12.1895L63.5687 8.29523Z" fill="white" fill-opacity="0.5"/>
<path d="M60.0549 4.22266C58.9677 4.9586 57.9451 5.78885 57.0039 6.70231C57.947 5.78885 58.9677 4.9586 60.0549 4.22266Z" fill="#DBE6ED" fill-opacity="0.25"/>
<path d="M55.1924 8.68359C54.6506 9.35297 54.1458 10.0519 53.6816 10.7823C54.1458 10.0519 54.6506 9.35297 55.1924 8.68359Z" fill="#DBE6ED" fill-opacity="0.25"/>
<path d="M56.0316 7.70703C55.7727 7.99179 55.5194 8.28395 55.2734 8.58351C55.5194 8.2858 55.7727 7.99364 56.0316 7.70703Z" fill="#DBE6ED" fill-opacity="0.25"/>
<path d="M57.0018 6.70312C56.7022 6.99344 56.4138 7.29115 56.1309 7.5981C56.4138 7.29115 56.7041 6.99159 57.0018 6.70312Z" fill="#DBE6ED" fill-opacity="0.25"/>
<path d="M83.5156 3.22656C84.3052 3.67035 85.0633 4.15852 85.7882 4.68921C85.0633 4.16037 84.3052 3.67035 83.5156 3.22656Z" fill="#DBE6ED" fill-opacity="0.25"/>
<path d="M78.4375 1.15625C79.7855 1.52053 81.0799 2.00499 82.3077 2.59856C81.078 2.00499 79.7855 1.51868 78.4375 1.15625Z" fill="#DBE6ED" fill-opacity="0.25"/>
<path d="M51.377 15.6218C51.5138 15.215 51.6617 14.8156 51.8189 14.4199C51.6617 14.8156 51.5138 15.215 51.377 15.6218Z" fill="#DBE6ED" fill-opacity="0.25"/>
<path d="M50.7109 18.071C50.772 17.7825 50.8385 17.4978 50.9106 17.2148C50.8404 17.4978 50.7738 17.7825 50.7109 18.071Z" fill="#DBE6ED" fill-opacity="0.25"/>
<path d="M51.0137 16.8242C51.1098 16.4729 51.2134 16.1253 51.3262 15.7832C51.2134 16.1253 51.1098 16.4729 51.0137 16.8242Z" fill="#DBE6ED" fill-opacity="0.25"/>
<path d="M50.4727 19.3916C50.517 19.0939 50.567 18.7999 50.6224 18.5059C50.567 18.7999 50.5189 19.0957 50.4727 19.3916Z" fill="#DBE6ED" fill-opacity="0.25"/>
<path d="M52.4668 12.9673C52.6092 12.6769 52.7553 12.3903 52.9087 12.1074C52.7553 12.3903 52.6092 12.6769 52.4668 12.9673Z" fill="#DBE6ED" fill-opacity="0.25"/>
<path d="M53.0508 11.8435C53.2357 11.5125 53.428 11.1871 53.6296 10.8672C53.428 11.1871 53.2357 11.5125 53.0508 11.8435Z" fill="#DBE6ED" fill-opacity="0.25"/>
<path d="M51.9062 14.2141C52.0394 13.8942 52.1762 13.5762 52.3242 13.2637C52.1781 13.5762 52.0394 13.8924 51.9062 14.2141Z" fill="#DBE6ED" fill-opacity="0.25"/>
<path d="M50.4142 19.7891C50.3569 20.2162 50.3088 20.647 50.2773 21.0816C50.3088 20.647 50.3569 20.2162 50.4142 19.7891Z" fill="#DBE6ED" fill-opacity="0.25"/>
</svg>
