<svg width="147" height="152" viewBox="0 0 147 152" fill="none" xmlns="http://www.w3.org/2000/svg">
<g clip-path="url(#clip0_792_10182)">
<path d="M9.73805 99.4512H15.6344V114.892H15.1519C12.1513 114.892 9.71875 112.459 9.71875 109.459V99.4512H9.73805Z" fill="#FFE483" stroke="#0D052C" stroke-width="0.723778" stroke-linecap="round" stroke-linejoin="round"/>
<path d="M9.73828 82.5098V100.122" stroke="#0D052C" stroke-width="0.723778" stroke-linecap="round" stroke-linejoin="round"/>
<path d="M115.042 114.889H114.56V99.4481H120.471V109.456C120.471 112.454 118.041 114.886 115.042 114.889Z" fill="#FFE483" stroke="#0D052C" stroke-width="0.723778" stroke-linecap="round" stroke-linejoin="round"/>
<path d="M120.471 82.5098V100.426" stroke="#0D052C" stroke-width="0.723778" stroke-linecap="round" stroke-linejoin="round"/>
<path d="M99.1823 97.3923C99.6687 100.795 99.9074 104.228 99.8965 107.665C99.9009 110.804 99.7043 113.941 99.3078 117.055V117.161C99.3078 117.19 99.3078 117.238 99.3078 117.287C99.3078 117.335 99.3078 117.34 99.3078 117.364C99.1679 118.474 98.7577 122.329 99.2547 125.306C99.6063 127.4 101.421 128.933 103.544 128.93C107.68 128.93 111.033 125.577 111.033 121.441V93.8844C111.03 89.7504 107.678 86.4005 103.544 86.4005C101.188 86.3877 99.1812 88.1122 98.8398 90.444C98.6416 92.2353 98.687 94.0451 98.9749 95.8241C99.0279 96.3404 99.11 96.8567 99.1823 97.3923Z" fill="#FF5986" stroke="#0D052C" stroke-width="0.723778" stroke-linecap="round" stroke-linejoin="round"/>
<path d="M111.274 121.098H110.994V93.7388H111.274C113.078 93.7388 114.541 95.2014 114.541 97.0055V117.821C114.544 118.689 114.201 119.523 113.588 120.137C112.975 120.752 112.142 121.098 111.274 121.098Z" fill="#1D1E5F" stroke="#0D052C" stroke-width="0.723778" stroke-linecap="round" stroke-linejoin="round"/>
<path d="M104.308 89.0196C103.139 89.0107 102.077 89.6972 101.605 90.7663" stroke="#0D052C" stroke-width="0.723778" stroke-linecap="round" stroke-linejoin="round"/>
<path d="M101.605 124.287C101.91 125.518 103.04 126.364 104.308 126.309" stroke="#0D052C" stroke-width="0.723778" stroke-linecap="round" stroke-linejoin="round"/>
<path d="M30.9922 97.2614C30.5099 100.664 30.2729 104.097 30.2829 107.534C30.277 110.673 30.472 113.81 30.8668 116.924C30.8668 116.924 30.8668 116.963 30.8668 117.03C30.8668 117.098 30.8668 117.107 30.8668 117.156C30.8668 117.204 30.8668 117.209 30.8668 117.233C31.0067 118.347 31.4168 122.203 30.9198 125.175C30.5683 127.269 28.7538 128.802 26.6302 128.799C24.6433 128.8 22.7373 128.012 21.3318 126.607C19.9264 125.203 19.1367 123.297 19.1367 121.31V93.7583C19.1367 91.7714 19.9264 89.8659 21.3318 88.4613C22.7373 87.0568 24.6433 86.2684 26.6302 86.2696C28.9862 86.2589 30.9914 87.9823 31.3348 90.3131C31.5309 92.1046 31.4839 93.9144 31.1949 95.6932C31.1514 96.2095 31.0694 96.7258 30.9922 97.2614Z" fill="#FF5986" stroke="#0D052C" stroke-width="0.723778" stroke-linecap="round" stroke-linejoin="round"/>
<path d="M18.9014 93.6094H19.1813V120.959H18.9014C17.0973 120.959 15.6348 119.496 15.6348 117.692V96.876C15.6348 95.0719 17.0973 93.6094 18.9014 93.6094Z" fill="#1D1E5F" stroke="#0D052C" stroke-width="0.723778" stroke-linecap="round" stroke-linejoin="round"/>
<path d="M25.8691 88.9044C27.0394 88.8936 28.1038 89.5804 28.5761 90.6511" stroke="#0D052C" stroke-width="0.723778" stroke-linecap="round" stroke-linejoin="round"/>
<path d="M28.5761 124.162C28.2694 125.393 27.1367 126.237 25.8691 126.179" stroke="#0D052C" stroke-width="0.723778" stroke-linecap="round" stroke-linejoin="round"/>
<path d="M116.626 27.05C123.565 37.2622 127.264 49.329 127.241 61.6756V93.5749C127.241 94.6409 126.377 95.505 125.311 95.505C124.245 95.505 123.381 94.6409 123.381 93.5749V61.608C123.572 40.7187 112.536 21.3341 94.4767 10.8341C76.417 0.334086 54.1115 0.334086 36.0518 10.8341C17.9921 21.3341 6.95692 40.7187 7.14726 61.608V93.5749C7.14726 94.6409 6.28314 95.505 5.21718 95.505C4.15123 95.505 3.28711 94.6409 3.28711 93.5749V61.6756C3.28711 27.6263 30.8796 0.0186846 64.9289 1.88185e-05H65.5755C84.7736 -0.0149677 102.881 8.92188 114.546 24.1694" fill="#62A3FF"/>
<path d="M116.626 27.05C123.565 37.2622 127.264 49.329 127.241 61.6756V93.5749C127.241 94.6409 126.377 95.505 125.311 95.505C124.245 95.505 123.381 94.6409 123.381 93.5749V61.608C123.572 40.7187 112.536 21.3341 94.4767 10.8341C76.417 0.334086 54.1115 0.334086 36.0518 10.8341C17.9921 21.3341 6.95692 40.7187 7.14726 61.608V93.5749C7.14726 94.6409 6.28314 95.505 5.21718 95.505C4.15123 95.505 3.28711 94.6409 3.28711 93.5749V61.6756C3.28711 27.6263 30.8796 0.0186846 64.9289 1.88185e-05H65.5755C84.7735 -0.0149677 102.881 8.92188 114.546 24.1694" stroke="#0D052C" stroke-width="0.723778" stroke-linecap="round" stroke-linejoin="round"/>
<path d="M44.6117 5.51607L44.3332 4.97562C43.4276 3.21789 41.2684 2.52717 39.5107 3.43285L33.4457 6.55789C31.6879 7.46357 30.9972 9.62269 31.9029 11.3804L32.1813 11.9209C33.087 13.6786 35.2461 14.3693 37.0039 13.4636L43.0689 10.3386C44.8267 9.43292 45.5174 7.2738 44.6117 5.51607Z" fill="#1D1E5F" stroke="#0D052C" stroke-width="0.723778" stroke-linecap="round" stroke-linejoin="round"/>
<path d="M98.7067 11.9184L98.9851 11.378C99.8908 9.62024 99.2001 7.46111 97.4423 6.55544L91.3773 3.43039C89.6196 2.52471 87.4604 3.21544 86.5548 4.97317L86.2763 5.51362C85.3706 7.27135 86.0613 9.43047 87.8191 10.3361L93.8841 13.4612C95.6419 14.3669 97.801 13.6761 98.7067 11.9184Z" fill="#1D1E5F" stroke="#0D052C" stroke-width="0.723778" stroke-linecap="round" stroke-linejoin="round"/>
<path d="M125.513 71.1758H124.78C122.4 71.1758 120.471 73.1049 120.471 75.4847V83.702C120.471 86.0817 122.4 88.0109 124.78 88.0109H125.513C127.893 88.0109 129.822 86.0817 129.822 83.702V75.4847C129.822 73.1049 127.893 71.1758 125.513 71.1758Z" fill="#FF81AF" stroke="#0D052C" stroke-width="0.723778" stroke-linecap="round" stroke-linejoin="round"/>
<path d="M125.592 73.7188C126.577 74.0006 127.442 74.5992 128.053 75.422" stroke="#0D052C" stroke-width="0.723778" stroke-linecap="round" stroke-linejoin="round"/>
<path d="M5.42904 71.1758H4.69561C2.31588 71.1758 0.386719 73.1049 0.386719 75.4847V83.702C0.386719 86.0817 2.31588 88.0109 4.69561 88.0109H5.42904C7.80878 88.0109 9.73793 86.0817 9.73793 83.702V75.4847C9.73793 73.1049 7.80878 71.1758 5.42904 71.1758Z" fill="#FF81AF" stroke="#0D052C" stroke-width="0.723778" stroke-linecap="round" stroke-linejoin="round"/>
<path d="M5.52539 73.377C6.50998 73.6601 7.37448 74.2585 7.98624 75.0802" stroke="#0D052C" stroke-width="0.723778" stroke-linecap="round" stroke-linejoin="round"/>
<path d="M0.314453 80.3398H9.66567" stroke="#0D052C" stroke-width="0.723778" stroke-linecap="round" stroke-linejoin="round"/>
<path d="M120.471 80.3398H129.822" stroke="#0D052C" stroke-width="0.723778" stroke-linecap="round" stroke-linejoin="round"/>
<path d="M137 142.999C134.5 142.499 132.524 141.659 130.242 143.172C129.616 143.587 129.116 144.164 128.794 144.842C128.668 145.097 128.588 145.373 128.558 145.657C128.522 146.289 128.745 146.907 129.176 147.371C129.607 147.834 130.207 148.102 130.84 148.113C131.644 148.145 132.437 147.919 133.103 147.466C136.481 145.228 136.181 140.499 136.181 140.499C136.201 139.304 136.062 138.111 135.766 136.952C135.276 134.91 134.139 133.08 132.524 131.736C131.328 130.555 129.557 130.169 127.979 130.747C125.17 131.712 125.33 135.215 127.607 135.707C128.463 135.869 129.348 135.666 130.049 135.147C130.749 134.629 131.202 133.842 131.298 132.976C131.597 131.099 130.777 129.247 130.058 127.485L129.996 127.326C126.778 119.271 125.14 110.673 125.17 101.999V95.5137" stroke="#0D052C" stroke-width="0.723778" stroke-linecap="round" stroke-linejoin="round"/>
</g>
<defs>
<clipPath id="clip0_792_10182">
<rect width="146.686" height="151.993" fill="white" transform="translate(0.314453)"/>
</clipPath>
</defs>
</svg>
