<svg width="174" height="164" viewBox="0 0 174 164" fill="none" xmlns="http://www.w3.org/2000/svg">
<path d="M87.2113 163.592C134.982 163.592 173.708 127.163 173.708 82.2267C173.708 37.2898 134.982 0.861328 87.2113 0.861328C39.4406 0.861328 0.714844 37.2898 0.714844 82.2267C0.714844 127.163 39.4406 163.592 87.2113 163.592Z" fill="white"/>
<path d="M81.8022 154.425C121.573 154.425 153.813 122.184 153.813 82.4135C153.813 42.6428 121.573 10.4023 81.8022 10.4023C42.0315 10.4023 9.79102 42.6428 9.79102 82.4135C9.79102 122.184 42.0315 154.425 81.8022 154.425Z" fill="#1D1E5F" stroke="#0D052C" stroke-width="0.736009" stroke-linecap="round" stroke-linejoin="round"/>
<path d="M160.381 60.3966C172.079 97.287 152.501 136.822 116.07 149.879C79.6382 162.936 39.4047 144.836 25.0071 108.913C10.6094 72.9904 27.2057 32.114 62.5704 16.3952C97.9351 0.676353 139.398 15.7466 156.417 50.5046" fill="#87D4FF"/>
<path d="M160.381 60.3966C172.079 97.287 152.502 136.822 116.07 149.879C79.6382 162.936 39.4047 144.836 25.0071 108.913C10.6094 72.9904 27.2057 32.114 62.5704 16.3952C97.9351 0.676354 139.398 15.7466 156.417 50.5046" stroke="#0D052C" stroke-width="0.736009" stroke-linecap="round" stroke-linejoin="round"/>
<path d="M91.5508 10.041V154.426" stroke="#0D052C" stroke-width="0.736009" stroke-linecap="round" stroke-linejoin="round"/>
<path d="M91.5516 154.421C114.328 154.421 132.793 122.099 132.793 82.2279C132.793 42.3569 114.328 10.0352 91.5516 10.0352C68.7748 10.0352 50.3105 42.3569 50.3105 82.2279C50.3105 122.099 68.7748 154.421 91.5516 154.421Z" stroke="#0D052C" stroke-width="0.736009" stroke-linecap="round" stroke-linejoin="round"/>
<path d="M19.3633 82.2324L163.744 82.2324" stroke="#0D052C" stroke-width="0.736009" stroke-linecap="round" stroke-linejoin="round"/>
<path d="M144.191 32.8316C131.262 40.7854 112.464 45.7805 91.5515 45.7805C70.639 45.7805 51.8512 40.7854 38.9121 32.8316C52.5555 18.2867 71.6091 10.0352 91.5515 10.0352C111.494 10.0352 130.547 18.2867 144.191 32.8316Z" stroke="#0D052C" stroke-width="0.736009" stroke-linecap="round" stroke-linejoin="round"/>
<path d="M144.191 131.625C130.547 146.17 111.494 154.421 91.5515 154.421C71.6091 154.421 52.5555 146.17 38.9121 131.625C51.8512 123.676 70.6341 118.676 91.5515 118.676C112.469 118.676 131.262 123.676 144.191 131.625Z" stroke="#0D052C" stroke-width="0.736009" stroke-linecap="round" stroke-linejoin="round"/>
<path d="M104.945 62.8164L108.351 68.9351" stroke="#0D052C" stroke-width="0.736009" stroke-linecap="round" stroke-linejoin="round"/>
<path d="M107.488 58.8027L113.264 69.1854" stroke="#0D052C" stroke-width="0.736009" stroke-linecap="round" stroke-linejoin="round"/>
<path d="M113.072 60.2656L114.981 63.6905" stroke="#0D052C" stroke-width="0.736009" stroke-linecap="round" stroke-linejoin="round"/>
</svg>
