<svg width="189" height="56" viewBox="0 0 189 56" fill="none" xmlns="http://www.w3.org/2000/svg">
<path d="M182 1.12C183.559 1.12 185.055 1.7395 186.158 2.84221C187.26 3.94493 187.88 5.44053 187.88 7V49C187.88 50.5595 187.26 52.0551 186.158 53.1578C185.055 54.2605 183.559 54.88 182 54.88H7C5.44053 54.88 3.94493 54.2605 2.84221 53.1578C1.7395 52.0551 1.12 50.5595 1.12 49V7C1.12 5.44053 1.7395 3.94493 2.84221 2.84221C3.94493 1.7395 5.44053 1.12 7 1.12H182ZM182 0H7C5.14348 0 3.36301 0.737498 2.05025 2.05025C0.737498 3.36301 0 5.14349 0 7V49C0 50.8565 0.737498 52.637 2.05025 53.9498C3.36301 55.2625 5.14348 56 7 56H182C183.857 56 185.637 55.2625 186.95 53.9498C188.262 52.637 189 50.8565 189 49V7C189 5.14349 188.262 3.36301 186.95 2.05025C185.637 0.737498 183.857 0 182 0Z" fill="#0A1033"/>
<path d="M95.3985 30.45C94.2229 30.4555 93.0753 30.8092 92.1005 31.4663C91.1257 32.1235 90.3675 33.0546 89.9214 34.1423C89.4754 35.23 89.3615 36.4255 89.5943 37.5778C89.827 38.7302 90.3959 39.7877 91.2291 40.6171C92.0623 41.4464 93.1225 42.0103 94.276 42.2376C95.4294 42.4649 96.6243 42.3455 97.7099 41.8943C98.7955 41.4432 99.7231 40.6805 100.376 39.7027C101.028 38.7248 101.376 37.5756 101.376 36.4C101.388 35.6131 101.241 34.8319 100.944 34.1031C100.647 33.3742 100.207 32.7124 99.6492 32.1573C99.0915 31.6021 98.4277 31.1649 97.6974 30.8715C96.9671 30.5782 96.1853 30.4349 95.3985 30.45ZM95.3985 40.012C94.6755 40.0625 93.954 39.8944 93.3278 39.5295C92.7017 39.1646 92.1997 38.6197 91.8873 37.9658C91.5749 37.3118 91.4664 36.579 91.576 35.8626C91.6856 35.1462 92.0082 34.4793 92.5018 33.9486C92.9955 33.418 93.6373 33.0481 94.344 32.8871C95.0506 32.726 95.7893 32.7813 96.4641 33.0457C97.139 33.3101 97.7186 33.7714 98.1278 34.3696C98.537 34.9678 98.7567 35.6752 98.7585 36.4C98.781 36.8592 98.7114 37.3183 98.5537 37.7502C98.396 38.182 98.1534 38.578 97.8403 38.9146C97.5271 39.2513 97.1497 39.5218 96.7304 39.7103C96.311 39.8987 95.8581 40.0013 95.3985 40.012ZM82.3645 30.45C81.1883 30.4527 80.0393 30.8041 79.0627 31.4595C78.086 32.115 77.3256 33.0452 76.8774 34.1327C76.4292 35.2201 76.3134 36.4161 76.5445 37.5693C76.7757 38.7226 77.3435 39.7815 78.1762 40.6122C79.0088 41.4429 80.069 42.0082 81.2228 42.2367C82.3766 42.4651 83.5723 42.3465 84.6587 41.8957C85.7451 41.445 86.6735 40.6823 87.3267 39.7042C87.9799 38.726 88.3285 37.5762 88.3285 36.4C88.3399 35.6131 88.1929 34.8319 87.8961 34.1031C87.5994 33.3742 87.159 32.7124 86.6012 32.1573C86.0435 31.6021 85.3797 31.1649 84.6494 30.8715C83.9191 30.5782 83.1373 30.4349 82.3505 30.45H82.3645ZM82.3645 40.012C81.6411 40.0654 80.9185 39.8998 80.2906 39.5367C79.6627 39.1737 79.1586 38.63 78.844 37.9765C78.5294 37.323 78.4188 36.5899 78.5267 35.8726C78.6345 35.1554 78.9558 34.4872 79.4487 33.9551C79.9416 33.4231 80.5833 33.0517 81.2902 32.8894C81.9971 32.7271 82.7365 32.7813 83.4122 33.0451C84.0878 33.3089 84.6684 33.77 85.0783 34.3684C85.4882 34.9668 85.7085 35.6747 85.7105 36.4C85.733 36.8592 85.6634 37.3183 85.5057 37.7502C85.348 38.182 85.1054 38.578 84.7923 38.9146C84.4791 39.2513 84.1017 39.5218 83.6824 39.7103C83.263 39.8987 82.8101 40.0013 82.3505 40.012H82.3645ZM66.8385 32.284V34.804H72.8865C72.7917 35.9909 72.2983 37.1109 71.4865 37.982C70.8814 38.5983 70.154 39.0811 69.3511 39.3994C68.5482 39.7177 67.6875 39.8644 66.8245 39.83C65.0422 39.83 63.333 39.122 62.0727 37.8617C60.8125 36.6015 60.1045 34.8922 60.1045 33.11C60.1045 31.3277 60.8125 29.6185 62.0727 28.3582C63.333 27.098 65.0422 26.39 66.8245 26.39C68.5294 26.3622 70.1758 27.0116 71.4025 28.196L73.1805 26.418C72.3524 25.5794 71.3643 24.9156 70.2749 24.4659C69.1856 24.0162 68.017 23.7898 66.8385 23.8C65.5939 23.7515 64.3523 23.9548 63.1882 24.3977C62.024 24.8406 60.9612 25.5139 60.0635 26.3774C59.1658 27.2408 58.4517 28.2766 57.9639 29.4226C57.4761 30.5687 57.2246 31.8014 57.2246 33.047C57.2246 34.2925 57.4761 35.5252 57.9639 36.6713C58.4517 37.8173 59.1658 38.8531 60.0635 39.7166C60.9612 40.58 62.024 41.2533 63.1882 41.6962C64.3523 42.1391 65.5939 42.3424 66.8385 42.294C68.0368 42.3481 69.2328 42.145 70.3461 41.6982C71.4594 41.2515 72.464 40.5715 73.2925 39.704C74.7592 38.0925 75.5423 35.974 75.4765 33.796C75.481 33.2654 75.4341 32.7355 75.3365 32.214L66.8385 32.284ZM130.272 34.244C129.907 33.1698 129.225 32.2319 128.315 31.5544C127.405 30.8768 126.31 30.4917 125.176 30.45C124.411 30.4485 123.653 30.6041 122.949 30.9071C122.246 31.2102 121.612 31.6543 121.088 32.2119C120.563 32.7696 120.158 33.429 119.898 34.1493C119.638 34.8697 119.529 35.6357 119.576 36.4C119.559 37.1824 119.7 37.9603 119.991 38.6871C120.281 39.414 120.715 40.0748 121.266 40.6302C121.818 41.1856 122.476 41.6241 123.2 41.9196C123.925 42.2151 124.702 42.3614 125.484 42.35C126.464 42.3553 127.429 42.1176 128.294 41.6583C129.159 41.1989 129.896 40.5323 130.44 39.718L128.41 38.318C128.108 38.8231 127.679 39.2409 127.166 39.5304C126.653 39.82 126.073 39.9715 125.484 39.97C124.878 39.9931 124.279 39.8332 123.764 39.5111C123.25 39.189 122.844 38.7196 122.6 38.164L130.566 34.874L130.272 34.244ZM122.152 36.232C122.124 35.7989 122.182 35.3646 122.324 34.9544C122.466 34.5442 122.688 34.1663 122.977 33.843C123.266 33.5197 123.618 33.2573 124.01 33.0714C124.402 32.8854 124.827 32.7795 125.26 32.76C125.712 32.7302 126.162 32.8338 126.556 33.0578C126.949 33.2818 127.268 33.6164 127.472 34.02L122.152 36.232ZM115.684 42H118.302V24.5H115.684V42ZM111.4 31.78H111.302C110.908 31.3388 110.425 30.9861 109.884 30.7448C109.344 30.5035 108.758 30.3792 108.166 30.38C106.637 30.4542 105.194 31.1142 104.137 32.2232C103.081 33.3322 102.491 34.8052 102.491 36.337C102.491 37.8687 103.081 39.3417 104.137 40.4508C105.194 41.5598 106.637 42.2198 108.166 42.294C108.76 42.3039 109.348 42.1838 109.89 41.9419C110.432 41.7 110.914 41.3423 111.302 40.894H111.386V41.748C111.386 44.03 110.168 45.248 108.208 45.248C107.556 45.2327 106.922 45.0235 106.389 44.647C105.855 44.2706 105.446 43.7439 105.212 43.134L102.93 44.086C103.36 45.1309 104.092 46.0236 105.032 46.6497C105.973 47.2758 107.079 47.6067 108.208 47.6C111.274 47.6 113.808 45.794 113.808 41.398V30.8H111.4V31.78ZM108.404 40.012C107.501 39.9324 106.661 39.5174 106.049 38.8488C105.436 38.1802 105.097 37.3065 105.097 36.4C105.097 35.4934 105.436 34.6197 106.049 33.9511C106.661 33.2825 107.501 32.8676 108.404 32.788C108.852 32.8109 109.291 32.9233 109.695 33.1184C110.098 33.3135 110.459 33.5875 110.755 33.9241C111.051 34.2607 111.277 34.6531 111.419 35.0784C111.561 35.5036 111.617 35.9529 111.582 36.4C111.621 36.8489 111.567 37.301 111.426 37.7288C111.284 38.1566 111.058 38.5512 110.759 38.8889C110.461 39.2265 110.097 39.5001 109.69 39.6932C109.283 39.8862 108.841 39.9947 108.39 40.012H108.404ZM142.536 24.5H136.278V42H138.896V35.364H142.55C143.297 35.4176 144.046 35.3169 144.751 35.0682C145.457 34.8195 146.104 34.4281 146.651 33.9185C147.199 33.4088 147.635 32.7918 147.934 32.1059C148.233 31.4201 148.387 30.68 148.387 29.932C148.387 29.1839 148.233 28.4439 147.934 27.758C147.635 27.0721 147.199 26.4551 146.651 25.9455C146.104 25.4358 145.457 25.0445 144.751 24.7958C144.046 24.5471 143.297 24.4464 142.55 24.5H142.536ZM142.536 32.9H138.882V26.936H142.592C143.389 26.936 144.153 27.2524 144.716 27.8155C145.279 28.3787 145.595 29.1425 145.595 29.939C145.595 30.7354 145.279 31.4992 144.716 32.0624C144.153 32.6256 143.389 32.942 142.592 32.942L142.536 32.9ZM158.678 30.38C157.725 30.323 156.776 30.5457 155.948 31.0208C155.12 31.4958 154.449 32.2025 154.017 33.054L156.34 34.02C156.57 33.5977 156.917 33.2511 157.339 33.0224C157.762 32.7937 158.242 32.6928 158.721 32.732C159.053 32.6932 159.39 32.7209 159.711 32.8136C160.033 32.9063 160.332 33.0621 160.593 33.272C160.854 33.4818 161.07 33.7414 161.229 34.0357C161.388 34.33 161.487 34.653 161.521 34.986V35.168C160.68 34.7228 159.742 34.4919 158.79 34.496C156.284 34.496 153.75 35.896 153.75 38.43C153.775 38.9703 153.908 39.5002 154.141 39.9882C154.374 40.4763 154.703 40.9128 155.107 41.2717C155.512 41.6306 155.984 41.9048 156.497 42.078C157.009 42.2512 157.551 42.3198 158.09 42.28C158.75 42.3273 159.41 42.1963 160.001 41.9007C160.592 41.6051 161.093 41.1558 161.451 40.6H161.534V42H164.054V35.266C164.054 32.2 161.73 30.422 158.748 30.422L158.678 30.38ZM158.356 39.97C157.503 39.97 156.312 39.536 156.312 38.486C156.312 37.086 157.797 36.624 159.113 36.624C159.944 36.6035 160.766 36.8065 161.492 37.212C161.405 37.9699 161.046 38.6707 160.483 39.1852C159.92 39.6998 159.189 39.9934 158.427 40.012L158.356 39.97ZM173.239 30.8L170.243 38.388H170.158L167.051 30.8H164.25L168.912 41.412L166.253 47.306H168.982L176.151 30.8H173.239ZM149.704 42H152.323V24.5H149.704V42Z" fill="#0A1033"/>
<path d="M66.3017 14.4233C66.3255 14.9368 66.2447 15.4498 66.0642 15.9311C65.8837 16.4125 65.6073 16.8521 65.2517 17.2233C64.8547 17.6358 64.3752 17.9599 63.8445 18.1746C63.3138 18.3893 62.7439 18.4897 62.1717 18.4693C61.3037 18.4625 60.457 18.1997 59.7377 17.7138C59.0184 17.2279 58.4585 16.5405 58.1281 15.7378C57.7977 14.9351 57.7116 14.0527 57.8806 13.2012C58.0495 12.3498 58.4659 11.5671 59.0777 10.9513C59.4798 10.5408 59.9619 10.2172 60.4941 10.0005C61.0263 9.78374 61.5973 9.67852 62.1717 9.69132C62.7636 9.68935 63.3496 9.80846 63.8937 10.0413C64.4003 10.2457 64.8513 10.5671 65.2097 10.9793L64.4677 11.7213C64.1883 11.389 63.8354 11.1261 63.4369 10.9536C63.0385 10.7811 62.6053 10.7036 62.1717 10.7273C61.7344 10.7252 61.3012 10.8114 60.898 10.9807C60.4948 11.1501 60.13 11.3991 59.8254 11.7128C59.5208 12.0266 59.2827 12.3986 59.1253 12.8067C58.968 13.2147 58.8947 13.6503 58.9097 14.0873C58.9006 14.7399 59.0849 15.3806 59.4394 15.9286C59.7939 16.4765 60.3028 16.9072 60.9018 17.1663C61.5009 17.4254 62.1632 17.5012 62.8053 17.3843C63.4474 17.2674 64.0405 16.9629 64.5097 16.5093C64.9405 16.0425 65.189 15.4362 65.2097 14.8013H62.1717V13.7933H66.2457C66.2831 14.0012 66.3018 14.2121 66.3017 14.4233ZM72.7137 10.9233H68.9337V13.5833H72.3777V14.5913H68.9337V17.2513H72.7137V18.2873H67.8137V9.88732H72.7137V10.9233ZM77.3057 18.2873H76.2277V10.9233H73.8757V9.88732H79.7137V10.9233H77.3057V18.2873ZM83.8297 18.2873V9.88732H84.9077V18.2873H83.8297ZM89.6957 18.2873H88.6177V10.9233H86.2657V9.88732H92.0337V10.9233H89.6957V18.2873ZM102.968 17.1953C102.149 18.0092 101.042 18.4661 99.8877 18.4661C98.7335 18.4661 97.6262 18.0092 96.8077 17.1953C96.0122 16.3533 95.569 15.2387 95.569 14.0803C95.569 12.9219 96.0122 11.8074 96.8077 10.9653C97.2111 10.559 97.691 10.2364 98.2196 10.0164C98.7482 9.79628 99.3151 9.68297 99.8877 9.68297C100.46 9.68297 101.027 9.79628 101.556 10.0164C102.084 10.2364 102.564 10.559 102.968 10.9653C103.766 11.8058 104.212 12.9209 104.212 14.0803C104.212 15.2397 103.766 16.3549 102.968 17.1953ZM97.6057 16.4953C98.2118 17.0989 99.0324 17.4378 99.8877 17.4378C100.743 17.4378 101.564 17.0989 102.17 16.4953C102.768 15.8359 103.099 14.9776 103.099 14.0873C103.099 13.1971 102.768 12.3387 102.17 11.6793C101.564 11.0758 100.743 10.7369 99.8877 10.7369C99.0324 10.7369 98.2118 11.0758 97.6057 11.6793C97.0076 12.3387 96.6763 13.1971 96.6763 14.0873C96.6763 14.9776 97.0076 15.8359 97.6057 16.4953ZM105.726 18.2873V9.88732H107.042L111.13 16.4253V9.88732H112.208V18.2873H111.088L106.818 11.4413V18.2873H105.726Z" fill="#0A1033"/>
<path fill-rule="evenodd" clip-rule="evenodd" d="M99.8877 9.82297C99.3336 9.82297 98.785 9.93262 98.2734 10.1456C97.7624 10.3584 97.2985 10.6701 96.9083 11.0627C96.1381 11.8787 95.709 12.9582 95.709 14.0803C95.709 15.2023 96.138 16.2817 96.908 17.0976C97.7001 17.8844 98.7712 18.3261 99.8877 18.3261C101.004 18.3261 102.076 17.8844 102.868 17.0974C103.641 16.2832 104.072 15.2032 104.072 14.0803C104.072 12.9573 103.641 11.8772 102.867 11.0629C102.477 10.6702 102.013 10.3584 101.502 10.1456C100.991 9.93262 100.442 9.82297 99.8877 9.82297ZM98.1658 9.88712C98.7114 9.65993 99.2967 9.54297 99.8877 9.54297C100.479 9.54297 101.064 9.65993 101.61 9.88712C102.155 10.1143 102.651 10.4472 103.067 10.8667L103.069 10.8689C103.893 11.7353 104.352 12.885 104.352 14.0803C104.352 15.2756 103.893 16.4253 103.069 17.2918L103.066 17.2946C102.222 18.1346 101.079 18.6061 99.8877 18.6061C98.6965 18.6061 97.5537 18.1346 96.709 17.2946L96.7059 17.2915C95.8858 16.4235 95.429 15.2745 95.429 14.0803C95.429 12.8862 95.8859 11.7372 96.706 10.8692L96.7084 10.8667C97.1248 10.4472 97.6201 10.1143 98.1658 9.88712ZM62.1686 9.83129C61.6133 9.81891 61.0613 9.92062 60.5469 10.1301C60.0324 10.3396 59.5664 10.6525 59.1777 11.0493L59.1771 11.05C58.5847 11.6463 58.1815 12.4041 58.0179 13.2285C57.8543 14.0529 57.9377 14.9073 58.2576 15.6845C58.5774 16.4618 59.1196 17.1273 59.8161 17.5978C60.5125 18.0683 61.3324 18.3227 62.1728 18.3293L62.1767 18.3294C62.7292 18.349 63.2796 18.2521 63.792 18.0448C64.3044 17.8375 64.7674 17.5246 65.1507 17.1264C65.4931 16.7689 65.7593 16.3455 65.9332 15.882C66.107 15.4184 66.1848 14.9244 66.1619 14.4298L66.3017 14.4233L66.1617 14.4233C66.1618 14.2593 66.1501 14.0955 66.1266 13.9333H62.3117V14.6613H65.3544L65.3497 14.8059C65.3278 15.4744 65.0662 16.1127 64.6126 16.6043L64.6072 16.6101C64.1181 17.083 63.4997 17.4002 62.8304 17.522C62.1611 17.6439 61.4707 17.5648 60.8463 17.2948C60.2219 17.0247 59.6914 16.5758 59.3219 16.0046C58.9529 15.4344 58.7608 14.7678 58.7697 14.0888C58.7545 13.634 58.831 13.1808 58.9947 12.7563C59.1588 12.3307 59.4072 11.9426 59.7249 11.6153C60.0427 11.288 60.4232 11.0283 60.8438 10.8516C61.2631 10.6755 61.7135 10.5856 62.1683 10.5873C62.6221 10.5632 63.0754 10.6446 63.4926 10.8251C63.8643 10.9861 64.1982 11.2219 64.4739 11.5172L65.0166 10.9745C64.6879 10.6252 64.2871 10.3509 63.8414 10.1712L63.8386 10.1701C63.3121 9.94471 62.745 9.82941 62.1722 9.83132L62.1686 9.83129ZM66.4417 14.4201C66.4659 14.9515 66.3821 15.4822 66.1953 15.9803C66.0082 16.4794 65.7215 16.9352 65.3528 17.3202C64.9422 17.7468 64.446 18.0823 63.897 18.3043C63.3487 18.5262 62.7598 18.6301 62.1687 18.6093C61.2738 18.6019 60.4009 18.3308 59.6593 17.8298C58.9172 17.3285 58.3395 16.6193 57.9986 15.7911C57.6578 14.9629 57.569 14.0525 57.7432 13.174C57.9175 12.2957 58.347 11.4883 58.9781 10.853C59.3935 10.429 59.8915 10.0947 60.4413 9.87081C60.9906 9.64708 61.58 9.53835 62.1731 9.55132C62.7829 9.54953 63.3867 9.67228 63.9475 9.91204C64.474 10.1247 64.9428 10.4589 65.3154 10.8875L65.4011 10.986L64.4588 11.9282L64.3606 11.8114C64.0951 11.4957 63.7599 11.246 63.3813 11.0821C63.0028 10.9182 62.5913 10.8446 62.1794 10.8671L62.1711 10.8676C61.7526 10.8655 61.338 10.9477 60.9522 11.1098C60.5664 11.2718 60.2173 11.5101 59.9258 11.8104C59.6344 12.1106 59.4065 12.4666 59.2559 12.857C59.1054 13.2475 59.0352 13.6643 59.0497 14.0825L59.0499 14.0893C59.0411 14.7142 59.2174 15.3278 59.5569 15.8525C59.8965 16.3772 60.3838 16.7897 60.9574 17.0378C61.5311 17.2859 62.1653 17.3585 62.7802 17.2466C63.3938 17.1348 63.9606 16.8443 64.4096 16.4114C64.7831 16.0053 65.0113 15.4883 65.0609 14.9413H62.0317V13.6533H66.3628L66.3835 13.7686C66.4222 13.9836 66.4416 14.2016 66.4417 14.4201ZM67.6737 9.74732H72.8537V11.0633H69.0737V13.4433H72.5177V14.7313H69.0737V17.1113H72.8537V18.4273H67.6737V9.74732ZM67.9537 10.0273V18.1473H72.5737V17.3913H68.7937V14.4513H72.2377V13.7233H68.7937V10.7833H72.5737V10.0273H67.9537ZM73.7357 9.74732H79.8537V11.0633H77.4457V18.4273H76.0877V11.0633H73.7357V9.74732ZM74.0157 10.0273V10.7833H76.3677V18.1473H77.1657V10.7833H79.5737V10.0273H74.0157ZM83.6897 9.74732H85.0477V18.4273H83.6897V9.74732ZM83.9697 10.0273V18.1473H84.7677V10.0273H83.9697ZM86.1257 9.74732H92.1737V11.0633H89.8357V18.4273H88.4777V11.0633H86.1257V9.74732ZM86.4057 10.0273V10.7833H88.7577V18.1473H89.5557V10.7833H91.8937V10.0273H86.4057ZM105.586 9.74732H107.119L110.99 15.9374V9.74732H112.348V18.4273H111.01L106.958 11.9303V18.4273H105.586V9.74732ZM105.866 10.0273V18.1473H106.678V10.9523L111.165 18.1473H112.068V10.0273H111.27V16.9133L106.964 10.0273H105.866ZM97.507 11.5801C98.1393 10.9504 98.9953 10.5969 99.8877 10.5969C100.78 10.5969 101.636 10.9504 102.269 11.5801L102.274 11.5851C102.895 12.2703 103.239 13.1623 103.239 14.0873C103.239 15.0123 102.895 15.9043 102.273 16.5894L102.269 16.5947C101.636 17.2244 100.78 17.5778 99.8877 17.5778C98.9953 17.5778 98.1393 17.2242 97.507 16.5945L97.6057 16.4953L97.502 16.5894C96.8805 15.9043 96.5363 15.0123 96.5363 14.0873C96.5363 13.1623 96.8805 12.2704 97.502 11.5853L97.507 11.5801ZM97.7071 16.3986C98.2867 16.9745 99.0706 17.2978 99.8877 17.2978C100.705 17.2978 101.489 16.9745 102.068 16.3986C102.642 15.7654 102.959 14.9416 102.959 14.0873C102.959 13.233 102.642 12.4093 102.068 11.776C101.489 11.2001 100.705 10.8769 99.8877 10.8769C99.0706 10.8769 98.2867 11.2001 97.7071 11.776C97.1338 12.4093 96.8163 13.233 96.8163 14.0873C96.8163 14.9416 97.1338 15.7654 97.7071 16.3986Z" fill="#0A1033"/>
<path d="M14.6924 45.78L31.8432 27.9913L14.7068 10.2344C14.2491 10.5108 13.9658 11.1509 13.9658 11.9888V44.0426C13.972 44.8805 14.245 45.4738 14.6924 45.78Z" fill="#0A1033"/>
<path d="M32.4555 27.4979L37.5642 22.1984L16.76 10.3662C16.4096 10.1551 16.0117 10.0436 15.6064 10.043L32.4535 27.4957L32.4555 27.4979Z" fill="#0A1033"/>
<path d="M32.459 28.4844L15.5586 46.0137C15.9828 46.0211 16.4006 45.9062 16.7655 45.682L37.6108 33.8178L32.459 28.4844Z" fill="#0A1033"/>
<path d="M45.1021 26.4936L38.1789 22.5488L32.9307 27.9929L38.2179 33.4709L45.1 29.5367C46.5634 28.701 46.5634 27.3251 45.1021 26.4936Z" fill="#0A1033"/>
</svg>
