<svg width="86" height="88" viewBox="0 0 86 88" fill="none" xmlns="http://www.w3.org/2000/svg">
<path d="M59.7969 78.3702C59.0291 78.8119 58.2013 79.2552 57.312 79.6403C54.5838 80.7973 51.7856 81.5961 49.1191 82.8113C49.2205 82.1483 49.3202 81.4253 49.3616 80.764C49.3067 80.9456 44.788 82.4529 44.3133 82.6463C42.8276 83.1682 41.7634 83.7382 40.4094 84.6765C40.2059 83.842 40.0641 83.0658 39.8606 82.2313C38.9965 83.5159 37.8258 84.5691 36.5301 85.4457C36.6096 84.0031 36.2094 82.574 35.456 81.3949C34.8284 82.5528 33.7743 83.4827 32.5268 83.9378C33.2888 81.1558 32.1251 78.1877 30.7317 75.5863C28.9616 72.3953 26.9018 69.5725 24.6038 66.8164C21.3709 62.8263 16.3855 58.4053 16.0522 52.9534C15.9542 53.7363 15.9144 54.4576 15.8164 55.2406C14.1814 52.5859 13.8488 49.2944 14.3026 46.2209C15.1154 40.9768 18.1174 36.7515 21.181 32.5844C23.552 29.397 25.26 26.1082 28.1825 23.3254C30.8719 20.7893 33.8729 18.6644 37.1889 17.0709C39.852 15.7357 42.7651 14.7536 45.7069 14.791C49.3083 14.8098 52.7102 16.2745 55.9374 17.9242C60.3207 20.1416 64.536 22.7838 67.8187 26.4124C69.8034 28.6972 71.4967 31.2902 72.3571 34.1467C73.2143 36.8833 74.8442 39.3581 75.703 42.1546C77.5523 48.1641 77.5578 54.7655 75.5658 60.7629C74.9019 62.762 74.0546 64.6463 73.0275 66.5356C70.7468 70.8007 67.6147 74.6696 63.0478 76.5984C61.9802 77.0485 60.9194 77.7385 59.7969 78.3702Z" fill="#1E1E1E"/>
<path d="M17.5848 37.007C19.948 10.0541 52.2011 6.68699 70.0644 20.8884C82.4643 30.7423 79.5886 54.4088 73.7332 63.8756C69.0266 71.5096 58.3069 85.1341 36.8007 86.5188C30.331 86.9407 28.0374 82.204 22.5284 76.2374C18.1325 71.4398 18.8028 63.259 18.4864 58.4067C18.0392 51.0375 15.5734 44.4453 17.5848 37.007Z" fill="#DC9878"/>
<path d="M18.487 58.4068C18.8018 63.1991 18.1315 71.3799 22.529 76.2375C28.038 82.2041 30.3334 87.0008 36.8014 86.5189C43.451 86.0919 50.2663 83.0197 55.0622 78.5639C58.9805 74.9129 64.8756 64.7248 66.6988 56.9917C70.6593 39.8964 60.8634 15.9259 30.877 23.0702C26.2865 24.1595 19.5302 29.3306 17.5238 36.9488C15.574 44.4454 18.0398 51.0376 18.487 58.4068Z" fill="#EFB899"/>
<path d="M61.8927 71.7694C64.1606 69.1851 66.476 64.0188 66.5969 61.9149C70.5128 56.0434 75.6529 59.5598 75.3376 63.2896C74.9193 67.6224 68.7744 73.1964 61.8927 71.7694Z" fill="#FFEAD4"/>
<path d="M61.8927 71.7694C64.1606 69.1851 66.476 64.0188 66.5969 61.9149C70.5128 56.0434 75.6529 59.5598 75.3376 63.2896C74.9193 67.6224 68.7744 73.1964 61.8927 71.7694Z" fill="#EFB899"/>
<path d="M67.4555 68.9722C67.5128 71.011 62.6599 69.167 62.6599 69.167C62.6599 69.167 64.2149 66.8427 64.8425 65.6848C66.1011 63.4889 68.1925 61.0296 71.2609 61.3034C73.1866 61.4893 74.2634 63.4996 72.993 65.2757C73.2008 64.1296 72.9923 63.1152 71.6164 63.2739C70.5986 63.3625 69.2945 63.9393 68.6551 64.6774C70.6957 64.6801 69.9701 66.6209 68.8492 67.3126C67.5502 68.0693 66.1406 67.0287 65.4615 68.4881C66.0163 69.0126 66.7908 68.8108 67.4555 68.9722Z" fill="#CC8C8B"/>
<path d="M67.4555 68.9722C67.5128 71.011 62.6599 69.167 62.6599 69.167C62.6599 69.167 64.2149 66.8427 64.8425 65.6848C66.1011 63.4889 68.1925 61.0296 71.2609 61.3034C73.1866 61.4893 74.2634 63.4996 72.993 65.2757C73.2008 64.1296 72.9923 63.1152 71.6164 63.2739C70.5986 63.3625 69.2945 63.9393 68.6551 64.6774C70.6957 64.6801 69.9701 66.6209 68.8492 67.3126C67.5502 68.0693 66.1406 67.0287 65.4615 68.4881C66.0163 69.0126 66.7908 68.8108 67.4555 68.9722Z" fill="#DC9878"/>
<path d="M63.0919 61.0532C63.315 60.4468 63.5996 59.8986 63.6411 59.2373C63.7771 57.6731 62.7156 56.2026 62.9716 54.635C62.4841 56.5092 62.1183 58.4399 61.9324 60.3656C61.2932 56.8427 61.1904 53.1847 61.6306 49.6315C61.7735 48.3072 61.9763 46.9812 61.9392 45.6619C61.9021 44.3426 61.5635 42.9718 60.6953 41.976C64.1532 41.1586 67.671 40.3396 71.1288 39.5222C72.9777 39.1101 74.8266 38.6981 76.6923 38.8857C80.8485 39.429 81.7909 43.0634 81.6538 46.7281C81.472 50.9343 80.5021 54.8625 77.8364 58.2382C77.8296 57.9983 77.8212 57.6985 77.8145 57.4586C77.8414 58.4181 76.3878 60.0793 75.8066 60.7558C75.5152 61.0641 75.2255 61.4323 74.9324 61.6806C75.75 60.8774 72.2146 58.9363 71.7332 58.8898C69.8042 58.584 68.0389 59.8339 66.8166 61.1885C63.6162 64.7593 62.0737 69.6638 59.2415 73.5243C59.1868 69.4449 61.5157 64.7583 63.0919 61.0532Z" fill="#171717"/>
<path opacity="0.5" d="M81.2654 45.7181C81.3591 46.9158 81.3328 48.1168 81.25 49.4394C81.064 51.3651 80.4465 52.8828 79.7158 54.6438C79.4329 55.2519 79.2698 55.8566 78.9269 56.4664C78.5806 56.9562 77.6928 57.4013 77.6514 58.0626C77.9007 56.2552 77.5985 54.0431 77.2481 52.2526C76.3493 54.4383 74.9057 56.4594 73.1488 58.0091C73.1101 56.6299 73.1296 55.189 73.0908 53.8098C71.8255 55.7658 70.2553 57.5503 68.4351 58.9818C68.5179 57.6592 68.5408 56.3382 68.6236 55.0156C68.0045 56.4733 67.3853 57.9311 66.7044 59.3305C67.0423 58.5409 65.7207 56.3575 65.5172 55.523C65.3086 54.5086 65.3999 53.4858 65.1913 52.4714C64.9734 53.2577 64.8154 54.0424 64.5991 54.8886C63.6305 52.4553 62.6585 49.902 62.8242 47.2567C63.0017 45.0312 63.9639 42.9636 65.1093 41.011C65.7629 42.9131 66.5964 44.8101 67.25 46.7122C67.9241 45.0729 68.4749 43.317 69.0873 41.6194C71.007 43.7259 72.4021 46.3873 73.021 49.1906C74.2045 46.4567 75.0231 43.553 75.3003 40.6045C76.8348 41.8217 78.078 43.3471 79.0264 45.0609C79.3306 43.0719 78.9717 40.9814 77.9617 39.2094C80.0528 41.0111 81.0147 43.2046 81.2654 45.7181Z" fill="#1E1E1E"/>
<path opacity="0.6" d="M81.201 45.6011C81.2812 46.319 81.3614 47.0369 81.2633 47.8199C81.0993 50.5251 80.399 53.3655 78.3524 55.2834C78.3635 53.5427 78.1947 51.8071 77.9059 50.0748C77.4437 52.8484 75.7755 55.4159 73.4789 56.9808C73.9182 55.5281 74.1776 54.0805 74.2554 52.5779C73.5281 54.4588 72.3159 56.1733 70.7322 57.4781C70.5947 54.7213 70.1557 51.913 69.3603 49.2347C68.165 51.5488 67.3963 54.091 67.1106 56.7397C66.1023 55.0276 65.4503 53.1855 65.0966 51.275C64.8187 52.063 64.5407 52.851 64.2645 53.6989C64.4309 53.2142 63.654 51.1955 63.5172 50.5992C63.3737 49.763 63.1735 49.0485 63.1483 48.149C63.1492 46.0485 63.6882 43.8728 64.6554 41.9852C65.0675 43.834 65.7177 45.6162 66.6627 47.21C67.4018 45.7489 68.1393 44.2278 68.8784 42.7667C69.1705 44.6189 69.9407 46.3977 71.0622 47.8665C71.5133 46.8336 71.8428 45.7441 72.1106 44.5963C72.7524 46.0786 73.3342 47.5626 73.976 49.0449C75.0429 46.4343 75.625 43.6573 75.7274 40.8938C77.5837 42.8821 77.7711 45.2774 79.0311 47.4025C79.9383 45.5166 79.6758 42.5832 79.2587 40.5545C79.4706 41.6888 80.4655 42.9211 80.799 44.112C80.9941 44.6467 81.1275 45.123 81.201 45.6011Z" fill="#323232"/>
<path d="M2.53988 26.9877C3.2366 28.2884 4.17149 29.5225 5.22127 30.5732C4.32177 30.5985 3.35555 30.3856 2.50422 29.9894C2.92904 30.1575 3.49403 31.0419 3.86226 31.3316C5.51677 32.5454 7.22449 33.5176 9.21351 33.8218C12.1654 34.2189 15.2685 33.5916 17.7399 31.8417C19.5052 30.5918 20.8373 28.874 22.2926 27.2727C23.748 25.6714 25.2633 24.0685 27.2186 23.1733C29.1739 22.2782 31.4526 22.2141 33.2854 23.3629C31.9408 22.5005 31.0989 20.3036 29.6893 19.2629C28.4013 18.2789 26.4537 17.3134 24.7265 17.7821C23.4773 18.1772 22.31 19.3503 21.1258 19.9237C19.3504 20.8138 17.64 21.8822 16.0546 23.127C14.2944 24.5568 12.6025 26.2848 10.4006 26.9468C7.5441 27.8073 4.57201 26.6905 1.83979 25.567C2.09314 26.04 2.28653 26.5147 2.53988 26.9877Z" fill="#323232"/>
<path d="M78.4874 34.4549C78.4595 35.596 78.3715 36.7387 78.3436 37.8798C78.3537 38.2396 78.3055 38.661 78.0741 38.9676C77.7861 39.3958 77.2514 39.5909 76.7151 39.726C73.5588 40.5949 70.2825 41.4672 66.9776 41.32C66.1363 41.2836 65.2335 41.189 64.3939 41.2126C62.7149 41.2598 60.9927 41.9083 59.3102 41.8356C59.5181 40.6895 59.4844 39.4901 59.3324 38.3541C58.5848 39.5154 57.5924 40.5035 56.4116 41.1969C55.888 39.6512 55.3628 38.0456 54.8392 36.4999C54.8763 37.8192 54.7918 39.0819 54.5273 40.3496C52.927 36.7937 49.6696 34.0646 45.8596 33.0314C47.2092 34.0738 48.3857 35.361 49.1491 36.8999C45.4372 35.0838 41.3773 33.6975 37.2261 33.3341C29.6466 32.7069 24.1109 36.4634 18.6637 41.2376C17.5496 42.1691 16.4389 43.2206 15.0048 43.441C11.4768 43.9002 12.5201 40.4501 12.6461 38.5261C12.7239 37.0235 12.1423 31.2785 13.8628 30.57C12.2606 31.2152 10.3366 31.0892 8.81042 30.1719C11.0774 29.688 12.2059 27.1357 12.6233 24.9035C13.039 22.6112 13.0298 20.1509 14.2968 18.2548C15.4507 16.602 17.6357 15.3403 19.3478 14.332C21.2381 13.2586 22.5186 11.8423 24.2223 10.5341C24.9284 10.0341 25.6978 9.65241 26.5306 9.38895C29.149 8.59518 31.9125 8.69755 34.5308 7.90378C38.5765 6.6498 41.6655 3.38222 46.038 3.07927C48.375 2.95357 50.5473 3.37263 52.7179 3.73172C55.1301 4.14404 57.6723 4.91278 59.7516 6.29468C61.8926 7.73486 62.9262 10.3464 65.1855 11.7233C67.1998 12.927 69.7234 13.0361 71.736 14.1798C72.8956 14.8674 73.8221 15.8016 74.632 16.8591C76.1252 18.7375 77.3252 20.8643 78.1106 23.1828C78.3083 21.6769 78.4477 20.2326 78.6455 18.7267C80.0237 20.7885 80.5776 23.4135 80.5285 25.9355C80.4793 28.4575 79.8905 30.9947 79.2983 33.4119C79.0271 34.4397 79.1868 33.7151 78.4874 34.4549Z" fill="#323232"/>
<path d="M14.0675 22.8815C13.8647 24.2075 13.7835 25.5902 14.2387 26.8377C14.6577 24.6654 15.5599 22.5995 16.8903 20.8217C17.2383 20.3918 17.5863 19.9619 17.9976 19.6503C18.8203 19.027 19.7747 18.8202 20.7874 18.5517C19.4765 18.8886 18.0104 17.9696 16.6463 18.548C15.0474 19.3131 14.3218 21.254 14.0675 22.8815Z" fill="#464646"/>
<path d="M22.826 16.3933C22.7677 16.4549 22.7694 16.5149 22.7094 16.5166C22.0168 17.4963 21.5691 18.6491 20.9998 19.7454C20.0909 21.5713 18.7554 23.1693 17.2317 24.4724C19.1921 23.7571 20.5841 22.0376 21.9812 20.498C24.0776 18.2185 27.2053 16.3302 30.3505 17.202C31.8632 17.6396 33.2643 18.3804 34.6672 19.1812C33.3869 16.3365 30.6092 13.5939 27.3659 13.505C25.6852 13.4922 23.8101 15.1053 22.826 16.3933Z" fill="#1E1E1E"/>
<path d="M49.2679 36.8361C45.556 35.0199 41.4961 33.6337 37.3448 33.2703C34.458 33.0513 30.2553 32.9894 27.7822 34.6793C28.5482 34.1777 29.2089 32.0586 29.8466 31.2605C30.7141 30.0958 31.7699 29.226 32.8223 28.2361C34.9289 26.3165 37.6209 21.7398 41.3396 23.7957C38.9621 22.4822 37.1007 20.314 36.1887 17.759C38.3846 19.0176 40.7503 19.9114 43.2275 20.5019C46.5509 21.3087 49.3939 19.9685 52.4785 18.6815C54.6737 17.7796 56.8672 16.8177 59.2608 16.5704C63.0286 16.1044 66.9787 17.8539 69.5166 20.6032C70.5697 21.7739 71.8728 23.2976 72.3947 24.7833C72.9132 26.1491 73.5042 30.0934 72.3985 31.3248C74.1436 29.3553 75.0906 26.748 74.9564 24.1112C75.4615 24.9972 75.8482 25.9465 76.1168 26.9592C76.7892 25.2599 76.7335 23.281 76.2049 21.5555C75.6746 19.77 74.6696 18.1778 73.5481 16.709C75.6392 18.5106 77.0758 20.5108 77.9895 23.1257C78.1872 21.6198 78.3267 20.1755 78.5244 18.6696C80.0243 20.788 80.5782 23.413 80.529 25.935C80.4799 28.457 79.891 30.9941 79.2988 33.4114C79.0876 34.4375 79.2473 33.7129 78.4879 34.4544C78.46 35.5955 78.3721 36.7382 78.3441 37.8793C78.3543 38.2391 78.3061 38.6605 78.0746 38.9671C77.7866 39.3953 77.252 39.5904 76.7156 39.7255C73.5593 40.5944 70.283 41.4666 66.9781 41.3195C66.1369 41.2831 65.234 41.1884 64.3945 41.212C62.7154 41.2592 60.9932 41.9078 59.3108 41.835C59.5186 40.6889 59.4849 39.4896 59.3329 38.3536C58.5854 39.5149 57.5929 40.503 56.4121 41.1963C55.8886 39.6507 55.3633 38.0451 54.8398 36.4994C54.8768 37.8187 54.7923 39.0814 54.5279 40.3491C52.9276 36.7932 49.6701 34.0641 45.8602 33.0309C47.328 34.0099 48.5061 35.3571 49.2679 36.8361Z" fill="#323232"/>
<path opacity="0.46" d="M65.4929 16.2759C66.921 17.9761 67.9961 19.9264 68.5365 22.0717C65.2588 18.623 59.535 17.8237 55.4596 20.1587C57.0272 20.4148 58.4334 21.3355 59.31 22.6311C56.4579 21.511 53.1014 21.6654 50.3183 23.0039C53.9949 23.5607 57.412 25.5652 59.7167 28.5611C60.9016 30.1482 61.7934 31.9836 62.2671 33.8907C62.6074 35.3215 62.027 38.1585 62.6004 39.3427C63.5589 41.4162 69.728 38.8422 71.685 38.0071C77.4977 35.5631 79.5015 29.9855 76.1614 24.318C75.9435 25.1043 75.7272 25.9506 75.206 26.6254C74.2991 24.2503 73.2773 22.0585 71.4843 20.1884C70.6195 19.3125 69.6964 18.4983 68.6567 17.8073C67.862 17.2895 66.0511 16.9203 65.4929 16.2759Z" fill="#1E1E1E"/>
<path opacity="0.51" d="M71.7494 33.8639C72.2116 31.0903 71.2928 28.2954 70.0827 25.8088C70.705 28.732 69.9531 31.8739 68.4048 34.438C66.8564 37.0022 64.635 39.1051 62.1002 40.7367C62.5716 40.4234 64.9305 41.0773 65.8216 40.7521C66.5944 40.4904 67.0024 40.0588 67.6485 39.5605C69.7052 38.0024 71.3438 36.5159 71.7494 33.8639Z" fill="#171717"/>
<path opacity="0.51" d="M55.0267 36.7948C54.7228 34.5228 54.179 32.2575 53.3387 30.1206C54.7618 31.641 56.01 33.3463 57.0217 35.1783C57.0885 35.4165 57.1535 35.5947 57.1602 35.8346C57.1585 35.7746 57.2151 35.653 57.2118 35.5331C57.7801 36.5373 58.2302 37.605 58.6803 38.6726C59.0994 36.5003 59.2786 34.3347 59.2162 32.1159C60.8909 34.0493 61.6264 36.7293 61.2774 39.2597C62.1466 38.155 63.0141 36.9904 63.8233 35.8874C63.9938 37.683 63.6846 39.4921 63.0105 41.1315C63.1253 40.9482 63.4767 40.6382 63.9497 40.3849C63.7183 40.6915 63.5485 41.0563 63.2554 41.3046C61.9412 41.5216 60.6903 41.8568 59.3676 41.774C59.5755 40.6279 59.5418 39.4285 59.3898 38.2925C58.6423 39.4538 57.6498 40.4419 56.469 41.1353C56.0088 39.7079 55.4886 38.2822 55.0267 36.7948Z" fill="#171717"/>
<path opacity="0.51" d="M47.3104 33.4104C46.8856 33.2423 46.4608 33.0742 45.9777 32.9678C47.3273 34.0101 48.5037 35.2974 49.2672 36.8363C48.8238 36.0085 45.622 35.2583 44.7723 34.9221C43.8027 34.5893 42.7732 34.2581 41.807 34.0452C41.3188 33.7589 40.8306 33.4725 40.2842 33.2478C42.4743 32.166 45.1179 32.2718 47.3104 33.4104Z" fill="#171717"/>
<path opacity="0.51" d="M54.9123 36.9787C54.9444 38.1181 54.8548 39.2008 54.6452 40.287C53.3017 37.324 50.7739 34.9345 47.7968 33.6378C46.937 32.9418 46.0173 32.2475 45.1592 31.6115C49.0005 31.6235 52.7808 33.7378 54.9123 36.9787Z" fill="#171717"/>
<path d="M13.0162 45.2965C10.9588 44.6941 8.89299 43.792 7.5848 42.0883C8.84916 42.2328 10.1135 42.3773 11.3779 42.5218C8.84242 41.9929 6.51985 40.4979 4.90172 38.4428C6.04446 38.5307 7.18721 38.6187 8.33163 38.7665C6.5124 38.0975 4.85958 36.9437 3.73467 35.3549C5.98884 36.5518 8.81235 36.6525 11.0624 35.569C12.3066 34.9939 13.3607 34.0641 14.4148 33.1342C17.5755 30.2848 20.7294 27.1954 24.7701 25.7615C30.533 23.6791 36.9485 25.5992 42.7094 27.7179C41.4366 27.2735 37.0867 30.5165 36.0258 31.2065C33.8475 32.7081 31.9774 34.5011 30.1074 36.294C28.8801 37.4688 27.6494 38.5236 26.4838 39.7567C24.9102 41.4213 23.7099 43.5555 21.7647 44.8105C19.0517 46.5071 15.9216 46.175 13.0162 45.2965Z" fill="#323232"/>
<path d="M16.1931 32.3646C15.7217 32.6779 15.2488 32.9313 14.7774 33.2446C16.8113 33.0074 18.7683 32.1722 20.292 30.8691C21.4044 29.8776 22.3918 28.7096 23.7559 28.1311C25.9494 27.1692 30.0601 26.0934 32.1944 27.2938C31.2797 26.7793 30.6945 25.1754 29.5966 24.5461C28.437 23.8585 27.0459 23.4775 25.67 23.6362C21.8989 23.9823 21.0921 27.3057 19.1223 29.8217C18.2498 30.8065 17.2539 31.6746 16.1931 32.3646Z" fill="#1E1E1E"/>
<path d="M28.5 34.5996C28.3801 34.603 28.3218 34.6646 28.2019 34.668C28.0819 34.6714 27.9637 34.7347 27.8437 34.7381L28.5 34.5996Z" fill="#1E1E1E"/>
<path d="M27.8438 34.7383L26.293 35.0819C26.8294 34.9468 27.3674 34.8717 27.8438 34.7383Z" fill="#1E1E1E"/>
<path d="M19.0366 41.7081C22.4025 39.753 24.5117 35.7928 28.201 34.6689C29.3953 34.4553 30.5313 34.3033 31.7306 34.2696C31.8506 34.2662 32.0305 34.2612 32.1521 34.3178C31.451 34.9976 30.7483 35.6175 30.0472 36.2974C28.8199 37.4722 27.5893 38.527 26.4236 39.76C24.85 41.4247 23.6497 43.5589 21.7045 44.8139C19.0515 46.5088 15.9214 46.1767 13.0177 45.3581C10.9603 44.7558 8.89449 43.8536 7.58631 42.15C8.18766 42.1931 8.73073 42.2978 9.33209 42.3409C9.99847 42.5623 10.7248 42.7819 11.3878 42.8833C13.9816 43.3505 16.7933 43.0314 19.0366 41.7081Z" fill="#1E1E1E"/>
<path opacity="0.51" d="M14.2887 45.6814C16.2609 45.3859 18.2196 44.6107 19.8066 43.4258C20.1597 43.1758 20.4528 42.9275 20.7459 42.6792C21.8 41.7494 22.7908 40.7013 23.9066 39.8297C25.1972 38.7732 26.7412 38.1897 28.3535 37.9043C27.7107 38.5225 27.008 39.1424 26.4269 39.8189C24.8533 41.4835 23.6529 43.6177 21.7077 44.8727C19.4661 46.256 16.8242 46.2103 14.2887 45.6814Z" fill="#171717"/>
<path d="M32.7618 43.1822C32.5978 45.8874 33.5266 49.0421 33.9488 51.2507C32.296 50.0969 31.0461 48.3316 30.5107 46.3662C30.2285 49.1348 31.029 51.993 32.7138 54.2862C32.7121 54.2262 30.718 53.7421 30.3498 53.4524C29.3718 52.8197 28.5087 52.0038 27.7655 51.1845C26.2791 49.5458 25.1424 47.5373 24.6019 45.392C23.5895 41.3995 24.7207 36.8066 27.7015 33.9622C31.4433 30.4362 38.4409 29.5793 42.7795 32.3381C41.63 32.0103 40.4374 32.2839 39.3698 32.734C35.2227 34.651 33.0552 38.6728 32.7618 43.1822Z" fill="#323232"/>
<path d="M37.1561 11.6113C38.4905 12.1139 39.7701 12.7981 41.1079 13.4206C44.6965 15.1202 48.4397 15.9152 52.3528 16.3454C50.1094 17.6687 45.0385 16.611 42.5647 16.1404C43.6812 17.4293 45.2056 18.2867 46.8348 18.601C44.616 18.6633 43.1701 18.4639 41.2225 17.4984C39.1533 16.4763 37.3105 14.9677 35.2396 13.8857C31.5859 12.0079 27.0234 11.9561 23.3526 13.7397C24.2403 13.2946 24.9262 12.075 25.8722 11.5683C26.9364 10.9983 28.129 10.7247 29.3284 10.691C31.9703 10.7368 34.7305 10.7192 37.1561 11.6113Z" fill="#464646"/>
<path d="M64.9417 20.1312C64.2813 17.9892 62.8532 16.2889 60.4377 15.7567C59.3515 15.5472 58.2755 15.6974 57.2028 15.9676C52.7339 17.1135 48.6839 20.3481 44.058 20.178C48.476 21.4942 53.0557 17.8846 57.6317 18.4162C59.739 18.657 61.9349 19.9156 62.8883 21.8093C63.5867 23.17 65.0519 26.1895 64.1929 27.654C65.3332 25.5214 65.6704 22.5713 64.9417 20.1312Z" fill="#464646"/>
<path d="M59.6685 9.71717C61.0451 11.719 63.0096 13.2841 64.9706 14.7294C63.1565 14.2402 61.4504 13.328 59.9775 12.1691C60.6793 13.6497 61.9706 14.7537 63.4334 15.5528C65.6893 16.8097 68.0051 18.0649 69.858 19.9333C70.8478 20.9857 73.7007 24.2663 73.2665 25.8989C73.4811 24.9927 73.6973 24.1464 73.852 23.2418C74.5807 25.6819 75.1912 28.1854 75.5635 30.7555C76.6937 28.2632 76.7927 25.3797 76.0589 22.7597C75.3251 20.1397 73.8185 17.7815 71.9622 15.7932C69.9226 13.69 67.089 13.2295 64.4801 12.2226C62.6592 11.4936 60.8915 10.523 59.4135 9.18421C59.4202 9.42407 59.5452 9.6006 59.6685 9.71717Z" fill="#464646"/>
<path d="M38.7203 9.58511C41.2625 10.3539 43.7447 11.1243 46.2869 11.893C44.5041 10.3828 42.4897 9.17908 40.2457 8.34194C42.0676 6.97042 44.5161 6.54151 46.6935 7.14047C49.9586 8.00892 52.9813 10.9247 55.7937 12.7661C53.9246 12.4585 52.1138 12.0893 50.2447 11.7818C52.6323 13.4551 55.4228 14.5169 58.3114 14.7958C54.6999 14.4172 51.3737 15.651 47.6905 14.8543C44.307 14.0492 41.0748 12.2196 38.7203 9.58511Z" fill="#1E1E1E"/>
<path d="M61.7791 25.0811C63.3491 27.5576 63.5634 30.9124 62.3183 33.588C62.4055 30.2848 61.0518 26.962 58.649 24.749C56.2446 22.476 52.9127 21.3694 49.6795 21.6403C54.1501 20.5544 59.0158 20.7178 61.7791 25.0811Z" fill="#323232"/>
<path opacity="0.51" d="M45.9785 32.9681C47.3281 34.0104 48.5046 35.2977 49.268 36.8366C48.8247 36.0088 45.6228 35.2586 44.7732 34.9224C43.1372 34.3683 41.443 33.8757 39.7538 33.5631C36.8585 33.0444 33.5088 33.4386 30.7089 34.1775C34.0714 32.1025 38.2023 31.7463 42.1551 31.4552C39.368 30.5133 36.2446 30.421 33.3865 31.2215C36.9339 29.3214 40.9678 27.6476 44.7778 28.6808C48.1046 29.6075 51.325 31.0174 53.0934 34.1484C53.1442 31.6864 52.4138 29.1863 51.0955 27.1229C53.4747 28.4964 57.7152 32.0381 57.4447 35.2264C57.82 31.495 57.4072 27.4856 55.219 24.3664C58.0965 26.386 60.3945 29.1421 61.863 32.2816C61.7366 27.784 58.9151 23.4823 54.8383 21.4964C56.2378 22.1772 57.677 22.1368 59.0232 23.0592C60.4911 24.0381 61.9606 25.0771 62.9639 26.6093C64.0288 28.1997 64.6791 29.9819 65.0911 31.8307C65.9068 35.2286 65.6997 38.5352 63.2569 41.3045C61.9427 41.5215 60.6918 41.8567 59.3692 41.7739C59.577 40.6278 59.5433 39.4284 59.3914 38.2924C58.6438 39.4537 57.6513 40.4419 56.4705 41.1352C55.947 39.5895 55.4217 37.9839 54.8982 36.4383C54.9353 37.7575 54.8507 39.0202 54.5863 40.2879C52.986 36.7321 49.7285 34.003 45.9785 32.9681Z" fill="#171717"/>
<path d="M29.1001 17.5373C28.9953 18.0804 28.8905 18.6235 28.9623 19.0416C29.1759 20.2358 29.6927 21.5416 30.2645 22.6658C31.413 25.0941 34.162 26.8173 36.7625 27.5244C39.0598 28.12 41.5185 28.0509 43.8723 28.5248C47.5539 29.2616 50.8579 31.5093 52.9244 34.5719C52.7152 31.397 51.3884 29.0338 49.9916 26.3124C52.174 27.0912 54.1122 29.8574 55.5437 31.6776C56.4153 32.7934 59.1203 37.2184 58.083 38.7479C60.1609 35.8089 60.9839 30.9246 59.3303 27.6102C57.8035 24.5324 54.698 22.9393 51.551 22.0075C47.7994 20.9127 44.67 22.741 40.8321 22.8489C38.2535 22.9214 35.7595 21.7312 33.6802 20.3493C31.7841 19.0823 29.9962 17.3921 29.3941 15.1885C29.5892 15.7231 29.3147 16.6311 29.1001 17.5373Z" fill="#323232"/>
<path d="M39.5824 25.3448C36.3323 25.016 33.4566 23.0564 31.2886 20.6567C29.3673 18.4902 27.2805 14.7079 27.3778 11.7645C28.2764 13.8397 29.5896 15.7233 31.1343 17.3003C31.6908 17.8848 32.3074 18.4676 32.9222 18.9904C33.9086 19.9229 34.7701 20.6789 35.9863 21.2449C40.1813 23.1674 44.9382 21.5934 49.3158 21.4703C54.2914 21.2705 58.2583 23.6196 60.0739 28.4297C59.0875 27.4972 57.9828 26.628 56.9398 25.8171C57.9963 27.1078 58.5815 28.7117 58.7486 30.3874C58.9158 32.0631 58.6614 33.6906 58.3471 35.3199C58.7679 33.2075 56.0316 29.8036 54.6136 28.4631C52.5773 26.4799 49.7818 25.2381 46.9566 25.0775C44.4929 24.9667 42.0494 25.5755 39.5824 25.3448Z" fill="#464646"/>
<path d="M42.3619 23.8864C45.1271 24.0487 47.9143 24.9906 50.0054 26.7923C52.0965 28.594 53.495 31.3753 53.3926 34.1389C51.7957 30.7029 48.8381 27.9654 45.3195 26.6239C43.1971 25.8434 40.9665 25.486 38.7908 24.947C36.6751 24.4063 34.4294 23.5092 33.0596 21.7473C36.0003 23.8852 38.8754 23.6843 42.3619 23.8864Z" fill="#464646"/>
<path d="M49.5513 31.9674C47.635 29.9807 45.0659 28.2525 42.3606 28.0885C37.2516 27.812 31.83 29.2247 27.5283 32.0463C31.5774 30.9122 35.7751 30.7942 39.9195 30.9178C43.0429 31.01 48.1815 30.2054 50.4812 33.0215C50.2312 32.6684 49.9212 32.3171 49.5513 31.9674Z" fill="#1E1E1E"/>
<path d="M51.6415 3.88063C52.9193 4.50487 53.9657 5.43569 54.8508 7.0312C55.5475 8.33193 56.0077 9.75934 56.408 11.1884C55.5492 8.3919 49.8432 6.09169 47.3128 5.74271C43.6962 5.1842 39.8684 5.65188 36.484 6.94729C39.453 3.68308 43.2639 2.61574 47.4734 2.91752C49.0376 3.0536 50.4253 3.31467 51.6415 3.88063Z" fill="#464646"/>
<path d="M46.7677 1.25871C49.5211 1.00127 52.3514 1.34182 54.902 2.41041C57.4543 3.53895 59.6687 5.45718 60.9972 7.88043C55.021 4.50756 48.4805 2.41085 41.6358 2.30317C43.2414 1.77792 45.032 1.42752 46.7677 1.25871Z" fill="#464646"/>
<path d="M29.7984 10.3767C28.9656 10.6402 28.0745 10.9653 27.3067 11.407C24.1723 13.0555 21.6062 15.7082 19.5866 18.5856C19.7597 18.3407 19.4794 16.9082 19.5276 16.4868C19.6256 15.7038 19.7836 14.9192 20.1232 14.1895C20.7491 12.9716 21.7348 11.7436 22.6057 10.6989C26.3155 6.03355 33.5486 7.15056 37.6075 10.6373C35.1169 9.56707 32.3567 9.58464 29.7984 10.3767Z" fill="#464646"/>
<path d="M28.2625 15.4622C28.5597 17.4944 31.1026 20.4236 32.3474 22.009C33.9639 24.0041 36.1682 25.5625 38.3641 26.8211C37.3878 26.2484 35.7154 26.5354 34.6175 25.9061C33.5195 25.2769 32.4765 24.466 31.6683 23.4684C29.8035 21.1803 28.7032 18.3305 28.2625 15.4622Z" fill="#464646"/>
<path d="M41.4204 22.4131C37.5792 22.401 33.7507 20.7082 31.0929 17.9622C32.8081 21.3349 36.4136 23.6341 40.1999 23.8277C43.145 23.985 46.0548 22.883 48.9999 23.0403C51.4036 23.1527 56.4297 24.7519 57.3434 27.3668C56.7549 25.643 55.7499 24.0508 54.277 22.8919C50.7197 20.1712 45.5615 22.4167 41.4204 22.4131Z" fill="#5A5B5B"/>
<path d="M56.7702 15.4993C54.5032 15.9831 52.4997 17.2997 50.8628 18.8461C53.7159 17.8657 57.0784 15.7907 60.0007 17.269C62.1915 18.3477 65.0393 21.4484 64.6337 24.1004C65.4482 18.9163 62.6765 14.253 56.7702 15.4993Z" fill="#5A5B5B"/>
<path d="M25.9903 11.5042C29.0968 10.9968 31.417 10.2714 34.6805 11.0799C37.5808 11.7786 40.1314 12.8472 42.8104 14.2122C44.9413 15.2926 47.3636 16.0647 49.774 16.4171C47.8019 16.7125 45.8179 16.5883 43.8838 16.1025C41.7081 15.5635 39.8138 14.3565 37.8679 13.4509C40.3188 15.2425 42.2519 17.8288 45.099 18.769C43.4031 18.2165 41.784 18.262 40.1362 17.2881C38.3052 16.1993 36.8222 14.6806 35.0511 13.5901C34.0131 12.9591 31.2108 11.4775 29.9667 12.0526C30.4397 11.7993 30.976 11.6642 31.5157 11.649C29.6449 11.2815 27.8426 11.2121 25.9903 11.5042Z" fill="#5A5B5B"/>
<path d="M71.4041 15.1493C72.1372 15.6088 72.8153 16.2499 73.3153 16.956C74.3152 18.3682 74.3092 20.2889 74.2381 22.0313C74.3092 20.2889 71.6581 17.7828 70.4918 16.8553C68.6507 15.4067 66.4167 14.9294 64.5207 13.6624C63.481 12.9714 62.7311 11.9122 61.753 11.2796C64.5021 13.0027 68.59 13.2479 71.4041 15.1493Z" fill="#5A5B5B"/>
<path d="M48.8019 3.18162C50.9809 3.84055 52.942 5.28579 54.137 7.23267C53.1919 5.63885 48.9056 4.73908 47.2165 4.42647C44.6227 3.95925 42.1075 4.14997 39.6074 4.8804C41.8905 2.83576 45.9581 2.36134 48.8019 3.18162Z" fill="#5A5B5B"/>
<path d="M25.8599 23.9315C26.9696 24.9806 28.1808 25.3666 29.5752 25.8676C30.7263 26.2553 32.8319 26.4362 33.7466 26.9506C31.7956 25.8652 29.7763 24.4816 27.9985 23.1512C26.8338 22.2837 23.8559 18.8266 23.992 17.2624C23.7596 19.6695 24.1336 22.2996 25.8599 23.9315Z" fill="#464646"/>
<path d="M24.4278 26.3711C22.5358 27.3845 20.9023 29.0508 19.4005 31.1335C19.0541 31.6233 18.6495 32.1748 18.6681 32.8345C20.8828 30.4917 23.1261 29.1683 26.3559 28.7775C29.1076 28.4601 31.9379 28.8006 34.7031 28.963C37.4683 29.1253 40.3501 29.1643 42.9634 28.1907C38.8273 28.3669 34.977 25.8945 30.8807 25.3495C28.2903 25.0022 26.2015 25.421 24.4278 26.3711Z" fill="#464646"/>
<path d="M31.2927 46.4033C31.2677 41.2428 32.8206 32.437 38.7422 31.7305C37.4263 31.8875 36.0504 32.0462 34.8029 32.5013C31.8315 33.5451 28.9242 36.8676 27.3759 39.4317C27.7282 37.0212 28.622 34.6555 29.9456 32.6379C29.5444 33.3093 28.2403 33.8861 27.6574 34.5026C26.9598 35.3024 26.387 36.2787 25.9942 37.25C24.4281 41.315 25.008 47 28.2156 50.0906C27.084 48.262 27.378 45.9132 27.9787 43.7958C28.3081 42.7063 28.6959 41.5551 29.5152 40.8119C29.6705 42.0679 29.6459 43.3288 30.0994 44.5164C30.4896 45.5857 31.3544 46.4616 31.3881 47.6609C31.3163 47.2428 31.3045 46.8231 31.2927 46.4033Z" fill="#464646"/>
<path d="M15.2613 39.7719C12.5898 40.8072 9.39972 40.4768 7.0721 38.8018C7.80855 39.3813 10.9548 38.1525 11.9092 37.9457C13.6381 37.537 15.172 36.5937 16.5192 35.4155C19.3302 32.936 22.4191 29.6684 26.4123 30.8164C24.3202 31.1153 22.6233 32.6633 21.2279 34.2629C19.8325 35.8625 18.6221 37.637 16.9168 38.8852C16.3872 39.2602 15.8559 39.5752 15.2613 39.7719Z" fill="#464646"/>
<path d="M11.1993 40.427C12.2888 40.7564 13.4181 40.3646 14.4857 39.9145C16.1462 39.2077 17.6268 38.5059 19.0357 37.386C19.7984 36.7644 22.7664 35.6008 22.9844 34.8145C21.2171 40.2654 16.3437 41.9628 11.1993 40.427Z" fill="#464646"/>
<path d="M8.60043 26.9362C7.10294 27.0383 5.59366 26.7206 4.00923 25.865C3.52107 25.5786 1.09711 24.7465 0.905406 24.3318C2.61553 27.5245 6.87726 29.6853 10.4719 29.4642C12.8689 29.3368 14.8006 27.6021 16.6158 25.9907C18.371 24.381 20.426 22.7629 22.8263 22.7554C19.926 22.0568 16.9698 23.6402 14.3084 25.0354C12.3581 26.1104 10.5177 26.8223 8.60043 26.9362Z" fill="#464646"/>
<path d="M14.904 31.3199C12.8305 32.2784 10.2519 32.3509 8.24095 31.2671C10.1734 31.6929 12.1321 30.9177 13.8441 29.9094C15.0832 29.1544 16.2589 28.2811 17.3114 27.2913C17.8376 26.7964 19.7245 25.6031 19.9492 25.0566C19.0023 27.6639 17.5122 30.1663 14.904 31.3199Z" fill="#464646"/>
<path d="M23.2438 9.901C21.7201 11.2041 20.6929 13.0934 20.3888 15.0825C21.4911 13.7312 22.8383 12.553 24.1272 11.4365C24.5968 11.0633 25.0664 10.69 25.5361 10.3167C27.423 9.12337 29.695 8.81946 31.9087 8.57719C30.5928 8.73421 29.0667 7.81688 27.6291 7.91729C26.0134 8.08274 24.4145 8.84785 23.2438 9.901Z" fill="#5A5B5B"/>
<path opacity="0.8" d="M64.4067 52.3147C64.3798 51.3553 64.531 50.3308 64.8655 49.4211C65.1044 51.5149 65.8813 53.5336 67.1296 55.2389C66.4389 52.0175 68.0286 48.7921 68.4773 45.5387C67.3733 46.8301 66.6376 48.4111 66.2034 50.0437C65.2533 48.27 64.5677 45.2285 64.5703 43.188C62.5591 46.3652 64.2541 49.0182 64.4067 52.3147Z" fill="#464646"/>
<path opacity="0.8" d="M70.4012 49.9261C70.825 52.1948 70.8942 54.6534 71.1246 56.4474C71.8122 55.2878 72.2582 54.0749 72.7625 52.8005C72.9306 52.3756 73.5363 50.4382 73.9966 51.8656C74.3267 52.9365 74.4787 54.0725 74.3291 55.157C77.0084 52.261 78.0264 47.9114 76.8991 44.1022C76.605 46.451 75.8878 48.6917 74.7458 50.7643C74.1707 49.5201 73.4757 48.2793 72.7223 47.1002C72.5795 48.4246 72.3185 49.8122 71.8141 51.0867C72.2602 49.8739 69.5323 46.7698 68.9073 45.8872C69.7172 46.9446 70.1175 48.3737 70.4012 49.9261Z" fill="#464646"/>
<path d="M57.6947 80.4087C59.0799 78.4493 60.3419 76.3734 61.3606 74.1842C61.7002 73.4545 62.0381 72.6648 62.4976 71.9317C64.9081 72.2841 67.175 71.8002 69.127 70.7852C67.9883 72.9777 65.0742 76.0603 64.3681 76.5603C64.4729 76.0172 64.5759 75.4141 64.6807 74.8711C63.1341 77.4952 60.6111 79.5465 57.6947 80.4087Z" fill="#171717"/>
<path d="M26.2948 28.7198C26.1149 28.7249 25.9966 28.7882 25.8167 28.7933C25.3117 27.9073 25.2197 26.7696 25.7907 25.7333C27.2181 25.2731 28.8339 25.1076 30.6996 25.2952C30.6615 26.0765 30.865 26.911 31.3033 27.5588C31.555 27.9719 31.9849 28.3199 32.2948 28.6712C30.2526 28.6086 28.2686 28.4843 26.2948 28.7198Z" fill="#5A5B5B"/>
<path d="M41.4196 22.4137C42.0792 22.3952 42.7988 22.375 43.5767 22.2931C43.3469 22.6596 43.1771 23.0245 43.1273 23.386C43.129 23.4459 43.1323 23.5659 43.134 23.6258C42.1779 23.7727 41.2201 23.8597 40.2573 23.7667C38.8147 23.6872 37.3637 23.3079 36.0859 22.6837C36.0208 22.5055 36.0175 22.3855 36.0124 22.2056C36.004 21.9058 36.0555 21.6043 36.1071 21.3028C37.8064 21.9752 39.6189 22.4043 41.4196 22.4137Z" fill="#797979"/>
<path d="M25.7131 37.9186C26.2612 38.2033 26.8676 38.4263 27.5306 38.5277C27.4791 38.8292 27.3676 39.1324 27.3161 39.4339C27.4875 39.1291 27.6607 38.8841 27.8921 38.5776C28.3735 38.624 28.8533 38.6106 29.2714 38.5388C30.5256 38.3235 31.9277 36.9638 33.1719 36.3887C32.3229 38.213 31.7823 40.3287 31.5397 42.376C30.8852 42.5744 30.2956 42.9511 29.6444 43.2694C29.5009 42.4333 29.4789 41.6537 29.3954 40.8158C28.5778 41.619 28.1284 42.7119 27.8589 43.7997C27.8023 43.9214 27.8073 44.1013 27.7507 44.2229C26.9196 44.5463 26.0835 44.6898 25.2955 44.4119C24.9349 42.2615 25.0491 39.9178 25.7131 37.9186Z" fill="#5A5B5B"/>
<path d="M74.9439 34.373C76.9474 33.0564 78.4644 31.5134 80.158 29.8454C80.9756 29.0422 83.7798 26.3228 83.0198 24.9038C83.5881 25.908 83.9352 27.5787 83.8489 28.7814C83.7129 30.3456 82.3656 31.5237 82.4111 33.1428C82.4314 33.8624 82.7497 34.5137 82.8899 35.2299C83.1787 36.9622 82.1464 38.6716 80.7359 39.7315C79.3253 40.7914 77.5981 41.26 75.9291 41.667C73.4274 42.3375 70.9239 42.948 68.347 43.0804C65.7702 43.2129 63.1181 42.8073 60.8606 41.4904C61.82 41.4635 62.7745 41.2566 63.6039 40.8732C62.826 40.9551 61.973 40.4989 61.5946 39.8494C62.5413 41.5032 73.7065 35.1879 74.9439 34.373Z" fill="#323232"/>
<path d="M75.7987 34.8909C78.863 32.8843 81.4358 30.4714 83.1438 27.1826C83.6047 30.7706 81.2954 34.0162 78.5326 36.0743C76.7107 37.4459 74.7655 38.7008 72.6252 39.4211C69.9486 40.2766 67.1268 40.2358 64.3033 40.1352C68.3524 39.0011 72.263 37.2108 75.7987 34.8909Z" fill="#464646"/>
<path d="M66.0193 41.3471C69.0877 41.621 72.9434 40.0122 75.6065 38.6771C77.7966 37.5953 79.7951 36.0988 81.5469 34.3691C81.1126 36.0017 80.1522 38.1292 78.6783 39.0709C75.2009 41.3291 69.9906 41.7156 66.0193 41.3471Z" fill="#464646"/>
<path opacity="0.51" d="M72.9922 39.6504C68.6365 40.553 64.3189 40.6744 59.8679 40.3194C61.1279 42.4445 63.2816 42.2039 65.497 42.0216C66.8146 41.9245 68.1288 41.7075 69.438 41.3107C70.5689 40.9788 71.8579 39.8623 72.9922 39.6504Z" fill="#171717"/>
<path d="M68.8259 38.747C71.2229 38.6196 74.5085 35.9466 76.3304 34.5751C77.4462 33.7035 78.6186 32.7103 79.6093 31.6622C80.2504 30.9841 82.1205 29.1911 82.2734 28.2266C81.9228 30.697 80.4994 33.4377 78.6243 35.0507C75.9299 37.407 72.3622 38.5875 68.8259 38.747Z" fill="#5A5B5B"/>
<path d="M70.9504 26.8049C70.3534 24.7812 68.9819 22.9593 67.1491 21.8105C68.3721 22.6164 67.7941 27.6738 67.5862 28.8199C67.1739 31.2321 66.1036 33.7228 64.4751 35.569C66.9135 34.7802 68.8985 32.804 69.7306 30.38C69.8859 31.636 69.8013 32.8986 69.4736 34.0481C71.4019 32.1935 71.6808 29.305 70.9504 26.8049Z" fill="#323232"/>
<path d="M8.77367 39.5348C11.9223 40.5265 16.5111 39.3773 18.6109 37.2178C19.1954 36.6612 19.595 35.9298 20.0578 35.3167C21.215 33.7838 22.6172 32.4241 24.2676 31.3574C23.2633 31.9258 22.1755 31.6563 21.0546 32.3479C19.7573 33.1646 18.5883 34.2777 17.3543 35.2126C15.8255 36.3358 14.2316 37.2808 12.4529 38.051C10.9106 38.6945 9.22812 38.6218 7.74412 39.2036C8.10729 39.3134 8.47046 39.4233 8.77367 39.5348Z" fill="#5A5B5B"/>
<path d="M14.7109 39.3679C14.1577 38.9034 13.7194 38.2555 13.461 37.6026C14.8834 36.9625 16.1807 36.1459 17.4148 35.211C17.8261 34.8993 18.2957 34.5261 18.7054 34.1545C18.7071 34.2144 18.7088 34.2744 18.7088 34.2744C18.9055 34.869 19.2222 35.4602 19.5972 35.9898C19.3091 36.418 19.0211 36.8462 18.6114 37.2178C17.7372 38.1426 16.2583 38.9044 14.7109 39.3679Z" fill="#797979"/>
<path d="M42.2023 13.9298C41.3644 14.0133 40.5882 14.1552 39.7554 14.4186C39.0857 14.0774 38.4759 13.7344 37.8078 13.4531C38.2977 13.7995 38.7892 14.2057 39.2208 14.6137C38.6262 14.8105 38.0332 15.0672 37.5636 15.4405C36.7055 14.8044 35.9057 14.1068 34.9894 13.5324C34.5612 13.2443 33.7082 12.7882 32.8585 12.452C33.6229 11.8904 34.4523 11.507 35.3468 11.3018C37.704 11.8957 39.9498 12.7928 42.2023 13.9298Z" fill="#797979"/>
<path d="M61.768 16.1403C61.3001 16.5735 60.8938 17.0651 60.5492 17.6149C60.3659 17.5 60.1826 17.3851 59.9394 17.2719C58.5399 16.5911 57.1024 16.6915 55.6733 17.0918C55.838 16.547 56.0644 16.0605 56.2925 15.634C56.4108 15.5707 56.5907 15.5656 56.7089 15.5023C58.7976 15.0835 60.4868 15.3961 61.768 16.1403Z" fill="#797979"/>
<path d="M8.89962 26.9273C10.6953 26.7568 12.4158 26.0483 14.2494 25.0966C14.3778 25.393 14.4428 25.5712 14.5661 25.6878C14.8161 26.0409 15.3043 26.3272 15.8558 26.7318C14.2738 28.0966 12.5101 29.4065 10.473 29.5237L10.413 29.5254C10.3513 29.4671 10.3497 29.4072 10.2897 29.4089C9.78972 28.7027 9.34973 27.9949 9.02798 27.2238C8.96296 27.0456 8.96127 26.9856 8.89962 26.9273Z" fill="#5A5B5B"/>
<path d="M13.8438 29.9099C14.5516 29.4699 15.2578 28.9699 15.9639 28.47C16.5137 28.8146 17.1801 29.0359 17.8997 29.0157C17.1471 29.9971 16.1495 30.8053 14.9654 31.3787C14.6089 31.5088 14.3125 31.6371 13.956 31.7672C13.956 31.7672 13.8961 31.7688 13.8944 31.7089C13.5861 31.4175 13.2779 31.1261 13.0279 30.773C12.9646 30.6548 12.9029 30.5965 12.8396 30.4782C13.1343 30.2899 13.4891 30.0999 13.8438 29.9099Z" fill="#5A5B5B"/>
<path opacity="0.7" d="M26.494 61.4807C27.9315 61.3803 26.9434 60.3878 26.3885 59.8633C25.2771 58.7543 24.1657 57.6452 23.0542 56.5362C22.4977 55.9517 21.8811 55.3689 21.0349 55.1526C20.9132 55.096 20.7933 55.0994 20.6734 55.1027C20.4935 55.1078 19.4073 54.8983 19.2908 55.0216C18.1234 56.1947 17.4965 59.5131 18.6679 60.6204C19.716 61.6112 22.5412 61.7719 26.494 61.4807Z" fill="#B17E78"/>
<path d="M28.803 62.4975C30.2524 62.8168 29.7187 60.9114 29.6318 59.9536C29.5566 59.4155 29.7146 58.6309 29.0567 58.7094C28.457 58.7263 28.1757 59.3943 27.7627 59.646C27.4679 59.8343 26.75 59.9145 26.5169 60.1611C25.9923 60.716 26.4205 61.0041 26.8504 61.3521C27.2186 61.6418 28.075 62.2179 28.4998 62.386C28.5615 62.4442 28.6831 62.5008 28.803 62.4975Z" fill="#E5BAA7"/>
<path d="M28.7778 61.5964C28.5413 61.7231 27.2736 61.4587 26.9121 61.4088C24.6815 61.0514 19.9957 60.883 19.7956 60.1685C19.4519 58.6178 19.6008 55.3728 19.7705 55.008C22.5553 53.7294 28.5317 52.8412 29.2333 58.5829C29.3219 59.6007 29.1925 61.4047 28.7778 61.5964Z" fill="white"/>
<path d="M29.2305 58.463C29.3791 59.4791 29.3114 61.3414 28.895 61.4732C29.1332 61.4064 28.3334 60.7088 28.2067 60.4723C27.0649 58.2838 20.9678 57.0148 20.5733 57.9261C20.069 59.2006 20.7455 59.7818 21.7336 60.7742C20.4127 60.7513 19.3265 60.5418 19.0563 59.4691C18.7844 58.3365 18.7568 55.2165 19.6926 54.35C20.9977 51.6727 28.5323 52.8413 29.2305 58.463Z" fill="#CDCCCC"/>
<path d="M25.792 57.8407C25.7894 59.8813 24.334 61.4826 22.5933 61.4715C20.8526 61.4604 19.4261 59.8201 19.4305 57.8395C19.4348 55.8589 20.8885 54.1976 22.6292 54.2087C24.4299 54.2181 25.7964 55.8601 25.792 57.8407Z" fill="#72BF51"/>
<path d="M24.051 57.829C24.018 58.7901 23.3186 59.53 22.479 59.5536C21.6395 59.5772 20.958 58.8161 20.931 57.8567C20.964 56.8955 21.6634 56.1557 22.5029 56.1321C23.4024 56.1068 24.084 56.8678 24.051 57.829Z" fill="#100F13"/>
<path d="M24.0518 57.8296C24.0222 58.9107 23.3262 59.7704 22.425 59.7358C21.5255 59.761 20.8406 58.8801 20.8702 57.799C20.8998 56.7179 21.5958 55.8581 22.497 55.8928C23.3365 55.8692 24.0215 56.7502 24.0518 57.8296Z" fill="#100F13"/>
<path opacity="0.3" d="M22.6293 54.2091C24.37 54.2201 25.7964 55.8605 25.7921 57.8411C25.7844 59.7017 24.5072 61.238 22.9531 61.4617C23.8408 61.0166 24.6484 59.8537 23.8536 59.3359C22.6923 58.5883 20.5335 58.649 20.357 58.774C20.0039 59.024 20.0258 59.8036 20.4042 60.4531C19.8459 59.8086 19.4592 58.8593 19.4905 57.8381C19.4349 55.8592 20.8902 54.2579 22.6293 54.2091Z" fill="#0F0E11"/>
<path d="M23.6332 57.9016C24.2278 57.7048 25.2692 58.4558 24.9296 59.1855C24.8164 59.4287 24.5799 59.5554 24.3401 59.5621C23.6188 59.5224 22.8072 58.4049 23.515 57.9649C23.5133 57.905 23.5733 57.9033 23.6332 57.9016Z" fill="white"/>
<path d="M29.717 54.4304C28.7053 52.5984 25.56 51.7266 23.3962 51.6074C18.647 51.3208 17.8908 56.4432 18.1872 56.3149C19.8494 55.668 21.5868 55.5592 23.3326 55.7501C24.9567 55.8845 26.6459 56.1971 27.819 57.3645C28.3739 57.889 29.0191 59.4912 29.6322 59.9541C30.8494 58.4196 30.4137 55.7312 29.717 54.4304Z" fill="#DC9878"/>
<path d="M29.3168 59.4223C29.3017 58.8826 29.2882 58.4029 29.273 57.8632C29.2713 57.8032 29.268 57.6833 29.3262 57.6216C29.3845 57.56 29.5045 57.5566 29.6261 57.6132C30.0492 57.7213 30.4707 57.7695 30.8938 57.8776C30.8204 57.3996 30.4487 56.9899 30.1371 56.5786C29.3289 55.5811 28.519 54.5236 27.133 54.3225C23.9396 53.8721 20.9345 53.7165 17.801 53.2645C17.0333 53.7061 18.4166 55.9478 19.0779 55.9892C19.4977 55.9774 19.8592 56.0273 20.2756 55.8956C20.5138 55.8288 20.692 55.7638 20.9302 55.6971C21.2283 55.6287 21.5281 55.6203 21.8297 55.6718C23.4521 55.7463 25.4192 55.2709 26.8288 56.3115C27.5619 56.771 29.2915 58.5228 29.3168 59.4223Z" fill="#E6A482"/>
<path d="M24.0391 55.2505C22.8964 55.1626 22.0036 55.4277 20.8727 55.7596C19.3237 56.1632 19.1555 56.588 18.3659 56.2501C17.778 56.6868 17.3255 53.3987 17.8153 53.745C18.4901 54.2662 24.2537 54.3442 26.171 54.2303C28.0899 54.1764 30.1093 55.56 30.4614 57.4105C30.3946 57.1723 29.2401 56.6647 28.9969 56.5515C28.4487 56.2668 27.844 56.1037 27.2376 55.8807C26.1464 55.4913 25.1819 55.3384 24.0391 55.2505Z" fill="#E6A482"/>
<path d="M19.1911 60.0071C17.985 59.8009 16.567 58.4605 16.1769 57.3912C17.1481 57.784 17.8745 58.0036 18.7689 57.7984L19.1911 60.0071Z" fill="#221E25"/>
<path d="M16.5176 54.621C17.9103 55.062 18.6865 54.9201 18.7464 54.9184C19.8292 55.008 25.1545 54.4383 26.7372 55.234C27.7718 55.745 30.02 58.8626 29.3509 60.6818C29.2825 60.3837 28.8392 59.5559 28.3992 58.8481C27.7709 57.8456 27.031 57.1462 25.8748 56.5785C25.3883 56.3521 21.7886 56.3933 19.4499 56.459C19.3916 56.5207 19.2751 56.644 19.2168 56.7057C18.6458 57.7419 19.1077 59.2293 19.3112 60.0638C17.6533 58.7301 16.0328 54.4546 16.5176 54.621Z" fill="#221E25"/>
<path d="M20.8482 54.9199C20.2401 54.6369 18.8973 53.8345 18.3441 53.3699C18.426 54.1478 18.8178 55.277 19.2578 55.9848C19.8558 55.908 19.6843 56.2129 20.2604 55.3565L20.8482 54.9199Z" fill="#221E25"/>
<path opacity="0.7" d="M47.0433 64.4454C45.3541 64.1327 43.8431 63.7551 42.2206 63.6807C43.5197 62.924 44.9521 62.6437 46.3762 62.0635C48.4548 61.2849 50.2868 60.2732 52.4921 59.7311C53.0884 59.5943 53.9828 59.3891 54.2362 59.8621C54.8096 61.0463 54.4589 63.5167 52.92 64.2802C51.028 65.2936 48.974 64.8112 47.0433 64.4454Z" fill="#B17E78"/>
<path d="M41.084 61.671C41.492 61.2394 41.965 60.986 42.4515 61.2124C43.3011 61.5486 43.8695 62.5529 44.3678 63.199C44.4311 63.3173 44.4944 63.4355 44.4362 63.4972C44.3779 63.5588 44.3179 63.5605 44.2579 63.5622C43.6017 63.7007 43.0054 63.8375 42.3491 63.976C39.9622 64.4631 40.2098 62.5957 41.084 61.671Z" fill="#E5BAA7"/>
<path d="M42.0306 63.3254C44.8508 63.3062 47.0332 64.085 50.8744 64.0971C52.915 64.0998 53.4692 62.4638 54.313 60.4596C54.6526 59.7299 54.8056 58.7654 54.727 58.1074C51.7297 56.0912 43.3268 53.9268 41.7099 60.4538C41.5485 61.1185 41.4124 62.6826 42.0306 63.3254Z" fill="white"/>
<path d="M42.0301 63.3257C41.4119 62.6829 41.5479 61.1187 41.6493 60.4557C43.2663 53.9287 51.7291 56.0914 54.6665 58.1094C54.745 58.7673 54.5921 59.7318 54.2525 60.4616C53.4686 62.4641 52.8545 64.1017 50.8139 64.0991C50.5141 64.1075 50.1526 64.0576 49.8527 64.0661C50.3891 63.9309 51.7245 62.333 51.8909 61.8483C52.2271 60.9986 49.2304 61.1428 48.4509 61.1648C46.7718 61.2119 46.1704 61.1688 44.1417 61.5859C43.5454 61.7227 42.0479 61.8248 42.2699 63.319C42.21 63.3206 42.15 63.3223 42.0301 63.3257Z" fill="#CDCCCC"/>
<path d="M49.2665 60.301C49.5021 62.2748 48.1734 64.1126 46.2578 64.2865C44.3439 64.5203 42.6827 63.0666 42.4455 61.0328C42.2099 59.059 43.5386 57.2212 45.4542 57.0473C47.3081 56.8152 49.0293 58.2671 49.2665 60.301Z" fill="#72BF51"/>
<path d="M47.4093 60.4143C47.4962 61.3721 46.8585 62.1702 45.9624 62.3154C45.0645 62.4007 44.2065 61.7646 44.1195 60.8068C44.0326 59.8491 44.6703 59.0509 45.5664 58.9057C46.4643 58.8205 47.324 59.5165 47.4093 60.4143Z" fill="#100F13"/>
<path d="M47.4086 60.4127C47.5589 61.4887 46.8645 62.4084 45.9067 62.4954C44.949 62.5823 44.0875 61.8263 43.9972 60.7486C43.8469 59.6726 44.5413 58.7528 45.499 58.6659C46.3985 58.6406 47.26 59.3966 47.4086 60.4127Z" fill="#100F13"/>
<path opacity="0.3" d="M45.4541 57.0474C47.3679 56.8135 49.0892 58.2655 49.2664 60.301C49.4985 62.1549 48.3447 63.8078 46.6758 64.2148C48.0196 62.9167 48.3009 62.2486 46.9065 61.7477C46.0585 61.4714 44.7992 61.5068 44.273 62.0017C43.6885 62.5583 43.2772 62.8699 43.7754 63.5161C43.039 62.9366 42.534 62.0506 42.4453 61.0329C42.2098 59.059 43.5402 57.2812 45.4541 57.0474Z" fill="#0F0E11"/>
<path d="M47.0038 60.9642C47.6567 60.7058 48.813 61.2735 48.535 62.0615C48.4235 62.3647 48.187 62.4913 47.9472 62.4981C47.1676 62.52 46.1212 61.5892 46.8856 61.0276C46.8856 61.0276 46.9439 60.9659 47.0038 60.9642Z" fill="white"/>
<g opacity="0.63">
<g opacity="0.63">
<path opacity="0.6" d="M53.881 66.475C53.6674 65.2808 51.6022 66.5391 52.5236 67.2934C53.0785 67.8179 54.0228 67.2512 53.881 66.475Z" fill="#C07369"/>
</g>
<g opacity="0.63">
<path opacity="0.3" d="M55.3164 64.1528C54.7936 64.7677 55.3619 65.7719 56.0596 64.9721C56.7607 64.2923 55.8976 63.4763 55.3164 64.1528Z" fill="#C07369"/>
</g>
<g opacity="0.63">
<path opacity="0.8" d="M49.7356 66.2904C49.0642 65.8892 47.1672 66.7227 48.1486 67.4753C49.0049 68.0514 51.1402 67.1512 49.7356 66.2904Z" fill="#C07369"/>
</g>
<g opacity="0.63">
<path opacity="0.8" d="M51.6391 67.8575C51.1408 67.2114 49.5969 67.7949 49.8004 68.6294C50.1356 69.8803 52.449 68.915 51.6391 67.8575Z" fill="#C07369"/>
</g>
<g opacity="0.63">
<path opacity="0.8" d="M21.5139 65.7638C21.6169 65.1608 20.4573 64.4732 20.0544 65.0846C19.4767 65.8811 21.3027 66.79 21.5139 65.7638Z" fill="#C07369"/>
</g>
<g opacity="0.63">
<path opacity="0.8" d="M45.4976 67.1301C44.4131 66.9805 43.7138 67.7203 44.8134 68.4096C46.0997 69.3337 47.3667 67.4376 45.4976 67.1301Z" fill="#C07369"/>
</g>
<g opacity="0.63">
<path opacity="0.4" d="M39.9008 66.567C39.4397 67.2402 41.0908 68.334 41.3603 67.2462C41.5183 66.4616 40.3004 65.8356 39.9008 66.567Z" fill="#C07369"/>
</g>
<g opacity="0.63">
<path opacity="0.5" d="M47.4899 69.7153C47.5701 70.4332 49.3041 70.2044 48.8591 69.3167C48.4841 68.7871 47.3515 69.059 47.4899 69.7153Z" fill="#C07369"/>
</g>
<g opacity="0.63">
<path opacity="0.5" d="M54.6852 67.3526C54.9985 67.8239 56.1776 67.0706 55.5045 66.6094C55.0763 66.3214 54.3719 66.8813 54.6852 67.3526Z" fill="#C07369"/>
</g>
<g opacity="0.63">
<path opacity="0.3" d="M38.6751 65.7005C38.8964 65.0341 37.8584 64.4031 37.5188 65.1328C37.1227 65.9842 38.512 66.3052 38.6751 65.7005Z" fill="#C07369"/>
</g>
<g opacity="0.63">
<path opacity="0.5" d="M52.7923 70.4061C52.4739 69.7549 51.2298 70.33 51.2483 70.9897C51.2601 71.4094 51.5616 71.461 51.9197 71.3909C52.3944 71.1975 52.9223 70.7626 52.7923 70.4061Z" fill="#C07369"/>
</g>
<g opacity="0.63">
<path opacity="0.8" d="M20.5907 62.7886C19.5011 62.4592 20.0813 63.8832 20.8575 63.7414C21.5154 63.6629 21.0138 62.8968 20.5907 62.7886Z" fill="#C07369"/>
</g>
<g opacity="0.63">
<path opacity="0.8" d="M24.1622 68.1496C24.175 66.4688 21.1639 68.2339 23.2762 68.6546C23.6377 68.7045 24.1157 68.631 24.1622 68.1496Z" fill="#C07369"/>
</g>
<g opacity="0.63">
<path opacity="0.5" d="M25.6622 66.0068C25.1158 65.7821 24.2382 66.587 24.9696 66.9865C25.6393 67.3278 26.4502 66.2848 25.6622 66.0068Z" fill="#C07369"/>
</g>
<g opacity="0.63">
<path opacity="0.5" d="M24.4089 64.1221C23.729 63.4211 22.6833 64.6508 23.7162 65.1018C24.386 65.4431 24.9055 64.7083 24.4089 64.1221Z" fill="#C07369"/>
</g>
<g opacity="0.63">
<path opacity="0.8" d="M23.0713 65.6603C22.3349 65.0808 21.5907 66.362 22.6769 66.5716C23.3416 66.7329 23.6245 66.1248 23.0713 65.6603Z" fill="#C07369"/>
</g>
<g opacity="0.63">
<path opacity="0.3" d="M27.6252 65.4109C28.7908 64.1778 25.9808 64.5569 27.0855 65.4261C27.2704 65.6009 27.5086 65.5342 27.6252 65.4109Z" fill="#C07369"/>
</g>
</g>
<path d="M62.4804 54.2278C62.4804 54.2278 75.6365 58.9593 76.2564 59.662C77.1263 60.7178 77.29 62.2736 76.784 63.4881C76.784 63.4881 76.7968 61.8073 74.4877 60.792C72.1786 59.7766 61.8552 57.6062 61.8552 57.6062L62.4804 54.2278Z" fill="#212120"/>
<path d="M62.5689 55.2467L62.4802 54.2289C62.4802 54.2289 75.6363 58.9604 76.2562 59.6631C76.3812 59.8396 76.5062 60.0162 76.5696 60.1344L62.5689 55.2467Z" fill="#333333"/>
<path opacity="0.2" d="M31.8417 57.4304C31.8232 56.7708 31.6534 57.1356 31.5749 56.4777C30.9307 52.7749 28.6782 51.6379 24.9983 50.9612C21.4383 50.281 17.8319 50.0823 14.2373 50.3034C13.5177 50.3236 12.6815 50.4671 12.2786 51.0786C12.0471 51.3852 11.9973 51.7467 11.9474 52.1082C11.6432 54.0972 11.6018 54.7585 11.7774 56.734C11.8694 57.8717 12.2778 63.8617 14.5074 66.3196C16.1171 68.0748 17.7083 69.1703 21.7927 69.2956C25.036 69.3845 28.319 68.7521 29.6824 66.0131C30.9258 63.2775 31.866 60.4304 31.8417 57.4304Z" fill="white"/>
<path opacity="0.2" d="M37.5392 59.4303C37.6268 62.5486 38.6241 66.0014 39.5175 67.8968C40.9245 70.978 43.943 71.6133 47.4329 71.9353C51.4642 72.3021 54.7971 71.3082 56.6951 68.3742C58.3084 65.9883 58.7884 61.7138 58.7884 61.7138C59.2725 59.7197 59.5437 58.6918 59.5463 56.6513C59.5311 56.1115 59.5143 55.5119 59.1427 55.1022C58.8327 54.7509 58.3496 54.6444 57.8665 54.538C53.0988 53.5917 48.228 53.2485 43.3724 53.445C42.5328 53.4686 41.635 53.5538 40.8022 53.8173C38.1906 54.8509 37.5149 56.4303 37.5392 59.4303Z" fill="white"/>
<path d="M20.5381 69.5095C20.8996 69.5594 21.3194 69.5476 21.7408 69.5957C26.0052 69.7159 28.6734 68.5607 29.867 66.1866C31.1154 63.6309 32.1816 58.8598 32.2349 58.6182L31.6918 58.5135C31.6935 58.5734 30.6307 63.4645 29.3788 65.9002C28.3001 68.091 25.8085 69.1213 21.7839 68.9944C17.9393 68.8624 16.3532 67.9467 14.6802 66.0733C13.3787 64.6095 12.4532 61.5748 12.0836 56.9641L12.0751 56.6643L11.5371 56.7394L11.5455 57.0392C11.7144 58.7749 12.1659 64.1635 14.3322 66.5032C15.8202 68.2018 17.3498 69.239 20.5381 69.5095Z" fill="#D3D3D0"/>
<path d="M47.4421 72.235C51.8931 72.59 55.0993 71.3596 56.9407 68.5472C58.5524 66.1013 59.0957 61.945 59.0907 61.7651L58.5493 61.7203C58.551 61.7803 58.0093 65.9965 56.5125 68.2591C54.786 70.8883 51.758 72.0536 47.4869 71.6936C43.6972 71.38 41.095 70.6129 39.8164 67.8282C38.3479 64.6887 37.6851 60.3263 37.6016 59.4884L37.0619 59.5036C37.0855 60.3431 37.8132 64.8838 39.2835 68.0832C40.877 71.3992 44.3137 71.9628 47.4421 72.235Z" fill="#D3D3D0"/>
<path d="M62.7215 54.2809L62.4958 56.9279C62.4958 56.9279 62.1478 57.3578 61.853 57.5461C61.5582 57.7344 61.2567 57.6829 61.1503 58.166C60.9374 59.1322 60.2023 62.8737 60.2023 62.8737C60.2023 62.8737 59.7411 63.5469 59.3197 63.4987C58.8982 63.4505 58.7566 58.4133 58.8014 57.8719C58.8462 57.3305 58.0626 55.072 56.6732 54.751C53.653 54.0557 47.8894 53.9776 44.8345 54.1835C41.7795 54.3894 39.994 54.9197 39.4145 55.6562C38.1391 57.2524 38.0883 59.7144 38.1203 60.8538L37.4792 61.5319C37.1541 60.6409 36.4937 58.4989 34.8096 58.3662C33.5469 58.2817 32.9877 59.7377 32.828 60.4624L32.2452 61.0789C32.2452 61.0789 31.7354 55.752 30.5606 54.5247C28.766 52.5947 21.7161 51.5925 20.6317 51.443C18.5827 51.1405 15.7609 51.0998 14.0336 51.5684C11.8317 52.2304 12.7266 58.4468 12.7266 58.4468L12.0872 59.1849C12.0872 59.1849 10.943 54.776 10.438 53.89C9.93299 53.004 8.79965 51.1154 8.79965 51.1154C8.55472 50.9422 9.07083 50.0875 9.48891 50.0157C9.90531 49.884 15.3404 48.9511 19.1951 49.4429C23.0499 49.9347 29.1402 50.9638 30.6047 51.8228C32.0675 52.6219 33.1139 53.5527 33.3707 54.1456C33.6274 54.7386 34.2921 54.8999 35.3799 55.1694C36.4661 55.3789 37.3605 55.1738 38.5844 53.8791C39.5152 52.8327 40.1681 52.5742 45.5001 52.2443C51.4318 51.8976 55.708 52.4375 58.9715 53.246C60.9056 53.7318 62.7215 54.2809 62.7215 54.2809Z" fill="#4D4E4E"/>
<path d="M29.2706 51.3215C29.8154 51.4862 30.2402 51.6543 30.5451 51.8258C32.0079 52.6249 33.0543 53.5557 33.311 54.1486C33.4377 54.3851 33.6227 54.5599 33.9276 54.7314C32.9816 55.2381 32.0956 55.7431 31.2112 56.3081C31.0694 55.5319 30.8709 54.8773 30.561 54.526C29.8178 53.7067 28.1202 53.0942 26.306 52.6051C27.2537 52.1583 28.263 51.7699 29.2706 51.3215Z" fill="#8A8989"/>
<path d="M50.6421 53.7203C50.6319 53.3605 52.3794 53.6115 52.6759 53.4831C53.447 53.1614 54.1582 52.8413 54.8094 52.5229C56.3753 52.719 57.703 52.9817 58.9724 53.3061C60.4834 53.6838 61.9361 54.123 62.4192 54.2295C61.7097 54.6095 60.9385 54.9313 60.1674 55.253C59.6927 55.4464 59.218 55.6398 58.6783 55.6549C58.3185 55.6651 57.8954 55.5569 57.5922 55.4454C57.2822 55.094 56.9757 54.8626 56.5525 54.7545C56.1894 54.6446 55.7679 54.5965 55.2865 54.55C53.8321 54.0507 52.2062 53.8564 50.6421 53.7203Z" fill="#8A8989"/>
<path d="M62.0789 54.9586L61.8532 57.6056C61.8532 57.6056 60.7223 57.9375 60.5094 58.9037C60.2965 59.8699 59.5614 63.6114 59.5614 63.6114C59.5614 63.6114 58.0057 63.7752 57.8739 63.3588C57.8106 63.2405 58.1157 59.151 58.1589 58.5496C58.202 57.9483 57.42 55.7497 56.0306 55.4287C53.0104 54.7334 47.2468 54.6553 44.1919 54.8612C41.0753 55.0089 39.3514 55.5974 38.772 56.3339C37.4965 57.9301 37.4457 60.3921 37.4777 61.5315L35.7936 61.3988C35.4685 60.5077 35.8512 59.1767 34.167 59.0439C32.9043 58.9594 32.3451 60.4155 32.1855 61.1401L30.6812 61.0024C30.6812 61.0024 31.0928 56.4297 29.9181 55.2024C28.1234 53.2724 21.0736 52.2703 19.9891 52.1207C17.9401 51.8182 15.1183 51.7775 13.391 52.2461C11.1891 52.9082 12.084 59.1245 12.084 59.1245L10.6997 58.9834C10.6997 58.9834 10.3004 55.4537 9.79543 54.5677C9.29041 53.6817 8.91375 53.0922 8.91375 53.0922C8.66883 52.919 8.42993 50.8252 8.84633 50.6935C9.26273 50.5617 14.6978 49.6288 18.5525 50.1206C22.4073 50.6124 28.4977 51.6415 29.9621 52.5005C31.4266 53.3596 32.4714 54.2304 32.7281 54.8234C32.9848 55.4163 33.6495 55.5777 34.7373 55.8472C35.8235 56.0567 36.7179 55.8515 37.9418 54.5568C38.9926 53.507 39.6438 53.1886 44.9175 52.9204C50.8492 52.5736 55.1254 53.1136 58.3889 53.9221C60.263 54.4095 62.0789 54.9586 62.0789 54.9586Z" fill="#191818"/>
<path d="M58.6352 56.2565L60.6242 56.5607C60.7442 56.5573 60.8024 56.4957 60.8008 56.4357L60.9038 55.8327C60.9005 55.7127 60.8388 55.6545 60.7789 55.6561L58.8498 55.3503C58.7299 55.3536 58.6716 55.4153 58.6733 55.4753L58.5702 56.0783C58.5119 56.14 58.5736 56.1982 58.6352 56.2565Z" fill="#B4B4B5"/>
<path d="M9.61114 52.2336L11.4135 52.3029C11.5335 52.2996 11.5917 52.2379 11.5884 52.118L11.6315 51.5166C11.6281 51.3967 11.5665 51.3384 11.4465 51.3418L9.64414 51.2724C9.52421 51.2758 9.46592 51.3374 9.46929 51.4574L9.42618 52.0587C9.48784 52.117 9.55117 52.2353 9.61114 52.2336Z" fill="#B4B4B5"/>
<path d="M26.391 51.4016C28.0219 51.7758 29.3513 52.0986 29.9011 52.4432C31.3639 53.2423 32.4103 54.1731 32.667 54.766C32.6687 54.826 32.7303 54.8843 32.7903 54.8826C32.1027 56.0422 31.3552 57.2035 30.6676 58.3631C30.6305 57.0438 30.4119 55.6696 29.8536 55.0252C29.1104 54.2058 27.3528 53.5951 25.537 53.046C25.825 52.6178 26.108 52.0097 26.391 51.4016Z" fill="#333333"/>
<path d="M51.2783 52.8628C54.1035 53.0235 56.454 53.3775 58.3898 53.9233C58.6913 53.9748 58.9945 54.0863 59.296 54.1378C58.7217 55.0542 58.2072 55.9689 57.6328 56.8852C57.2528 56.1757 56.7545 55.5296 56.0299 55.3699C54.5806 55.0506 52.475 54.8697 50.3111 54.7505C50.6541 54.1407 50.937 53.5326 51.2783 52.8628Z" fill="#333333"/>
<path d="M39.4092 68.26C39.5857 68.135 39.7639 68.07 39.8805 67.9467C41.0222 70.1351 42.9682 71.0407 45.8001 71.4412C45.5636 71.5679 45.3288 71.7545 45.0923 71.8812C42.8617 71.5238 40.616 70.6267 39.4092 68.26Z" fill="#EAEAEA"/>
<path d="M12.6246 63.3711C12.8011 63.2461 12.9793 63.1811 13.0959 63.0578C13.4945 64.4269 14.0029 65.4328 14.6227 66.1356C15.8609 67.4811 17.0255 68.3486 19.1378 68.7693C18.9013 68.896 18.7265 69.081 18.49 69.2076C16.5559 68.7219 15.3912 67.8544 14.2131 66.5072C13.5315 65.7462 13.0198 64.6203 12.6246 63.3711Z" fill="#EAEAEA"/>
<path opacity="0.6" d="M13.4151 59.4487C14.1001 60.3297 14.9049 61.2073 15.7081 62.0249C17.3127 63.6002 19.0905 64.9306 20.9815 66.0177C22.0195 66.6487 23.2323 67.0947 24.272 67.7856C23.3776 67.9908 22.3581 68.0195 21.397 67.9865C18.0338 67.901 16.8075 66.9752 15.4477 65.5731C14.2079 64.1676 13.6473 61.3026 13.4151 59.4487Z" fill="white"/>
<path opacity="0.6" d="M38.9033 60.9512C39.7115 61.9487 40.5797 62.9446 41.4445 63.8205C43.2341 65.5706 45.1969 67.0758 47.3312 68.2761C48.4908 68.9637 49.8852 69.4646 50.9882 70.2738C49.9738 70.4824 48.8961 70.5727 47.815 70.5431C44.092 70.4677 42.6824 69.427 41.1977 67.8484C39.7729 66.268 39.2022 63.0433 38.9033 60.9512Z" fill="white"/>
<path d="M45.1936 58.4351C43.8194 58.6538 42.1242 60.2618 41.1249 61.0101C39.7982 58.6468 41.2081 55.4264 43.5147 54.2213C45.5832 53.0829 49.5512 53.3314 51.6686 53.9321C54.9371 54.9205 56.8787 57.8066 55.8667 60.2356C53.1826 58.6907 49.2561 57.7808 45.1936 58.4351Z" fill="#DC9878"/>
<path d="M55.321 57.9111C52.9688 57.4971 51.2163 57.0662 48.919 56.4707C46.8033 55.93 43.1985 55.7912 40.75 56.2201C40.152 56.297 42.2212 57.3191 42.0481 57.564C41.7584 57.9322 41.4339 59.2016 41.3875 59.6831C41.346 60.3444 41.3646 61.004 41.5031 61.6603C41.4559 59.9812 43.5294 59.0227 44.8302 58.326C45.0067 58.201 45.1849 58.136 45.4231 58.0693C45.603 58.0642 45.7829 58.0592 45.9645 58.1141C47.8352 58.4816 49.706 58.8491 51.5751 59.1567C52.6013 59.3679 54.4306 60.3967 55.5649 60.1848C56.5194 59.9779 57.9966 59.1562 57.375 58.3935C57.1318 58.2803 55.8641 58.0159 55.321 57.9111Z" fill="#E6A482"/>
<path d="M52.304 57.3351C53.1655 58.091 53.9821 59.3884 53.2026 59.4103C53.021 59.3554 49.3445 58.7986 48.3183 58.5874C48.3183 58.5874 48.3183 58.5874 48.2583 58.589C48.3014 57.9877 48.5642 56.66 49.5819 56.5714C51.1529 56.9473 52.0591 57.1619 52.304 57.3351Z" fill="#EFB899"/>
<path d="M44.6888 57.5486C46.5959 57.0749 51.242 57.9646 54.4523 59.0146C55.905 59.4539 56.6246 59.4337 57.2825 59.3552C57.9405 59.2766 54.5753 63.3922 52.0102 63.9444C52.8794 62.8397 53.9598 60.7088 53.7098 60.3558C53.6498 60.3575 53.6482 60.2975 53.5882 60.2992C51.6608 60.0533 47.0578 58.5623 45.3889 58.9693C43.1236 59.5131 42.0661 60.323 41.6986 62.1937C40.735 59.9403 42.3036 58.0958 44.6888 57.5486Z" fill="#221E25"/>
<path d="M53.5587 61.3808C54.2935 61.9003 55.3881 62.4096 56.236 62.6859C55.29 63.1926 53.6228 63.6595 52.5417 63.6299C53.1828 62.9517 53.3323 61.8673 53.9835 61.5489L53.5587 61.3808Z" fill="#221E25"/>
<path d="M51.675 58.4339C52.5112 58.2903 54.295 57.7001 55.0645 57.3184C54.7282 58.168 53.8641 59.4526 53.1614 60.0725C52.495 59.8512 52.5651 60.2093 52.1133 59.0817L51.675 58.4339Z" fill="#221E25"/>
<path d="M53.5588 52.8585C55.5562 53.4625 55.9245 53.7523 57.927 54.5362C57.8518 53.9982 55.9591 52.8511 55.0994 52.1551C53.4415 50.8213 51.471 51.1768 50.6965 51.3786C48.851 51.9106 45.8645 52.4146 43.7741 52.7735C43.0578 52.9136 42.2115 52.6973 41.5637 53.1357C41.0924 53.449 40.5696 54.0638 40.4048 54.6086C41.6143 54.9347 44.1312 54.8039 45.5687 54.7035C46.5865 54.6149 51.5613 52.2545 53.5588 52.8585Z" fill="#323232"/>
<path d="M19.8301 50.6871C18.0446 51.2174 18.4128 51.5071 16.5724 52.219C16.9153 51.6092 17.6679 50.6278 18.4889 49.9446C20.0743 48.6998 21.2855 49.0858 21.9535 49.3671C23.5312 49.9829 25.7069 50.5219 27.5777 50.8894C28.1824 51.0525 28.9569 50.8507 29.5101 51.3152C29.94 51.6632 30.3183 52.3128 30.4517 52.7891C29.3791 53.0593 27.1535 52.8818 25.8892 52.7373C24.9863 52.6427 21.6756 50.1551 19.8301 50.6871Z" fill="#323232"/>
<path d="M33.2768 80.7364C34.3029 80.9476 35.5023 80.9139 36.6332 80.5821C37.8224 80.1885 38.4501 79.0306 38.8995 77.9377C36.9873 78.2315 35.0582 77.9257 33.1325 77.7397C32.4112 77.7 31.7482 77.5986 31.0835 77.4373C30.2356 77.161 28.6511 76.3053 27.8581 75.8475C28.0414 75.9624 28.38 77.3332 28.8233 78.1609C29.6518 79.8781 31.5859 80.3638 33.2768 80.7364Z" fill="#F0826B"/>
<path d="M29.8624 74.5305C29.0195 74.4342 27.8751 74.2863 27.3539 74.9611C28.7719 76.3016 30.0447 76.746 30.4679 76.8541C33.0751 77.8011 37.2846 78.1028 40.038 77.8454C38.3919 76.9314 36.5744 76.3224 34.8734 75.59C33.0558 74.9809 31.6682 74.7198 29.8624 74.5305Z" fill="#E67458"/>
<path d="M35.0639 78.1058C36.2067 78.1937 37.3461 78.1617 38.4888 78.2496C39.2717 78.3476 40.5361 78.4921 41.1789 77.8739C40.6907 77.5875 40.2591 77.1796 39.7178 77.1348C39.7228 77.3147 39.548 77.4996 39.3098 77.5663C37.7675 78.2098 25.9634 76.7412 27.978 73.6838C25.7228 74.5874 28.0353 75.7227 29.015 76.4154C30.8494 77.6241 32.9584 77.9249 35.0639 78.1058Z" fill="#BF5740"/>
<path d="M28.1372 72.9587C26.5215 73.1241 26.7233 73.8986 25.839 74.4636C24.6143 73.5978 26.0309 70.6173 28.1372 72.9587Z" fill="#E6A482"/>
<path d="M34.6014 63.7754C33.8683 63.3159 32.9004 63.043 32.0659 63.2465C30.7567 63.6434 30.1941 64.9795 29.7464 66.1324C29.5217 66.6788 29.357 67.2236 29.1306 67.7101C28.9625 68.1349 28.7978 68.6796 29.1094 69.091C29.2961 69.3258 29.5393 69.439 29.7808 69.4922C31.2969 70.0497 32.9025 69.5245 34.4616 69.4807C35.4211 69.4537 37.7302 70.4691 38.4279 69.6693C39.5901 68.3163 35.641 64.4663 34.6014 63.7754Z" fill="#EFB899"/>
<path d="M38.2067 68.1761C38.6315 68.3442 38.9415 68.6956 39.1332 69.1103C39.8383 70.7109 38.0528 71.2412 36.7301 71.1583C36.2504 71.1718 35.6871 70.3474 35.3223 70.1776C34.7741 69.893 34.0646 70.273 33.7149 70.6429C33.0139 71.3228 31.2081 71.1335 30.405 70.3159C29.6305 70.5177 29.2707 70.5278 28.7757 70.0016C28.0942 69.2405 28.5436 68.1476 29.0031 67.4146C29.118 67.2313 29.5707 66.2583 29.754 66.3732C29.9973 66.4864 29.5563 67.8791 31.1923 68.4333C32.525 68.8759 34.069 68.2924 34.4305 68.3423C35.2151 68.5003 35.0335 68.4453 35.8266 68.9032C36.3747 69.1878 36.753 69.8374 37.4127 69.8188C38.3738 69.8518 38.0352 68.481 37.9018 68.0046C38.0251 68.1212 38.145 68.1178 38.2067 68.1761Z" fill="#E6A482"/>
<path d="M35.4639 71.013C35.2789 70.8382 35.1472 70.4218 34.904 70.3086C34.8423 70.2503 34.7224 70.2537 34.6624 70.2554C34.6024 70.2571 34.3026 70.2655 34.0061 70.3939C33.9994 70.154 34.6506 69.8356 34.8288 69.7706C35.4234 69.5738 35.9733 69.9185 36.0349 69.9768C36.2798 70.1499 36.9597 70.851 36.6666 71.0993C36.5484 71.1626 35.7088 71.1862 35.4639 71.013Z" fill="#DC9878"/>
<path d="M29.3933 68.544C29.1618 68.8506 29.0537 69.2737 29.1837 69.6302C29.3805 70.2248 29.8703 70.5711 30.5266 70.4326C30.3383 70.1378 29.1035 68.9122 29.3933 68.544Z" fill="#DC9878"/>
</svg>
