<svg width="76" height="82" viewBox="0 0 76 82" fill="none" xmlns="http://www.w3.org/2000/svg">
<path d="M53.3288 24.7224C54.3288 40.0224 48.3288 41.8224 39.0288 42.3224C28.4288 42.9224 25.4288 36.8224 25.4288 36.8224C24.1288 36.9224 23.8288 55.1224 6.32885 45.4224C2.72885 43.4224 -1.57115 34.9224 1.12885 31.9224C1.22885 31.8224 3.82885 38.3224 8.62885 36.1224C14.2288 33.5224 7.02885 26.0224 7.62885 21.5224C9.12885 9.02237 19.5288 9.62236 20.8288 9.32236C26.4288 8.12236 27.2288 3.62236 31.3288 1.92236C35.8288 0.022365 43.3288 -0.477635 47.3288 2.72236C53.5288 7.82236 52.5288 12.2224 53.3288 24.7224Z" fill="#331B0E"/>
<path d="M9.92969 17.1215C13.0297 11.9215 21.1297 12.1215 25.5297 14.2215C34.0297 18.1215 35.1297 25.7215 36.8297 28.9215C38.2297 27.5215 39.0297 26.9215 39.0297 26.9215C38.1297 25.3215 33.2297 14.2215 24.5297 12.3215C14.9297 10.3215 11.1297 14.7215 9.92969 17.1215Z" fill="#462C20"/>
<path d="M32.2297 21.8233C30.1297 16.2233 23.3297 13.0233 17.9297 15.1233C25.8297 14.0233 32.8297 24.4233 31.6297 31.4233C31.9297 31.5233 32.4297 31.5233 32.7297 31.4233C33.4297 28.4233 33.0297 24.2233 32.2297 21.8233Z" fill="#462C20"/>
<path d="M10.8293 25.0228C12.5293 31.1228 12.8293 34.3228 11.3293 37.0228C10.3293 38.9228 7.7293 40.4228 5.6293 40.0228C3.5293 39.6228 0.429297 38.9228 0.0292969 35.0228C0.0292969 40.6228 3.1293 41.7228 5.0293 42.2228C7.8293 43.0228 11.0293 41.2228 12.6293 39.0228C14.2293 36.9228 14.7293 33.0228 14.1293 30.4228C13.6293 28.6228 12.0293 25.4228 11.9293 23.4228C11.7293 19.6228 16.1293 17.3228 19.3293 17.9228C15.8293 15.9228 9.2293 18.9228 10.8293 25.0228Z" fill="#462C20"/>
<path d="M8.83008 21.8218C11.7301 11.9218 20.2301 12.7218 23.9301 14.4218C31.9301 18.0218 31.1301 30.3218 34.8301 36.3218C37.2301 40.3218 42.2301 37.7218 45.3301 36.8218C41.6301 43.0218 34.2301 42.1218 31.8301 36.7218C29.1301 30.6218 29.4301 22.0218 26.0301 18.5218C22.2301 14.5218 15.2301 13.0218 8.83008 21.8218Z" fill="#5E3E31"/>
<path d="M22.7285 11.9219C31.4285 11.1219 37.7285 17.8219 40.2285 25.9219C43.7285 25.5219 43.5285 24.4219 43.5285 24.4219C41.0285 18.1219 39.3285 15.7219 36.9285 13.5219C32.9285 10.0219 27.2285 9.3219 22.7285 11.9219Z" fill="#462C20"/>
<path d="M16.2297 27.8223C15.9297 31.6223 13.7297 33.5223 10.4297 34.7223C8.12971 35.5223 7.12971 33.6223 6.72971 31.6223C5.92971 33.6223 6.82971 35.5223 8.72971 36.1223C10.2297 36.5223 11.7297 35.7223 13.2297 35.1223C17.4297 33.3223 16.4297 29.4223 16.2297 27.8223Z" fill="#331B0E"/>
<path d="M25.1289 21.9219C27.6289 26.8219 24.0289 33.2219 26.7289 37.9219C29.7289 42.9219 35.2289 42.4219 36.8289 40.5219C37.2289 40.1219 31.0289 40.7219 28.7289 36.1219C27.2289 33.3219 29.2289 26.9219 25.1289 21.9219Z" fill="#462C20"/>
<path d="M29.3301 6.62202C32.7301 4.72202 39.7301 8.72202 42.1301 10.922C44.7301 13.322 46.8301 17.322 47.1301 20.922C48.7301 20.622 49.9301 19.322 51.7301 19.122C51.6301 15.022 49.4301 10.022 46.7301 7.02202C39.2301 -1.17798 30.5301 4.02202 29.3301 6.62202Z" fill="#462C20"/>
<path d="M21.7285 12.0216C38.6285 8.52159 45.2285 24.9216 46.0285 23.4216C46.6285 22.3216 45.2285 16.4216 42.4285 13.4216C33.7285 4.22159 23.4285 9.92159 21.7285 12.0216Z" fill="#462C20"/>
<path d="M34.0292 13.1217C33.0292 12.0217 26.1292 6.2217 24.7292 5.2217C23.0292 4.0217 19.5292 3.0217 17.4292 3.7217C13.6292 5.0217 11.5292 9.6217 12.2292 13.1217C12.4292 9.2217 14.3292 6.2217 18.5292 5.8217C24.7292 5.2217 31.0292 13.7217 31.0292 13.7217L34.0292 13.1217Z" fill="#5E3E31"/>
<path d="M26.1289 9.3231C41.7289 6.4231 45.1289 19.7231 46.7289 22.5231C46.5289 22.6231 44.5289 23.8231 44.4289 23.9231C44.2289 21.2231 38.1289 9.3231 26.1289 9.3231Z" fill="#5E3E31"/>
<path d="M74.1292 30.823C72.7292 28.123 69.8292 27.023 67.6292 25.223C65.5292 23.523 62.5292 21.723 59.9292 20.923C49.5292 17.623 38.7292 20.823 29.5292 25.723C28.3292 26.423 17.6292 35.423 20.1292 49.923C21.5292 58.123 22.7292 64.623 28.9292 70.023C31.9292 72.623 38.0292 77.023 47.5292 78.023C47.4292 77.523 47.1292 75.923 47.2292 74.923C48.0292 76.123 48.8292 76.723 49.3292 78.223C49.6292 78.223 50.4292 75.723 50.7292 74.523C51.2292 75.223 51.5292 77.223 52.0292 78.023C53.0292 77.623 53.1292 74.823 53.7292 74.023C54.3292 75.123 54.1292 76.523 54.0292 77.923C56.1292 77.723 57.6292 74.723 58.0292 74.023C58.2292 74.523 58.3292 75.723 58.4292 76.323C59.3292 75.823 60.3292 75.123 61.3292 74.523C61.6292 74.023 61.8292 73.323 61.9292 72.823C62.7292 70.723 63.1292 68.723 63.5292 66.523C63.9292 64.423 64.5292 62.223 65.3292 60.223C65.7292 59.323 66.8292 55.723 68.3292 56.023C69.5292 56.223 70.9292 59.723 71.2292 60.723C71.3292 61.123 71.4292 61.523 71.5292 62.023C71.6292 61.423 71.6292 60.823 71.6292 60.123C71.1292 42.923 76.3292 35.123 74.1292 30.823Z" fill="#331B0E"/>
<path d="M26.3293 22.6219C42.2293 9.72185 71.1293 12.4219 73.5293 36.5219C75.3293 43.2219 73.2293 49.1219 72.9293 55.7219C72.7293 60.0219 73.4293 67.3219 69.5293 71.7219C64.6293 77.1219 62.6293 81.4218 56.8293 81.1218C37.5293 80.1218 27.8293 68.0219 23.5293 61.2219C18.1293 52.7219 15.3293 31.5219 26.3293 22.6219Z" fill="#E29F7C"/>
<path d="M72.9299 55.7225C72.7299 60.0225 73.4299 67.3225 69.5299 71.7225C64.6299 77.1225 62.6299 81.4224 56.8299 81.1224C50.8299 80.8224 44.7299 78.1224 40.4299 74.1224C36.8299 70.9224 31.5299 61.8225 29.8299 54.9225C26.0299 39.7225 34.5299 18.1225 61.4299 24.2225C65.5299 25.1225 71.6299 29.7224 73.5299 36.5224C75.3299 43.2224 73.2299 49.1225 72.9299 55.7225Z" fill="#EFC69E"/>
<path d="M34.1299 68.1227C32.1299 65.8227 29.9299 61.2227 29.8299 59.3227C26.2299 54.1227 21.7299 57.3227 22.0299 60.6227C22.4299 64.5227 28.0299 69.5227 34.1299 68.1227Z" fill="#EFC69E"/>
<path d="M29.1301 65.7233C29.1301 67.5233 33.4301 65.8232 33.4301 65.8232C33.4301 65.8232 32.0301 63.7232 31.4301 62.7232C30.2301 60.8232 28.3301 58.6232 25.6301 58.8232C23.9301 59.0232 22.9301 60.8232 24.1301 62.4232C23.9301 61.4232 24.1301 60.5232 25.3301 60.6232C26.2301 60.7232 27.4301 61.2232 28.0301 61.8232C26.2301 61.8232 26.8301 63.6232 27.9301 64.2232C29.1301 64.9232 30.3301 63.9233 30.9301 65.2233C30.4301 65.7233 29.7301 65.5233 29.1301 65.7233Z" fill="#E29F7C"/>
<path d="M60.6297 59.1221C60.5297 58.6221 60.4297 58.1221 60.1297 57.7221C59.2297 56.3221 57.0297 57.0221 56.5297 58.4221C56.0297 59.8221 56.5297 61.3221 56.2297 62.7221C56.0297 63.6221 55.8297 64.8221 56.6297 65.5221C57.3297 66.1221 58.8297 65.7221 59.6297 65.5221C60.9297 65.3221 63.2297 64.6221 62.5297 62.8221C62.1297 61.9221 61.3297 61.3221 61.0297 60.4221C60.8297 60.0221 60.7297 59.6221 60.6297 59.1221Z" fill="#EFC69E"/>
<path d="M57.2292 66.0229C57.4292 65.9229 57.6292 65.7229 57.7292 65.7229C58.2292 65.5229 59.1292 65.6229 58.9292 66.3229C58.9292 66.2229 60.3292 66.2229 60.8292 66.0229C62.0292 65.5229 62.7292 64.9229 62.5292 63.2229C62.0292 62.7229 60.9292 63.0229 60.5292 63.4229C59.8292 64.2229 59.1292 64.7229 57.8292 64.8229C57.3292 64.9229 55.9292 65.0229 56.2292 65.8229C56.4292 65.9229 56.8292 66.1229 57.0292 66.1229C57.1292 66.0229 57.2292 66.0229 57.2292 66.0229Z" fill="#E29F7C"/>
<path d="M58.9305 66.1212C58.4305 65.4212 57.5305 65.8212 56.7305 65.8212C57.2305 65.4212 58.2305 64.8212 58.8305 64.9212C59.1305 65.0212 59.2305 65.1212 59.2305 65.4212C59.2305 65.5212 58.9305 66.2212 58.9305 66.1212Z" fill="#A26E54"/>
<path d="M64.5301 72.6217C64.2301 73.0217 63.8301 72.8217 63.3301 73.0217C64.4301 75.5217 61.6301 76.4217 60.7301 76.5217C56.9301 76.7217 55.4301 75.1217 53.3301 73.2217C54.4301 72.7217 56.6301 69.9217 58.3301 69.6217C59.0301 69.5217 59.6301 69.7217 60.6301 69.8217C61.7301 69.4217 62.1301 69.3217 62.6301 69.6217C63.1301 70.0217 64.2301 72.2217 64.5301 72.6217Z" fill="#D28974"/>
<path d="M57.2293 73.521C57.1293 73.521 57.1293 73.521 57.0293 73.521C57.3293 73.021 58.2293 72.921 58.8293 72.621C59.5293 72.321 60.2293 72.021 60.9293 72.221C61.4293 72.321 62.2293 72.721 62.6293 73.121C61.8293 73.321 57.9293 73.521 57.2293 73.521Z" fill="#A26E54"/>
<path d="M59.6309 73.7227C59.1309 73.7227 58.6309 73.4227 58.1309 73.3227C58.8309 73.1227 59.5309 72.9227 60.2309 72.8227C60.7309 72.7227 61.4309 72.8227 61.8309 73.1227C61.1309 73.4227 60.3309 73.7227 59.6309 73.7227Z" fill="#3E181F"/>
<path d="M53.4285 49.2219C50.7285 47.8219 43.6285 46.7219 41.1285 48.3219C40.0285 49.0219 39.0285 50.8219 38.7285 52.0219C40.8285 50.1219 50.2285 49.3219 53.4285 49.2219Z" fill="#331B0E"/>
<path d="M61.0293 48.7216C62.9293 46.7216 68.0293 44.1216 70.2293 45.1216C71.1293 45.5216 72.0293 47.1216 72.4293 48.2216C70.5293 46.7216 63.5293 48.0216 61.0293 48.7216Z" fill="#331B0E"/>
<path d="M50.8277 60.4215C51.3277 60.4215 51.6277 60.1215 51.5277 59.5215C50.8277 59.5215 50.0277 59.7215 49.4277 60.1215C49.8277 60.4215 50.3277 60.4215 50.8277 60.4215Z" fill="#E29F7C"/>
<path d="M46.6277 60.9203C45.8277 61.3203 44.6277 61.3203 43.7277 61.1203C42.9277 60.9203 42.1277 60.4203 41.6277 59.8203C41.4277 59.8203 41.0277 60.2203 40.9277 60.4203C41.2277 61.0203 43.2277 62.9203 46.6277 60.9203Z" fill="#E29F7C"/>
<path d="M51.3285 59.2209C49.1285 59.5209 47.9285 60.6209 44.9285 60.9209C43.4285 61.0209 42.0285 60.0209 41.0285 58.4209C40.6285 57.8209 40.2285 57.3209 40.2285 56.7209C42.3285 54.5209 48.7285 51.2209 51.2285 56.5209C51.4285 57.0209 51.4285 58.5209 51.3285 59.2209Z" fill="white"/>
<path d="M45.83 56.8211C45.93 58.5211 47.33 59.9211 48.93 59.8211C50.53 59.7211 51.63 58.2211 51.53 56.4211C51.43 54.7211 50.03 53.3211 48.43 53.4211C46.93 53.5211 45.73 55.0211 45.83 56.8211Z" fill="#A25100"/>
<path d="M46.5291 56.5208C46.6291 57.9208 47.6291 59.0208 48.8291 58.9208C50.0291 58.8208 50.8291 57.6208 50.7291 56.2208C50.6291 54.8208 49.6291 53.7208 48.4291 53.8208C47.3291 53.9208 46.4291 55.1208 46.5291 56.5208Z" fill="#07050F"/>
<path d="M51.6297 56.8216C51.2297 55.6216 49.8297 54.1216 47.9297 54.1216C43.6297 54.0216 41.3297 55.7216 39.9297 56.7216C40.4297 54.3216 42.4297 51.0216 47.6297 51.2216C50.2297 51.2216 51.6297 54.4216 51.6297 56.8216Z" fill="#EFC69E"/>
<path d="M47.4289 53.2217C45.7289 53.0217 43.7289 53.6217 41.8289 54.7217C41.2289 54.0217 39.8289 53.5217 39.8289 53.5217C39.8289 53.5217 40.1289 54.8217 40.6289 55.5217C40.5289 55.6217 40.4289 55.6217 40.3289 55.7217C39.4289 55.2217 37.6289 55.1217 37.6289 55.1217C37.7289 55.1217 39.0289 57.5217 41.0289 58.4217C41.0289 58.1217 40.6289 57.0217 40.8289 56.8217C42.2289 55.4217 44.9289 54.0217 47.3289 54.2217C49.3289 54.4217 50.4289 54.9217 51.4289 57.2217C51.0289 55.1217 50.3289 53.5217 47.4289 53.2217Z" fill="#07050F"/>
<path d="M63.6301 59.0207C63.2301 59.1207 62.9301 59.0207 62.8301 58.3207C63.4301 58.2207 64.1301 58.1207 64.7301 58.4207C64.5301 58.7207 64.0301 58.9207 63.6301 59.0207Z" fill="#E29F7C"/>
<path d="M67.1289 58.5207C67.9289 58.7207 68.8289 58.4207 69.5289 58.0207C70.1289 57.6207 70.6289 57.0207 70.9289 56.2207C71.1289 56.2207 71.5289 56.4207 71.6289 56.6207C71.6289 57.2207 70.5289 59.6207 67.1289 58.5207Z" fill="#E29F7C"/>
<path d="M62.9298 57.9211C64.8298 57.7211 66.0298 58.5211 68.6298 58.0211C69.8298 57.8211 70.7298 56.5211 71.1298 54.7211C71.3298 54.0211 71.5298 53.4211 71.4298 52.9211C69.2298 51.2211 63.1298 49.6211 62.4298 55.3211C62.3298 55.8211 62.7298 57.3211 62.9298 57.9211Z" fill="white"/>
<path d="M71.0302 53.921C71.1302 55.621 70.2302 57.121 68.8302 57.221C67.5302 57.321 66.3302 56.021 66.2302 54.321C66.1302 52.621 67.0302 51.121 68.4302 51.021C69.7302 50.921 70.9302 52.221 71.0302 53.921Z" fill="#A25100"/>
<path d="M70.4298 53.8204C70.5298 55.2204 69.8298 56.4204 68.8298 56.5204C67.8298 56.6204 66.9298 55.5204 66.8298 54.1204C66.7298 52.7204 67.4298 51.5204 68.4298 51.4204C69.4298 51.3204 70.3298 52.4204 70.4298 53.8204Z" fill="#07050F"/>
<path d="M62.3289 55.2215C62.3289 53.9215 62.8289 52.6215 64.4289 52.1215C67.9289 51.0215 70.2289 52.1215 71.6288 52.7215C70.6288 50.5215 68.1289 47.8215 63.9289 49.2215C61.8289 49.9215 61.8289 52.9215 62.3289 55.2215Z" fill="#EFC69E"/>
<path d="M64.6287 51.2211C65.9287 50.6211 67.8287 50.7211 69.5287 51.3211C69.8287 50.5211 70.8287 49.6211 70.8287 49.6211C70.8287 49.6211 70.9287 50.9211 70.6287 51.8211C70.7287 51.8211 70.8287 51.9211 70.9287 51.9211C71.5287 51.2211 73.0287 50.7211 73.0287 50.7211C72.9287 50.7211 72.5287 53.4211 71.1287 54.7211C71.1287 54.4211 71.1287 53.2211 70.9287 53.1211C69.4287 52.1211 66.9287 51.4211 64.9287 52.2211C63.3287 52.8211 62.6287 53.6211 62.3287 56.1211C62.1287 53.9211 62.3287 52.2211 64.6287 51.2211Z" fill="#07050F"/>
<path d="M73.0276 55.1217C73.0276 54.0217 81.1276 36.9217 69.2276 21.2217C55.9276 3.62175 18.7276 8.32175 15.6276 39.4217C15.3276 42.7217 16.3276 55.8217 22.1276 61.0217C22.7276 59.4217 22.3276 57.2218 25.2276 56.8218C29.6276 56.1218 32.3276 65.6218 35.0276 67.2218C34.8276 67.1218 34.9276 64.7218 34.9276 64.3218C34.8276 63.3218 34.7276 62.3217 34.6276 61.2217C34.4276 59.7217 34.4276 57.4217 33.5276 56.1217C33.9276 56.0217 34.3276 55.9218 34.6276 55.8218C33.8276 55.2218 32.9276 54.7217 32.1276 54.0217C32.8276 53.9217 33.5276 53.8217 34.1276 53.7217C33.3276 53.2217 32.8276 52.6217 32.2276 52.0217C32.1276 51.9217 30.8276 50.5217 30.9276 50.5217C31.9276 50.5217 32.9276 50.7217 33.9276 50.7217C32.9276 49.9217 32.1276 49.2217 32.0276 47.9217C32.8276 47.9217 33.6276 48.2217 34.3276 48.1217C32.7276 47.4217 32.2276 43.9217 32.9276 42.5217C33.2276 43.1217 33.7276 43.7217 34.3276 44.1217C33.3276 43.4217 33.7276 40.4217 34.2276 39.3217C34.6276 39.7217 35.0276 40.4217 35.2276 41.0217C34.2276 38.6217 36.4276 35.9217 37.9276 34.4217C37.8276 35.2217 37.4276 36.0217 37.3276 36.8217C40.7276 33.5217 45.0276 32.4217 49.7276 33.4217C49.5276 33.1217 49.3276 32.6217 49.4276 32.1217C50.3276 32.1217 51.4276 33.1217 52.1276 33.5217C51.8276 32.9217 52.0276 32.2217 52.2276 31.5217C52.1276 31.8217 55.4276 32.3217 58.4276 33.7217C60.2276 32.6217 61.2276 32.0217 63.1276 30.8217C63.0276 31.5217 62.5276 32.2217 62.3276 32.9217C63.2276 32.4217 63.9276 31.4217 64.7276 30.9217C64.7276 31.5217 64.6276 32.3217 64.1276 32.8217C65.4276 31.5217 69.1276 32.1217 70.0276 33.7217C70.3276 33.3217 70.5276 32.8217 70.7276 32.4217C71.2276 33.3217 71.8276 34.1217 71.9276 35.2217C72.3276 35.0217 72.6276 34.6217 72.9276 34.3217C73.6276 35.8217 72.5276 37.0217 72.7276 38.4217C73.0276 38.2217 73.4276 38.1217 73.6276 37.8217C73.6276 39.4217 73.2276 41.0217 72.8276 42.6217C72.9276 42.6217 74.0276 42.3217 74.0276 42.3217C73.9276 43.3217 73.5276 44.3218 73.3276 45.3218C73.7276 45.2218 74.1276 45.1217 74.4276 45.0217C74.2276 46.1217 73.5276 47.3217 72.7276 48.0217C73.1276 47.8217 73.7276 47.8217 74.1276 47.5217C73.9276 48.3217 73.1276 48.7218 72.6276 49.3218C73.0276 49.2218 73.5276 49.1217 73.9276 49.0217C73.9276 49.4217 73.4276 49.7217 73.3276 50.1217C73.2276 50.5217 73.5276 50.8217 73.4276 51.2217C73.4276 51.5217 73.2276 51.8217 73.1276 52.1217C73.0276 53.0217 73.0276 54.1217 73.0276 55.1217Z" fill="#462C20"/>
<path d="M34.9284 67.2211C34.7284 67.1211 34.8284 64.7211 34.8284 64.3211C34.7284 63.3211 34.6284 62.3211 34.5284 61.2211C34.3284 59.7211 34.3284 57.4211 33.4284 56.1211C33.8284 56.0211 34.2284 55.9211 34.5284 55.8211C33.7284 55.2211 32.8284 54.7211 32.0284 54.0211C32.7284 53.9211 33.4284 53.8211 34.0284 53.7211C33.2284 53.2211 32.7284 52.6211 32.1284 52.0211C32.0284 51.9211 30.7284 50.5211 30.8284 50.5211C31.1284 50.5211 31.4284 50.5211 31.7284 50.5211C30.9284 50.0211 30.2284 49.5211 29.4284 48.9211C27.7284 47.6211 25.7284 46.6211 24.2284 45.0211C23.0284 43.7211 21.8284 42.4211 20.7284 41.0211C19.7284 39.7211 18.7284 38.4211 17.9284 37.0211C17.4284 36.1211 17.0284 34.8211 16.4284 33.6211C15.9284 35.4211 15.6284 37.3211 15.4284 39.3211C15.1284 42.6211 16.1284 55.7211 21.9284 60.9211C22.5284 59.3211 22.1284 57.1211 25.0284 56.7211C29.6284 56.1211 32.2284 65.6211 34.9284 67.2211Z" fill="#331B0E"/>
<path d="M22.1289 22.1221C35.0289 19.5221 46.3289 22.9221 55.5289 29.6221C46.2289 18.1221 36.7289 14.1221 22.1289 22.1221Z" fill="#331B0E"/>
<path d="M62.8277 31.5225C64.6277 28.5225 67.2277 22.4225 65.0277 17.0225C53.5277 7.92248 33.6277 9.12248 22.9277 21.6225C37.7277 14.7225 52.0277 22.9225 58.4277 33.7225C60.2277 32.6225 61.2277 32.0225 63.1277 30.8225C63.0277 31.0225 62.9277 31.2225 62.8277 31.5225Z" fill="#5E3E31"/>
<path d="M39.2285 11.9208C55.9285 11.9208 57.5285 28.6208 58.7285 32.7208C59.4285 23.6208 55.5285 7.32082 39.2285 11.9208Z" fill="#704B3D"/>
<path d="M53.8281 11.8223C61.5281 17.0223 61.3281 21.0223 60.4281 30.1223C64.0281 21.8223 63.6281 13.3223 53.8281 11.8223Z" fill="#462C20"/>
<path d="M65.5281 18.6211C64.8281 26.4211 62.7281 28.9211 58.8281 33.4211C64.8281 30.1211 68.0281 25.3211 65.5281 18.6211Z" fill="#704B3D"/>
<path d="M67.9289 19.7227C69.1289 25.3227 67.5289 27.2227 64.6289 30.8227C69.8289 28.4227 72.9289 22.8227 67.9289 19.7227Z" fill="#704B3D"/>
<path d="M71.9293 25.5215C69.7293 29.1215 68.4293 30.3215 65.0293 31.4215C69.3293 32.1215 71.9293 30.1215 71.9293 25.5215Z" fill="#5E3E31"/>
<path d="M46.4277 11.2227C57.4277 14.8227 58.1277 26.9227 58.7277 31.1227C60.8277 22.2227 58.2277 13.1227 46.4277 11.2227Z" fill="#8D5B4A"/>
<path d="M32.6289 14.1224C46.0289 13.0224 51.8289 23.4224 57.7289 31.2224C53.7289 18.3224 45.8289 10.8224 32.6289 14.1224Z" fill="#462C20"/>
<path d="M29.1289 23.5217C38.3289 24.8217 44.7289 26.7217 54.0289 30.4217C47.6289 23.5217 40.0289 22.3217 29.1289 23.5217Z" fill="#5E3E31"/>
<path d="M49.7281 33.4219C49.5281 33.1219 49.3281 32.6219 49.4281 32.1219C50.3281 32.1219 51.4281 33.1219 52.1281 33.5219C51.9281 33.2219 51.9281 32.8219 52.0281 32.5219C45.6281 26.8219 33.7281 24.9219 22.8281 24.4219C29.7281 26.6219 37.0281 30.2219 46.0281 33.0219C47.2281 33.0219 48.5281 33.1219 49.7281 33.4219Z" fill="#331B0E"/>
<path d="M36.0293 14.1211C44.7293 15.8211 50.5293 22.7211 54.2293 26.4211C51.5293 19.6211 46.8293 15.3211 36.0293 14.1211Z" fill="#704B3D"/>
<path d="M16.1289 35.6227C17.5289 43.0227 23.6289 52.7227 33.7289 56.7227C33.6289 56.5227 33.5289 56.3227 33.4289 56.1227C33.8289 56.0227 34.1289 55.9227 34.5289 55.8227C25.4289 49.5227 19.4289 41.3227 16.6289 33.7227C16.4289 34.3227 16.3289 34.9227 16.1289 35.6227Z" fill="#704B3D"/>
<path d="M16.9277 32.7227C16.7277 33.3227 16.6277 33.8227 16.4277 34.4227C18.1277 40.6227 23.3277 47.3227 31.3277 50.5227C32.1277 50.5227 32.9277 50.6227 33.7277 50.7227C25.2277 45.5227 20.1277 39.8227 16.9277 32.7227Z" fill="#5E3E31"/>
<path d="M40.8281 23.4219C45.5281 25.9219 49.8281 29.3219 54.9281 31.8219C52.2281 27.0219 49.8281 26.1219 40.8281 23.4219Z" fill="#704B3D"/>
<path d="M20.8281 24.3223C25.1281 29.8223 29.4281 33.1223 36.6281 34.0223C32.3281 30.1223 28.7281 29.1223 20.8281 24.3223Z" fill="#5E3E31"/>
<path d="M23.9277 26.0215C29.1277 30.7215 35.0277 33.4215 42.3277 33.0215C35.5277 30.3215 32.6277 29.3215 23.9277 26.0215Z" fill="#704B3D"/>
<path d="M19.4276 26.5215C15.8276 27.8215 22.3276 34.6215 34.3276 38.4215C27.4276 34.2215 24.0276 32.0215 19.4276 26.5215Z" fill="#331B0E"/>
<path d="M33.0285 42.6211C33.3285 43.2211 33.8285 43.8211 34.4285 44.2211C34.1285 44.0211 33.9285 43.4211 33.8285 42.8211C29.9285 39.8211 26.1285 38.0211 20.7285 34.1211C22.4285 38.0211 28.8285 45.8211 33.7285 48.2211C33.9285 48.2211 34.1285 48.2211 34.3285 48.2211C32.8285 47.5211 32.3285 44.0211 33.0285 42.6211Z" fill="#331B0E"/>
<path d="M19.2285 31.8223C21.9285 36.2223 26.5285 40.9223 32.4285 41.7223C27.9285 38.7223 23.9285 36.3223 19.2285 31.8223Z" fill="#5E3E31"/>
<path d="M16.0293 38.6211C16.4293 44.8211 23.4293 55.4211 34.0293 57.4211C33.9293 57.2211 33.9293 57.0211 33.8293 56.8211C25.0293 52.2211 18.8293 45.1211 16.0293 38.6211Z" fill="#5E3E31"/>
<path d="M73.2289 52.0223C73.0289 53.0223 73.1289 54.1223 73.0289 55.1223C73.0289 54.2223 77.9289 43.8223 74.5289 31.8223C74.1289 32.7223 73.6289 33.6223 73.0289 34.4223C73.5289 35.8223 72.5289 36.9223 72.7289 38.2223C73.0289 38.0223 73.4289 37.9223 73.6289 37.6223C73.6289 39.2223 73.2289 40.8223 72.8289 42.4223C72.9289 42.4223 74.0289 42.1223 74.0289 42.1223C73.9289 43.1223 73.5289 44.1223 73.3289 45.1223C73.7289 45.0223 74.1289 44.9223 74.4289 44.8223C74.2289 45.9223 73.5289 47.1223 72.7289 47.8223C73.1289 47.6223 73.7289 47.6223 74.1289 47.3223C73.9289 48.1223 73.1289 48.5223 72.6289 49.1223C73.0289 49.0223 73.5289 48.9223 73.9289 48.8223C73.9289 49.2223 73.4289 49.5223 73.3289 49.9223C73.2289 50.3223 73.5289 50.6223 73.4289 51.0223C73.4289 51.4223 73.2289 51.7223 73.2289 52.0223Z" fill="#331B0E"/>
<path d="M34.5293 61.2219C34.5293 60.9219 34.4293 60.5219 34.4293 60.1219C32.9293 59.6219 31.0293 59.5219 29.5293 59.4219C30.1293 60.2219 30.7293 61.1219 31.2293 62.0219C31.7293 62.0219 32.3293 61.9219 32.8293 62.0219C33.4293 62.1219 34.0293 62.2219 34.6293 62.4219C34.6293 62.1219 34.6293 61.7219 34.5293 61.2219Z" fill="#462C20"/>
<path d="M32.6281 68.7223C32.8281 69.8223 36.1281 74.2223 37.1281 75.4223C35.2281 74.3223 29.2281 70.3223 26.8281 67.3223C28.8281 68.0223 30.4281 68.5223 32.6281 68.7223Z" fill="#331B0E"/>
</svg>
