<svg width="74" height="90" viewBox="0 0 74 90" fill="none" xmlns="http://www.w3.org/2000/svg">
<path d="M21.5502 26.1874C39.3502 16.1874 67.4502 23.6874 65.7502 47.8874C66.4502 54.7874 63.3502 60.2874 61.8502 66.6874C60.8502 70.8874 60.3502 78.1874 55.7502 81.8874C50.0502 86.3874 47.3502 90.2874 41.6502 88.9874C22.8502 84.7874 15.2502 71.1874 12.1502 63.7874C8.3502 54.4874 9.1502 33.1874 21.5502 26.1874Z" fill="#AE7E78"/>
<path d="M21.5502 26.1874C39.3502 16.1874 67.4502 23.6874 65.7502 47.8874C66.4502 54.7874 63.3502 60.2874 61.8502 66.6874C60.8502 70.8874 60.3502 78.1874 55.7502 81.8874C50.0502 86.3874 47.3502 90.2874 41.6502 88.9874C22.8502 84.7874 15.2502 71.1874 12.1502 63.7874C8.3502 54.4874 9.1502 33.1874 21.5502 26.1874Z" fill="#AC7453"/>
<path d="M21.5495 72.3873C19.9495 69.7873 18.5495 64.8873 18.8495 62.9873C16.2495 57.1873 11.1495 59.5873 10.9495 62.9873C10.5495 66.8873 15.2495 72.6873 21.5495 72.3873Z" fill="#F0D1BC"/>
<path d="M21.5495 72.3873C19.9495 69.7873 18.5495 64.8873 18.8495 62.9873C16.2495 57.1873 11.1495 59.5873 10.9495 62.9873C10.5495 66.8873 15.2495 72.6873 21.5495 72.3873Z" fill="#AC7453"/>
<path d="M16.9501 69.1873C16.6501 70.9873 21.1501 70.0873 21.1501 70.0873C21.1501 70.0873 20.1501 67.7873 19.7501 66.6873C18.9501 64.5873 17.4501 62.0873 14.7501 61.8873C13.0501 61.7873 11.8501 63.3873 12.6501 65.1873C12.6501 64.1873 12.9501 63.2873 14.1501 63.5873C15.0501 63.7873 16.1501 64.4873 16.5501 65.2873C14.7501 64.9873 15.1501 66.7873 16.0501 67.5873C17.0501 68.4873 18.5501 67.6873 18.8501 69.0873C18.2501 69.3873 17.6501 69.1873 16.9501 69.1873Z" fill="#AE7E78"/>
<path d="M16.9501 69.1873C16.6501 70.9873 21.1501 70.0873 21.1501 70.0873C21.1501 70.0873 20.1501 67.7873 19.7501 66.6873C18.9501 64.5873 17.4501 62.0873 14.7501 61.8873C13.0501 61.7873 11.8501 63.3873 12.6501 65.1873C12.6501 64.1873 12.9501 63.2873 14.1501 63.5873C15.0501 63.7873 16.1501 64.4873 16.5501 65.2873C14.7501 64.9873 15.1501 66.7873 16.0501 67.5873C17.0501 68.4873 18.5501 67.6873 18.8501 69.0873C18.2501 69.3873 17.6501 69.1873 16.9501 69.1873Z" fill="#AE7E78"/>
<path d="M16.9501 69.1873C16.6501 70.9873 21.1501 70.0873 21.1501 70.0873C21.1501 70.0873 20.1501 67.7873 19.7501 66.6873C18.9501 64.5873 17.4501 62.0873 14.7501 61.8873C13.0501 61.7873 11.8501 63.3873 12.6501 65.1873C12.6501 64.1873 12.9501 63.2873 14.1501 63.5873C15.0501 63.7873 16.1501 64.4873 16.5501 65.2873C14.7501 64.9873 15.1501 66.7873 16.0501 67.5873C17.0501 68.4873 18.5501 67.6873 18.8501 69.0873C18.2501 69.3873 17.6501 69.1873 16.9501 69.1873Z" fill="#AC7453"/>
<path d="M21.4499 26.1874C39.2499 16.1874 67.3499 23.6874 65.6499 47.8874C66.3499 54.7874 63.2499 60.2874 61.7499 66.6874C60.7499 70.8874 60.2499 78.1874 55.6499 81.8874C49.9499 86.3874 47.2499 90.2874 41.5499 88.9874C22.8499 84.7874 15.2499 71.1874 12.1499 63.7874C8.3499 54.4874 9.14991 33.1874 21.4499 26.1874Z" fill="#AE7E78"/>
<path d="M65.6499 47.8874C67.3499 23.6874 39.3499 16.1874 21.4499 26.1874C9.14991 33.1874 8.3499 54.4874 12.1499 63.7874C15.2499 71.1874 22.8499 84.7874 41.6499 89.0874C47.2499 90.3874 50.0499 86.4874 55.7499 81.9874C60.3499 78.3874 60.8499 70.9874 61.8499 66.7874C63.2499 60.2874 66.3499 54.7874 65.6499 47.8874Z" fill="#90593A"/>
<path d="M61.7505 66.7868C60.7505 70.9868 60.2505 78.2868 55.6505 81.9868C49.9505 86.4868 47.2505 90.3868 41.5505 89.0868C35.7505 87.7868 30.1505 84.0868 26.5505 79.4868C23.5505 75.6868 19.8505 65.8868 19.3505 58.7868C18.2505 43.0868 30.2505 23.2868 55.7505 33.7868C59.6505 35.3868 64.8505 40.9868 65.5505 47.9868C66.3505 54.7868 63.2505 60.2868 61.7505 66.7868Z" fill="#AC7453"/>
<path d="M21.4498 72.3873C19.8498 69.7873 18.4498 64.8873 18.7498 62.9873C16.1498 57.1873 11.0498 59.5873 10.8498 62.9873C10.5498 66.8873 15.1498 72.6873 21.4498 72.3873Z" fill="#AC7453"/>
<path d="M16.9501 69.1873C16.6501 70.9873 21.1501 70.0873 21.1501 70.0873C21.1501 70.0873 20.1501 67.7873 19.7501 66.6873C18.9501 64.5873 17.4501 62.0873 14.7501 61.8873C13.0501 61.7873 11.8501 63.3873 12.6501 65.1873C12.6501 64.1873 12.9501 63.2873 14.1501 63.5873C15.0501 63.7873 16.1501 64.4873 16.5501 65.2873C14.7501 64.9873 15.1501 66.7873 16.0501 67.5873C17.0501 68.4873 18.5501 67.6873 18.8501 69.0873C18.2501 69.3873 17.5501 69.1873 16.9501 69.1873Z" fill="#AE7E78"/>
<path d="M16.9501 69.1873C16.6501 70.9873 21.1501 70.0873 21.1501 70.0873C21.1501 70.0873 20.1501 67.7873 19.7501 66.6873C18.9501 64.5873 17.4501 62.0873 14.7501 61.8873C13.0501 61.7873 11.8501 63.3873 12.6501 65.1873C12.6501 64.1873 12.9501 63.2873 14.1501 63.5873C15.0501 63.7873 16.1501 64.4873 16.5501 65.2873C14.7501 64.9873 15.1501 66.7873 16.0501 67.5873C17.0501 68.4873 18.5501 67.6873 18.8501 69.0873C18.2501 69.3873 17.5501 69.1873 16.9501 69.1873Z" fill="#A46643"/>
<path d="M46.0505 79.3877C42.6505 78.4877 37.0505 78.4877 37.0505 78.6877C36.8505 80.7877 37.4505 83.8877 41.9505 84.9877C45.2505 85.7877 47.9505 83.3877 47.9505 81.3877C47.7505 80.9877 46.7505 79.8877 46.0505 79.3877Z" fill="#9F5343"/>
<path d="M48.7504 80.8879C48.5504 80.4879 44.8504 80.1879 44.1504 79.5879C44.7504 80.5879 45.7504 82.7879 45.6504 83.3879C45.5504 83.8879 44.0504 84.3879 43.1504 84.3879C41.4504 84.3879 40.3504 84.1879 39.3504 83.8879C39.2504 83.8879 39.2504 83.7879 39.1504 83.7879C39.8504 84.2879 40.7504 84.7879 42.0504 85.0879C45.3504 85.9879 48.9504 83.3879 48.7504 80.8879Z" fill="#9F5343"/>
<path d="M51.4512 78.887C51.0512 79.687 49.9512 80.287 49.4512 79.987C48.4512 79.787 49.1512 79.087 49.2512 78.987C49.7512 78.487 49.9512 77.787 50.5512 77.387C50.9512 77.087 51.8512 77.287 51.9512 77.787C51.9512 77.987 51.6512 78.587 51.4512 78.887Z" fill="#90593A"/>
<path d="M49.9507 78.1872C50.1507 78.4872 50.0507 78.5872 49.4507 78.8872C48.6507 79.1872 46.7507 80.5872 47.4507 81.4872C45.4507 82.2872 42.2507 81.0872 40.4507 80.3872C39.3507 79.9872 37.6507 79.1872 37.0507 78.2872C36.5507 77.4872 36.9507 76.5872 38.0507 76.4872C39.1507 76.3872 40.5507 76.2872 41.6507 76.1872C43.7507 75.9872 48.7507 75.8872 49.9507 78.1872Z" fill="#9F5343"/>
<path d="M35.9503 75.287C34.8503 75.687 36.2503 76.887 36.5503 77.387C36.6503 77.287 36.7503 77.187 36.7503 77.087C36.7503 76.987 36.6503 76.887 36.6503 76.687C36.5503 75.987 37.4503 76.087 37.6503 75.687C38.1503 74.887 36.3503 75.187 35.9503 75.287Z" fill="#90593A"/>
<path d="M51.1496 78.4871C51.1496 78.0871 50.9496 77.7871 50.2496 78.0871C49.6496 78.2871 49.5496 78.3871 48.9496 78.3871C46.9496 78.2871 44.8496 78.0871 42.8496 77.6871C41.8496 77.4871 40.8496 77.2871 39.9496 76.9871C39.2496 76.7871 38.1496 76.6871 37.6496 76.2871C37.3496 75.9871 37.3496 75.7871 36.7496 75.6871C35.1496 75.4871 36.3496 77.0871 36.6496 77.6871C37.0496 78.4871 37.7496 79.4871 38.8496 79.7871C40.6496 80.1871 43.0496 80.1871 44.9496 80.2871C46.3496 80.3871 49.4496 80.1871 49.6496 80.1871C50.2496 80.0871 51.1496 79.1871 51.1496 78.4871Z" fill="#6F3722"/>
<path d="M40.5496 77.5879C40.0496 77.4879 37.7496 77.0879 36.8496 76.5879C36.8496 81.0879 42.1496 82.4879 45.4496 82.0879C47.8496 81.7879 49.1496 80.6879 50.6496 78.6879C48.3496 78.8879 46.2496 78.6879 40.5496 77.5879Z" fill="#4D110B"/>
<path d="M44.2505 81.9875C45.1505 81.8875 45.9505 81.8875 45.7505 80.8875C45.6505 80.1875 44.6505 79.7875 43.9505 79.6875C42.5505 79.3875 42.6505 79.8875 42.4505 80.0875C42.0505 79.7875 41.9505 79.3875 40.8505 79.1875C39.8505 79.0875 38.2505 78.8875 38.5505 79.6875C38.7505 80.3875 40.0505 81.0875 40.7505 81.3875C41.6505 81.7875 42.7505 82.0875 43.7505 82.0875C43.7505 81.9875 44.0505 81.9875 44.2505 81.9875Z" fill="#B34036"/>
<path d="M40.4503 77.4871C39.9503 77.3871 37.9503 77.1871 37.0503 76.7871C37.0503 77.1871 36.9503 77.0871 37.0503 77.4871C38.2503 78.6871 42.5503 80.0871 45.3503 80.0871C45.8503 80.0871 46.8503 79.9871 47.3503 79.7871C47.7503 79.5871 48.3503 79.0871 48.4503 78.7871C47.9503 78.6871 44.1503 78.3871 40.4503 77.4871Z" fill="white"/>
<path d="M36.9512 76.5879C36.9512 76.9879 36.9512 77.0879 37.0512 77.4879C37.2512 77.7879 38.4512 78.5879 40.8512 79.2879C40.6512 78.8879 40.4512 77.9879 40.4512 77.4879C39.4512 77.2879 37.2512 76.6879 36.9512 76.5879Z" fill="#D3DBE6"/>
<path d="M41.8504 80.387C41.2504 80.087 40.3504 79.787 40.1504 80.287C40.1504 80.387 40.1504 80.387 40.1504 80.487C40.4504 80.887 41.2504 81.0869 41.8504 81.1869C41.9504 81.1869 42.0504 81.1869 42.2504 81.1869C42.5504 81.0869 42.5504 80.7869 42.3504 80.6869C42.2504 80.5869 42.0504 80.487 41.8504 80.387Z" fill="#DB564A"/>
<path d="M39.1496 81.4863C39.3496 81.4863 40.1496 81.6863 40.3496 81.8863C40.9496 82.2863 40.3496 82.5863 39.8496 82.3863C39.2496 82.0863 38.7496 81.5863 39.1496 81.4863Z" fill="#FFD1CC"/>
<path d="M62.0488 62.9863C61.2488 60.8863 58.9488 58.5863 56.4488 58.5863C53.4488 58.4863 51.5488 61.5863 51.5488 65.8863C52.8488 66.3863 54.2488 67.5863 56.4488 67.1863C58.5488 66.7863 61.3488 65.0863 62.0488 62.9863Z" fill="#6F3722"/>
<path d="M51.4496 66.5867C51.4496 65.3867 51.3496 63.6867 51.9496 63.3867C52.2496 63.8867 52.7496 65.0867 52.7496 66.0867C52.5496 66.2867 51.8496 66.4867 51.4496 66.5867Z" fill="#90593A"/>
<path d="M61.3496 62.4868C60.5496 60.3868 59.0496 58.5868 56.4496 58.4868C53.4496 58.3868 51.8496 61.3868 51.8496 65.6868C52.6496 66.4868 54.5496 66.9868 56.4496 66.6868C58.5496 66.4868 60.6496 64.5868 61.3496 62.4868Z" fill="white"/>
<path d="M51.9492 63.8874C52.3492 60.5874 53.9492 58.4874 56.4492 58.5874C59.0492 58.6874 60.5492 60.4874 61.3492 62.5874C61.2492 62.9874 61.0492 63.3874 60.7492 63.7874C58.0492 62.9874 54.0492 62.9874 51.9492 63.8874Z" fill="#CDCDCD"/>
<path d="M51.4515 62.8866C51.2515 64.7866 52.4515 66.3866 54.0515 66.5866C54.3515 66.5866 54.6515 66.5866 54.9515 66.4866C56.1515 66.1866 57.1515 64.9866 57.3515 63.4866C57.5515 61.5866 56.3515 59.9866 54.7515 59.7866C53.0515 59.5866 51.6515 60.9866 51.4515 62.8866Z" fill="#3FA2FF"/>
<path d="M57.251 63.4866C57.451 61.5866 56.251 59.9866 54.651 59.7866C53.051 59.5866 51.551 60.9866 51.351 62.8866C51.251 64.0866 51.651 65.2866 52.451 65.9866C52.051 65.4866 51.851 64.7866 51.851 63.9866C51.851 63.7866 51.951 63.5866 51.951 63.3866C53.451 62.6866 55.551 62.6866 56.451 63.7866C56.451 63.9866 56.551 64.2866 56.451 64.4866C56.351 65.0866 56.151 65.5866 55.851 65.9866C56.451 65.4866 56.851 64.7866 56.951 63.9866C57.251 63.6866 57.251 63.5866 57.251 63.4866Z" fill="#0C0B10" fill-opacity="0.3"/>
<path d="M53.2512 63.0857C53.1512 63.9857 53.7512 64.7857 54.4512 64.7857C54.9512 64.8857 55.4512 64.5857 55.7512 64.0857C55.8512 63.8857 55.9512 63.5857 56.0512 63.2857C56.1512 62.3857 55.5512 61.5857 54.8512 61.5857C54.0512 61.4857 53.3512 62.1857 53.2512 63.0857Z" fill="#0D0B11"/>
<path d="M53.9512 61.7861C53.5512 61.2861 52.4512 61.3861 52.4512 62.1861C52.4512 62.4861 52.5512 62.6861 52.7512 62.7861C53.3512 63.0861 54.3512 62.6861 53.9512 61.8861C53.9512 61.8861 53.9512 61.8861 53.9512 61.7861Z" fill="white"/>
<path d="M51.1494 65.8879C48.1494 61.6879 51.3494 57.0879 55.3494 57.0879C58.2494 57.0879 60.8494 58.1879 62.1494 61.5879C58.2494 58.7879 53.1494 58.1879 51.4494 63.2879C51.3494 63.5879 51.2494 65.4879 51.1494 65.8879Z" fill="#AC7453"/>
<path d="M62.6496 60.8881C62.0496 60.6881 61.1496 60.8881 60.2496 60.5881C56.8496 59.0881 52.8496 59.2881 51.6496 62.6881C51.3496 63.1881 51.1496 63.6881 50.8496 64.1881C51.0496 57.0881 58.8496 57.0881 62.6496 60.8881Z" fill="#AC7453"/>
<path d="M62.6496 60.8881C62.0496 60.6881 61.1496 60.8881 60.2496 60.5881C56.8496 59.0881 52.8496 59.2881 51.6496 62.6881C51.3496 63.1881 51.1496 63.6881 50.8496 64.1881C51.0496 57.0881 58.8496 57.0881 62.6496 60.8881Z" fill="#6F3722"/>
<path d="M50.8496 64.1887C51.1496 63.6887 51.3496 63.1887 51.6496 62.6887C51.8496 62.1887 52.1496 61.6887 52.4496 61.2887C52.7496 60.3887 53.3496 59.5887 54.0496 58.8887C52.2496 59.5887 50.9496 61.2887 50.8496 64.1887Z" fill="#6F3722"/>
<path d="M60.6489 62.0872C58.9489 60.2872 56.1489 59.6872 54.6489 60.0872C52.9489 60.5872 51.9489 62.5872 51.5489 65.6872C51.1489 65.0872 51.1489 64.5872 51.2489 64.2872C51.7489 60.7872 53.0489 59.7872 54.4489 59.2872C56.1489 58.6872 60.2489 58.9872 62.2489 61.4872C62.0489 62.4872 61.5489 63.2872 60.6489 63.9872C60.7489 63.3872 60.6489 62.8872 60.6489 62.0872Z" fill="#0D0B11"/>
<path d="M29.4512 60.9877C30.5512 58.9877 33.2512 56.9877 36.0512 57.1877C39.2512 57.4877 41.0512 60.6877 40.4512 64.9877C39.0512 65.3877 37.3512 66.3877 35.0512 65.7877C32.8512 65.0877 30.0512 63.0877 29.4512 60.9877Z" fill="#6F3722"/>
<path d="M40.6504 65.8875C40.8504 64.7875 40.5504 63.0875 39.8504 62.6875C39.3504 63.0875 38.7504 64.2875 38.6504 65.2875C38.9504 65.5875 40.0504 65.7875 40.6504 65.8875Z" fill="#90593A"/>
<path d="M30.3516 60.5868C31.4516 58.5868 33.2516 56.9868 36.0516 57.1868C39.2516 57.4868 40.7516 60.4868 40.1516 64.7868C39.1516 65.4868 37.0516 65.7868 35.0516 65.2868C32.9516 64.7868 30.8516 62.6868 30.3516 60.5868Z" fill="white"/>
<path d="M40.2516 62.8868C40.2516 59.5868 38.7516 57.3868 36.0516 57.1868C33.2516 56.9868 31.4516 58.5868 30.3516 60.5868C30.4516 60.9868 30.6516 61.3868 30.8516 61.7868C33.8516 61.3868 38.1516 61.8868 40.2516 62.8868Z" fill="#CDCDCD"/>
<path d="M31.5503 61.187C31.4503 62.987 32.7503 64.587 34.4503 64.687C35.1503 64.787 35.7503 64.587 36.2503 64.287C37.1503 63.787 37.7503 62.787 37.7503 61.687C37.8503 59.887 36.5503 58.287 34.8503 58.187C33.2503 57.987 31.6503 59.387 31.5503 61.187Z" fill="#3FA2FF"/>
<path d="M37.8499 61.687C37.9499 59.887 36.6499 58.287 34.9499 58.187C33.2499 58.087 31.6499 59.387 31.5499 61.187C31.4499 62.387 32.0499 63.487 32.9499 64.087C32.4499 63.587 32.1499 62.887 32.2499 62.187C32.2499 61.987 32.3499 61.787 32.3499 61.587C33.9499 60.887 36.2499 60.787 37.2499 61.887C37.2499 62.087 37.3499 62.387 37.3499 62.587C37.3499 63.187 37.0499 63.587 36.7499 63.987C37.3499 63.487 37.7499 62.787 37.8499 61.987C37.8499 61.887 37.8499 61.787 37.8499 61.687Z" fill="#0C0B10" fill-opacity="0.3"/>
<path d="M33.5506 61.3874C33.4506 62.2874 34.1506 62.9874 34.9506 63.0874C35.4506 63.0874 35.8506 62.8874 36.1506 62.5874C36.3506 62.3874 36.5506 61.9874 36.5506 61.6874C36.6506 60.7874 35.9506 60.0874 35.1506 59.9874C34.3506 59.8874 33.6506 60.4874 33.5506 61.3874Z" fill="#0D0B11"/>
<path d="M34.2504 60.1866C33.8504 59.7866 32.6504 59.7866 32.6504 60.5866C32.6504 60.8866 32.8504 61.0866 33.0504 61.1866C33.6504 61.4866 34.7504 61.0866 34.3504 60.3866C34.2504 60.2866 34.2504 60.1866 34.2504 60.1866Z" fill="white"/>
<path d="M41.0508 64.488C44.6508 59.788 40.5508 56.388 37.3508 55.788C34.3508 55.288 31.3508 56.288 29.5508 59.488C33.8508 57.288 39.1508 57.0879 40.6508 61.5879C40.8508 62.1879 40.9508 63.788 41.0508 64.488Z" fill="#AC7453"/>
<path d="M29.0508 58.7888C29.6508 58.6888 30.6508 58.8888 31.6508 58.7888C35.4508 57.6888 39.7508 58.2888 40.6508 61.6888C40.8508 62.1888 41.0508 62.7888 41.3508 63.2888C42.0508 56.2888 33.6508 55.4888 29.0508 58.7888Z" fill="#AC7453"/>
<path d="M29.0508 58.7888C29.6508 58.6888 30.6508 58.8888 31.6508 58.7888C35.4508 57.6888 39.7508 58.2888 40.6508 61.6888C40.8508 62.1888 41.0508 62.7888 41.3508 63.2888C42.0508 56.2888 33.6508 55.4888 29.0508 58.7888Z" fill="#6F3722"/>
<path d="M41.4508 63.2883C41.6508 60.6883 40.6508 58.9883 39.0508 57.9883C39.5508 58.7883 39.8508 59.4883 39.9508 60.2883C40.2508 60.6883 40.5508 61.1883 40.7508 61.7883C40.9508 62.2883 41.1508 62.7883 41.4508 63.2883Z" fill="#6F3722"/>
<path d="M31.1504 60.1874C33.1504 58.5874 36.2504 58.2874 37.8504 58.8874C39.6504 59.5874 40.5504 61.5874 40.5504 64.7874C41.0504 64.1874 41.0504 63.6874 41.0504 63.4874C40.8504 59.9874 39.5504 58.8874 38.2504 58.2874C36.4504 57.4874 32.0504 57.3874 29.6504 59.5874C29.7504 60.5874 30.2504 61.4874 31.0504 62.1874C30.8504 61.4874 30.9504 60.9874 31.1504 60.1874Z" fill="#0D0B11"/>
<path d="M42.0504 70.0869C43.2504 67.8869 45.0504 65.9869 47.0504 64.6869C48.6504 63.5869 49.1504 65.2869 49.2504 66.4869C49.2504 66.9869 49.6504 67.5869 49.7504 68.0869C49.9504 69.2869 50.7504 70.1869 51.1504 71.3869C51.2504 71.5869 51.0504 71.6869 50.8504 71.8869C50.2504 72.3869 49.6504 72.8869 49.0504 73.2869C48.7504 73.4869 48.3504 73.6869 47.9504 73.7869C47.1504 73.8869 46.3504 73.4869 45.6504 72.9869C45.2504 72.6869 44.7504 72.2869 44.1504 72.2869C43.7504 72.2869 43.4504 72.3869 43.0504 72.3869C42.5504 72.3869 42.1504 72.1869 41.8504 71.7869C41.6504 71.1869 41.8504 70.5869 42.0504 70.0869Z" fill="#AC7453"/>
<path d="M44.25 68.8878C43.95 68.6878 43.45 68.3878 43.35 68.3878C43.25 68.3878 43.15 68.4878 43.05 68.4878C42.35 69.0878 41.65 69.6878 41.05 70.4878C40.95 70.6878 40.75 70.7878 40.75 70.9878C40.75 71.1878 40.85 71.2878 40.95 71.4878C41.35 72.0878 41.75 72.6878 42.35 72.9878C43.35 73.5878 43.75 73.3878 44.25 72.8878C44.35 72.7878 44.35 72.6878 44.45 72.6878C44.55 72.5878 44.65 72.5878 44.85 72.6878C45.55 72.8878 45.25 73.3878 45.45 73.7878C45.55 74.0878 46.55 74.3878 47.05 74.5878C47.45 74.6878 47.75 74.7878 48.15 74.7878C48.85 74.6878 49.25 74.4878 49.55 74.2878C49.85 73.9878 50.55 73.2878 50.75 73.1878C50.95 73.0878 51.35 72.8878 51.65 72.5878C52.05 72.1878 51.75 70.3878 51.35 69.6878C50.55 68.4878 49.95 67.3878 49.55 66.0878C49.55 65.9878 49.45 65.5878 49.35 65.6878C49.25 65.6878 49.25 67.3878 49.45 68.0878C49.75 69.2878 50.55 71.0878 50.35 71.4878C50.35 71.8878 49.15 72.6878 48.55 73.0878C48.35 73.1878 48.15 73.3878 47.85 73.3878C47.45 73.3878 47.15 73.0878 46.85 72.8878C46.25 72.3878 45.55 71.9878 44.75 71.8878C44.35 71.7878 42.85 71.6878 42.65 71.8878C42.55 71.7878 42.35 71.5878 42.45 71.3878C42.75 70.8878 43.65 69.4878 43.75 69.4878C43.85 69.4878 44.35 69.6878 44.55 69.7878C44.45 69.1878 44.55 68.9878 44.25 68.8878Z" fill="#90593A"/>
<path d="M43.5506 73.2875C43.6506 73.2875 43.8507 73.2875 43.9507 73.2875C44.2507 73.1875 44.1507 72.7875 44.4507 72.6875C44.7507 72.5875 45.1506 72.9875 45.3506 73.2875C45.3506 73.0875 45.3506 72.8875 45.1506 72.5875C44.9506 72.3875 44.5506 72.1875 44.0506 72.1875C43.9506 72.1875 43.9506 72.1875 43.8506 72.1875C43.5506 72.2875 43.1507 72.4875 42.9507 72.7875C42.8507 72.8875 43.4506 73.2875 43.5506 73.2875Z" fill="#6F3722"/>
<path d="M42.1516 54.8874C40.7516 52.9874 35.1516 51.2874 33.7516 51.0874C33.4516 51.0874 33.1516 50.9874 32.8516 51.0874C32.9516 51.7874 33.0516 52.4874 33.1516 53.0874H33.2516C34.4516 53.1874 40.2516 55.0874 42.1516 56.7874C42.4516 56.1874 42.5516 55.3874 42.1516 54.8874Z" fill="#323232"/>
<path d="M30.8504 53.3875C31.2504 53.2875 31.6504 53.1875 31.9504 53.0875C31.8504 52.4875 31.8504 51.7875 31.7504 51.1875C31.4504 51.2875 31.0504 51.4875 30.6504 51.7875C30.7504 52.3875 30.8504 52.8875 30.8504 53.3875Z" fill="#323232"/>
<path d="M29.9512 52.2871C29.3512 52.6871 28.7512 53.1871 27.9512 53.7871C27.9512 53.9871 28.9512 53.7871 30.1512 53.4871C30.0512 53.1871 30.0512 52.7871 29.9512 52.2871Z" fill="#323232"/>
<path d="M59.7505 53.3881C59.1505 53.0881 53.2505 53.888 51.7505 55.588C51.3505 55.988 51.2505 56.7881 51.3505 57.2881C52.0505 56.9881 58.5505 54.9881 59.4505 54.9881C60.2505 55.0881 60.7505 55.6881 61.9505 56.6881C62.3505 56.1881 60.3505 53.6881 59.7505 53.3881Z" fill="#323232"/>
<path d="M24.4496 52.2877C22.2496 43.6877 28.2496 40.2877 32.0496 39.8877C31.5496 32.9877 26.6496 26.0877 18.6496 28.2877C17.6496 28.9877 16.6496 30.0877 15.7496 31.1877C9.64957 39.5877 9.04957 52.9877 11.3496 61.0877C12.4496 59.3877 15.5496 58.1877 18.1496 61.4877C18.7496 64.9877 20.2496 66.4877 21.8496 66.7877C18.7496 61.6877 19.5496 50.8877 24.4496 52.2877Z" fill="#323232" fill-opacity="0.45"/>
<path d="M16.4504 50.6877C14.5504 50.8877 12.7504 51.7877 11.4504 53.0877C15.2504 52.1877 18.4504 52.7877 20.9504 54.2877C21.6504 52.6877 22.8504 51.7877 24.4504 52.2877C22.2504 43.6877 28.2504 40.2877 32.0504 39.8877C31.5504 32.9877 26.6504 26.0877 18.6504 28.2877C17.6504 28.9877 16.6504 30.0877 15.7504 31.1877C11.9504 36.3877 10.2504 43.5877 10.1504 50.1877C12.1504 50.0877 14.3504 50.1877 16.4504 50.6877Z" fill="#323232" fill-opacity="0.5"/>
<path d="M18.55 28.2875C17.55 28.9875 16.55 30.0875 15.65 31.1875C13.15 34.5875 11.65 38.8875 10.75 43.2875C11.55 43.8875 13.35 45.2875 13.55 45.0875C14.45 44.3875 16.85 44.0875 18.05 44.0875C20.25 44.0875 22.35 44.9875 24.35 46.0875C25.55 41.9875 29.35 40.2875 31.95 39.9875C31.45 32.9875 26.55 26.0875 18.55 28.2875Z" fill="#323232" fill-opacity="0.5"/>
<path d="M20.8508 72.487C19.0508 72.387 17.1508 71.787 15.7508 70.887C15.0508 70.387 21.3508 79.487 26.6508 82.487C23.8508 79.887 21.8508 75.787 20.8508 72.487Z" fill="#323232" fill-opacity="0.3"/>
<path d="M26.6511 41.6883C26.6511 41.2883 26.4511 40.7883 26.1511 40.5883C25.7511 40.2883 25.0511 40.2883 24.6511 40.5883C24.2511 40.5883 23.8511 40.8883 23.9511 41.3883C24.0511 41.6883 24.1511 41.8883 24.3511 42.0883C24.6511 42.5883 25.2511 42.8883 25.8511 42.5883C25.9511 42.4883 26.0511 42.4883 26.0511 42.3883C26.3511 42.1883 26.5511 41.9883 26.6511 41.6883Z" fill="#323232"/>
<path d="M24.5497 42.7879H24.4497C24.4497 42.7879 24.3496 42.6879 24.2496 42.6879C23.9496 42.4879 23.5497 42.5879 23.4497 42.9879C23.0497 43.8879 24.4497 44.4879 25.0497 43.8879C25.5497 43.4879 25.1497 42.6879 24.5497 42.7879Z" fill="#323232"/>
<path d="M19.7504 40.8871L19.6504 40.7871C19.5504 40.5871 19.4504 40.2871 19.0504 40.2871C18.8504 40.2871 18.5504 40.2871 18.3504 40.2871C17.5504 40.2871 17.6504 41.3871 18.2504 41.6871C18.5504 41.7871 18.8504 41.9871 19.2504 41.9871C19.6504 41.8871 20.1504 41.3871 19.7504 40.8871Z" fill="#323232"/>
<path d="M14.3503 40.3868C14.0503 40.0868 13.5503 40.0868 13.1503 40.1868C12.4503 40.0868 11.8503 41.0868 12.5503 41.4868C12.6503 41.5868 12.7503 41.5868 12.8503 41.5868C13.0503 41.6868 13.2503 41.7868 13.4503 41.7868C13.6503 41.7868 13.8503 41.7868 14.0503 41.7868C14.6503 41.5868 14.8503 40.7868 14.3503 40.3868Z" fill="#323232"/>
<path d="M22.3502 37.7881V37.6881C22.4502 37.6881 22.5502 37.5881 22.5502 37.4881C23.0502 36.6881 22.7502 35.3881 21.5502 35.3881H21.4502C21.4502 35.2881 21.4502 35.2881 21.3502 35.1881C21.6502 35.0881 21.8502 34.8881 22.0502 34.4881C22.2502 33.8881 22.0502 33.1881 21.5502 32.8881C20.8502 32.4881 20.0502 32.7881 19.5502 33.1881C19.2502 33.4881 19.1502 33.9881 19.4502 34.3881C19.3502 34.4881 19.1502 34.6881 19.1502 34.8881V34.9881V35.0881C18.9502 35.0881 18.7502 35.0881 18.5502 35.0881C18.2502 35.0881 18.0502 35.3881 17.9502 35.5881C17.6502 35.7881 17.4502 36.0881 17.3502 36.3881C16.7502 36.6881 16.4502 37.3881 16.5502 38.0881C16.6502 37.9881 16.7502 37.8881 16.9502 37.8881C17.3502 37.7881 17.8502 37.7881 18.2502 37.7881C19.0502 37.7881 19.4502 37.9881 20.0502 38.3881C20.0502 38.3881 20.0502 38.4881 20.1502 38.4881C20.2502 38.5881 20.3502 38.6881 20.3502 38.6881C20.5502 38.9881 20.9502 39.1881 21.2502 39.0881C21.3502 39.0881 21.5502 38.9881 21.6502 38.8881C21.9502 38.6881 22.1502 38.2881 22.2502 37.9881C22.3502 38.0881 22.3502 37.9881 22.3502 37.7881Z" fill="#1E1E1E"/>
<path d="M27.9496 34.2878C27.7496 33.7878 27.2496 33.3878 26.6496 33.5878C26.4496 33.5878 26.3496 33.6878 26.2496 33.7878C25.8496 33.8878 25.5496 34.1878 25.5496 34.6878C25.5496 34.9878 25.6496 35.1878 25.7496 35.4878C25.3496 35.1878 24.9496 35.4878 24.7496 35.8878C24.6496 35.8878 24.6496 35.9878 24.6496 36.0878C24.6496 36.1878 24.6496 36.2878 24.6496 36.3878C24.5496 36.3878 24.4496 36.3878 24.3496 36.4878C23.6496 36.7878 23.4496 37.5878 23.9496 38.1878C24.0496 38.2878 24.1496 38.3878 24.3496 38.4878C24.3496 38.5878 24.4496 38.5878 24.4496 38.6878C24.4496 38.6878 24.4496 38.6878 24.5496 38.6878C24.7496 38.4878 24.8496 38.2878 24.7496 37.9878C25.0496 38.0878 25.4496 38.2878 25.6496 38.4878C25.6496 38.4878 25.6496 38.5878 25.7496 38.5878C26.2496 38.1878 26.4496 37.4878 26.0496 36.8878C26.2496 36.5878 26.2496 36.1878 26.0496 35.8878C26.2496 36.0878 26.4496 36.1878 26.7496 36.1878C27.0496 36.1878 27.3496 36.0878 27.6496 35.7878C27.7496 35.6878 27.8496 35.6878 27.9496 35.5878C28.1496 35.0878 28.1496 34.6878 27.9496 34.2878Z" fill="#1E1E1E"/>
<path d="M16.0504 36.487C16.0504 36.287 15.9504 36.087 15.8504 35.987C15.7504 35.487 15.1504 35.187 14.6504 35.187C14.6504 35.087 14.6504 34.987 14.6504 34.787C14.3504 33.587 12.6504 33.687 12.2504 34.687C12.0504 34.587 11.9504 34.487 11.7504 34.487C11.4504 34.087 10.9504 33.687 10.2504 33.787C9.45039 33.787 9.05039 34.187 8.85039 34.687C8.75039 34.987 8.75039 35.287 8.85039 35.587C9.05039 36.287 9.65039 36.787 10.3504 36.887C10.2504 37.187 10.2504 37.587 10.3504 37.987C10.3504 37.987 10.3504 37.987 10.4504 37.987C10.6504 38.087 10.9504 38.187 11.1504 38.187C11.3504 38.087 11.5504 38.087 11.7504 37.987C11.4504 38.287 11.3504 38.687 11.4504 39.087C11.4504 39.087 11.4504 39.087 11.5504 39.087C11.9504 39.187 12.3504 39.187 12.8504 39.187C12.8504 39.187 12.8504 39.287 12.9504 39.287C12.8504 39.487 12.7504 39.787 12.8504 39.987C13.2504 40.087 13.6504 39.887 13.8504 39.487C13.9504 39.287 13.9504 39.087 13.9504 38.987C13.9504 38.887 13.9504 38.887 13.9504 38.787C13.8504 38.087 13.2504 37.587 12.5504 37.687C12.7504 37.587 12.8504 37.487 13.0504 37.287C13.3504 37.087 13.3504 36.787 13.2504 36.487C13.2504 36.387 13.2504 36.287 13.2504 36.187C13.4504 36.187 13.5504 36.187 13.7504 36.187C13.7504 36.487 13.8504 36.887 14.1504 37.087C14.8504 37.887 15.9504 37.487 16.0504 36.487Z" fill="#1E1E1E"/>
<path d="M62.9504 43.2875C63.4504 43.2875 63.9504 43.0875 64.3504 42.6875C64.7504 42.2875 65.0504 41.8875 65.1504 41.3875C65.0504 41.2875 64.8504 41.1875 64.6504 41.0875C64.8504 40.6875 64.7504 40.1875 64.4504 39.8875C64.5504 39.8875 64.5504 39.8875 64.6504 39.8875C64.6504 39.8875 64.7504 39.8875 64.7504 39.7875C64.8504 39.7875 64.8504 39.6875 64.9504 39.6875C65.0504 39.6875 65.0504 39.5875 65.1504 39.4875C65.1504 39.3875 65.2504 39.3875 65.2504 39.2875C65.2504 39.2875 65.2504 39.1875 65.3504 39.1875C65.3504 39.0875 65.4504 39.0875 65.4504 38.9875C65.5504 38.8875 65.5504 38.6875 65.4504 38.5875C65.4504 38.2875 65.3504 37.9875 65.1504 37.6875C64.4504 36.9875 63.4504 37.2875 63.0504 37.9875C63.0504 37.9875 62.9504 37.8875 62.8504 37.8875C61.8504 37.0875 60.3504 38.1875 60.3504 39.2875C59.9504 38.6875 59.1504 38.6875 58.8504 39.2875C58.7504 39.4875 58.7504 39.7875 58.8504 39.9875C58.8504 39.9875 58.8504 39.9875 58.9504 40.0875C59.0504 40.2875 59.2504 40.4875 59.4504 40.4875C59.9504 40.5875 60.4504 40.2875 60.5504 39.8875C60.8504 40.3875 61.4504 40.5875 62.0504 40.2875C62.1504 40.2875 62.2504 40.1875 62.3504 40.0875C62.2504 40.1875 62.1504 40.3875 62.1504 40.5875C62.0504 41.0875 62.1504 41.5875 62.5504 41.8875C62.2504 42.2875 62.1504 42.6875 62.2504 43.1875C62.2504 43.2875 62.2504 43.2875 62.3504 43.3875C62.3504 43.4875 62.4504 43.6875 62.4504 43.7875C62.6504 43.5875 62.7504 43.4875 62.9504 43.2875Z" fill="#1E1E1E"/>
<path d="M59.8508 42.5871C59.7508 42.5871 59.7508 42.5871 59.6508 42.5871C59.4508 42.4871 59.2508 42.4871 59.0508 42.4871C58.3508 42.5871 57.7508 42.8871 57.4508 43.4871C57.4508 42.9871 57.1508 42.3871 56.5508 42.3871C55.8508 42.3871 55.2508 43.0871 55.3508 43.7871C55.2508 43.7871 55.2508 43.7871 55.1508 43.7871C55.0508 42.9871 54.6508 42.2871 53.8508 42.0871C53.5508 41.8871 53.2508 41.8871 52.9508 41.7871C52.1508 41.7871 51.4508 42.1871 51.0508 42.7871C50.7508 42.8871 50.5508 43.0871 50.4508 43.3871C50.2508 43.8871 50.2508 44.3871 50.4508 44.8871C50.2508 44.8871 50.0508 44.8871 49.8508 44.9871C49.7508 45.0871 49.6508 45.0871 49.5508 45.1871C49.9508 45.3871 50.3508 45.4871 50.7508 45.4871C51.1508 45.4871 51.6508 45.0871 52.0508 45.0871C52.5508 45.0871 53.2508 45.4871 53.7508 45.5871C54.3508 45.6871 54.9508 45.6871 55.5508 45.4871C56.1508 45.3871 56.6508 45.0871 57.0508 44.5871C57.4508 44.8871 57.9508 45.0871 58.3508 45.1871C59.2508 45.1871 60.0508 44.6871 60.6508 43.9871C60.6508 43.8871 60.7508 43.7871 60.7508 43.6871C60.7508 43.1871 60.4508 42.5871 59.8508 42.5871Z" fill="#1E1E1E"/>
<path d="M49.6506 41.8876C49.7506 41.5876 49.5506 41.0876 49.2506 40.9876C48.8506 40.8876 48.3506 40.8876 47.9506 41.0876C47.7506 41.1876 47.6506 41.3876 47.5506 41.4876L47.4506 41.5876C47.4506 41.5876 47.4506 41.5876 47.4506 41.6876C47.0506 41.6876 46.7506 41.7876 46.4506 41.9876C46.3506 42.0876 46.2506 42.1876 46.1506 42.2876C46.0506 42.1876 45.8506 41.9876 45.6506 41.9876C45.3506 41.8876 45.0506 41.8876 44.7506 41.9876C44.0506 41.2876 42.8506 40.8876 41.8506 41.5876C41.1506 42.0876 40.8506 43.1876 41.4506 43.7876C41.6506 43.7876 41.8506 43.8876 42.0506 43.7876C42.3506 43.7876 42.5506 43.5876 42.6506 43.3876C42.9506 43.2876 43.1506 43.1876 43.3506 42.9876C43.7506 43.8876 44.7506 44.4876 45.7506 44.7876C45.9506 44.6876 46.0506 44.5876 46.2506 44.3876C46.5506 44.4876 46.9506 44.4876 47.2506 44.3876C47.5506 44.2876 47.9506 44.1876 48.1506 43.9876C48.5506 43.6876 48.7506 43.1876 48.6506 42.6876C49.0506 42.5876 49.4506 42.2876 49.6506 41.8876Z" fill="#1E1E1E"/>
<path d="M51.6499 38.4883C51.5499 38.1883 51.2499 37.8883 50.9499 37.8883C50.4499 37.7883 50.0499 38.0883 49.8499 38.5883C49.6499 38.9883 49.9499 39.3883 50.2499 39.5883C50.3499 39.6883 50.4499 39.6883 50.5499 39.6883C51.2499 39.7883 51.7499 39.0883 51.6499 38.4883Z" fill="#1E1E1E"/>
<path d="M40.7508 40.7883C41.0508 39.6883 39.9508 39.2883 39.0508 39.2883C38.5508 39.2883 38.1508 39.3883 37.6508 39.2883C36.8508 39.1883 36.9508 39.3883 36.2508 39.5883C35.7508 39.7883 35.3508 38.9883 34.9508 39.1883C34.8508 39.2883 34.7508 39.3883 34.6508 39.5883C34.3508 39.9883 33.9508 40.1883 33.4508 40.0883C32.9508 39.9883 32.5508 39.4883 32.1508 39.0883C31.7508 38.6883 31.1508 38.3883 30.6508 38.6883C30.5508 38.7883 30.4508 38.8883 30.3508 38.9883C29.4508 39.6883 28.5508 38.3883 27.5508 38.7883C27.4508 38.7883 27.3508 38.8883 27.3508 38.8883C27.1508 38.8883 27.0508 38.9883 26.9508 39.0883C26.7508 39.2883 26.5508 39.6883 26.7508 39.9883C26.9508 40.2883 27.3508 40.4883 27.6508 40.5883C27.5508 40.8883 27.5508 41.2883 27.5508 41.5883C27.5508 41.6883 27.5508 41.6883 27.6508 41.7883C27.7508 41.7883 27.7508 41.7883 27.8508 41.7883C28.2508 41.9883 28.6508 42.0883 29.0508 42.1883C29.3508 42.0883 29.6508 41.9883 29.9508 41.7883V41.8883C29.8508 42.1883 29.8508 42.4883 29.8508 42.8883C29.9508 43.6883 31.1508 44.0883 31.7508 43.7883C32.2508 43.5883 32.5508 42.9883 32.4508 42.4883C32.9508 42.7883 33.4508 42.8883 33.9508 42.9883C34.0508 42.9883 34.1508 42.9883 34.2508 42.8883C34.3508 42.7883 34.3508 42.6883 34.4508 42.5883C34.8508 41.9883 35.5508 42.3883 36.0508 42.2883C36.5508 42.1883 36.7508 41.9883 37.1508 41.7883C37.5508 41.5883 37.7508 41.3883 38.2508 41.3883C38.6508 41.3883 39.6508 42.0883 39.9508 41.9883C40.3508 41.5883 40.6508 41.1883 40.7508 40.7883Z" fill="#1E1E1E"/>
<path d="M53.4495 39.6882C52.7495 39.3882 52.3495 40.1882 52.5495 40.7882C52.8495 41.3882 53.6495 41.3882 53.8495 40.7882C54.0495 40.3882 53.8495 39.8882 53.4495 39.6882Z" fill="#464646"/>
<path d="M60.7499 40.4876C60.1499 40.0876 59.4498 40.0876 58.8498 40.3876C58.3498 39.7876 57.4498 39.6876 56.8498 40.1876L56.7499 40.2876C56.8499 39.3876 55.8498 38.2876 54.9498 38.9876C54.9498 38.9876 54.9498 39.0876 54.8498 39.0876C54.4498 39.2876 54.1499 39.7876 54.2499 40.3876C54.2499 40.4876 54.3498 40.6876 54.3498 40.7876C54.4498 41.1876 54.8499 41.3876 55.2499 41.3876H55.3498C55.7498 41.3876 56.2498 41.1876 56.5498 40.7876C56.5498 40.8876 56.5498 40.8876 56.5498 40.9876C56.5498 41.0876 56.6499 41.1876 56.7499 41.3876C56.7499 41.9876 57.4498 42.3876 58.0498 42.2876C58.1498 42.4876 58.3498 42.6876 58.6498 42.6876C58.7498 42.6876 58.8498 42.6876 59.0498 42.6876C59.7498 42.6876 60.5498 42.3876 60.9498 41.6876C61.1498 41.1876 61.1499 40.6876 60.7499 40.4876Z" fill="#464646"/>
<path d="M62.8496 44.588C62.6496 44.288 62.4496 44.188 62.2496 44.088C62.5496 43.888 62.6496 43.488 62.6496 43.088C62.5496 41.988 60.9496 41.788 60.6496 42.888C60.6496 42.888 60.6496 42.888 60.6496 42.988C60.5496 43.088 60.4496 43.188 60.4496 43.288C60.3496 43.588 60.4496 43.888 60.7496 44.088C60.8496 44.188 60.9496 44.188 61.0496 44.288C60.8496 44.488 60.6496 44.688 60.6496 44.988C60.4496 46.388 62.3496 47.188 63.0496 45.988C63.2496 45.488 63.1496 44.888 62.8496 44.588Z" fill="#464646"/>
<path d="M50.8496 43.3883C50.7496 42.9883 50.3496 42.7883 49.9496 42.6883C50.0496 42.5883 50.0496 42.5883 50.1496 42.4883C50.2496 42.2883 50.3496 41.9883 50.1496 41.7883C49.9496 41.4883 49.7496 41.2883 49.4496 41.1883C49.6496 40.9883 49.7496 40.6883 49.7496 40.3883C49.6496 39.7883 49.1496 39.4883 48.6496 39.5883C48.3496 39.4883 48.0496 39.5883 47.7496 39.8883C47.8496 39.5883 47.8496 39.1883 47.6496 38.7883C46.9496 37.4883 44.8496 38.1883 45.0496 39.4883C45.0496 39.5883 44.9496 39.5883 44.9496 39.6883C44.8496 39.8883 44.9496 40.1883 45.0496 40.3883C45.7496 41.1883 46.9496 40.8883 47.5496 40.0883C47.3496 40.5883 47.6496 41.1883 48.1496 41.3883C48.1496 41.4883 48.0496 41.4883 48.0496 41.5883C47.7496 41.9883 47.9496 42.5883 48.4496 42.7883C48.5496 42.8883 48.6496 42.8883 48.7496 42.8883C48.5496 42.9883 48.4496 43.1883 48.3496 43.3883C48.0496 43.7883 48.3496 44.4883 48.8496 44.4883H48.9496C49.3496 44.6883 49.8496 44.7883 50.2496 44.5883C50.7496 44.4883 51.0496 43.9883 50.8496 43.3883Z" fill="#464646"/>
<path d="M42.1501 38.8875C42.1501 38.8875 42.2501 38.8875 42.1501 38.8875C42.2501 38.5875 42.1501 38.2875 41.9501 38.1875C41.4501 37.8875 40.7501 37.7875 40.2501 38.2875C40.0501 38.4875 40.0501 38.7875 40.1501 38.9875V39.0875C40.1501 39.0875 40.1501 39.1875 40.2501 39.1875C40.3501 39.3875 40.5501 39.4875 40.7501 39.5875C40.7501 39.6875 40.6501 39.6875 40.6501 39.7875C40.5501 39.9875 40.5501 40.1875 40.5501 40.3875C40.5501 40.5875 40.5501 40.6875 40.6501 40.8875C40.7501 41.1875 40.9501 41.2875 41.1501 41.4875C41.2501 41.5875 41.3501 41.6875 41.5501 41.6875C40.8501 41.6875 40.2501 42.2875 39.9501 42.8875C39.7501 43.2875 39.8501 43.7875 40.3501 43.9875C40.6501 44.0875 41.1501 44.0875 41.4501 43.9875C41.6501 43.9875 41.9501 43.9875 42.1501 43.7875C42.7501 43.2875 42.8501 42.3875 42.1501 41.8875C42.0501 41.8875 42.0501 41.7875 41.9501 41.7875C42.3501 41.7875 42.6501 41.6875 43.0501 41.3875C43.2501 41.1875 43.3501 40.9875 43.3501 40.7875C43.4501 40.5875 43.5501 40.3875 43.5501 40.1875C43.6501 39.2875 42.9501 38.8875 42.1501 38.8875Z" fill="#464646"/>
<path d="M43.5498 36.6878C43.3498 36.1878 43.0498 35.6878 42.5498 35.5878C41.9498 35.3878 41.3498 35.7878 41.1498 36.2878C40.7498 37.2878 41.9498 38.0878 42.7498 37.5878C42.8498 37.5878 42.9498 37.5878 43.0498 37.5878C43.3498 37.4878 43.6498 37.0878 43.5498 36.6878Z" fill="#464646"/>
<path d="M57.2508 35.8885C56.3508 35.6885 55.6508 36.4885 55.8508 37.2885C55.8508 37.2885 55.8508 37.2885 55.8508 37.3885C56.0508 38.2885 57.2508 38.4885 57.8508 37.8885C58.4508 37.1885 58.0508 36.0885 57.2508 35.8885Z" fill="#464646"/>
<path d="M10.4506 31.9868C10.2506 31.7868 10.0506 31.7868 9.95056 31.7868C9.95056 31.7868 9.85055 31.6868 9.75055 31.6868C9.25055 31.5868 8.95055 32.1868 9.25055 32.5868C9.55055 33.0868 10.2506 32.9868 10.5506 32.4868C10.5506 32.4868 10.6506 32.1868 10.4506 31.9868Z" fill="#464646"/>
<path d="M12.0514 38.3877C11.7514 37.8877 11.2514 37.4877 10.6514 37.5877C10.1514 37.6877 9.75136 38.1877 9.85136 38.6877C9.85136 39.3877 10.4514 39.5877 10.9514 39.4877C11.2514 39.4877 11.5514 39.3877 11.8514 39.1877C12.1514 39.0877 12.2514 38.6877 12.0514 38.3877Z" fill="#464646"/>
<path d="M62.4508 36.9869C62.2508 36.3869 61.6508 36.0869 61.1508 36.1869C60.9508 36.1869 60.7508 36.3869 60.6508 36.5869C60.5508 36.8869 60.6508 37.1869 60.7508 37.4869C60.8508 37.7869 61.1508 38.0869 61.4508 38.0869C62.1508 38.1869 62.6508 37.5869 62.4508 36.9869Z" fill="#5A5A5A"/>
<path d="M59.1505 41.2884C58.7505 40.8884 58.0505 40.8884 57.6505 41.0884C57.2505 41.1884 57.0505 41.4884 57.1505 41.8884C57.2505 42.1884 57.3505 42.3884 57.6505 42.5884C57.6505 42.5884 57.6505 42.5884 57.7505 42.5884C58.2505 42.7884 58.9505 42.6884 59.3505 42.1884C59.4505 41.9884 59.3505 41.5884 59.1505 41.2884Z" fill="#5A5A5A"/>
<path d="M67.0499 44.4879C66.8499 44.1879 66.4499 43.9879 66.1499 44.1879C65.5499 44.3879 65.0499 44.8879 65.2499 45.5879C65.4499 46.1879 66.1499 46.4879 66.7499 46.1879C67.0499 45.9879 67.1499 45.6879 67.1499 45.3879C67.1499 45.0879 67.1499 44.7879 67.0499 44.4879Z" fill="#323232"/>
<path d="M67.6508 40.0886C67.6508 39.9886 67.5508 39.7886 67.4508 39.6886C67.1508 39.1886 66.5508 39.1886 66.1508 39.3886H66.0508C65.7508 39.4886 65.5508 39.8886 65.5508 40.1886C65.5508 40.3886 65.5508 40.5886 65.6508 40.7886C65.8508 41.0886 66.2508 41.3886 66.6508 41.2886C66.8508 41.1886 67.0508 41.0886 67.1508 40.9886C67.3508 40.7886 67.5508 40.5886 67.6508 40.2886C67.6508 40.2886 67.6508 40.1886 67.6508 40.0886Z" fill="#464646"/>
<path d="M33.8507 39.7871C34.0507 38.6871 32.2507 39.0871 31.7507 39.2871C31.5507 39.3871 31.3507 39.5871 31.3507 39.7871C31.2507 39.8871 31.1507 39.9871 31.1507 40.0871C31.1507 40.0871 31.1507 40.0871 31.1507 40.1871C30.5507 40.2871 29.6507 40.5871 29.8507 41.2871C29.9507 41.4871 30.0507 41.5871 30.2507 41.6871C30.2507 41.7871 30.1507 41.8871 30.1507 41.9871C30.1507 42.0871 30.2507 42.0871 30.3507 42.0871C30.9507 42.2871 31.9507 42.0871 32.4507 41.5871C32.9507 41.3871 33.4507 40.9871 33.5507 40.3871V40.2871C33.6507 40.1871 33.8507 39.9871 33.8507 39.7871Z" fill="#323232"/>
<path d="M37.9509 40.588C37.8509 40.488 37.7509 40.488 37.6509 40.388C37.6509 40.088 37.8509 39.688 38.0509 39.588C39.1509 38.888 37.5509 38.288 36.8509 38.788C36.1509 39.188 35.4509 40.188 35.5509 41.088C35.2509 41.388 35.0509 41.788 35.0509 42.088V42.188C34.9509 42.288 34.8509 42.288 34.7509 42.388C33.9509 42.988 33.9509 44.088 34.9509 44.388C35.3509 44.488 36.0509 44.488 36.3509 44.088C36.5509 43.888 36.5509 43.688 36.5509 43.588C36.9509 43.588 37.3509 43.388 37.5509 42.988C37.6509 42.788 37.6509 42.688 37.5509 42.488C37.4509 42.288 37.2509 42.188 37.0509 42.088C38.0509 41.788 38.6509 41.188 37.9509 40.588Z" fill="#323232"/>
<path d="M33.2497 38.9879C33.1497 38.6879 32.8497 38.6878 32.6497 38.5878C32.5497 38.0878 31.7497 38.1879 31.4497 38.1879C30.8497 38.2879 29.9497 38.4879 29.8497 39.1879C29.7497 39.6879 30.0497 39.9879 30.3497 40.1879V40.2878C30.4497 40.4878 30.8497 40.4879 31.0497 40.4879C31.5497 40.4879 32.0497 40.3878 32.4497 40.0878C32.5497 39.9878 32.5497 39.8879 32.4497 39.8879C32.5497 39.8879 32.6497 39.7878 32.7497 39.7878C33.0497 39.5878 33.3497 39.2879 33.2497 38.9879Z" fill="#323232"/>
<path d="M32.4496 36.7884C32.3496 36.6884 32.2496 36.5884 32.1496 36.5884C32.0496 36.5884 31.9496 36.4884 31.8496 36.4884C31.4496 36.3884 30.7496 36.5884 30.5496 36.9884C30.4496 37.0884 30.4496 37.1884 30.4496 37.2884C30.3496 37.5884 30.4496 37.7884 30.7496 37.9884C31.1496 38.2884 31.9496 38.0884 32.3496 37.7884C32.7496 37.3884 32.7496 36.9884 32.4496 36.7884Z" fill="#464646"/>
<path d="M22.0502 38.0881C21.5502 37.5881 20.3502 37.7881 19.9502 38.3881C19.8502 38.5881 19.8502 38.6881 19.9502 38.7881C19.9502 38.8881 19.9502 38.9881 19.9502 38.9881C19.8502 38.9881 19.7502 38.9881 19.6502 38.9881C19.4502 38.9881 18.8502 39.0881 18.7502 39.3881C18.6502 39.6881 18.5502 39.9881 18.7502 40.2881C18.9502 40.6881 19.6502 40.5881 19.9502 40.4881C20.5502 40.3881 21.4502 39.9881 21.3502 39.3881C21.9502 39.2881 22.6502 38.6881 22.0502 38.0881Z" fill="#323232"/>
<path d="M25.5496 40.5887C25.3496 40.4887 25.1496 40.3887 24.9496 40.3887C24.6496 40.3887 24.2496 40.5887 24.0496 40.8887C23.7496 41.2887 23.8496 41.8887 24.3496 42.0887C24.8496 42.2887 25.6496 42.0887 25.8496 41.3887C25.9496 41.0887 25.8496 40.7887 25.5496 40.5887Z" fill="#464646"/>
<path d="M27.15 38.7883C26.85 38.3883 25.85 38.3883 25.45 38.7883C25.05 39.1883 24.95 39.8883 25.55 40.1883C26.15 40.4883 27.05 40.3883 27.45 39.7883C27.65 39.3883 27.45 38.9883 27.15 38.7883Z" fill="#464646"/>
<path d="M19.8504 38.4871C19.7504 38.3871 19.5504 38.2871 19.3504 38.2871C18.9504 38.2871 18.3505 38.3871 18.0505 38.6871C17.8505 38.8871 17.8505 39.1871 17.9505 39.2871C18.0505 39.3871 18.1504 39.4871 18.3504 39.4871C18.8504 39.5871 19.6505 39.4871 19.9505 38.9871C20.3505 38.7871 20.1504 38.5871 19.8504 38.4871Z" fill="#464646"/>
<path d="M19.2497 40.0873C19.1497 39.9873 19.1497 39.9873 19.0497 39.8873C18.4497 39.4873 16.9497 39.7873 17.0497 40.5873C17.2497 41.3873 18.7497 41.1873 19.1497 40.4873C19.3497 40.4873 19.3497 40.3873 19.2497 40.0873C19.2497 40.0873 19.2497 40.1873 19.2497 40.0873Z" fill="#464646"/>
<path d="M14.9518 38.1874C14.2518 37.6874 12.7518 38.0874 12.9518 39.1874C13.1518 39.9874 14.5518 39.6874 14.8518 39.0874C15.1518 38.7874 15.3518 38.3874 14.9518 38.1874Z" fill="#464646"/>
<path d="M14.0512 40.3879C13.9512 40.2879 13.9512 40.2879 14.0512 40.3879C13.9512 40.2879 13.9512 40.2879 13.8512 40.2879C13.8512 40.2879 13.7512 40.2879 13.7512 40.1879C13.6512 40.1879 13.6512 40.1879 13.5512 40.0879C13.3512 40.0879 12.9512 40.0879 12.7512 40.1879C12.6512 40.1879 12.6512 40.1879 12.5512 40.2879C12.4512 40.3879 12.3512 40.3879 12.3512 40.4879C12.1512 40.7879 12.1512 40.9879 12.2512 41.2879C12.4512 41.7879 14.0512 41.4879 14.1512 40.8879C14.1512 40.7879 14.1512 40.6879 14.1512 40.4879C14.1512 40.4879 14.1512 40.4879 14.1512 40.3879C14.0512 40.4879 14.0512 40.3879 14.0512 40.3879Z" fill="#464646"/>
<path d="M30.0508 34.1873C29.9508 34.0873 29.8508 33.9873 29.6508 33.9873C29.4508 33.8873 29.1508 33.8873 28.9508 33.8873C28.4508 33.7873 27.4508 33.9873 27.2508 34.2873C27.1508 34.5873 27.2508 34.8873 27.5508 35.0873C27.3508 35.0873 27.2508 35.0873 27.0508 35.0873C26.8508 35.0873 26.6508 35.1873 26.4508 35.2873C26.2508 35.3873 26.0508 35.4873 26.0508 35.6873C26.0508 36.5873 27.3508 36.2873 27.8508 35.9873C28.0508 35.8873 28.2508 35.5873 28.0508 35.2873C28.5508 35.3873 29.2508 35.2873 29.7508 34.9873C29.9508 34.8873 30.2508 34.5873 30.0508 34.1873Z" fill="#5A5A5A"/>
<path d="M35.1505 36.0868C35.0505 35.8868 34.7505 35.7868 34.5505 35.7868C34.2505 35.5868 33.9505 35.5868 33.5505 35.6868C33.2505 35.7868 32.8505 35.9868 32.8505 36.2868C32.7505 37.1868 33.2505 37.6868 34.1505 37.5868C35.0505 37.5868 35.7505 36.9868 35.1505 36.0868Z" fill="#5A5A5A"/>
<path d="M41.4495 39.3874C41.1495 39.5874 41.1495 39.9874 41.4495 40.2874C41.8495 40.5874 42.7495 40.2874 43.1495 40.0874C43.3495 39.9874 43.7495 39.6874 43.6495 39.3874C43.5495 38.9874 43.0495 38.9874 42.7495 38.9874C42.3495 38.9874 41.7495 39.0874 41.3495 39.3874C41.1495 39.5874 41.0495 39.8874 41.3495 39.9874C41.5495 40.1874 42.0495 40.0874 42.3495 40.0874C42.5495 40.0874 43.1495 39.8874 43.2495 39.6874C43.3495 39.4874 43.3495 39.2874 43.3495 38.9874C43.3495 38.5874 41.3495 38.7874 41.3495 39.3874C41.3495 39.5874 41.3495 39.6874 41.2495 39.8874C41.8495 39.7874 42.5495 39.6874 43.1495 39.4874C43.0495 39.4874 43.0495 39.3874 43.1495 39.3874C42.8495 39.4874 42.6495 39.5874 42.3495 39.6874H42.4495C42.1495 39.6874 41.8495 39.6874 41.5495 39.6874C41.6495 39.6874 41.6495 39.7874 41.6495 39.8874C42.2495 39.7874 42.7495 39.7874 43.3495 39.6874C43.2495 39.5874 43.1495 39.4874 43.2495 39.3874C43.5495 39.0874 43.0495 38.9874 42.8495 38.9874C42.2495 38.9874 41.7495 39.0874 41.4495 39.3874Z" fill="#5A5A5A"/>
<path d="M39.8513 38.2881C39.8513 38.3881 39.8513 38.4881 39.8513 38.4881C39.7513 39.3881 41.7513 39.1881 41.8513 38.3881C41.8513 38.2881 41.8513 38.1881 41.8513 38.1881C41.8513 37.2881 39.9513 37.5881 39.8513 38.2881Z" fill="#5A5A5A"/>
<path d="M33.35 39.5875C33.35 39.5875 33.35 39.4875 33.35 39.5875C33.45 39.1875 32.75 39.1875 32.65 39.1875C32.55 39.1875 32.55 39.1875 32.45 39.1875C32.35 39.1875 32.25 39.1875 32.15 39.1875C31.75 39.1875 31.05 39.3875 30.85 39.7875C30.75 39.8875 30.75 40.0875 30.75 40.1875C30.35 40.1875 30.05 40.3875 29.85 40.5875C29.55 40.8875 29.55 41.1875 29.85 41.3875C29.85 41.4875 29.95 41.5875 30.15 41.6875C30.65 41.9875 31.45 41.7875 31.85 41.3875C31.95 41.2875 32.05 41.1875 32.05 41.0875C32.15 40.9875 32.15 40.9875 32.25 40.8875C32.35 40.7875 32.35 40.6875 32.35 40.6875C32.85 40.5875 33.35 40.3875 33.55 39.9875C33.55 39.8875 33.45 39.6875 33.35 39.5875Z" fill="#464646"/>
<path d="M24.4497 38.1879C24.2497 37.9879 23.9496 37.9879 23.7496 38.0879C23.5496 36.9879 22.6496 36.6879 21.7496 36.8879C21.3496 36.9879 20.6496 37.2879 20.8496 37.8879C20.9496 38.0879 21.1496 38.2879 21.3496 38.3879C21.0496 38.7879 21.0497 39.7879 21.6497 39.8879C22.3497 40.0879 23.4497 39.7879 23.9497 39.2879C24.1497 39.0879 24.6497 38.8879 24.6497 38.4879C24.6497 38.3879 24.5497 38.2879 24.4497 38.1879Z" fill="#323232"/>
<path d="M23.4496 37.5886C23.2496 36.9886 22.4496 36.9886 21.9496 37.0886C21.3496 37.1886 20.7496 37.4886 20.2496 37.8886C19.7496 38.2886 19.6496 38.8886 20.3496 39.0886C20.8496 39.2886 21.4496 39.1886 21.8496 38.8886C22.7496 38.9886 23.7496 38.3886 23.4496 37.5886Z" fill="#464646"/>
<path d="M65.8504 42.0873C66.0504 41.7873 66.0504 41.2873 65.5504 41.1873C64.7504 40.8873 63.8504 40.9873 63.2504 41.5873C62.8504 41.9873 62.5504 42.5873 62.8504 43.0873C63.4504 44.4873 65.6504 43.8873 66.1504 42.6873C66.2504 42.3873 66.0504 42.1873 65.8504 42.0873Z" fill="#323232"/>
<path d="M66.7508 42.8884C66.0508 42.3884 64.6508 42.5884 64.0508 42.9884C63.3508 43.4884 63.5508 44.3884 64.2508 44.7884C65.1508 45.2884 67.5508 44.9884 67.0508 43.3884C67.1508 43.1884 66.9508 43.0884 66.7508 42.8884Z" fill="#323232"/>
<path d="M65.7495 41.2885C65.2495 40.6885 63.7495 40.7885 63.4495 41.4885C63.0495 42.6885 65.5495 43.3885 65.8495 42.0885C65.9495 41.7885 65.9495 41.4885 65.7495 41.2885Z" fill="#464646"/>
<path d="M67.1508 43.2877C66.9508 41.9877 64.5508 42.5878 65.0508 43.9878C65.4508 44.9878 67.1508 44.5877 67.1508 43.5877C67.1508 43.4877 67.1508 43.3877 67.1508 43.2877Z" fill="#464646"/>
<path d="M59.749 16.9874C64.849 19.9874 72.249 35.6874 72.649 42.9874C72.049 44.1874 70.749 45.5874 69.449 46.5874C35.049 27.2874 13.249 60.8874 7.74897 60.6874C5.44897 58.9874 3.24897 56.9874 2.54897 54.8874C2.54897 53.5874 3.14897 51.9874 4.74897 50.1874C3.44897 49.0874 1.54897 48.1874 0.24897 46.5874C-1.05103 38.0874 5.14897 25.6874 8.14897 21.2874C8.74897 16.3874 9.84897 6.9874 10.949 4.4874C12.749 0.187396 19.349 -0.712604 23.649 0.487396C29.749 2.1874 34.649 5.18739 40.749 8.38739C44.249 9.88739 55.749 14.6874 59.749 16.9874Z" fill="#FFFBF2"/>
<path d="M59.7488 16.9875C55.7488 14.6875 44.2488 9.8875 40.7488 8.3875C34.6488 5.1875 29.7488 2.1875 23.6488 0.4875C23.2488 0.3875 22.8488 0.2875 22.4488 0.1875C26.3488 2.6875 31.2488 6.3875 31.2488 7.5875C31.2488 8.2875 29.3488 9.1875 28.3488 10.3875C34.6488 8.7875 45.4488 10.6875 49.5488 14.4875C51.9488 16.6875 53.7488 24.3875 54.1488 31.4875C47.2488 31.4875 39.2488 33.4875 33.1488 35.0875C21.9488 34.1875 10.4488 36.1875 9.14883 36.8875C8.64883 37.1875 3.74883 42.6875 0.0488281 45.9875C0.0488281 46.1875 0.0488281 46.2875 0.0488281 46.4875C1.34883 47.9875 3.24883 48.8875 4.54883 50.0875C2.94883 51.8875 2.24882 53.4875 2.34882 54.7875C2.94882 56.8875 5.24883 58.9875 7.54883 60.5875C13.0488 60.8875 34.8488 27.1875 69.2488 46.4875C70.5488 45.4875 71.8488 44.0875 72.4488 42.8875C72.2488 35.6875 64.8488 19.8875 59.7488 16.9875Z" fill="#D9D2C3"/>
<path d="M62.0496 18.988C48.0496 11.888 29.9496 11.088 18.1496 18.188C15.9496 19.488 6.74964 26.388 1.84964 34.388C0.449639 38.588 -0.350358 42.988 0.149642 46.588C1.44964 48.088 3.34964 48.988 4.64964 50.188C3.04964 51.988 2.34964 53.588 2.44964 54.888C3.04964 56.988 5.34964 59.088 7.64964 60.688C13.1496 60.988 34.9496 27.288 69.3496 46.588C70.6496 45.588 71.9496 44.188 72.5496 42.988C72.3496 36.688 66.8496 24.288 62.0496 18.988Z" fill="#F27900"/>
<path d="M62.0488 18.9879C58.1488 16.9879 53.8488 15.4879 49.5488 14.5879C51.9488 16.7879 53.7488 24.4879 54.1488 31.5879C47.2488 31.5879 39.2488 33.5879 33.1488 35.1879C21.9488 34.2879 10.4488 36.2879 9.14883 36.9879C8.64883 37.2879 3.74883 42.7879 0.0488281 46.0879C0.0488281 46.2879 0.0488281 46.3879 0.0488281 46.5879C1.34883 48.0879 3.24883 48.9879 4.54883 50.1879C2.94883 51.9879 2.24882 53.5879 2.34882 54.8879C2.94882 56.9879 5.24883 59.0879 7.54883 60.6879C13.0488 60.9879 34.8488 27.2879 69.2488 46.5879C70.5488 45.5879 71.8488 44.1879 72.4488 42.9879C72.3488 36.6879 66.8488 24.2879 62.0488 18.9879Z" fill="#CC6600"/>
<path d="M69.45 46.5878C70.75 45.5878 72.05 44.1878 72.65 42.9878C72.55 41.1878 72.05 38.7878 71.25 36.2878C55.75 24.4878 37.85 28.1878 26.65 32.0878C19.15 34.6878 11.75 43.6878 7.84997 49.1878C7.34997 49.8878 6.04997 50.1878 4.84997 50.1878C3.24997 51.9878 2.54998 53.5878 2.64998 54.7878C3.24998 56.8878 5.54997 58.9878 7.84997 60.5878C13.25 60.8878 34.95 27.1878 69.45 46.5878Z" fill="#FFAA00"/>
<path d="M71.2488 36.2867C65.6488 32.0867 59.8488 29.7867 54.0488 28.8867C54.1488 29.7867 54.2488 30.6867 54.2488 31.5867C47.3488 31.5867 39.3488 33.5867 33.2488 35.1867C28.9488 34.8867 24.6488 34.8867 20.8488 35.1867C16.3488 38.4867 12.2488 43.1867 9.34882 47.0867C14.0488 43.4867 20.9488 40.1867 27.1488 38.3867C19.2488 42.7867 14.7488 47.3867 10.7488 52.5867C9.14883 53.6867 6.14883 53.8867 2.64883 53.9867C2.64883 54.2867 2.54883 54.4867 2.54883 54.7867C3.14883 56.8867 5.44883 58.9867 7.74883 60.5867C13.2488 60.8867 35.0488 27.1867 69.4488 46.4867C70.7488 45.4867 72.0488 44.0867 72.6488 42.8867C72.5488 41.1867 72.0488 38.7867 71.2488 36.2867Z" fill="#E68600"/>
<path d="M72.2495 51.5874C71.3495 53.9874 72.0495 59.5874 68.7495 58.7874C67.8495 47.2874 40.4495 44.7874 28.6495 52.2874C24.3495 54.9874 19.9495 61.8874 16.4495 65.3874C14.4495 67.4874 10.7495 68.6874 8.94949 69.2874C5.44949 69.0874 5.54948 64.3874 5.14948 63.6874C4.64948 62.8874 3.04948 61.8874 2.64948 60.7874C2.54948 57.6874 9.64948 55.6874 11.1495 53.6874C19.5495 42.5874 28.5495 37.5874 41.9495 35.3874C54.3495 33.3874 72.2495 40.7874 73.7495 45.9874C74.3495 48.3874 72.9495 49.7874 72.2495 51.5874Z" fill="#E68600"/>
<path d="M11.15 55.3878C19.55 44.2878 28.55 39.2878 41.95 37.0878C54.35 35.0878 72.25 42.4878 73.75 47.6878C73.75 47.7878 73.75 47.7878 73.75 47.8878C73.85 47.2878 73.95 46.6878 73.85 45.8878C72.25 40.6878 54.35 33.2878 42.05 35.2878C28.65 37.3878 19.55 42.3878 11.25 53.5878C9.75 55.5878 2.75 57.5878 2.75 60.6878C2.85 60.8878 2.95 61.0878 3.05 61.1878C4.45 58.7878 9.85 57.0878 11.15 55.3878Z" fill="#FFAA00"/>
<path d="M42.1488 35.3877C28.7488 37.4877 19.6488 42.4877 11.3488 53.6877C11.0488 54.0877 10.5488 54.3877 10.0488 54.7877C11.0488 57.1877 12.2488 59.5877 12.4488 62.0877C12.5488 62.6877 12.4488 63.2877 12.6488 63.8877C12.7488 64.2877 13.0488 64.6877 13.2488 64.9877C13.6488 65.6877 14.1488 66.3877 14.5488 67.0877C15.2488 66.5877 15.9488 66.0877 16.5488 65.5877C19.9488 62.0877 24.4488 55.1877 28.7488 52.4877C35.5488 48.1877 47.4488 47.1877 56.5488 49.2877C56.5488 46.8877 56.8488 44.4877 57.7488 42.1877C57.9488 41.5877 58.1488 40.9877 58.1488 40.3877C58.1488 39.8877 57.9488 39.4877 57.6488 38.9877C57.2488 38.0877 56.7488 37.2877 56.3488 36.3877C51.5488 35.0877 46.4488 34.6877 42.1488 35.3877Z" fill="#FFAA00"/>
<path d="M10.9488 4.48672C9.94883 6.98672 8.84883 16.3867 8.14883 21.2867C8.14883 21.3867 8.04883 21.3867 8.04883 21.4867C9.54883 19.8867 10.7488 18.5867 11.3488 17.6867C10.9488 14.1867 10.7488 8.28672 11.6488 3.38672C11.3488 3.78672 11.1488 4.08672 10.9488 4.48672Z" fill="#D9D2C3"/>
<path d="M10.0504 65.2867C9.95039 65.1867 9.75039 64.9867 9.75039 64.8867C9.65039 64.6867 9.75039 64.4867 9.75039 64.2867V64.1867C10.0504 62.2867 9.45039 60.4867 8.85039 58.6867C8.55039 57.6867 8.25039 56.7867 8.05039 55.8867C7.75039 56.0867 7.45039 56.1867 7.15039 56.3867C7.35039 57.2867 7.65039 58.1867 7.95039 58.9867C8.55039 60.6867 9.05039 62.2867 8.85039 63.9867V64.0867C8.85039 64.3867 8.75039 64.7867 8.85039 65.1867C8.95039 65.5867 9.25039 65.7867 9.45039 65.9867L11.7504 68.3867C12.0504 68.2867 12.4504 68.0867 12.7504 67.9867L10.0504 65.2867Z" fill="#FFAA00"/>
<path d="M11.7496 68.2871L9.24961 65.6871C9.14961 65.5871 8.94962 65.3871 8.94962 65.2871C8.84962 65.0871 8.94962 64.8871 8.94962 64.6871V64.5871C9.24962 62.6871 8.64961 60.8871 8.04961 59.0871C7.74961 58.0871 7.44961 57.1871 7.24961 56.2871C6.94961 56.4871 6.64961 56.5871 6.34961 56.7871C6.54961 57.6871 6.84961 58.4871 7.14961 59.3871C7.74961 61.0871 8.24961 62.6871 8.04961 64.3871V64.4871C8.04961 64.7871 7.94961 65.1871 8.04961 65.5871C8.14961 65.9871 8.44961 66.1871 8.64961 66.3871L10.8496 68.6871C11.1496 68.5871 11.4496 68.4871 11.7496 68.2871Z" fill="#CC6600"/>
<path d="M18.1504 63.5879C17.5504 63.1879 16.8504 62.7879 16.2504 62.2879C16.1504 62.1879 16.0504 62.0879 15.9504 62.0879C15.8504 61.9879 15.9504 61.7879 15.9504 61.5879V61.3879C16.0504 60.0879 15.4504 58.9879 14.8504 57.9879L14.7504 57.7879C13.7504 55.9879 12.9504 54.0879 12.3504 52.0879C12.1504 52.3879 11.8504 52.6879 11.6504 52.9879C12.2504 54.7879 12.9504 56.5879 13.9504 58.2879L14.0504 58.4879C14.5504 59.3879 15.1504 60.3879 15.0504 61.2879V61.4879C15.0504 61.7879 14.9504 62.1879 15.1504 62.5879C15.2504 62.8879 15.5504 62.9879 15.7504 63.1879C16.3504 63.5879 16.9504 63.9879 17.5504 64.3879C17.7504 64.0879 17.9504 63.8879 18.1504 63.5879Z" fill="#CC6600"/>
<path d="M19.95 50.2879L18.05 46.0879C17.75 46.2879 17.55 46.5879 17.25 46.7879L19.05 50.6879C20.15 53.1879 21.35 55.6879 22.65 58.1879C22.85 57.8879 23.15 57.6879 23.35 57.3879C22.05 54.9879 20.95 52.5879 19.95 50.2879Z" fill="#E68600"/>
<path d="M20.9492 50.3883L18.7492 45.4883C18.4492 45.6883 18.2492 45.9883 17.9492 46.1883L20.0492 50.7883C21.0492 52.9883 22.0492 55.2883 23.2492 57.4883C23.4492 57.1883 23.7492 56.9883 23.9492 56.6883C22.8492 54.5883 21.8492 52.4883 20.9492 50.3883Z" fill="#CC6600"/>
<path d="M29.55 51.7879C29.85 51.5879 30.15 51.4879 30.45 51.2879L26.65 40.0879C26.35 40.2879 26.05 40.3879 25.75 40.5879L29.55 51.7879Z" fill="#E68600"/>
<path d="M30.4504 51.3871C30.7504 51.2871 31.0504 51.0871 31.3504 50.9871L27.5504 39.7871C27.2504 39.8871 26.9504 40.0871 26.6504 40.1871L30.4504 51.3871Z" fill="#CC6600"/>
<path d="M38.75 35.9871C39.75 40.0871 40.65 44.1871 41.65 48.2871C41.95 48.2871 42.35 48.1871 42.65 48.1871C41.75 44.0871 40.75 39.8871 39.75 35.7871C39.45 35.7871 39.15 35.8871 38.75 35.9871Z" fill="#E68600"/>
<path d="M39.75 35.7879C40.75 39.8879 41.65 44.0879 42.65 48.1879C42.95 48.1879 43.35 48.0879 43.65 48.0879C42.75 43.8879 41.75 39.6879 40.75 35.5879C40.35 35.6879 40.05 35.6879 39.75 35.7879Z" fill="#CC6600"/>
<path d="M52.75 48.3875L52.25 38.9875C52.15 37.8875 52.15 36.4875 51.55 35.2875C51.15 35.1875 50.75 35.1875 50.25 35.1875C51.05 36.1875 51.15 37.4875 51.25 39.0875L51.75 48.2875C52.05 48.2875 52.35 48.3875 52.75 48.3875Z" fill="#E68600"/>
<path d="M52.0488 39.1871L52.5488 48.3871C52.8488 48.3871 53.2488 48.4871 53.5488 48.4871L53.0488 39.0871C52.9488 37.9871 52.9488 36.5871 52.3488 35.4871C51.9488 35.3871 51.5488 35.3871 51.0488 35.2871C51.8488 36.2871 51.9488 37.6871 52.0488 39.1871Z" fill="#CC6600"/>
<path d="M63.75 39.4883C63.85 39.6883 64.05 39.9883 64.05 40.1883C64.15 40.5883 63.85 40.9883 63.55 41.4883L63.35 41.7883C62.25 43.8883 62.35 46.1883 62.35 48.4883C62.35 49.2883 62.35 50.0883 62.35 50.7883C62.65 50.8883 63.05 51.0883 63.35 51.2883C63.45 50.3883 63.35 49.3883 63.35 48.4883C63.25 46.2883 63.25 44.1883 64.25 42.2883L64.45 41.9883C64.75 41.3883 65.15 40.7883 65.05 40.0883C64.95 39.6883 64.75 39.2883 64.65 39.0883C64.15 38.8883 63.65 38.6883 63.15 38.4883L63.75 39.4883Z" fill="#FFAA00"/>
<path d="M62.75 39.3883C62.85 39.5883 63.05 39.8883 63.05 40.0883C63.15 40.4883 62.85 40.8883 62.55 41.3883L62.35 41.6883C61.25 43.7883 61.35 46.0883 61.35 48.3883C61.35 49.1883 61.35 49.9883 61.35 50.6883C61.65 50.7883 62.05 50.9883 62.35 51.1883C62.45 50.2883 62.35 49.2883 62.35 48.3883C62.25 46.1883 62.25 44.0883 63.25 42.1883L63.45 41.8883C63.75 41.2883 64.15 40.6883 64.05 39.9883C63.95 39.5883 63.75 39.1883 63.65 38.9883L63.35 38.5883C62.85 38.3883 62.35 38.1883 61.85 37.9883L62.75 39.3883Z" fill="#CC6600"/>
<path d="M70.9492 48.7875C70.7492 49.8875 70.4492 50.9875 70.1492 52.0875C70.0492 52.4875 69.9492 52.7875 69.7492 52.9875C69.5492 53.1875 69.3492 53.2875 69.0492 53.4875L68.9492 53.5875C68.4492 53.8875 67.9492 54.2875 67.4492 54.6875C67.6492 54.9875 67.8492 55.1875 68.0492 55.4875C68.4492 55.0875 68.9492 54.7875 69.4492 54.4875L69.5492 54.3875C69.8492 54.1875 70.2492 53.9875 70.4492 53.6875C70.7492 53.2875 70.8492 52.7875 70.9492 52.4875C71.2492 51.3875 71.5492 50.2875 71.7492 49.1875C72.1492 47.4875 72.3492 45.5875 72.1492 43.7875C71.7492 43.3875 71.3492 43.0875 70.8492 42.6875C71.6492 44.4875 71.3492 46.7875 70.9492 48.7875Z" fill="#FFAA00"/>
<path d="M70.1504 48.4883C69.9504 49.5883 69.6504 50.6883 69.3504 51.7883C69.2504 52.1883 69.1504 52.4883 68.9504 52.6883C68.7504 52.8883 68.5504 52.9883 68.2504 53.1883L68.1504 53.2883C67.6504 53.5883 67.1504 53.9883 66.6504 54.3883C66.8504 54.6883 67.0504 54.8883 67.2504 55.1883C67.6504 54.7883 68.1504 54.4883 68.6504 54.1883L68.7504 54.0883C69.0504 53.8883 69.4504 53.6883 69.6504 53.3883C69.9504 52.9883 70.0504 52.4883 70.1504 52.1883C70.4504 51.0883 70.7504 49.9883 70.9504 48.8883C71.3504 46.9883 71.6504 44.9883 71.2504 42.9883C70.8504 42.6883 70.3504 42.2883 69.8504 41.9883C70.9504 43.8883 70.5504 46.2883 70.1504 48.4883Z" fill="#CC6600"/>
<path d="M27.7504 51.2865C22.8504 54.7865 18.9504 60.1865 15.4504 64.5865C13.3504 67.0865 8.55039 66.5865 7.65039 68.8865C8.05039 69.0865 8.45039 69.1865 8.95039 69.2865C10.7504 68.7865 14.4504 67.4865 16.4504 65.3865C19.8504 61.8865 24.3504 54.9865 28.6504 52.2865C40.4504 44.7865 67.8504 47.2865 68.7504 58.7865C69.2504 58.8865 69.7504 58.8865 70.0504 58.6865C69.3504 45.7865 39.5504 42.9865 27.7504 51.2865Z" fill="#CC6600"/>
<path d="M44.2484 63.1873C43.9484 65.4873 43.5484 67.2873 42.8484 67.8873C40.7484 69.6873 30.4484 68.4873 28.5484 66.5873C27.1484 65.1873 26.6484 61.8873 26.7484 59.9873C26.8484 59.1873 27.2484 58.3873 27.9484 58.0873C29.6484 57.3873 42.3484 57.2873 44.6484 59.7873C44.4484 60.9873 44.3484 62.0873 44.2484 63.1873C44.6484 63.1873 45.0484 63.2873 45.4484 63.2873C45.6484 61.2873 45.5484 58.9873 45.5484 58.7873C45.3484 58.0873 44.5484 57.9873 43.9484 57.6873C40.3484 55.9873 30.4484 55.4873 26.7484 56.9873C25.7484 57.0873 24.4484 57.2873 23.4484 57.2873C23.2484 58.3873 23.1484 60.7873 23.1484 61.1873C23.3484 63.2873 24.6484 60.3873 25.0484 62.0873C25.4484 63.1873 26.3484 66.5873 28.6484 68.1873C30.5484 69.4873 39.5484 70.4873 42.1484 69.7873C44.4484 69.0873 44.8484 67.1873 45.2484 65.0873C45.3484 64.5873 45.4484 63.9873 45.5484 63.2873C45.0484 63.1873 44.6484 63.1873 44.2484 63.1873Z" fill="#BFB6A2"/>
<path d="M51.0488 63.6871C50.9488 65.9871 50.9488 67.7871 51.4488 68.4871C52.8488 70.4871 61.0488 70.3871 62.8488 68.6871C64.1488 67.3871 65.0488 64.1871 65.2488 62.3871C65.3488 61.5871 65.1488 60.7871 64.5488 60.3871C63.3488 59.4871 53.4488 58.0871 51.2488 60.1871C51.1488 61.4871 51.1488 62.5871 51.0488 63.6871C50.7488 63.6871 50.4488 63.6871 50.0488 63.6871C50.1488 61.6871 50.5488 59.3871 50.5488 59.2871C50.7488 58.6871 51.4488 58.5871 51.9488 58.2871C54.9488 56.9871 62.8488 57.5871 65.4488 59.4871C66.2488 59.6871 67.1488 59.9871 68.0488 60.0871C69.0488 61.0871 67.1488 62.0871 67.7488 63.9871C67.2488 64.0871 66.5488 64.4871 66.1488 64.6871C65.6488 65.6871 64.4488 68.9871 62.4488 70.2871C60.8488 71.3871 53.5488 71.3871 51.7488 70.3871C50.0488 69.4871 50.0488 67.4871 50.0488 65.4871C50.0488 64.9871 50.0488 64.3871 50.0488 63.6871C50.4488 63.5871 50.7488 63.5871 51.0488 63.6871Z" fill="#BFB6A2"/>
<path d="M51.6477 58.6879C50.2477 59.1879 46.4477 58.8879 44.4477 58.0879C45.3477 59.4879 44.4477 66.1879 43.8477 66.7879C46.3477 62.7879 48.9477 61.9879 50.8477 67.5879C50.2477 63.8879 51.0477 59.8879 51.6477 58.6879Z" fill="#BFB6A2"/>
<path d="M22.3502 61.2889C22.5502 61.2889 23.1502 61.5889 23.2502 61.3889C23.3502 61.2889 23.3501 61.1889 23.3501 61.0889C23.4501 60.1889 23.4502 59.2889 23.5502 58.3889C23.5502 58.0889 23.5502 57.6889 23.4502 57.3889C23.2502 57.2889 22.7502 57.0889 22.6502 57.3889C22.6502 57.4889 22.6502 57.5889 22.6502 57.6889C22.5502 58.0889 22.1502 61.2889 22.3502 61.2889Z" fill="#8C8677"/>
<path d="M44.7489 65.9875C44.8489 65.3875 44.9489 64.6875 45.0489 63.9875C45.1489 63.3875 45.1489 62.7875 45.2489 62.1875C38.9489 61.9875 32.7489 61.4875 26.5489 60.6875C26.4489 61.7875 26.6489 63.2875 27.0489 64.6875C33.0489 66.4875 39.2489 67.2875 44.7489 65.9875Z" fill="#F27900" fill-opacity="0.55"/>
<path d="M28.4492 67.5891C30.4492 69.5891 41.3492 70.8891 43.5492 68.9891C44.1492 68.4891 44.4492 67.4891 44.7492 66.0891C39.2492 67.2891 33.0492 66.5891 26.9492 64.7891C27.2492 65.7891 27.7492 66.8891 28.4492 67.5891Z" fill="#FFAA00" fill-opacity="0.55"/>
<path d="M45.2488 62.1888C45.3488 61.5888 45.3488 60.9888 45.4488 60.3888C43.0488 57.7888 29.5488 57.8888 27.8488 58.5888C27.0488 58.8888 26.6488 59.7888 26.5488 60.5888V60.6888C32.7488 61.4888 38.9488 61.8888 45.2488 62.1888Z" fill="#F23D3D" fill-opacity="0.55"/>
<path d="M37.05 64.2883C36.85 63.9883 36.45 63.8883 36.15 63.7883C34.35 62.9883 32.55 62.0883 30.75 61.0883L30.65 60.9883L30.55 61.0883C29.35 62.1883 28.05 63.0883 26.75 63.9883C26.75 64.1883 26.85 64.3883 26.95 64.5883C26.95 64.7883 27.05 64.8883 27.05 64.9883L31.45 68.4883H31.55C33.05 68.0883 34.65 67.7883 36.25 67.4883H36.45L35.85 65.4883C35.75 65.2883 35.75 65.0883 35.55 64.8883C35.35 64.5883 35.05 64.4883 34.85 64.3883L31.15 62.6883L31.05 62.7883C30.35 63.4883 29.65 64.1883 28.75 64.6883L28.45 64.8883L28.75 65.0883C29.75 65.6883 30.65 66.4883 31.45 67.3883L31.55 67.4883H31.65C32.65 67.0883 33.65 66.9883 34.75 66.9883V66.5883C33.65 66.5883 32.65 66.7883 31.65 67.0883C30.95 66.2883 30.15 65.5883 29.25 64.9883C29.95 64.4883 30.65 63.8883 31.25 63.2883L34.65 64.8883C34.85 64.9883 35.05 65.0883 35.25 65.2883C35.35 65.3883 35.45 65.5883 35.45 65.7883L35.95 67.3883C34.45 67.5883 32.95 67.8883 31.55 68.2883L26.95 64.5883C28.25 63.6883 29.55 62.6883 30.75 61.5883C32.45 62.5883 34.25 63.4883 36.05 64.1883C36.35 64.2883 36.55 64.3883 36.75 64.5883C36.85 64.6883 36.95 64.8883 37.05 65.0883L38.55 68.4883L33.25 69.3883C33.65 69.4883 34.05 69.4883 34.45 69.5883L39.15 68.7883L37.35 64.8883C37.35 64.6883 37.25 64.4883 37.05 64.2883Z" fill="#FFFBF2" fill-opacity="0.4"/>
<path d="M42.5488 69.3883L42.4488 69.2883C41.4488 67.2883 40.7488 65.1883 40.1488 62.9883V62.8883H40.0488C36.6488 61.9883 33.4488 60.6883 30.3488 59.0883L30.2488 58.9883L26.5488 62.0883C26.5488 62.2883 26.5488 62.3883 26.5488 62.5883L30.2488 59.4883C33.2488 61.0883 36.4488 62.2883 39.7488 63.1883C40.3488 65.2883 41.0488 67.2883 41.9488 69.1883C41.6488 69.3883 41.3488 69.4883 41.0488 69.5883C41.6488 69.6883 42.1488 69.5883 42.5488 69.3883Z" fill="#FFFBF2" fill-opacity="0.4"/>
<path d="M29.4488 65.3887C30.3488 65.5887 31.2488 65.6887 32.0488 65.8887C31.9488 66.5887 31.8488 67.4887 31.8488 68.1887C31.8488 68.4887 31.8488 68.6887 31.8488 68.9887C32.0488 68.9887 32.1488 69.0887 32.3488 69.0887C32.3488 68.7887 32.3488 68.4887 32.4488 68.1887C32.4488 67.3887 32.5488 66.6887 32.6488 65.9887C33.6488 66.3887 34.7488 66.7887 35.8488 67.1887C38.0488 68.0887 40.2488 68.8887 42.4488 69.4887C42.6488 69.3887 42.8488 69.3887 42.9488 69.2887C43.0488 69.2887 43.1488 69.1887 43.2488 69.1887C40.8488 68.6887 38.4488 67.6887 36.0488 66.7887C35.0488 66.3887 34.1488 65.9887 33.2488 65.6887C34.9488 65.1887 37.4488 64.4887 39.8488 63.8887C40.8488 63.5887 41.8488 63.3887 42.7488 63.0887C43.1488 64.8887 43.5488 66.5887 44.1488 68.2887C44.2488 68.0887 44.3488 67.9887 44.4488 67.7887C43.9488 66.1887 43.5488 64.5887 43.1488 62.9887C43.9488 62.7887 44.7488 62.5887 45.3488 62.3887C45.3488 62.2887 45.3488 62.2887 45.3488 62.1887C45.3488 62.0887 45.3488 61.9887 45.3488 61.8887C44.3488 62.1887 43.0488 62.5887 41.6488 62.8887C40.4488 61.2887 39.1488 59.7887 37.7488 58.3887C37.5488 58.3887 37.3488 58.3887 37.1488 58.3887C38.6488 59.7887 40.0488 61.3887 41.2488 63.0887C40.7488 63.1887 40.1488 63.3887 39.6488 63.4887C37.0488 64.1887 34.3488 64.8887 32.5488 65.4887C32.3488 64.9887 32.2488 64.4887 32.0488 63.9887C31.4488 62.2887 30.6488 60.2887 30.0488 58.3887C29.8488 58.3887 29.7488 58.3887 29.5488 58.3887C30.1488 60.2887 30.8488 62.3887 31.5488 64.1887C31.7488 64.5887 31.8488 65.0887 32.0488 65.4887C31.2488 65.2887 30.4488 65.1887 29.6488 64.9887C28.7488 64.7887 27.8488 64.6887 27.0488 64.4887C27.0488 64.5887 27.0488 64.6887 27.1488 64.7887C27.1488 64.8887 27.1488 64.8887 27.2488 64.9887C27.8488 65.0887 28.6488 65.1887 29.4488 65.3887Z" fill="#FFFBF2" fill-opacity="0.4"/>
<path d="M51.0488 66.4883C51.0488 65.8883 51.0488 65.1883 51.1488 64.3883C51.1488 63.7883 51.2488 63.1883 51.2488 62.4883C56.1488 62.9883 60.9488 63.1883 65.8488 63.1883C65.7488 64.2883 65.4488 65.7883 64.9488 67.1883C59.9488 68.2883 55.0488 68.2883 51.0488 66.4883Z" fill="#F27900" fill-opacity="0.55"/>
<path d="M63.3488 69.8883C61.5488 71.6883 52.9488 71.6883 51.5488 69.5883C51.1488 69.0883 51.0488 67.8883 51.0488 66.4883C55.0488 68.3883 59.9488 68.3883 64.9488 67.1883C64.5488 68.2883 63.9488 69.2883 63.3488 69.8883Z" fill="#FFAA00" fill-opacity="0.55"/>
<path d="M51.25 62.4873C51.25 61.8873 51.35 61.2873 51.35 60.6873C53.55 58.3873 63.95 59.9873 65.15 60.9873C65.65 61.3873 65.95 62.2873 65.85 63.1873V63.2873C60.95 63.1873 56.05 62.9873 51.25 62.4873Z" fill="#F23D3D" fill-opacity="0.55"/>
<path d="M65.65 64.4883C64.05 64.6883 62.25 64.8883 61.25 64.8883C60.55 63.2883 60.05 61.3883 59.55 59.5883C59.35 59.5883 59.15 59.5883 59.05 59.4883C59.55 61.1883 60.05 62.8883 60.65 64.4883C58.55 63.2883 56.55 61.9883 54.65 60.7883C54.15 60.4883 53.55 60.0883 53.05 59.7883C52.85 59.8883 52.65 59.8883 52.45 59.9883C53.15 60.3883 53.75 60.7883 54.45 61.1883C56.25 62.3883 58.15 63.5883 60.05 64.6883C57.85 64.4883 54.05 64.0883 51.25 63.8883C51.25 63.9883 51.25 64.0883 51.25 64.2883C51.25 64.3883 51.25 64.3883 51.25 64.4883C51.75 64.4883 52.25 64.5883 52.85 64.5883C53.85 66.7883 54.95 69.0883 56.05 71.2883L56.45 71.0883C55.35 68.9883 54.35 66.7883 53.35 64.6883C56.15 64.9883 59.35 65.2883 60.85 65.3883C60.05 66.6883 58.15 69.3883 56.85 71.1883C57.05 71.1883 57.25 71.1883 57.45 71.1883C58.75 69.3883 60.55 66.7883 61.35 65.5883C61.75 65.9883 62.25 66.5883 62.75 67.2883C63.25 67.8883 63.75 68.4883 64.25 69.0883C64.35 68.8883 64.45 68.7883 64.55 68.5883C64.05 67.9883 63.55 67.4883 63.15 66.9883C62.65 66.3883 62.15 65.8883 61.85 65.4883C62.85 65.4883 64.35 65.2883 65.85 65.0883C65.55 64.8883 65.65 64.6883 65.65 64.4883Z" fill="#FFFBF2" fill-opacity="0.4"/>
<path d="M64.05 69.0887C62.15 68.7887 60.25 68.6887 58.35 68.9887C58.25 68.9887 58.05 68.9887 58.05 68.9887C58.05 68.9887 57.95 68.8887 57.95 68.7887C57.25 67.0887 56.15 65.5887 54.85 64.3887C55.25 63.4887 55.45 62.5887 55.45 61.6887C56.95 61.8887 58.45 61.6887 59.85 61.0887C61.25 62.1887 62.55 63.2887 63.85 64.4887C63.45 65.4887 63.15 66.5887 62.95 67.6887C62.55 67.6887 61.85 67.6887 60.85 67.5887C60.25 67.5887 59.55 67.5887 59.25 67.5887C58.65 66.4887 57.95 65.5887 57.05 64.6887C56.95 64.5887 56.95 64.5887 56.95 64.4887C56.95 64.4887 56.95 64.3887 56.95 64.2887L57.25 62.3887C58.25 62.4887 59.05 62.4887 59.95 62.2887C60.05 62.2887 60.05 62.2887 60.15 62.2887C60.25 62.2887 60.25 62.3887 60.35 62.3887L62.75 64.6887L62.15 66.5887C61.35 66.7887 60.45 66.5887 59.85 65.9887C59.65 65.7887 59.45 65.5887 59.35 65.2887C59.15 64.9887 58.85 64.6887 58.55 64.3887C58.65 64.0887 58.75 63.7887 58.75 63.4887L60.55 63.5887V63.1887L58.35 62.9887V63.1887C58.35 63.5887 58.25 63.8887 58.05 64.2887L57.95 64.4887L58.15 64.5887C58.45 64.7887 58.75 65.0887 58.95 65.4887C59.15 65.6887 59.35 65.9887 59.55 66.1887C60.25 66.8887 61.35 67.0887 62.35 66.7887H62.45L63.25 64.3887L60.65 61.8887C60.55 61.7887 60.45 61.6887 60.25 61.6887C60.15 61.6887 59.95 61.6887 59.85 61.6887C58.85 61.7887 58.15 61.7887 57.05 61.6887H56.85L56.45 63.9887C56.45 64.0887 56.45 64.1887 56.45 64.3887C56.45 64.5887 56.65 64.6887 56.65 64.6887C57.55 65.4887 58.25 66.4887 58.85 67.5887C58.95 67.6887 58.95 67.6887 60.75 67.7887C61.65 67.7887 62.95 67.8887 63.05 67.8887H63.25V67.6887C63.45 66.4887 63.75 65.3887 64.15 64.2887L64.25 64.1887L64.15 64.0887C62.85 62.7887 61.45 61.5887 59.95 60.4887L59.85 60.3887H59.75C58.35 60.9887 56.75 61.1887 55.25 60.9887H55.05V61.1887C55.05 62.1887 54.85 63.1887 54.35 64.0887L54.25 64.1887L54.35 64.2887C55.75 65.4887 56.75 66.9887 57.45 68.6887C57.45 68.7887 57.55 68.9887 57.65 69.0887C57.75 69.1887 57.85 69.1887 57.95 69.1887C58.05 69.1887 58.15 69.1887 58.25 69.1887C60.05 68.8887 61.85 68.8887 63.65 69.1887C63.85 69.3887 63.95 69.1887 64.05 69.0887Z" fill="#FFFBF2" fill-opacity="0.4"/>
<path d="M44.5492 63.988C44.2492 66.288 43.8492 68.088 43.1492 68.688C41.0492 70.488 30.7492 69.288 28.8492 67.388C27.4492 65.988 26.8492 62.688 27.0492 60.788C27.1492 59.988 27.5492 59.188 28.2492 58.888C29.9492 58.188 42.6492 58.088 44.9492 60.588C44.7492 61.788 44.6492 62.888 44.5492 63.988C44.9492 63.988 45.3492 64.088 45.7492 64.088C45.9492 62.088 45.8492 59.788 45.8492 59.588C45.6492 58.888 44.8492 58.788 44.2492 58.488C40.6492 56.788 30.7492 56.288 27.0492 57.788C26.0492 57.888 24.7492 58.088 23.7492 58.088C23.5492 59.188 23.4492 61.588 23.4492 61.988C24.0492 62.188 24.9492 62.588 25.3492 62.888C25.7492 63.988 26.6492 67.388 28.9492 68.988C30.8492 70.288 39.8492 71.288 42.4492 70.588C44.7492 69.888 45.1492 67.988 45.5492 65.888C45.6492 65.388 45.7492 64.788 45.8492 64.088C45.3492 63.988 44.9492 63.988 44.5492 63.988Z" fill="#FFFBF2"/>
<path d="M51.3496 64.4878C51.2496 66.7878 51.2496 68.5879 51.7496 69.2879C53.1496 71.2879 61.3496 71.1878 63.1496 69.4878C64.4496 68.1878 65.3496 64.9878 65.5496 63.1878C65.6496 62.3878 65.4496 61.5878 64.8496 61.1878C63.6496 60.2878 53.7496 58.8878 51.5496 60.9878C51.5496 62.2878 51.4496 63.3878 51.3496 64.4878C51.0496 64.4878 50.7496 64.4878 50.3496 64.4878C50.4496 62.4878 50.8496 60.1878 50.8496 60.0878C51.0496 59.4878 51.7496 59.3878 52.2496 59.0878C55.2496 57.7878 63.1496 58.3878 65.7496 60.2878C66.5496 60.4878 67.4496 60.7879 68.3496 60.8879C68.3496 61.9879 68.0496 64.3879 68.0496 64.7879C67.5496 64.8879 66.8496 65.2878 66.4496 65.4878C65.9496 66.4878 64.7496 69.7878 62.7496 71.0878C61.1496 72.1878 53.8496 72.1878 52.0496 71.1878C50.3496 70.2878 50.3496 68.2879 50.3496 66.2879C50.3496 65.7879 50.3496 65.1878 50.3496 64.4878C50.7496 64.3878 51.0496 64.3878 51.3496 64.4878Z" fill="#FFFBF2"/>
<path d="M51.9484 59.4887C50.5484 59.9887 46.7484 59.6887 44.7484 58.8887C45.6484 60.2887 44.7484 66.9887 44.1484 67.5887C46.6484 63.5887 49.2484 62.7887 51.1484 68.3887C50.6484 64.6887 51.3484 60.6887 51.9484 59.4887Z" fill="#FFFBF2"/>
<path d="M30.0489 53.7882C29.3489 52.8882 24.1489 55.2882 24.0489 56.7882C23.9489 57.4882 25.7489 59.8882 26.9489 59.8882C28.0489 59.7882 30.7489 54.5882 30.0489 53.7882Z" fill="#FFAA00"/>
<path d="M25.3496 55.2886C25.7496 56.4886 27.0496 57.8886 28.3496 58.5886C29.4496 56.9886 30.5496 54.3886 30.1496 53.7886C29.5496 53.1886 26.9496 54.0886 25.3496 55.2886Z" fill="#F27900"/>
<path d="M29.2484 56.8876C29.9484 55.5876 30.3484 54.1876 30.0484 53.7876C29.7484 53.3876 28.4484 53.6876 27.1484 54.2876C27.5484 55.2876 28.3484 56.1876 29.2484 56.8876Z" fill="#FFFBF2"/>
<path d="M65.0501 56.3886C65.8501 55.7886 69.7501 58.9886 69.5501 60.2886C69.4501 60.8886 67.4501 62.5886 66.3501 62.2886C65.4501 61.9886 64.3501 56.8886 65.0501 56.3886Z" fill="#FFAA00"/>
<path d="M68.8487 58.6887C68.2487 59.5887 66.8487 60.5887 65.5487 60.8887C64.9487 59.2887 64.5487 56.7887 65.0487 56.3887C65.6487 55.8887 67.6487 57.2887 68.8487 58.6887Z" fill="#F27900"/>
<path d="M65.049 59.1878C64.749 57.8878 64.649 56.6878 65.049 56.3878C65.449 56.0878 66.449 56.6878 67.449 57.3878C66.849 58.1878 66.049 58.7878 65.049 59.1878Z" fill="#FFFBF2"/>
<path d="M13.9494 59.3879C14.8494 58.8879 15.8494 58.7879 16.7494 59.6879C18.5494 60.0879 20.3494 60.5879 22.1494 60.9879C20.6494 58.4879 24.3494 58.2879 22.5494 57.0879C20.3494 56.6879 18.2494 56.2879 16.0494 55.7879C14.5494 55.4879 12.6494 55.1879 11.7494 56.6879C11.2494 57.4879 11.0494 59.1879 11.5494 60.8879C12.2494 60.0879 13.0494 59.4879 13.9494 59.3879Z" fill="#BFB6A2"/>
<path d="M23.0488 57.8887C20.8488 57.4887 18.7488 57.0887 16.5488 56.5887C15.0488 56.2887 13.1488 55.9887 12.2488 57.4887C11.7488 58.2887 11.8488 59.3887 11.9488 60.3887C13.2488 59.1887 15.3488 58.7887 17.1488 60.4887C18.9488 60.8887 20.7488 61.3887 22.5488 61.7887C22.9488 60.8887 23.2488 59.2887 23.0488 57.8887Z" fill="#FFFBF2"/>
</svg>
