<svg width="77" height="86" viewBox="0 0 77 86" fill="none" xmlns="http://www.w3.org/2000/svg">
<path d="M20.5405 15.1392C36.9987 2.59622 66.1756 6.19664 67.817 30.6434C69.46 37.4346 67.1203 43.3385 66.5544 50.1046C66.1972 54.4465 66.6915 61.9309 62.6142 66.1671C57.5196 71.4873 55.3522 75.7725 49.4912 75.235C29.9984 73.5736 20.5793 61.0804 16.4124 54.0885C11.2976 45.2659 9.08834 23.7733 20.5405 15.1392Z" fill="#AE7E78"/>
<path d="M20.5405 15.1392C36.9987 2.59622 66.1756 6.19664 67.817 30.6434C69.46 37.4346 67.1203 43.3385 66.5544 50.1046C66.1972 54.4465 66.6915 61.9309 62.6142 66.1671C57.5196 71.4873 55.3522 75.7725 49.4912 75.235C29.9984 73.5736 20.5793 61.0804 16.4124 54.0885C11.2976 45.2659 9.08834 23.7733 20.5405 15.1392Z" fill="#E1B6A4" fill-opacity="0.5"/>
<path d="M67.8177 30.6436C67.7543 29.8461 65.9166 21.8666 57.8051 16.9937C53.1734 14.252 47.9502 14.1654 44.0624 14.4743C41.7617 14.5568 39.6842 14.9225 37.9136 15.3641C23.8486 18.8892 20.6248 30.0796 21.3884 40.9533C22.0174 50.1323 25.903 61.1592 32.6379 67.6462C35.6746 70.5147 39.8601 72.69 44.2575 73.745C46.3066 74.2844 48.332 74.5248 50.2419 74.5737C52.9572 74.6589 54.8037 73.9103 56.6027 72.5635C58.4776 70.9099 60.1974 68.5663 62.607 66.0676C66.6843 61.8313 66.19 54.347 66.5472 50.005C67.121 43.3387 69.4608 37.4348 67.8177 30.6436Z" fill="#F0D1BC"/>
<path d="M27.0229 61.3717C25.0226 58.9224 23.0475 54.2643 22.9967 52.3623C19.5546 46.9178 14.7921 50.105 15.0614 53.4944C15.2706 57.39 20.6984 62.5764 27.0229 61.3717Z" fill="#F0D1BC"/>
<path d="M27.0229 61.3717C25.0226 58.9224 23.0475 54.2643 22.9967 52.3623C19.5546 46.9178 14.7921 50.105 15.0614 53.4944C15.2706 57.39 20.6984 62.5764 27.0229 61.3717Z" fill="#E1B6A4" fill-opacity="0.5"/>
<path d="M22.0006 58.7621C21.9438 60.5723 26.3346 59.0196 26.3346 59.0196C26.3346 59.0196 24.9641 56.9216 24.3786 55.8646C23.3151 53.8425 21.4303 51.5847 18.6391 51.8065C16.8448 51.949 15.8829 53.7308 17.0144 55.3463C16.8276 54.2577 17.0632 53.4364 18.2753 53.5407C19.1883 53.6688 20.4321 54.1719 20.8863 54.838C19.0761 54.7812 19.6174 56.5439 20.6776 57.2622C21.8375 57.9725 23.1698 57.0642 23.6794 58.4281C23.3123 58.8585 22.5908 58.6149 22.0006 58.7621Z" fill="#AE7E78"/>
<path d="M22.0006 58.7621C21.9438 60.5723 26.3346 59.0196 26.3346 59.0196C26.3346 59.0196 24.9641 56.9216 24.3786 55.8646C23.3151 53.8425 21.4303 51.5847 18.6391 51.8065C16.8448 51.949 15.8829 53.7308 17.0144 55.3463C16.8276 54.2577 17.0632 53.4364 18.2753 53.5407C19.1883 53.6688 20.4321 54.1719 20.8863 54.838C19.0761 54.7812 19.6174 56.5439 20.6776 57.2622C21.8375 57.9725 23.1698 57.0642 23.6794 58.4281C23.3123 58.8585 22.5908 58.6149 22.0006 58.7621Z" fill="#AE7E78"/>
<path d="M22.0006 58.7621C21.9438 60.5723 26.3346 59.0196 26.3346 59.0196C26.3346 59.0196 24.9641 56.9216 24.3786 55.8646C23.3151 53.8425 21.4303 51.5847 18.6391 51.8065C16.8448 51.949 15.8829 53.7308 17.0144 55.3463C16.8276 54.2577 17.0632 53.4364 18.2753 53.5407C19.1883 53.6688 20.4321 54.1719 20.8863 54.838C19.0761 54.7812 19.6174 56.5439 20.6776 57.2622C21.8375 57.9725 23.1698 57.0642 23.6794 58.4281C23.3123 58.8585 22.5908 58.6149 22.0006 58.7621Z" fill="#E1B6A4" fill-opacity="0.5"/>
<path d="M20.4408 15.1471C36.899 2.60414 66.0759 6.20456 67.817 30.6434C69.46 37.4346 67.1203 43.3385 66.5544 50.1046C66.1972 54.4465 66.6915 61.9309 62.6142 66.1671C57.5196 71.4873 55.3522 75.7725 49.4912 75.235C29.9984 73.5736 20.5793 61.0804 16.4124 54.0885C11.2976 45.2659 8.98866 23.7813 20.4408 15.1471Z" fill="#AE7E78"/>
<path d="M67.817 30.6434C66.0759 6.20456 36.899 2.60414 20.4408 15.1471C8.99658 23.8809 11.2058 45.3735 16.4124 54.0885C20.5793 61.0804 29.9984 73.5736 49.4912 75.235C55.3522 75.7725 57.5196 71.4873 62.6142 66.1671C66.6915 61.9309 66.1972 54.4465 66.5544 50.1046C67.1203 43.3385 69.46 37.4346 67.817 30.6434Z" fill="#E2B7A3" fill-opacity="0.5"/>
<path d="M66.5466 50.0046C66.1894 54.3466 66.6837 61.8309 62.6064 66.0672C57.5118 71.3874 55.3444 75.6725 49.4834 75.135C43.423 74.6134 37.372 71.6835 33.1357 67.6062C29.6527 64.1713 24.5062 54.9499 22.9391 47.8517C19.5943 32.2677 28.9202 10.7615 55.8583 17.7499C59.9566 18.8286 66.0585 23.6605 67.7095 30.5514C69.4601 37.4344 67.1204 43.3383 66.5466 50.0046Z" fill="#F4D5BF"/>
<path d="M26.9233 61.3795C24.923 58.9303 22.9478 54.2721 22.897 52.3701C19.455 46.9256 14.6925 50.1128 14.9618 53.5022C15.2707 57.3899 20.6985 62.5763 26.9233 61.3795Z" fill="#F0D1BC"/>
<path d="M26.9233 61.3795C24.923 58.9303 22.9478 54.2721 22.897 52.3701C19.455 46.9256 14.6925 50.1128 14.9618 53.5022C15.2707 57.3899 20.6985 62.5763 26.9233 61.3795Z" fill="#E1B6A4" fill-opacity="0.5"/>
<path d="M22.0006 58.7621C21.9438 60.5723 26.3346 59.0196 26.3346 59.0196C26.3346 59.0196 24.9641 56.9216 24.3786 55.8646C23.3151 53.8425 21.4303 51.5847 18.6391 51.8065C16.8448 51.949 15.8829 53.7308 17.0144 55.3463C16.8276 54.2577 17.0632 53.4364 18.2753 53.5407C19.1883 53.6688 20.4321 54.1719 20.8863 54.838C19.0761 54.7812 19.6174 56.5439 20.6776 57.2622C21.8375 57.9725 23.1698 57.0642 23.6794 58.4281C23.3123 58.8585 22.5908 58.6149 22.0006 58.7621Z" fill="#AE7E78"/>
<path d="M22.0006 58.7621C21.9438 60.5723 26.3346 59.0196 26.3346 59.0196C26.3346 59.0196 24.9641 56.9216 24.3786 55.8646C23.3151 53.8425 21.4303 51.5847 18.6391 51.8065C16.8448 51.949 15.8829 53.7308 17.0144 55.3463C16.8276 54.2577 17.0632 53.4364 18.2753 53.5407C19.1883 53.6688 20.4321 54.1719 20.8863 54.838C19.0761 54.7812 19.6174 56.5439 20.6776 57.2622C21.8375 57.9725 23.1698 57.0642 23.6794 58.4281C23.3123 58.8585 22.5908 58.6149 22.0006 58.7621Z" fill="#E1B6A4" fill-opacity="0.5"/>
<path d="M49.9402 70.7863C52.3564 70.8952 53.8405 69.3729 53.6933 68.7827C53.4464 68.2004 51.1774 68.6817 50.7707 68.6137C50.1726 68.6612 48.538 68.2895 48.1789 68.8196C47.8118 69.25 48.9275 70.6661 49.9402 70.7863Z" fill="#E6BBA8"/>
<path d="M58.9674 64.4509C59.6969 64.7942 59.9167 63.7735 59.8771 63.2751C59.7141 62.4855 59.116 62.5331 58.4103 62.4888C56.7994 62.4162 58.4452 64.1914 58.9674 64.4509Z" fill="#E6BBA8"/>
<path d="M44.96 63.6582C44.2463 63.5143 43.2574 63.6931 42.8983 64.2233C42.5391 64.7534 42.5219 67.062 44.2133 65.6235C44.5962 65.3924 45.9806 63.878 44.96 63.6582Z" fill="#E6BBA8"/>
<path d="M48.3436 67.1001C47.3389 67.0796 46.4259 66.9516 45.4812 66.4247C44.6441 65.9897 43.7152 65.6622 42.9699 65.1195C43.337 64.6891 43.9272 64.5419 44.5094 64.295C44.0902 65.3315 45.5571 66.1177 46.3783 66.3534C48.236 67.0084 50.3895 66.3357 52.2836 66.1852C53.6792 66.0743 55.0906 66.1628 56.3548 65.6611C56.9371 65.4142 57.5115 65.0676 57.9782 64.6293C58.5367 64.0833 57.9987 63.6245 58.2502 63.0026C58.342 62.895 58.9956 63.5453 59.0114 63.7447C58.9672 64.4504 58.1175 65.1198 57.6428 65.4584C56.9767 65.9126 56.1951 66.1754 55.4134 66.4381C53.9419 66.856 52.2076 66.4922 50.7282 66.8104C50.0383 66.9655 49.2487 67.1285 48.3436 67.1001Z" fill="#B37E78"/>
<path d="M61.882 64.52C61.4436 64.0532 61.0053 63.5865 60.3676 63.1356C59.8645 64.3793 59.436 67.8241 59.0009 68.6612C58.7494 69.2831 55.4109 71.4543 54.4219 71.6332C53.433 71.8121 53.2383 70.6238 53.2588 69.619C52.4375 69.3833 51.3489 69.5701 50.4596 69.7411C50.5388 70.7379 50.6022 71.5354 49.8285 71.8978C48.8633 72.3758 44.1748 71.4442 42.6208 69.5614C42.0669 68.9032 41.5302 65.9364 41.4035 64.3414C40.5459 64.9111 39.2975 65.6122 37.8339 66.1297C35.5933 65.7059 33.3653 64.1775 29.0736 59.4024C28.216 59.9721 27.2508 60.4501 26.2857 60.928C26.9201 60.0751 27.6622 59.3139 28.4121 58.6525C28.3045 58.5607 28.189 58.3692 28.0814 58.2775C27.4912 58.4247 26.8013 58.5798 26.2111 58.727C26.4706 58.2048 26.8297 57.6747 27.1888 57.1446C27.0733 56.9532 26.8581 56.7696 26.7426 56.5782C26.4198 56.3029 25.4909 55.9754 25.1681 55.7001C25.4057 58.6907 26.1879 64.7478 27.1913 67.2762C27.693 68.5405 28.7849 69.6575 29.6616 70.591C29.7059 69.8853 29.6425 69.0878 29.7026 68.5814C30.2439 70.3441 30.877 71.9992 31.9609 73.0165C32.0369 72.7095 32.1808 71.9959 32.3485 71.5813C32.8819 73.2443 33.7903 74.5765 34.8663 75.4942C34.8267 74.9958 34.9627 74.1824 34.9231 73.684C36.2857 75.6824 38.0754 76.7439 39.9568 77.6979C39.7258 77.315 39.5944 76.9242 39.5627 76.5254C41.2686 77.7943 43.4095 78.2261 45.0236 79.6026C45.0995 79.2956 45.0758 78.9966 44.9523 78.7054C45.2831 79.0804 45.6138 79.4554 45.9446 79.8304C45.9208 79.5313 46.0806 79.017 46.1565 78.7101C47.0569 79.9426 50.0904 81.5073 50.8357 82.0499C51.0873 81.4281 51.1553 81.0214 51.2233 80.6147C51.3546 81.0056 51.6774 81.2809 51.8009 81.572C53.1648 81.0624 54.3419 79.4641 55.2517 78.2884C55.2913 78.7868 55.3229 79.1855 55.3625 79.684C57.1536 78.2376 58.1994 76.2485 59.5125 73.8369C59.4524 74.3433 59.6075 75.0332 59.7468 75.5237C60.8685 73.2276 63.3699 70.6213 63.7905 67.0769C63.7542 67.8823 63.8175 68.6797 63.9806 69.4693C65.1307 66.2682 66.3026 59.5543 66.0729 56.6634C65.616 61.0132 63.7523 64.0704 61.882 64.52Z" fill="#323232"/>
<path d="M60.3684 63.1358C60.1168 63.7577 59.8891 64.6787 59.6692 65.6993C60.2277 65.1533 60.8938 64.6991 61.4524 64.1532C61.1295 63.8779 60.7988 63.5029 60.3684 63.1358Z" fill="#1E1E1E"/>
<path d="M41.9089 66.9101C41.738 66.0209 41.5591 65.0319 41.5116 64.4338C41.0369 64.7725 40.3629 65.127 39.5971 65.5891C40.3345 66.0321 41.0719 66.475 41.9089 66.9101Z" fill="#1E1E1E"/>
<path d="M30.9705 63.0628C29.825 65.0598 29.3648 68.1058 29.2242 70.1233C29.4394 70.3068 29.6546 70.4904 29.7701 70.6818C29.8144 69.9761 29.751 69.1786 29.8111 68.6723C30.3524 70.4349 30.9776 71.9903 32.0616 73.0076C30.8113 69.8969 30.2079 64.8288 30.9705 63.0628Z" fill="#1E1E1E"/>
<path d="M34.4942 70.8093C34.306 72.2287 34.6163 73.6085 35.0183 74.8806C34.9866 74.4819 35.0546 74.0752 35.0308 73.7762C35.7161 74.8252 36.4773 75.5672 37.4299 76.1937C36.0151 74.8014 34.9596 72.879 34.4942 70.8093Z" fill="#1E1E1E"/>
<path d="M44.9598 78.8055C45.2905 79.1805 45.6212 79.5554 45.952 79.9304C45.9282 79.6314 46.0959 79.2168 46.1718 78.9098C45.0324 77.1947 43.6414 76.1014 42.4182 74.5935C42.3898 75.4986 42.6604 76.38 43.1304 77.2455C40.3439 76.2631 39.1886 74.3486 37.7264 72.3581C37.9686 74.1446 38.7852 75.5844 39.7933 76.9087C41.4912 78.0779 43.5325 78.5176 45.039 79.8023C45.107 79.3957 45.0832 79.0966 44.9598 78.8055Z" fill="#1E1E1E"/>
<path d="M35.132 64.9406C34.7365 66.2762 34.5563 67.7952 34.7985 69.5816C34.9867 68.1623 35.4818 66.8188 36.284 65.5513C35.8694 65.3836 35.5545 65.208 35.132 64.9406Z" fill="#1E1E1E"/>
<path d="M51.2226 80.6155C50.5816 78.8607 49.8409 77.1139 49.2996 75.3512C49.1511 77.269 49.118 79.3783 49.5676 81.2485C50.0977 81.6077 50.6199 81.8671 50.8272 81.951C51.0866 81.4288 51.2543 81.0142 51.2226 80.6155Z" fill="#1E1E1E"/>
<path d="M59.5475 66.7109C59.4114 67.5243 59.1757 68.3455 59.0001 68.6604C59.2424 70.4468 59.3249 72.7475 58.901 74.9881C59.1684 74.5656 59.3361 74.151 59.6034 73.7285C59.5434 74.2349 59.6985 74.9248 59.8378 75.4153C60.3646 74.4706 61.0829 73.4104 61.7853 72.1508C61.6111 69.9577 60.7549 68.0194 59.5475 66.7109Z" fill="#1E1E1E"/>
<path d="M57.7071 72.5756C57.3671 74.6089 56.728 76.666 55.2677 78.4874C55.2994 78.8861 55.3311 79.2849 55.3628 79.6836C56.3042 78.9066 57.0383 78.0458 57.6569 76.9935C58.0444 75.5583 58.125 74.0471 57.7071 72.5756Z" fill="#1E1E1E"/>
<path d="M59.9045 64.8779C60.6657 65.6199 61.3351 66.4696 61.813 67.4348C61.6863 65.8398 61.0611 64.2844 60.2921 63.4427C60.1244 63.8573 59.9646 64.3716 59.9045 64.8779Z" fill="#1E1E1E"/>
<path d="M51.8653 79.8609C54.0914 77.5774 53.1765 73.6375 51.8899 71.3321C52.1796 73.7167 52.8635 77.2737 51.8653 79.8609Z" fill="#464646"/>
<path d="M40.0021 68.1646C40.0609 70.1662 40.4727 75.3499 43.0474 77.4526C38.7781 75.4845 38.2428 70.0097 40.0021 68.1646Z" fill="#464646"/>
<path d="M46.3089 78.0962C44.372 76.4444 42.8305 73.4571 42.3684 72.6913C41.8924 75.5379 44.0603 77.5726 46.3089 78.0962Z" fill="#464646"/>
<path d="M56.0385 59.166C54.6 57.4746 49.5715 58.5764 48.7456 59.5448C45.9768 62.5736 43.01 63.1103 37.7313 62.3259C40.2365 67.3433 45.6275 67.0152 49.3014 64.0148C49.3331 64.4136 49.58 64.9959 49.6116 65.3946C50.4012 65.2316 51.0594 64.6777 51.4027 63.9482C51.4344 64.3469 51.5578 64.6381 51.781 64.9213C51.781 64.9213 53.0895 63.7139 53.1812 63.6063C53.3205 64.0968 53.5674 64.679 53.9899 64.9464C54.2573 64.5239 54.5167 64.0017 54.5768 63.4954C54.7082 63.8862 55.0389 64.2612 55.3617 64.5365C55.6291 64.114 55.8047 63.7991 55.9724 63.3845C57.9806 65.9334 62.7227 63.751 63.1749 60.6053C59.9724 61.9632 56.9786 60.897 56.0385 59.166Z" fill="#323232"/>
<path d="M42.8337 63.4246C45.5965 64.108 48.6993 62.758 48.9238 60.5332C47.4318 61.9558 45.0189 63.1507 42.8337 63.4246Z" fill="#464646"/>
<path d="M54.5006 57.4835C54.162 57.0088 52.2502 53.1481 52.5381 51.7208C53.7343 51.6258 54.8658 53.2412 55.5352 54.0909C56.6508 55.507 55.0592 56.9375 54.5006 57.4835Z" fill="#E6BBA8"/>
<path d="M54.0403 54.2092C53.5749 52.1396 53.3881 51.051 51.6935 51.1856C49.0019 51.3995 48.716 56.6386 48.4882 57.5595C48.3443 58.2731 48.2241 59.2858 48.6704 59.8523C49.0091 60.3269 49.5233 60.4867 50.0297 60.5468C50.6357 60.599 50.9268 60.4755 51.5091 60.2286C51.8003 60.1052 52.199 60.0735 52.506 60.1494C52.6215 60.3409 52.3304 60.4643 52.3462 60.6637C52.37 60.9627 52.5693 60.9469 52.7687 60.9311C53.9966 61.2348 55.2767 60.9324 56.2023 59.956C56.7608 59.4101 57.5028 58.6489 57.2322 57.7676C56.9853 57.1853 56.3634 56.9338 56.0247 56.4591C55.4709 55.8009 54.1954 54.8991 54.0403 54.2092Z" fill="#F1D2BC"/>
<path d="M55.9254 56.4677C55.4712 55.8015 54.1958 54.8997 54.0406 54.2099C53.8934 53.6197 53.7541 53.1291 53.6148 52.6386C53.5548 53.145 53.5944 53.6434 53.6102 53.8428C53.6815 54.74 54.0281 55.3143 54.5899 56.0722C56.2594 58.1465 52.6106 58.938 51.2309 59.2482C50.7324 59.2878 49.56 59.6819 48.7941 60.144C49.117 60.4193 49.5316 60.587 49.9382 60.655C50.5443 60.7072 50.8354 60.5837 51.4177 60.3368C51.7088 60.2134 52.1075 60.1817 52.4145 60.2576C52.53 60.4491 52.2389 60.5725 52.2548 60.7719C52.2785 61.071 52.4779 61.0551 52.6773 61.0393C53.9052 61.343 55.1852 61.0406 56.1108 60.0643C56.6693 59.5183 57.4114 58.7572 57.1407 57.8758C56.8938 57.2936 56.272 57.042 55.9254 56.4677Z" fill="#E6BBA8"/>
<path d="M49.9072 60.2549C50.4815 59.9084 51.8534 59.4984 52.4831 59.8496C53.0053 60.1091 52.5465 60.6471 52.2633 60.8703C52.3471 60.663 52.2316 60.4715 52.3234 60.3639C52.124 60.3797 51.9246 60.3956 51.7253 60.4114C52.1715 60.9779 50.5607 60.9052 50.2617 60.929C50.162 60.9369 49.4404 60.6933 49.3407 60.7012C49.5243 60.486 49.7157 60.3705 49.9072 60.2549Z" fill="#B37E78"/>
<path d="M66.2343 48.6252C64.5298 44.8484 62.0186 43.5432 59.8255 43.7174C57.2337 43.9233 55.4855 47.172 55.1045 51.2149C57.3134 51.24 58.2139 52.4726 59.6015 52.262C61.9861 51.9722 65.4639 50.2915 66.2343 48.6252Z" fill="#B37E78" fill-opacity="0.7"/>
<path d="M54.9298 51.5303C55.6355 51.5746 56.6165 51.296 57.3064 51.1409C57.4345 50.2279 56.9566 49.2627 56.303 48.6124C55.5134 48.7755 54.9424 50.4259 54.9298 51.5303Z" fill="#E9C4AB"/>
<path d="M65.6977 48.1665C64.2922 44.3659 61.9486 42.6461 59.8552 42.8125C57.2634 43.0184 55.7859 47.1484 55.6723 50.7688C57.1834 50.8493 58.4588 51.7511 59.9541 51.6323C61.1503 51.5373 65.087 49.3185 65.6977 48.1665Z" fill="white"/>
<path d="M55.7686 49.4569C56.2129 46.2115 57.5703 43.0942 59.8631 42.9121C62.0561 42.7378 64.3 44.4655 65.7055 48.2662C65.4381 48.6887 64.5884 49.3581 63.6391 50.0354C62.0488 48.9579 58.0059 48.577 55.7686 49.4569Z" fill="#CDCDCD"/>
<path d="M55.259 48.0925C55.4016 49.8869 56.7166 51.2871 58.3116 51.1604C59.8069 51.0416 60.9919 49.543 60.8414 47.649C60.6989 45.8547 59.3838 44.4544 57.7889 44.5811C56.1939 44.7079 55.1165 46.2982 55.259 48.0925Z" fill="#3FA2FF"/>
<path d="M60.8493 47.7486C60.7067 45.9543 59.3917 44.554 57.7967 44.6808C56.3014 44.7996 55.1164 46.2981 55.2669 48.1922C55.3619 49.3884 55.9395 50.3456 56.7845 50.8804C56.3462 50.4136 56.3667 49.4089 56.3508 49.2095C57.6752 48.2014 59.0708 48.0906 60.0471 49.0161C60.1627 49.2076 60.3099 49.7978 60.0425 50.2203C60.5013 49.6823 60.7449 48.9607 60.7813 48.1553C60.7654 47.9559 60.8572 47.8483 60.8493 47.7486Z" fill="#0C0B10" fill-opacity="0.3"/>
<path d="M56.2797 48.3123C56.351 49.2094 57.0045 49.8597 57.7023 49.8043C58.4001 49.7488 58.9428 49.0035 58.8794 48.206C58.8081 47.3089 58.1546 46.6586 57.4568 46.714C56.7511 46.6698 56.2084 47.4151 56.2797 48.3123Z" fill="#0D0B11"/>
<path d="M57.5997 48.5082C57.1772 48.2408 56.2041 48.6191 56.4589 49.301C56.5824 49.5922 56.69 49.684 56.8894 49.6681C57.4036 49.8279 58.2454 49.0588 57.5997 48.5082Z" fill="white"/>
<path d="M55.2008 48.5995C54.9599 44.3051 56.9312 41.3396 60.3126 40.9707C62.1987 40.7205 64.9331 42.3089 66.2817 47.9197C58.427 47.5406 59.7289 43.7255 55.2008 48.5995Z" fill="#F4D5BF"/>
<path d="M63.4258 47.3443C62.9115 47.1846 58.8053 46.0061 58.7056 46.014C57.4335 46.416 56.2531 46.7104 54.973 47.0128C55.5916 45.9605 56.6169 44.9762 57.6896 44.59C58.87 44.2956 63.239 46.2557 64.0682 46.5911C64.8894 46.8268 65.6948 46.8631 66.5999 46.8915C65.4274 47.2856 64.4464 47.5642 63.4258 47.3443Z" fill="#F4D5BF"/>
<path d="M63.4276 47.3445C62.9133 47.1848 58.8071 46.0063 58.7074 46.0142C57.4353 46.4162 56.2549 46.7107 54.9748 47.013C55.5934 45.9607 56.6187 44.9764 57.6914 44.5902C58.8718 44.2958 63.2408 46.2559 64.07 46.5913C64.8912 46.827 66.0036 46.9392 66.809 46.9756C66.5575 47.5974 64.4482 47.5644 63.4276 47.3445Z" fill="#B37E78" fill-opacity="0.7"/>
<path d="M57.5905 44.5983C57.9813 44.4669 58.6949 44.6109 59.5162 44.8465C58.7424 45.209 57.8769 45.679 57.9165 46.1774C56.9355 46.456 55.8548 46.7425 54.8738 47.0211C55.4924 45.9688 56.5177 44.9845 57.5905 44.5983Z" fill="#B37E78"/>
<path d="M58.7535 46.6121C57.9718 46.8749 56.532 47.6915 54.9641 49.4211C54.9324 49.0223 55.1918 48.5001 55.2678 48.1932C56.1854 47.1171 56.8199 46.2642 58.2676 45.5473C60.4402 46.3778 63.6176 47.2288 66.0814 47.9359C65.6463 48.773 64.8884 49.3348 63.9153 49.713C64.2745 49.1829 64.3741 49.175 64.4342 48.6686C64.0876 48.0943 60.9103 47.2433 58.7535 46.6121Z" fill="#0D0B11"/>
<path d="M33.0329 51.163C34.5105 47.033 37.2826 45.308 39.7747 45.11C42.865 44.8645 45.3036 47.7805 46.3103 51.6128C43.7343 52.0181 42.9401 53.3853 41.1457 53.5278C38.4463 53.642 34.1565 52.6787 33.0329 51.163Z" fill="#B37E78" fill-opacity="0.7"/>
<path d="M46.6338 51.8868C45.8442 52.0499 44.6321 51.9456 43.735 52.0168C43.4564 51.0358 43.8835 50.099 44.5259 49.3458C45.6224 49.2587 46.447 50.7982 46.6338 51.8868Z" fill="#E9C4AB"/>
<path d="M33.4931 50.6249C34.5798 46.6263 37.0211 44.5263 39.613 44.3204C42.7032 44.0749 45.0059 47.8042 45.6976 51.4609C43.9271 51.9025 42.6027 52.9106 40.8084 53.0531C39.3052 53.0723 34.3698 51.5584 33.4931 50.6249Z" fill="white"/>
<path d="M45.3797 49.9813C44.4285 46.8468 42.2968 44.0067 39.6053 44.2206C37.0135 44.4265 34.5721 46.5264 33.4854 50.5251C33.8162 50.9001 34.9602 51.4111 36.204 51.9141C37.9112 50.675 42.6407 49.597 45.3797 49.9813Z" fill="#CDCDCD"/>
<path d="M35.6137 49.5526C35.7563 51.347 37.2707 52.7314 39.1647 52.5809C40.9591 52.4383 42.3435 50.9239 42.193 49.0299C42.0504 47.2355 40.536 45.8511 38.642 46.0016C36.8477 46.1442 35.5709 47.7503 35.6137 49.5526Z" fill="#3FA2FF"/>
<path d="M42.2007 49.1296C42.0582 47.3352 40.5438 45.9508 38.6497 46.1013C36.8554 46.2439 35.471 47.7583 35.6215 49.6523C35.7165 50.8486 36.3938 51.7979 37.4382 52.3168C36.9002 51.858 36.6137 50.7773 36.6975 50.57C38.2292 49.6458 40.6058 49.2563 41.7815 50.166C41.897 50.3575 41.6693 51.2784 41.4019 51.7009C41.9604 51.155 42.3037 50.4255 42.34 49.6201C42.2245 49.4286 42.2087 49.2293 42.2007 49.1296Z" fill="#0C0B10" fill-opacity="0.3"/>
<path d="M37.0246 49.6412C37.0959 50.5384 37.8492 51.1807 38.6467 51.1174C39.5438 51.0461 40.1862 50.2929 40.1228 49.4954C40.0515 48.5982 39.2983 47.9558 38.5008 48.0192C37.7033 48.0826 37.061 48.8358 37.0246 49.6412Z" fill="#0D0B11"/>
<path d="M38.2378 49.7454C37.7156 49.4859 36.5431 49.88 36.7979 50.562C36.9214 50.8531 37.1287 50.937 37.336 51.0208C38.0496 51.1648 38.991 50.3877 38.3454 49.8372C38.3454 49.8372 38.2457 49.8451 38.2378 49.7454Z" fill="white"/>
<path d="M45.914 49.1364C45.5734 44.8499 42.7598 42.2646 38.8642 42.4738C36.6711 42.6481 33.7155 44.5882 32.8789 50.473C41.9629 48.6478 39.8755 45.102 45.914 49.1364Z" fill="#F4D5BF"/>
<path d="M36.0963 49.3141C36.6786 49.0672 41.3368 47.092 41.4365 47.0841C42.9556 47.2644 44.4667 47.3449 45.9778 47.4255C45.1011 46.492 43.8336 45.6899 42.4222 45.6014C41.0107 45.5129 36.2165 48.3014 35.2513 48.7793C34.3779 49.1497 33.2893 49.3365 32.4001 49.5074C33.7197 49.7035 34.9318 49.8079 36.0963 49.3141Z" fill="#F4D5BF"/>
<path d="M36.0963 49.3141C36.6786 49.0672 41.3368 47.092 41.4365 47.0841C42.9556 47.2644 44.4667 47.3449 45.9778 47.4255C45.1011 46.492 43.8336 45.6899 42.4222 45.6014C41.0107 45.5129 36.2165 48.3014 35.2513 48.7793C34.3779 49.1497 32.6073 49.5913 31.7181 49.7622C31.7656 50.3604 34.9318 49.8079 36.0963 49.3141Z" fill="#B37E78" fill-opacity="0.7"/>
<path d="M42.5229 45.5934C42.0166 45.5333 41.2349 45.7961 40.2698 46.274C41.2904 46.4939 42.3189 46.8134 42.3506 47.2121C43.5627 47.3165 44.7747 47.4208 45.9789 47.4254C45.1022 46.4919 43.8347 45.6898 42.5229 45.5934Z" fill="#B37E78"/>
<path d="M41.3921 47.7911C42.3051 47.9192 44.0552 48.4823 46.2674 49.8113C46.2358 49.4125 45.8971 48.9379 45.674 48.6546C44.4982 47.7449 43.5377 47.0187 41.7037 46.6628C39.5899 47.8339 35.6895 49.2473 32.8779 50.4738C33.4397 51.2317 34.3685 51.5592 35.6882 51.7553C35.2498 51.2885 35.0505 51.3044 34.9112 50.8139C35.4618 50.1682 39.063 48.7786 41.3921 47.7911Z" fill="#0D0B11"/>
<path d="M46.8688 44.7461C46.5064 43.9724 46.1439 43.1986 45.4065 42.7556C43.7482 42.0849 35.9978 40.4937 35.3997 40.5413C34.0041 40.6521 32.6197 42.1666 32.2084 43.3027C36.3318 42.1726 44.7721 43.6086 46.8688 44.7461Z" fill="#323232"/>
<path d="M55.0319 40.1854C55.1679 39.3721 55.4036 38.5508 55.8703 38.1125C57.0032 37.2199 62.8338 34.8507 63.2405 34.9187C64.345 34.9313 65.5603 36.3394 66.0462 37.4043C62.7691 36.5612 56.4321 38.8704 55.0319 40.1854Z" fill="#323232"/>
<path d="M61.3774 12.6976C62.2554 11.1231 62.9975 10.3619 63.719 10.6055C64.5152 13.0502 64.0708 16.2956 61.8288 18.3797L61.3774 12.6976Z" fill="#1E1E1E"/>
<path d="M25.7364 61.5738C23.0448 61.7876 20.4577 60.7894 18.6283 59.2294C22.1542 64.4666 27.9379 67.819 33.0601 70.4215C29.8795 68.2667 27.2936 64.7605 25.7364 61.5738Z" fill="#1E1E1E"/>
<path d="M72.5077 29.0672C72.6768 26.1446 68.57 18.6464 67.1189 18.0594C66.7043 17.8918 64.1442 18.4964 62.4654 18.8304C62.9176 15.6847 63.6829 8.90282 61.4073 6.77638C59.2235 4.54232 37.3587 2.0663 30.6672 3.70143C20.2352 6.23564 8.51567 15.2923 6.40015 34.119C5.31945 34.4055 4.33051 34.5844 3.23396 34.6715C4.1945 35.3977 5.33856 35.9087 6.35918 36.1286C6.83249 38.2979 8.23465 40.7947 9.75697 42.2788C9.86458 42.3705 9.44071 44.6111 9.57208 45.002C9.73513 45.7915 13.3449 50.8214 14.9147 52.9036C15.2752 49.8655 19.5947 47.4157 22.8057 52.4773C22.8374 52.8761 22.8849 53.4742 23.1318 54.0564C24.7506 54.2288 26.2696 54.409 27.2823 54.5292C26.8849 52.0529 26.9524 45.3264 28.1295 43.7282C27.332 43.7915 26.6421 43.9467 25.8446 44.01C26.044 43.9942 28.8696 39.1552 29.8031 38.2785C28.4075 38.3894 27.0119 38.5003 25.7081 38.5035C26.1827 38.1649 27.9058 37.1251 28.871 36.6472C28.1937 35.6979 27.5084 34.6488 26.9229 33.5919C28.9668 29.0156 34.7625 24.9438 37.9287 24.3913C40.5047 23.986 48.7964 27.3398 51.4595 28.031C53.3219 27.4818 58.499 24.4623 61.5259 23.4193C61.6731 24.0095 61.5054 24.424 61.6526 25.0142C61.9358 24.7911 62.3346 24.7594 62.8171 24.5205C62.7333 24.7277 62.8568 25.0189 63.0878 25.4018C63.5783 25.2625 64.2682 25.1074 64.659 24.976C65.2762 26.4317 67.8132 31.8478 67.7405 33.4586C67.7801 33.957 67.217 35.7071 66.5145 36.9667C66.8136 36.9429 67.312 36.9033 67.8184 36.9634C67.5464 38.5901 67.5892 40.3924 67.8632 42.5775C68.5875 37.8052 69.5573 36.1231 71.4164 34.27C71.2691 33.6798 70.8308 33.2131 70.5001 32.8381C71.8006 31.531 72.5473 29.5656 72.5077 29.0672Z" fill="#323232"/>
<path d="M27.7001 34.5335C27.477 34.2502 27.246 33.8673 27.1146 33.4765C27.5417 32.5397 28.0765 31.6947 28.7109 30.8418C22.2934 34.6621 15.1668 37.1343 8.89912 36.5288C15.9391 39.2799 24.697 35.8755 27.7001 34.5335Z" fill="#1E1E1E"/>
<path d="M62.6325 5.77658C63.525 6.90945 63.7435 8.39681 63.6629 9.90794C63.6649 13.7198 61.5641 20.1062 57.8334 24.9168C59.1815 24.2078 60.6371 23.5906 61.7099 23.2044C61.7179 23.3041 61.7258 23.4038 61.7258 23.4038C64.5547 19.8686 65.7411 15.8621 65.3688 11.1768C65.3101 9.17518 64.275 6.24797 62.6325 5.77658Z" fill="#323232"/>
<path d="M66.3747 15.0093C66.2195 14.3194 65.9726 13.7371 65.4267 13.1786C65.3936 15.2878 63.5649 20.0476 60.6442 23.6904C61.035 23.559 61.3262 23.4356 61.6173 23.3122C61.6252 23.4118 61.6332 23.5115 61.6411 23.6112C63.9748 21.4195 67.1107 17.9602 66.3747 15.0093Z" fill="#1E1E1E"/>
<path d="M27.748 56.599C27.142 56.5469 24.9251 56.4221 24.1957 56.0788C23.9725 55.7955 23.8332 55.305 23.7177 55.1136C24.838 55.3255 26.7558 55.4741 27.4615 55.5183C27.5771 55.7098 27.6008 56.0088 27.748 56.599Z" fill="#1E1E1E"/>
<path d="M10.9438 47.0995C12.1908 48.9064 13.9996 51.4712 15.0077 52.7955C15.18 51.1767 16.5724 49.762 18.2591 49.5277C15.7954 48.8206 13.3237 48.0138 10.9438 47.0995Z" fill="#1E1E1E"/>
<path d="M20.9211 50.2195C21.5588 50.6704 22.32 51.4124 22.8976 52.3697C22.9293 52.7684 22.9768 53.3665 23.2237 53.9488C24.8425 54.1211 26.3615 54.3014 27.3742 54.4216C27.2191 53.7317 27.132 52.6351 27.1445 51.5307C25.1112 51.1907 22.9703 50.7589 20.9211 50.2195Z" fill="#1E1E1E"/>
<path d="M15.113 46.5666C20.0167 47.6817 24.6181 47.5167 27.4219 46.1905C27.6338 45.0702 27.8536 44.0496 28.2207 43.6191C27.5229 43.6746 26.833 43.8297 26.0355 43.8931C23.1638 45.626 19.4232 46.5251 15.113 46.5666Z" fill="#1E1E1E"/>
<path d="M26.332 42.5664C24.1851 45.8468 18.1881 46.1226 14.2053 45.2353C18.5994 44.9865 23.245 44.1158 26.332 42.5664Z" fill="#464646"/>
<path d="M20.7548 48.1261C22.7201 48.8728 25.0604 49.2888 27.1617 49.2221C27.2218 48.7158 27.1901 48.3171 27.2502 47.8107C25.1727 48.1764 22.9716 48.251 20.7548 48.1261Z" fill="#1E1E1E"/>
<path d="M26.6968 38.3238C23.73 38.8604 21.146 39.166 17.1507 39.3832C20.2205 40.1424 24.9453 40.2686 28.7175 39.7682C29.2602 39.0229 29.6114 38.3931 29.8946 38.17C28.7981 38.2571 27.8012 38.3363 26.6968 38.3238Z" fill="#1E1E1E"/>
<path d="M11.5962 38.9228C16.1758 42.2706 24.9956 42.1718 28.8088 39.6619C28.8009 39.5622 28.9006 39.5543 28.8927 39.4546C25.5826 40.7207 14.1676 39.7217 11.5962 38.9228Z" fill="#464646"/>
<path d="M27.209 34.6719C22.0603 36.7863 11.8322 38.1005 6.97276 36.2797C13.8563 40.8489 22.5098 38.6566 27.209 34.6719Z" fill="#464646"/>
<path d="M7.30106 29.0304C6.92936 30.665 6.65734 32.2917 6.50085 34.1098C9.74296 33.2503 12.9422 30.5886 16.2108 25.0121C17.7992 22.2778 18.9493 19.0766 21.623 14.8516C17.8131 18.6653 16.4558 21.7826 14.6521 24.3335C12.5653 27.1075 9.9609 28.4179 7.30106 29.0304Z" fill="#1E1E1E"/>
<path d="M29.3379 5.91406C23.1369 7.4099 14.6655 11.8949 10.1999 26.3942C13.7326 19.0914 24.0769 9.14088 29.3379 5.91406Z" fill="#464646"/>
<path d="M18.8443 11.461C19.5738 11.8043 20.3112 12.2473 21.0486 12.6903C22.1656 11.5984 23.1988 10.7138 24.2241 9.72951C23.6939 9.37037 23.1638 9.01123 22.6258 8.5524C21.3853 9.35316 20.1607 10.3533 18.8443 11.461Z" fill="#5A5A5A"/>
<path d="M38.916 5.25195C30.6137 6.81443 20.2059 15.9675 18.8584 22.9963C21.6682 17.9579 32.9573 8.53422 38.916 5.25195Z" fill="#464646"/>
<path d="M14.863 32.041C20.6858 29.5721 23.7583 25.3153 24.5934 21.9386C25.6643 17.7406 30.2288 12.0612 35.0039 7.76953C27.3505 11.1864 24.6008 15.7185 22.8401 20.0716C21.3308 23.8028 19.3265 28.8775 14.863 32.041Z" fill="#464646"/>
<path d="M21.4493 25.2989C23.4001 23.3382 30.5322 10.834 35.5938 7.62305C28.7378 10.9766 22.6417 17.5802 21.4493 25.2989Z" fill="#5A5A5A"/>
<path d="M27.7613 16.3719C28.3958 15.5189 29.0223 14.5663 29.7564 13.7055C29.1424 13.5536 28.4367 13.5094 27.8228 13.3575C26.989 14.2263 26.2548 15.0871 25.5286 16.0477C26.2344 16.0919 26.948 16.2358 27.7613 16.3719Z" fill="#787878"/>
<path d="M60.492 17.9836C62.0804 15.2492 62.7209 10.6842 60.7001 9.23967C57.6112 6.97721 44.1285 10.2554 36.3508 22.2089L60.492 17.9836Z" fill="#464646"/>
<path d="M58.4152 24.669C61.9149 19.4755 62.2768 13.9294 59.7259 12.1258C54.5165 8.42674 36.9454 14.5376 29.3531 30.0878C32.0222 27.0669 35.7516 24.7643 38.1282 24.3748C40.7042 23.9695 48.9959 27.3234 51.659 28.0146C52.9232 27.5129 55.8108 25.9794 58.4152 24.669Z" fill="#1E1E1E"/>
<path d="M53.2022 4.51851C45.0392 6.5715 35.161 9.76391 29.5256 19.6413C25.6542 26.4694 20.9663 31.8576 14.9884 33.6366C23.1184 33.6929 28.5656 25.2349 31.7061 20.5715C34.5555 16.0316 48.7592 6.67719 59.6329 5.91356C58.0901 5.43425 55.8416 4.9107 53.2022 4.51851Z" fill="#464646"/>
<path d="M37.1741 13.6164C38.3829 12.4169 42.1723 9.60793 47.7402 6.45703C37.1563 9.6052 29.557 16.2279 23.4377 28.8522C28.5593 25.1349 32.8974 17.8685 37.1741 13.6164Z" fill="#5A5A5A"/>
<path d="M32.9651 14.9547C33.6867 15.1983 34.4082 15.4419 35.2295 15.6776C35.8718 14.9243 36.5221 14.2708 37.1724 13.6172C37.3559 13.402 37.7309 13.0713 38.1138 12.8402C37.4002 12.6963 36.5948 12.66 35.8811 12.516C34.84 13.301 33.8986 14.078 32.9651 14.9547Z" fill="#787878"/>
<path d="M53.5946 10.7067C48.4948 10.9113 36.2354 15.6973 30.0289 27.2251C40.3337 16.7761 50.5519 11.5503 57.31 12.0165C58.8212 12.0971 59.7342 12.2252 61.1885 14.116C60.1455 11.0891 56.4934 10.5767 53.5946 10.7067Z" fill="#5A5A5A"/>
<path d="M43.8896 16.0922C45.0383 15.3991 46.1949 14.8056 47.2598 14.3197C46.9132 13.7454 46.5666 13.171 46.22 12.5967C44.9558 13.0984 43.6995 13.6998 42.459 14.5005C43.0049 15.0591 43.4512 15.6255 43.8896 16.0922Z" fill="#787878"/>
<path d="M55.8704 12.8339C59.57 13.9443 60.4314 20.9983 56.0029 25.8643C56.7766 25.5019 57.6421 25.0319 58.4159 24.6694C58.5915 24.3545 58.8668 24.0317 59.0424 23.7168C61.7445 18.5867 60.0572 12.5012 55.8704 12.8339Z" fill="#323232"/>
<path d="M62.7483 5.96768C67.9148 7.86444 66.0574 28.6769 53.7862 25.7396C62.1281 24.6756 67.6004 14.0086 62.7483 5.96768Z" fill="#464646"/>
<path d="M57.7405 25.0246C58.8826 21.7237 59.3158 17.0748 55.9674 15.3345C51.6744 13.0675 38.3864 17.5339 30.8398 29.8704C39.8883 20.0228 50.0893 17.1057 52.9913 18.2795C55.4789 19.2857 54.7308 23.759 52.8228 27.5219C54.1709 26.8129 56.0016 25.8649 57.7405 25.0246Z" fill="#323232"/>
<path d="M57.7421 25.0236C58.8842 21.7228 59.3174 17.0739 55.969 15.3336C52.9356 13.769 45.6459 15.4516 38.9405 20.6992C49.6096 14.8357 58.8995 15.6024 57.5506 25.1392C57.6424 25.0316 57.7421 25.0236 57.7421 25.0236Z" fill="#464646"/>
<path d="M45.8876 17.239C40.1851 18.6952 29.9972 26.8277 28.5169 35.9736C34.2692 23.7797 45.7675 18.2517 55.0699 17.9138C52.6584 16.6007 49.1298 16.3795 45.8876 17.239Z" fill="#5A5A5A"/>
<path d="M50.3656 16.7812C48.9542 16.6927 47.3671 16.9191 45.9873 17.2294C46.633 17.78 47.4938 18.5141 48.0477 19.1723C49.1284 18.8858 50.1094 18.6072 51.0984 18.4283C50.8594 17.9457 50.6046 17.2638 50.3656 16.7812Z" fill="#787878"/>
<path d="M49.6224 20.0503C46.616 20.0886 43.5132 21.4386 41.2553 23.3233C38.3314 25.6622 33.9234 29.5235 36.158 33.6595C35.414 30.6088 38.3981 27.7636 40.572 26.0861C42.2713 24.7473 51.5323 20.0992 51.6959 27.2086C54.0785 23.107 52.6367 20.1118 49.6224 20.0503Z" fill="#323232"/>
<path d="M49.6222 20.0512C46.6158 20.0894 43.513 21.4394 41.2551 23.3242C40.222 24.2088 38.8976 25.2168 37.8961 26.5002C44.0589 21.9979 51.3485 20.3153 52.7335 25.1207C53.5007 22.1506 52.0305 20.0605 49.6222 20.0512Z" fill="#464646"/>
<path d="M49.1978 22.2914C49.8038 22.3435 50.3181 22.5033 50.7406 22.7707C51.0918 22.1409 51.3354 21.4193 51.4715 20.606C50.9413 20.2469 50.3274 20.095 49.522 20.0587C49.3226 20.0745 49.2229 20.0824 49.0236 20.0983C49.1866 20.8879 49.242 21.5857 49.1978 22.2914Z" fill="#5A5A5A"/>
<path d="M61.8361 24.7989L61.8441 24.8986C62.1273 24.6755 62.526 24.6438 63.0086 24.4048C62.9248 24.6121 63.0482 24.9033 63.2793 25.2862C63.7698 25.1469 64.4597 24.9917 64.8505 24.8604C64.966 25.0518 64.9818 25.2512 65.1053 25.5423C66.5498 23.5216 67.5718 21.2334 68.6492 19.6431C68.4261 19.3599 68.3105 19.1684 68.0953 18.9849C65.8817 20.1639 63.8312 22.1325 61.8361 24.7989Z" fill="#1E1E1E"/>
<path d="M72.1035 26.4903C69.991 25.1534 67.6745 25.0365 65.0985 25.4418C65.2299 25.8326 65.4688 26.3152 65.7078 26.7978C68.0877 27.7122 70.2398 29.5475 71.4109 31.6614C72.1292 30.6012 72.5326 29.3653 72.6006 28.9587C72.561 28.4602 72.3821 27.4713 72.1035 26.4903Z" fill="#1E1E1E"/>
<path d="M65.5989 26.7057C65.6068 26.8054 65.7145 26.8971 65.7224 26.9968C67.7194 28.1423 70.1342 30.7592 70.5838 32.6295C71.1423 32.0835 71.5853 31.3461 71.9286 30.6166C70.8413 28.2955 68.4377 27.082 65.5989 26.7057Z" fill="#464646"/>
<path d="M66.5248 16.9023C67.6214 16.8152 67.8128 16.6997 68.3429 17.0588C69.6025 17.7613 67.6107 21.7315 64.0603 25.0231C64.3514 24.8996 64.5508 24.8838 64.8419 24.7603C64.9574 24.9518 65.073 25.1432 65.1964 25.4344C71.9349 18.0775 69.7557 14.6393 66.5248 16.9023Z" fill="#464646"/>
</svg>
