<svg width="93" height="95" viewBox="0 0 93 95" fill="none" xmlns="http://www.w3.org/2000/svg">
<path d="M28.6027 19.9784C29.5027 14.7784 23.4027 6.57836 21.3027 3.47836C34.1027 0.978365 34.4027 10.2784 28.6027 19.9784Z" fill="#323232"/>
<path d="M6.00347 23.2791C3.70347 22.0791 1.40347 20.3791 1.00347 17.9791C0.403469 14.1791 2.50347 6.67913 6.50347 3.57913C10.2035 0.679132 15.2035 0.079132 19.8035 1.17913C27.3035 2.97913 29.5035 12.3791 30.7035 21.8791C27.9035 23.6791 25.4035 24.7791 24.1035 26.1791C18.9035 25.4791 8.80347 24.7791 6.00347 23.2791Z" fill="#323232"/>
<path d="M10.0039 7.07891C11.0039 6.67891 12.1039 6.37891 13.2039 6.37891C12.6039 6.07891 12.0039 5.67891 11.4039 5.37891C12.0039 5.07891 12.6039 4.87891 13.3039 4.77891C12.0039 3.77891 12.9039 2.27891 17.0039 3.07891C16.8039 2.57891 16.4039 2.17891 16.0039 1.87891C18.8039 1.87891 21.6039 2.87891 23.6039 4.57891C22.5039 4.37891 21.4039 4.27891 20.3039 4.37891C21.7039 4.57891 24.2039 6.47891 25.5039 9.87891C23.5039 6.57891 20.0039 5.47891 16.3039 5.27891C17.2039 5.57891 18.7039 8.37891 18.0039 10.2789C17.2039 8.17891 11.5039 6.97891 10.0039 7.07891Z" fill="#464646"/>
<path d="M24.104 26.2786C23.304 26.1786 22.404 26.0786 21.504 25.9786C20.604 25.3786 19.704 24.8786 18.904 24.8786C8.90397 24.2786 -0.0960229 20.0786 4.50398 16.9786C6.40398 15.6786 10.104 15.1786 12.204 16.2786C17.104 18.8786 21.004 21.3786 24.304 26.1786C24.204 26.0786 24.104 26.1786 24.104 26.2786Z" fill="#1E1E1E"/>
<path d="M9.30438 21.6791C3.80438 22.3791 3.00438 24.9791 3.30438 27.3791C3.60438 29.8791 9.40439 33.0791 15.5044 31.0791C17.7044 30.3791 20.0044 27.8791 21.6044 26.3791C18.1044 24.1791 14.1044 21.0791 9.30438 21.6791Z" fill="#323232"/>
<path d="M19.3035 28.5801C16.3035 28.3801 13.4035 28.2801 10.4035 28.3801C10.1035 28.3801 9.80351 28.3801 9.40351 28.3801C9.10351 28.3801 8.90352 28.2801 8.60352 28.1801C7.40352 27.6801 6.20351 27.1801 5.70351 26.1801C5.10351 25.1801 5.60351 23.6801 6.80351 23.3801C6.30351 23.2801 5.70352 23.0801 5.10352 22.9801C6.00352 22.3801 7.30351 21.9801 9.20351 21.6801C9.40351 21.6801 9.70351 21.6801 9.90351 21.5801C10.4035 22.7801 10.1035 24.1801 9.20351 25.1801C13.1035 24.9801 17.0035 25.8801 20.3035 27.4801C20.1035 27.8801 19.7035 28.1801 19.3035 28.5801Z" fill="#464646"/>
<path d="M7.90373 28.4792C8.10373 27.9792 8.60373 27.6792 9.10373 27.4792C10.1037 27.0792 11.2037 26.7792 12.3037 26.6792C13.2037 26.5792 14.2037 26.6792 15.1037 26.6792C17.1037 26.7792 19.0037 26.8792 21.0037 26.9792C20.6037 27.3792 20.1037 27.8792 19.6037 28.3792C18.9037 28.5792 18.3037 28.7792 17.6037 28.8792C15.0037 29.6792 12.4037 30.7792 9.60373 30.0792C8.60373 29.9792 7.60373 29.2792 7.90373 28.4792Z" fill="#1E1E1E"/>
<path d="M5.00394 25.1793C5.30394 24.7793 5.50394 24.3793 6.00394 23.9793C6.40394 23.6793 6.90394 23.3793 7.40394 23.1793C8.40394 22.7793 9.50394 22.6793 10.6039 22.8793C10.8039 22.8793 10.7039 23.1793 10.6039 23.1793C9.70394 23.2793 8.70394 23.4793 7.90394 23.8793C7.50394 24.0793 7.10394 24.2793 6.70394 24.4793C6.30394 24.7793 5.90394 24.9793 5.60394 25.2793C5.30394 25.5793 4.90394 25.4793 5.00394 25.1793Z" fill="#5A5A5A"/>
<path d="M24.9039 25.4783C23.2039 11.8783 15.4039 4.17833 2.50391 9.27833C2.50391 9.27833 2.50391 9.17833 2.60391 9.17833C17.0039 2.47833 23.0039 12.1783 27.6039 23.8783C26.6039 24.3783 25.7039 24.9783 24.9039 25.4783Z" fill="#1E1E1E"/>
<path d="M26.8027 24.9797C27.4027 15.8797 24.7027 10.7797 19.3027 8.17969C22.6027 10.4797 26.4027 17.4797 26.8027 24.9797Z" fill="#1E1E1E"/>
<path d="M18.7043 12.7792C17.2043 11.4792 15.4043 10.1792 13.3043 10.0792C14.4043 10.1792 15.0043 11.3792 14.5043 12.2792C14.0043 13.1792 12.7043 13.4792 11.6043 13.2792C12.3043 13.5792 12.8043 14.0792 13.1043 14.5792C10.9043 13.9792 8.5043 13.6792 6.1043 13.6792C7.1043 13.0792 8.3043 12.7792 9.5043 12.8792C9.1043 12.7792 8.8043 12.4792 8.6043 12.1792C9.0043 11.9792 9.50429 11.8792 9.90429 11.7792C10.3043 11.6792 10.8043 11.3792 10.9043 10.9792C11.3043 9.17916 4.6043 10.3792 1.9043 11.2792C2.0043 10.9792 2.1043 10.6792 2.2043 10.4792C5.8043 7.87916 14.6043 6.57916 18.7043 12.7792Z" fill="#464646"/>
<path d="M2.30424 16.0784C2.70424 15.6784 3.20424 15.2784 3.80424 14.8784C4.10424 14.6784 4.40424 14.5784 4.70424 14.4784C4.90424 14.3784 5.00424 14.3784 5.20424 14.3784C5.40424 14.3784 5.50424 14.2784 5.70424 14.3784C5.90424 14.4784 5.90424 14.6784 5.80424 14.7784C5.70424 14.8784 5.50424 14.8784 5.40424 14.9784C5.30424 14.9784 5.10424 15.0784 5.00424 15.0784C4.70424 15.1784 4.40424 15.2784 4.10424 15.3784C3.60424 15.6784 3.10424 15.9784 2.60424 16.3784C2.40424 16.5784 2.10424 16.2784 2.30424 16.0784Z" fill="#464646"/>
<path d="M19.6028 19.1801C19.2028 18.8801 18.9028 18.4801 18.6028 18.0801C18.2028 17.6801 17.9028 17.3801 17.5028 16.9801C16.7028 16.2801 15.9027 15.6801 14.9027 15.1801C14.8027 15.1801 14.9028 15.0801 15.0028 15.0801C16.0028 15.5801 16.9027 16.0801 17.8027 16.7801C18.6027 17.3801 19.4027 18.1801 19.9027 19.0801C20.0027 19.1801 19.8028 19.2801 19.6028 19.1801Z" fill="#464646"/>
<path d="M14.0027 10.079C11.1027 9.37903 8.0027 9.37903 5.0027 10.079C4.7027 10.179 4.5027 9.67903 4.8027 9.57903C7.8027 8.67903 11.2027 8.67903 14.0027 9.87903C14.3027 9.87903 14.2027 10.079 14.0027 10.079Z" fill="#5A5A5A"/>
<path d="M16.1035 7.27969C15.7035 7.17969 15.3035 6.97969 14.9035 6.77969C14.5035 6.57969 14.0035 6.47969 13.6035 6.37969C13.2035 6.27969 12.8035 6.17969 12.3035 6.07969C11.8035 5.97969 11.4035 5.97969 10.9035 5.87969C10.5035 5.87969 10.5035 5.37969 10.9035 5.27969C11.4035 5.17969 11.9035 5.17969 12.4035 5.17969C12.9035 5.17969 13.4035 5.27969 13.9035 5.37969C14.4035 5.47969 14.8035 5.57969 15.2035 5.77969C15.7035 5.97969 16.2035 6.17969 16.5035 6.57969C16.8035 6.97969 16.5035 7.27969 16.1035 7.27969Z" fill="#5A5A5A"/>
<path d="M23.3043 7.9789C21.0043 5.6789 18.0043 3.6789 14.3043 3.7789C14.1043 3.7789 14.1043 3.4789 14.3043 3.3789C16.2043 3.0789 18.1043 3.4789 19.7043 4.2789C21.4043 5.0789 22.6043 6.2789 23.5043 7.7789C23.7043 7.9789 23.5043 8.0789 23.3043 7.9789Z" fill="#5A5A5A"/>
<path d="M29.4031 18.179C28.1031 11.179 26.6031 0.678988 14.2031 0.778988C16.1031 0.678988 18.0031 0.778988 19.8031 1.27899C27.3031 3.07899 29.5031 12.479 30.7031 21.979C30.5031 22.079 30.4031 22.179 30.2031 22.279C29.9031 20.879 29.6031 19.579 29.4031 18.179Z" fill="#1E1E1E"/>
<path d="M29.3035 11.5789C28.9035 11.1789 29.0035 10.2789 28.9035 9.77892C28.8035 9.17892 28.6035 8.47892 28.4035 7.87892C27.9035 6.67892 27.3035 5.47892 26.2035 4.57892C26.1035 4.47892 26.2035 4.37892 26.3035 4.47892C27.6035 5.17892 28.8035 6.17892 29.5035 7.47892C29.8035 8.07892 30.1035 8.77892 30.2035 9.47892C30.3035 10.0789 30.5035 11.1789 29.9035 11.5789C29.7035 11.7789 29.4035 11.7789 29.3035 11.5789Z" fill="#464646"/>
<path d="M22.1027 32.4785C27.1027 35.6785 39.4027 23.7785 34.5027 19.8785C33.2027 18.6785 32.0027 18.4785 30.5027 18.4785C26.8027 18.5785 20.5027 24.0785 20.3027 28.3785C20.4027 30.0785 20.5027 30.6785 22.1027 32.4785Z" fill="#F3E343"/>
<path d="M34.6023 19.8785C33.3023 18.6785 32.1023 18.4785 30.6023 18.4785C28.8023 18.5785 26.4023 19.8785 24.4023 21.6785C25.1023 22.6785 29.6023 28.0785 31.1023 29.7785C34.7023 26.6785 37.3023 22.0785 34.6023 19.8785Z" fill="#67DF42"/>
<path d="M30.6027 18.4785C29.4027 18.4785 27.8027 19.1785 26.3027 20.1785C29.1027 22.0785 31.7027 24.2785 33.9027 26.6785C35.7027 24.0785 36.4027 21.3785 34.5027 19.8785C33.3027 18.6785 32.1027 18.4785 30.6027 18.4785Z" fill="#3863C0"/>
<path d="M34.6031 19.8785C33.3031 18.6785 32.1031 18.4785 30.6031 18.4785C30.0031 18.4785 29.3031 18.6785 28.7031 18.9785C30.2031 19.5785 31.6031 20.6785 32.8031 21.6785C33.7031 22.4785 34.6031 23.2785 35.4031 24.0785C36.0031 22.4785 35.8031 20.8785 34.6031 19.8785Z" fill="#863FAC"/>
<path d="M29.0019 31.3789C26.7019 28.8789 24.6019 26.2789 22.8019 23.3789C21.5019 24.9789 20.5019 26.7789 20.5019 28.4789C20.4019 30.0789 20.6019 30.7789 22.2019 32.5789C23.9019 33.6789 26.5019 32.8789 29.0019 31.3789Z" fill="#FC7E54"/>
<path d="M20.4023 28.3793C20.3023 29.9793 20.5023 30.6793 22.1023 32.4793C23.2023 33.1793 24.6023 33.1793 26.1023 32.6793C24.1023 30.5793 22.4023 28.0793 21.4023 25.2793C20.8023 26.3793 20.4023 27.4793 20.4023 28.3793Z" fill="#DD312E"/>
<path d="M67.0031 17.4795C66.5031 12.6795 72.7031 5.57954 74.9031 2.97954C63.3031 -0.320464 62.4031 8.17953 67.0031 17.4795Z" fill="#323232"/>
<path d="M87.7023 22.1781C89.9023 21.2781 92.1023 19.8781 92.6023 17.7781C93.5023 14.2781 92.0023 7.27813 88.5023 4.17813C85.3023 1.27813 80.7023 0.278134 76.4023 0.978134C69.3023 2.07813 66.7023 10.4781 64.9023 19.1781C67.3023 21.0781 69.6023 22.1781 70.7023 23.5781C75.6023 23.2781 84.9023 23.3781 87.7023 22.1781Z" fill="#323232"/>
<path d="M85.1039 7.07971C84.2039 6.57971 83.2039 6.27971 82.2039 6.17971C82.8039 5.87971 83.3039 5.67971 83.9039 5.37971C83.4039 5.07971 82.8039 4.87971 82.2039 4.67971C83.5039 3.87971 82.8039 2.47971 78.9039 2.87971C79.2039 2.47971 79.5039 2.07971 79.9039 1.77971C77.3039 1.57971 74.7039 2.27971 72.7039 3.67971C73.7039 3.57971 74.7039 3.57971 75.7039 3.67971C74.4039 3.77971 72.0039 5.27971 70.5039 8.27971C72.6039 5.37971 75.9039 4.67971 79.3039 4.77971C78.4039 4.97971 76.9039 7.37971 77.4039 9.27971C78.4039 7.47971 83.7039 6.87971 85.1039 7.07971Z" fill="#464646"/>
<path d="M70.8035 23.578C71.5035 23.578 72.3035 23.478 73.2035 23.478C74.1035 22.978 75.0035 22.678 75.7035 22.678C84.9035 22.878 93.6035 19.678 89.5035 16.478C87.8035 15.178 84.4035 14.378 82.5035 15.278C77.8035 17.278 74.0035 19.278 70.6035 23.378C70.6035 23.378 70.7035 23.478 70.8035 23.578Z" fill="#1E1E1E"/>
<path d="M84.7035 20.4789C89.8035 21.5789 90.2035 23.9789 89.8035 26.0789C89.4035 28.3789 83.8035 30.7789 78.3035 28.5789C76.3035 27.7789 74.3035 25.2789 73.1035 23.7789C76.5035 22.0789 80.4035 19.5789 84.7035 20.4789Z" fill="#323232"/>
<path d="M75.0039 26.0789C77.7039 26.0789 80.5039 26.2789 83.2039 26.5789C83.5039 26.5789 83.8039 26.6789 84.1039 26.5789C84.4039 26.5789 84.6039 26.4789 84.8039 26.3789C85.9039 26.0789 87.0039 25.6789 87.6039 24.7789C88.2039 23.8789 87.9039 22.4789 86.7039 22.1789C87.2039 22.0789 87.7039 21.9789 88.3039 21.9789C87.5039 21.3789 86.3039 20.8789 84.6039 20.4789C84.4039 20.4789 84.2039 20.3789 84.0039 20.3789C83.5039 21.4789 83.6039 22.7789 84.4039 23.7789C80.8039 23.3789 77.2039 23.7789 74.0039 25.0789C74.3039 25.3789 74.6039 25.6789 75.0039 26.0789Z" fill="#464646"/>
<path d="M85.5035 26.7785C85.4035 26.3785 84.9035 25.9785 84.5035 25.7785C83.6035 25.2785 82.6035 24.9785 81.6035 24.7785C80.8035 24.6785 79.9035 24.5785 79.0035 24.5785C77.2035 24.5785 75.4035 24.4785 73.6035 24.4785C74.0035 24.8785 74.4035 25.3785 74.8035 25.8785C75.4035 26.0785 76.0035 26.2785 76.6035 26.4785C79.0035 27.3785 81.3035 28.5785 83.9035 28.1785C84.7035 28.0785 85.7035 27.5785 85.5035 26.7785Z" fill="#1E1E1E"/>
<path d="M88.4022 23.9782C88.2022 23.5782 88.0022 23.1782 87.6022 22.8782C87.2022 22.5782 86.8022 22.2782 86.4022 22.0782C85.5022 21.6782 84.5022 21.4782 83.5022 21.5782C83.3022 21.5782 83.4022 21.8782 83.5022 21.8782C84.4022 21.9782 85.2022 22.2782 85.9022 22.6782C86.3022 22.8782 86.6022 23.0782 86.9022 23.3782C87.2022 23.6782 87.6022 23.8782 87.9022 24.1782C88.1022 24.3782 88.5022 24.2782 88.4022 23.9782Z" fill="#5A5A5A"/>
<path d="M70.0031 22.7785C72.5031 10.3785 80.2031 3.97847 91.8031 9.57847V9.47847C79.0031 2.27847 72.7031 10.6785 67.7031 21.0785C68.6031 21.6785 69.4031 22.2785 70.0031 22.7785Z" fill="#1E1E1E"/>
<path d="M68.4023 22.1789C68.5023 13.7789 71.3023 9.27891 76.5023 7.37891C73.2023 9.17891 69.3023 15.3789 68.4023 22.1789Z" fill="#1E1E1E"/>
<path d="M76.7031 11.6793C78.2031 10.6793 79.9031 9.57928 81.9031 9.57928C80.9031 9.57928 80.2031 10.6793 80.7031 11.4793C81.1031 12.2793 82.3031 12.7793 83.3031 12.5793C82.7031 12.7793 82.1031 13.1793 81.8031 13.6793C83.9031 13.2793 86.1031 13.1793 88.3031 13.3793C87.4031 12.7793 86.3031 12.4793 85.2031 12.3793C85.6031 12.2793 85.9031 12.0793 86.1031 11.7793C85.8031 11.5793 85.3031 11.4793 84.9031 11.3793C84.5031 11.2793 84.1031 10.9793 84.0031 10.5793C83.8031 8.87928 89.8031 10.4793 92.3031 11.4793C92.2031 11.1793 92.2031 10.9793 92.1031 10.6793C88.9031 8.07928 80.9031 6.27928 76.7031 11.6793Z" fill="#464646"/>
<path d="M91.6036 15.8789C91.2036 15.4789 90.8036 15.0789 90.3036 14.6789C90.1036 14.4789 89.8036 14.3789 89.5036 14.1789C89.4036 14.0789 89.2036 14.0789 89.0036 13.9789C88.8036 13.8789 88.7036 13.8789 88.5036 13.8789C88.3036 13.8789 88.3036 14.0789 88.4036 14.2789C88.5036 14.3789 88.6036 14.3789 88.8036 14.4789C88.9036 14.5789 89.1036 14.5789 89.2036 14.6789C89.5036 14.7789 89.7036 14.8789 90.0036 15.0789C90.5036 15.3789 90.9036 15.6789 91.3036 16.0789C91.4036 16.2789 91.7036 16.0789 91.6036 15.8789Z" fill="#464646"/>
<path d="M75.3039 17.4781C75.7039 17.1781 76.0039 16.8781 76.3039 16.5781C76.7039 16.2781 77.0039 15.9781 77.4039 15.6781C78.2039 15.0781 79.0039 14.5781 79.9039 14.1781C80.0039 14.1781 79.9039 14.0781 79.8039 14.0781C78.8039 14.3781 78.0039 14.8781 77.1039 15.3781C76.3039 15.8781 75.5039 16.4781 75.0039 17.2781C75.0039 17.4781 75.2039 17.5781 75.3039 17.4781Z" fill="#464646"/>
<path d="M81.203 9.47968C83.903 9.07968 86.803 9.27968 89.503 10.1797C89.803 10.2797 90.003 9.87968 89.703 9.67968C87.003 8.57968 83.803 8.37968 81.203 9.27968C80.903 9.27968 81.003 9.47968 81.203 9.47968Z" fill="#5A5A5A"/>
<path d="M79.4023 6.7793C79.8023 6.7793 80.2022 6.5793 80.6022 6.4793C81.0022 6.3793 81.4023 6.2793 81.8023 6.1793C82.2023 6.0793 82.6023 6.0793 83.0023 6.0793C83.4023 6.0793 83.9023 5.9793 84.3023 5.9793C84.6023 5.9793 84.7023 5.4793 84.3023 5.4793C83.8023 5.3793 83.4023 5.2793 82.9023 5.2793C82.4023 5.2793 82.0023 5.2793 81.5023 5.3793C81.1023 5.4793 80.6023 5.5793 80.2023 5.6793C79.8023 5.7793 79.3023 5.9793 79.0023 6.2793C78.8023 6.4793 79.1023 6.7793 79.4023 6.7793Z" fill="#5A5A5A"/>
<path d="M72.7023 6.87803C75.0023 4.97803 77.8024 3.37803 81.3024 3.67803C81.5024 3.67803 81.5024 3.37803 81.3024 3.37803C79.5024 2.97803 77.8023 3.17803 76.2023 3.77803C74.6023 4.37803 73.4023 5.37803 72.4023 6.67803C72.4023 6.87803 72.6023 6.97803 72.7023 6.87803Z" fill="#5A5A5A"/>
<path d="M66.5039 15.8789C68.2039 9.47891 70.3039 -0.0210937 81.7039 0.978906C80.0039 0.678906 78.2039 0.678906 76.5039 0.978906C69.4039 2.07891 66.8039 10.4789 65.0039 19.1789C65.1039 19.2789 65.3039 19.3789 65.4039 19.4789C65.8039 18.2789 66.1039 17.0789 66.5039 15.8789Z" fill="#1E1E1E"/>
<path d="M67.0038 9.77892C67.4038 9.47892 67.4038 8.67892 67.5038 8.17892C67.6038 7.57892 67.8038 7.07892 68.1038 6.47892C68.6038 5.37892 69.3038 4.37892 70.3038 3.57892C70.4038 3.47892 70.3038 3.37892 70.2038 3.47892C68.9038 4.07892 67.8038 4.87892 67.1038 5.97892C66.7038 6.57892 66.5038 7.17892 66.3038 7.77892C66.2038 8.27892 65.9038 9.27892 66.4038 9.77892C66.6038 9.87892 66.9038 9.87892 67.0038 9.77892Z" fill="#464646"/>
<path d="M73.7036 30.4785C68.8036 33.7785 56.2036 22.0785 61.1036 17.9785C62.4036 16.7785 63.6036 16.4785 65.1036 16.4785C68.8036 16.5785 75.2036 21.8785 75.4036 26.2785C75.4036 27.9785 75.3036 28.5785 73.7036 30.4785Z" fill="#F3E343"/>
<path d="M61.0024 17.9785C62.3024 16.7785 63.5024 16.4785 65.0024 16.4785C66.8024 16.4785 69.2024 17.7785 71.2024 19.5785C70.5024 20.5785 66.1024 26.0785 64.6024 27.7785C61.0024 24.7785 58.4024 20.1785 61.0024 17.9785Z" fill="#67DF42"/>
<path d="M65.0028 16.5784C66.2028 16.5784 67.8028 17.2784 69.3028 18.1784C66.5028 20.0784 64.0028 22.2784 61.8028 24.7784C59.9028 22.2784 59.2028 19.5784 61.1028 17.9784C62.4028 16.7784 63.6028 16.4784 65.0028 16.5784Z" fill="#3863C0"/>
<path d="M61.0033 17.9785C62.3033 16.7785 63.5033 16.4785 65.0033 16.4785C65.6033 16.4785 66.3033 16.6785 66.9033 16.8785C65.4033 17.4785 64.1033 18.5785 62.8033 19.6785C61.9033 20.4785 61.1033 21.2785 60.2033 22.1785C59.7033 20.5785 59.8033 18.9785 61.0033 17.9785Z" fill="#863FAC"/>
<path d="M66.8027 29.3793C69.1027 26.8793 71.1027 24.1793 72.9027 21.2793C74.3027 22.8793 75.2027 24.6793 75.3027 26.2793C75.4027 27.8793 75.2027 28.5793 73.6027 30.3793C72.0027 31.5793 69.3027 30.8793 66.8027 29.3793Z" fill="#FC7E54"/>
<path d="M75.3035 26.3789C75.4035 27.9789 75.2035 28.6789 73.6035 30.4789C72.5035 31.1789 71.1035 31.1789 69.6035 30.7789C71.6035 28.6789 73.2035 26.0789 74.2035 23.3789C74.9035 24.2789 75.3035 25.3789 75.3035 26.3789Z" fill="#DD312E"/>
<path d="M79.0035 46.9785C75.8035 54.5785 71.8035 53.8785 71.1035 55.8785C70.3035 58.0785 69.5035 60.1785 69.3035 62.6785C68.6035 61.9785 67.6035 61.4785 66.6035 61.5785C66.5035 61.5785 66.4035 61.5785 66.3035 61.5785C66.2035 61.5785 66.2035 61.4785 66.2035 61.4785C65.5035 60.2785 65.4035 59.1785 64.2035 58.3785C63.2035 57.5785 61.8035 57.2785 60.6035 57.7785C59.5035 58.1785 58.8035 59.2785 58.5035 60.3785C58.2035 61.4785 58.3035 62.6785 58.6035 63.7785C58.9035 65.1785 59.4035 66.5785 60.4035 67.6785C61.3035 68.7785 62.7035 69.4785 64.2035 69.3785C63.5035 71.9785 62.4035 74.4785 60.9035 76.6785C60.8035 76.1785 60.6035 75.5785 60.5035 75.0785C59.1035 77.5785 58.0035 80.2785 56.8035 82.9785C56.5035 82.5785 56.2035 82.1785 55.9035 81.8785C55.6035 82.3785 55.4035 82.8785 55.1035 83.3785C54.7035 82.9785 54.4035 82.5785 54.0035 82.0785C53.8035 82.5785 53.6035 83.0785 53.3035 83.6785C52.8035 83.2785 52.3035 82.8785 51.9035 82.4785C51.8035 82.7785 51.8035 83.0785 51.8035 83.3785C50.9035 83.1785 50.1035 82.7785 49.5035 82.0785C49.5035 82.3785 49.5035 82.6785 49.5035 82.9785C48.0035 82.7785 46.8035 82.1785 45.5035 81.4785C44.0035 80.7785 42.5035 80.2785 41.1035 79.3785C36.4035 76.1785 31.5035 73.1785 27.6035 68.9785C23.5035 64.5785 21.3035 58.9785 20.1035 53.1785C20.0035 52.6785 19.9035 52.1785 19.8035 51.6785C19.8035 51.4785 19.7035 51.2785 19.7035 51.0785C19.6035 50.7785 19.6035 50.4785 19.5035 50.1785C19.5035 49.8785 19.4035 49.6785 19.4035 49.3785C19.4035 49.1785 19.3035 48.8785 19.3035 48.6785C19.3035 48.3785 19.2035 48.0785 19.2035 47.7785C19.2035 47.6785 19.2035 47.4785 19.2035 47.3785C19.1035 45.5785 19.2035 43.8785 19.3035 42.1785C20.1035 27.5785 31.6035 17.2785 49.2035 16.9785C50.7035 16.9785 52.4035 17.7785 54.0035 17.7785C55.6035 17.7785 57.2035 17.9785 58.7035 18.2785C61.7035 18.8785 64.5035 20.0785 67.1035 21.7785C72.1035 24.9785 76.0035 29.9785 77.9035 35.6785C79.1035 39.1785 79.0035 42.9785 79.0035 46.9785Z" fill="#1E1E1E"/>
<path d="M76.9033 41.8798C76.8033 17.6798 48.3033 12.1798 31.3033 23.4798C19.4033 31.3798 20.2033 52.6798 24.7033 61.6798C28.3033 68.8798 36.9033 81.7798 56.0033 84.6798C61.7033 85.5798 64.2033 81.4798 69.5033 76.5798C73.8033 72.5798 73.8033 65.2798 74.4033 60.9798C75.4033 54.3798 78.1033 48.7798 76.9033 41.8798Z" fill="#E6BAA8"/>
<path d="M31.3033 23.4798C48.4033 12.1798 76.9033 17.6798 76.9033 41.8798C78.1033 48.6798 75.4033 54.3798 74.4033 60.9798C73.8033 65.2798 73.8033 72.5798 69.5033 76.5798C64.1033 81.4798 61.7033 85.5798 56.0033 84.6798C36.9033 81.7798 28.3033 68.8798 24.7033 61.6798C20.2033 52.6798 19.4033 31.3798 31.3033 23.4798Z" fill="#B37E78" fill-opacity="0.5"/>
<path d="M74.4025 60.9792C73.8025 65.2792 73.8025 72.5792 69.5025 76.5792C64.1025 81.4792 61.7025 85.5792 56.0025 84.6792C50.1025 83.7792 44.3025 80.4792 40.3025 76.1792C37.1025 72.5792 32.6025 63.0792 31.6025 56.0792C29.3025 40.4792 39.9025 19.8792 66.1025 28.4792C70.1025 29.7792 75.7025 34.9792 77.0025 41.8792C78.1025 48.7792 75.4025 54.3792 74.4025 60.9792Z" fill="#F4D5BF"/>
<path d="M34.6027 69.5806C32.8027 67.0806 31.1027 62.2806 31.2027 60.4806C28.1027 54.8806 23.3027 57.6806 23.3027 61.0806C23.3027 64.8806 28.4027 70.3806 34.6027 69.5806Z" fill="#F4D5BF"/>
<path d="M29.9028 66.6797C29.7028 68.4797 34.1028 67.2797 34.1028 67.2797C34.1028 67.2797 32.9028 65.0797 32.4028 64.0797C31.4028 62.0797 29.8028 59.6797 27.0028 59.6797C25.3028 59.6797 24.2028 61.3797 25.2028 63.0797C25.1028 62.0797 25.4028 61.1797 26.6028 61.3797C27.5028 61.5797 28.6028 62.1797 29.1028 62.8797C27.3028 62.7797 27.8028 64.4797 28.7028 65.1797C29.8028 65.9797 31.2028 65.1797 31.6028 66.4797C31.2028 66.8797 30.5028 66.5797 29.9028 66.6797Z" fill="#B17E78"/>
<path d="M33.4023 67.4806C33.9023 67.3806 34.2023 67.2806 34.2023 67.2806C34.2023 67.2806 33.0023 65.0806 32.5023 64.0806C32.2023 63.4806 31.9023 62.8806 31.5023 62.2806C31.3023 61.5806 31.2023 60.8806 31.3023 60.4806C28.2023 54.8806 23.4023 57.6806 23.4023 61.0806C23.4023 64.9806 28.5023 70.4806 34.7023 69.6806C34.2023 68.9806 33.8023 68.2806 33.4023 67.4806Z" fill="#E6BAA8" fill-opacity="0.5"/>
<path d="M51.0033 73.8782C50.6033 74.1782 50.6033 75.0782 50.9033 75.5782C51.3033 76.1782 52.0033 75.9782 52.6033 75.8782C52.8033 75.8782 53.1033 75.8782 53.4033 75.7782C53.5033 75.7782 54.2033 75.2782 54.2033 75.2782C53.4033 75.0782 52.9033 74.7782 52.4033 74.0782C51.9033 73.6782 51.4033 73.4782 51.0033 73.8782Z" fill="#E5BAA7"/>
<path d="M63.9023 75.379C63.9023 75.379 64.0023 75.379 63.9023 75.379C64.4023 75.679 64.9023 75.779 65.3023 75.479C65.8023 75.179 66.1023 74.479 66.0023 73.879C65.9023 73.579 65.6023 73.279 65.3023 73.379C65.2023 73.479 65.1023 73.579 65.0023 73.779C64.7023 74.279 64.4023 74.779 64.1023 75.179C64.0023 75.279 63.9023 75.279 63.9023 75.379Z" fill="#E5BAA7"/>
<path d="M64.3023 74.5789C64.0023 74.2789 62.5023 73.2789 61.6023 73.4789C61.0023 74.2789 59.9023 74.5789 58.8023 73.3789C56.5023 73.6789 53.5023 75.3789 52.4023 75.5789C52.6023 76.1789 53.1023 76.6789 53.5023 77.3789C54.2023 78.4789 55.7023 79.4789 58.8023 79.8789C60.0023 80.0789 64.8023 78.9789 63.2023 75.6789C64.1023 75.8789 64.7023 74.9789 64.3023 74.5789Z" fill="#E5988E"/>
<path d="M60.2031 77.5785C58.9031 77.5785 56.7032 76.2785 55.5032 76.3785C55.1032 76.3785 54.1031 76.8785 54.9031 77.9785C55.6031 78.3785 56.5031 78.8785 57.7031 79.2785C58.2031 79.3785 58.8031 79.2785 59.3031 79.1785C59.6031 79.0785 60.3031 78.3785 60.2031 77.5785Z" fill="#F1ACA4"/>
<path d="M57.3024 77.1793C59.3024 78.3793 55.8024 78.2793 56.1024 77.3793C56.3024 76.8793 56.9024 76.8793 57.3024 77.1793Z" fill="#FFCFCA"/>
<path d="M51.6035 75.3795C51.7035 74.6795 52.2035 74.1795 52.6035 74.9795C52.8035 75.3795 53.0035 75.4795 53.4035 75.5795C55.3035 75.8795 57.7035 75.5795 59.5035 74.9795C60.7035 74.5795 61.5035 75.3795 62.7035 75.2795C63.1035 75.2795 63.6035 75.4795 64.0035 75.2795C64.2035 75.1795 64.1035 74.9795 64.2035 74.7795C64.4035 74.4795 64.8035 74.1795 65.0035 74.5795C65.3035 75.2795 64.6035 75.6795 64.1035 75.8795C63.7035 75.9795 63.3035 75.8795 62.9035 75.8795C62.5035 75.8795 60.7035 76.8795 60.1035 76.8795C59.3035 76.6795 57.4035 76.1795 56.6035 76.1795C55.9035 76.1795 55.2035 76.2795 54.5035 76.2795C54.2035 76.2795 51.8035 76.1795 51.7035 75.7795C51.6035 75.6795 51.6035 75.5795 51.6035 75.3795Z" fill="#BE766E"/>
<path d="M60.2035 76.5789C60.8035 76.4789 61.4035 76.2789 61.8035 75.9789C61.2035 76.1789 60.6035 75.8789 60.1035 75.8789C59.6035 76.0789 58.9035 76.2789 58.1035 76.2789C58.5035 76.3789 60.1035 76.5789 60.2035 76.5789Z" fill="#4A2E2C" fill-opacity="0.4"/>
<path d="M61.904 63.1804C61.904 62.6804 61.804 62.1804 61.604 61.7804C60.804 60.2804 58.504 60.7804 57.904 62.0804C57.304 63.3804 57.604 64.9804 57.204 66.3804C56.904 67.2804 56.604 68.4804 57.404 69.2804C58.104 69.8804 59.604 69.6804 60.404 69.5804C61.704 69.4804 64.004 68.9804 63.504 67.1804C63.204 66.2804 62.504 65.5804 62.204 64.6804C62.004 64.1804 61.904 63.6804 61.904 63.1804Z" fill="#F1D2BC"/>
<path d="M57.8042 69.6806C58.0042 69.5806 58.2042 69.4806 58.4042 69.3806C58.9042 69.1806 59.8042 69.3806 59.5042 70.0806C59.5042 69.9806 60.9042 70.1806 61.4042 69.9806C62.6042 69.5806 63.4042 68.9806 63.4042 67.3806C62.9042 66.7806 61.9042 66.9806 61.4042 67.3806C60.6042 68.1806 59.9042 68.4806 58.6042 68.4806C58.1042 68.4806 56.7042 68.4806 56.9042 69.2806C57.1042 69.3806 57.4042 69.5806 57.7042 69.5806C57.7042 69.6806 57.8042 69.6806 57.8042 69.6806Z" fill="#E3B8A5"/>
<path d="M59.5043 69.9802C59.0043 69.2802 58.1043 69.5802 57.4043 69.4802C57.9043 69.1802 59.0043 68.5802 59.6043 68.7802C59.9043 68.8802 60.0043 69.0802 60.0043 69.2802C59.9043 69.4802 59.5043 70.0802 59.5043 69.9802Z" fill="#B47E78"/>
<path d="M55.1039 51.2807C53.9039 49.7807 52.0039 49.3807 50.3039 49.6807C48.5039 49.9807 46.7039 51.1807 45.5039 52.4807C46.8039 51.9807 48.4039 51.4807 49.8039 51.3807C50.6039 51.1807 53.2039 50.8807 55.1039 51.2807Z" fill="#333332"/>
<path d="M63.8027 51.2807C64.7027 49.7807 66.2027 49.3807 67.5027 49.6807C68.9027 49.9807 70.3027 51.1807 71.2027 52.4807C70.2027 51.9807 68.9027 51.4807 67.9027 51.3807C67.3027 51.1807 65.3027 50.8807 63.8027 51.2807Z" fill="#333332"/>
<path d="M71.1027 63.5785C68.9027 62.9785 67.2027 62.8785 65.3027 63.6785C64.7027 63.0785 64.1027 62.1785 63.8027 61.6785C63.9027 58.3785 65.5027 55.7785 68.3027 55.6785C70.7027 55.5785 72.9027 57.0785 73.6027 60.4785C73.4027 61.6785 72.5027 62.8785 71.1027 63.5785Z" fill="#B37E78" fill-opacity="0.7"/>
<path d="M63.7025 63.2801C63.6025 61.9801 64.1025 60.9801 64.4025 60.5801C64.8025 61.0801 65.3025 61.6801 65.4025 62.6801C65.2025 62.9801 64.2025 63.1801 63.7025 63.2801Z" fill="#E9C4AB"/>
<path d="M71.2031 63.1794C69.5031 62.4794 67.4031 62.8794 65.5031 63.2794C64.9031 62.7794 64.4031 62.0794 64.2031 61.4794C64.3031 58.1794 65.5031 54.6794 68.3031 54.5794C70.7031 54.4794 72.4031 56.6794 73.1031 60.0794C72.8031 61.3794 72.1031 62.4794 71.2031 63.1794Z" fill="white"/>
<path d="M64.3027 60.6794C64.6027 57.6794 65.8027 54.6794 68.4027 54.5794C70.8027 54.4794 72.5027 56.6794 73.2027 60.0794C73.1027 60.4794 73.0027 60.7794 72.8027 61.0794C70.1027 59.9794 67.1027 59.7794 64.3027 60.6794Z" fill="#CDCDCD"/>
<path d="M65.5023 62.6793C66.6023 62.7793 67.8023 62.6793 68.7023 62.6793C69.3023 61.9793 69.7023 60.9793 69.6023 59.7793C69.5023 57.7793 68.3023 56.2793 66.9023 56.2793C65.5023 56.3793 64.4023 57.9793 64.4023 59.9793C64.5023 61.0793 64.9023 62.0793 65.5023 62.6793Z" fill="#3FA2FF"/>
<path d="M67.002 56.3794C65.602 56.4794 64.502 58.0794 64.502 60.0794C64.502 61.1794 64.902 62.0794 65.502 62.7794H65.602C65.302 62.2794 65.102 61.7794 65.102 61.0794C65.102 60.8794 65.102 60.6794 65.102 60.4794C66.302 59.4794 68.202 59.1794 69.102 60.1794C69.202 60.3794 69.2019 60.6794 69.2019 60.8794C69.2019 61.4794 69.1019 62.0794 68.9019 62.4794C69.3019 61.8794 69.602 61.0794 69.602 60.2794C69.602 60.1794 69.602 59.9794 69.602 59.8794C69.602 57.8794 68.402 56.2794 67.002 56.3794Z" fill="#0C0B10" fill-opacity="0.3"/>
<path d="M66.1016 59.98C66.1016 60.88 66.7016 61.68 67.4016 61.58C68.1016 61.58 68.6016 60.78 68.6016 59.88C68.6016 58.98 68.0016 58.18 67.3016 58.28C66.6016 58.28 66.1016 59.08 66.1016 59.98Z" fill="#0D0B11"/>
<path d="M66.5026 58.5791C66.1026 58.1791 65.2026 58.2791 65.3026 59.1791C65.3026 59.4791 65.5026 59.6791 65.6026 59.7791C66.1026 60.0791 67.0026 59.4791 66.6026 58.6791C66.6026 58.6791 66.6026 58.6791 66.5026 58.5791Z" fill="white"/>
<path d="M63.8031 59.2801C63.7031 56.4801 64.5031 53.5801 67.3031 53.1801C70.0031 52.7801 73.2031 54.6801 73.7031 60.3801C70.4031 55.1801 66.2031 55.0801 63.8031 59.2801Z" fill="#F4D5BF"/>
<path d="M73.8024 58.6797C72.3024 53.4797 65.4023 52.3797 63.4023 58.6797C66.7023 54.3797 70.9023 56.2797 72.7023 58.0797C72.9023 58.1797 73.7024 58.4797 73.8024 58.6797Z" fill="#F4D5BF"/>
<path d="M73.8024 58.6797C72.3024 53.4797 65.4023 52.3797 63.4023 58.6797C66.7023 54.3797 70.9023 56.2797 72.7023 58.0797C72.9023 58.1797 73.7024 58.4797 73.8024 58.6797Z" fill="#B37E78" fill-opacity="0.7"/>
<path d="M68.1023 54.3809C66.9023 54.9809 66.0023 55.7809 65.3023 56.8809C64.7023 57.2809 64.0023 57.8809 63.4023 58.6809C64.3023 55.8809 66.2023 54.5809 68.1023 54.3809Z" fill="#B37E78"/>
<path d="M72.4031 60.2798C71.8031 57.4798 69.6031 56.5798 67.8031 56.6798C65.9031 56.7798 64.7031 57.9798 63.7031 59.8798C63.7031 59.3798 63.8031 58.9798 63.9031 58.5798C65.0031 55.6798 66.7031 55.2798 67.8031 55.1798C70.1031 55.0798 72.7031 55.8798 73.7031 60.0798C73.4031 61.1798 72.6031 62.0798 71.5031 62.7798C72.1031 62.0798 72.4031 61.2798 72.4031 60.2798Z" fill="#0D0B11"/>
<path d="M44.9023 63.8789C47.5023 63.2789 49.5023 62.9789 51.8023 63.6789C52.5023 63.0789 53.3023 62.1789 53.6023 61.6789C53.4023 58.3789 51.5023 55.8789 48.2023 55.8789C45.3023 55.8789 42.7023 57.4789 41.9023 60.8789C42.3023 61.9789 43.3023 63.2789 44.9023 63.8789Z" fill="#B37E78" fill-opacity="0.7"/>
<path d="M53.8031 63.2801C53.9031 61.9801 53.3031 60.9801 52.9031 60.5801C52.4031 61.0801 51.8031 61.6801 51.7031 62.7801C52.1031 62.9801 53.3031 63.1801 53.8031 63.2801Z" fill="#E9C4AB"/>
<path d="M44.8016 63.4789C46.8016 62.7789 49.4016 62.9789 51.7016 63.3789C52.5016 62.7789 53.0016 62.1789 53.2016 61.5789C53.0016 58.2789 51.6016 54.8789 48.3016 54.8789C45.4016 54.8789 43.4016 57.1789 42.6016 60.5789C43.0016 61.7789 43.8016 62.7789 44.8016 63.4789Z" fill="white"/>
<path d="M53.1016 60.6793C52.7016 57.6793 51.3016 54.7793 48.3016 54.7793C45.4016 54.7793 43.4016 57.0793 42.6016 60.4793C42.7016 60.8793 42.9016 61.1793 43.1016 61.4793C46.2016 60.1793 49.8016 59.8793 53.1016 60.6793Z" fill="#CDCDCD"/>
<path d="M47.2039 62.6789C48.5039 62.7789 50.0039 62.7789 51.2039 62.7789C52.0039 62.0789 52.4039 61.0789 52.4039 59.9789C52.4039 57.9789 51.0039 56.3789 49.2039 56.3789C47.4039 56.3789 46.0039 57.9789 46.0039 59.9789C46.1039 60.9789 46.5039 61.9789 47.2039 62.6789Z" fill="#3FA2FF"/>
<path d="M49.2039 56.3789C47.4039 56.3789 46.0039 57.9789 46.0039 59.9789C46.0039 61.0789 46.4039 62.0789 47.1039 62.6789H47.2039C46.9039 62.1789 46.6039 61.5789 46.6039 60.9789C46.6039 60.7789 46.6039 60.5789 46.7039 60.3789C48.3039 59.4789 50.5039 59.2789 51.6039 60.2789C51.7039 60.4789 51.7039 60.7789 51.7039 61.0789C51.7039 61.6789 51.5039 62.2789 51.2039 62.6789C51.7039 62.0789 52.1039 61.3789 52.2039 60.4789C52.2039 60.3789 52.2039 60.1789 52.2039 60.0789C52.4039 57.9789 51.0039 56.3789 49.2039 56.3789Z" fill="#0C0B10" fill-opacity="0.3"/>
<path d="M48.1035 59.8797C48.1035 60.7797 48.8035 61.5797 49.6035 61.5797C50.4035 61.5797 51.1035 60.7797 51.1035 59.8797C51.1035 58.9797 50.4035 58.1797 49.6035 58.1797C48.7035 58.2797 48.1035 58.9797 48.1035 59.8797Z" fill="#0D0B11"/>
<path d="M48.604 58.5781C48.104 58.1781 47.004 58.2781 47.104 59.0781C47.104 59.3781 47.304 59.5781 47.504 59.6781C48.104 59.9781 49.204 59.3781 48.704 58.6781C48.704 58.6781 48.704 58.6781 48.604 58.5781Z" fill="white"/>
<path d="M53.7027 59.1794C53.8027 56.3794 52.8027 53.4794 49.5027 53.1794C46.3027 52.8794 42.5027 54.8794 41.8027 60.5794C45.8027 55.4794 50.8027 55.0794 53.7027 59.1794Z" fill="#F4D5BF"/>
<path d="M41.8027 59.079C43.6027 53.879 51.8027 52.379 54.2027 58.579C50.2027 54.379 45.2027 56.479 43.1027 58.379C42.8027 58.479 41.9027 58.879 41.8027 59.079Z" fill="#F4D5BF"/>
<path d="M41.8027 59.079C43.6027 53.879 51.8027 52.379 54.2027 58.579C50.2027 54.379 45.2027 56.479 43.1027 58.379C42.8027 58.479 41.9027 58.879 41.8027 59.079Z" fill="#B37E78" fill-opacity="0.7"/>
<path d="M48.502 54.5801C49.902 55.0801 51.0019 55.8801 51.9019 56.9801C52.7019 57.3801 53.4019 57.8801 54.2019 58.6801C53.1019 55.8801 50.902 54.5801 48.502 54.5801Z" fill="#B37E78"/>
<path d="M43.4023 60.6785C44.1023 57.8785 46.7023 56.8785 48.9023 56.8785C51.2023 56.8785 52.6023 58.0785 53.8023 59.9785C53.8023 59.4785 53.7023 59.0785 53.6023 58.6785C52.3023 55.8785 50.3023 55.4785 48.9023 55.4785C46.2023 55.4785 43.0023 56.4785 41.9023 60.6785C42.3023 61.7785 43.2023 62.5785 44.5023 63.2785C43.8023 62.3785 43.4023 61.5785 43.4023 60.6785Z" fill="#0D0B11"/>
<path d="M76.6029 68.1789C78.1029 72.6789 81.5029 73.4789 83.6029 76.1789C90.7029 85.2789 81.1029 95.0789 72.4029 92.3789C70.2029 91.6789 71.4029 89.6789 73.5029 87.4789C74.2029 86.6789 73.5029 85.1789 72.6029 84.7789C69.4029 83.1789 67.9029 80.4789 68.8029 77.3789C69.7029 74.4789 72.4029 72.5789 72.9029 68.1789C73.6029 60.5789 76.0029 56.3789 74.2029 44.8789C75.0029 45.2789 77.3029 49.7789 78.2029 49.5789C78.1029 57.0789 74.9029 63.0789 76.6029 68.1789Z" fill="#323232"/>
<path d="M79.4035 72.3793C78.3035 71.3793 77.2035 70.0793 76.6035 68.0793C74.9035 62.9793 78.1035 56.9793 78.2035 49.4793C77.3035 49.5793 75.0035 45.0793 74.2035 44.7793C76.0035 56.2793 73.6035 60.5793 72.9035 68.0793C72.5035 72.3793 69.7035 74.2793 68.8035 77.2793C68.4035 78.6793 68.5035 79.9793 69.0035 81.0793C70.1035 80.4793 71.0035 79.6793 71.6035 78.6793C72.6035 77.0793 72.9035 75.1793 74.2035 73.7793C75.5035 72.3793 77.5035 71.9793 79.4035 72.3793Z" fill="#1E1E1E"/>
<path d="M73.2031 65.4789C73.3031 65.2789 73.4031 65.0789 73.5031 64.8789C73.5031 65.3789 73.8031 65.7789 74.2031 66.0789C74.8031 65.6789 75.3031 65.2789 75.9031 64.7789C76.0031 64.8789 76.1031 64.9789 76.1031 65.1789C76.0031 60.7789 78.1031 55.6789 78.2031 49.5789C77.3031 49.6789 75.0031 45.1789 74.2031 44.8789C75.8031 54.9789 74.1031 59.4789 73.2031 65.4789Z" fill="#9426D9" fill-opacity="0.4"/>
<path d="M83.1026 75.5795C82.0026 74.6795 80.3026 74.3795 79.0026 74.8795C77.5026 75.4795 76.4026 77.0795 76.4026 78.6795C76.4026 80.4795 77.6026 82.0795 77.8026 83.8795C78.0026 85.7795 77.0026 87.7795 75.4026 88.7795C74.4026 89.3795 73.1026 89.5795 72.0026 89.3795C71.0026 90.7795 70.9026 91.9795 72.4026 92.4795C81.1026 95.0795 90.7026 85.2795 83.6026 76.2795C83.5026 75.8795 83.3026 75.7795 83.1026 75.5795Z" fill="#464646"/>
<path d="M79.4027 46.0795C74.1027 36.1795 70.0027 32.4795 62.4027 28.2795C55.3027 29.7795 50.1027 20.7795 47.8027 17.0795C66.4027 13.0795 82.0027 29.4795 79.4027 46.0795Z" fill="#1E1E1E"/>
<path d="M54.2027 21.2793C55.1027 19.5793 56.3027 18.0793 57.6027 16.8793C54.4027 16.1793 51.1027 16.2793 47.8027 17.1793C48.9027 18.9793 50.6027 21.8793 52.9027 24.2793C53.3027 23.2793 53.7027 22.2793 54.2027 21.2793Z" fill="#323232"/>
<path d="M69.7023 25.5801C67.6023 24.2801 62.5023 24.7801 59.9023 25.1801C61.9023 23.9801 65.1023 23.1801 67.7023 23.1801C66.8023 22.0801 65.6023 21.0801 64.4023 20.3801C64.2023 20.3801 64.0023 20.2801 63.8023 20.2801C62.5023 20.4801 59.4023 21.8801 58.3023 23.6801C57.8023 24.1801 57.0023 23.9801 57.5023 23.2801C58.9023 21.5801 61.5023 19.3801 64.0023 18.9801C62.4023 18.1801 60.7023 17.4801 59.0023 17.0801C57.5023 18.2801 56.3023 19.7801 55.3023 21.6801C54.7023 22.7801 54.3023 23.8801 53.9023 24.9801C56.3023 27.2801 59.2023 28.9801 62.6023 28.2801C63.3023 28.6801 64.0023 29.0801 64.7023 29.4801C67.9023 29.9801 71.6023 31.8801 74.0023 33.3801C73.7023 28.9801 70.1023 25.8801 69.7023 25.5801Z" fill="#323232"/>
<path d="M34.0039 69.5793C31.3039 69.7793 28.9039 68.7793 27.0039 67.2793C31.5039 72.7793 35.3039 77.4793 43.9039 80.9793C39.9039 78.8793 35.5039 72.3793 34.0039 69.5793Z" fill="#1E1E1E" fill-opacity="0.5"/>
<path d="M34.0039 69.5793C31.3039 69.7793 28.9039 68.7793 27.0039 67.2793C31.5039 72.7793 35.3039 77.4793 43.9039 80.9793C39.9039 78.8793 35.5039 72.3793 34.0039 69.5793Z" fill="#1F59D4" fill-opacity="0.5"/>
<path d="M24.4039 58.3802C26.0039 56.6802 29.1039 56.4802 31.2039 60.3802C31.2039 60.6802 31.2039 61.0801 31.3039 61.4801C32.3039 61.0801 33.3039 60.8801 34.4039 60.9801C34.2039 59.9801 34.1039 58.9802 34.1039 57.8802C33.2039 57.3802 32.4039 56.8802 31.5039 56.3802C30.9039 56.0802 29.5039 55.5801 27.6039 55.9801C25.5039 53.9801 23.3039 47.7802 19.5039 52.3802C19.9039 54.1802 20.5039 55.8802 21.2039 57.5802C22.5039 57.7802 23.5039 58.0802 24.4039 58.3802Z" fill="#1E1E1E" fill-opacity="0.7"/>
<path d="M21.2031 57.7793C21.8031 59.2793 22.6031 60.6793 23.4031 62.0793C23.3031 61.6793 23.3031 61.3793 23.3031 61.0793C23.3031 60.0793 23.7031 59.1793 24.4031 58.4793C23.5031 58.0793 22.5031 57.7793 21.2031 57.7793Z" fill="#1E1E1E" fill-opacity="0.6"/>
<path d="M61.0023 8.17965C60.9023 7.67965 60.6023 7.07965 60.2023 6.67965C59.8023 6.27965 59.3023 5.87965 58.7023 5.77965C57.6023 5.37965 56.4023 5.57965 55.4023 6.17965C54.8023 6.47965 54.3023 6.97965 53.9023 7.47965C53.3023 6.67965 52.6023 5.87965 51.6023 5.37965C50.9023 5.07965 50.0023 4.87965 49.3023 5.17965C48.5023 5.37965 47.9023 5.87965 47.4023 6.57965C47.0023 7.27965 46.9023 8.07965 46.9023 8.77965C47.0023 9.47965 47.2023 10.1797 47.5023 10.7797C48.2023 11.9797 49.2023 12.9797 50.4023 13.5797C49.3023 12.7797 48.5023 11.7797 48.1023 10.5797C47.7023 9.47965 47.6023 8.07965 48.3023 7.17965C48.6023 6.77965 49.1023 6.47965 49.6023 6.37965C50.1023 6.27965 50.6023 6.37965 51.1023 6.57965C52.1023 7.07965 52.8023 8.07965 53.3023 9.17965C53.4023 9.27965 53.5023 9.47965 53.6023 9.47965C54.0023 9.67965 54.4023 9.47965 54.6023 9.07965C54.9023 8.37965 55.5023 7.67965 56.1023 7.37965C56.8023 6.97965 57.5023 6.87965 58.2023 7.07965C58.5023 7.17965 58.8023 7.37965 59.1023 7.57965C59.3023 7.87965 59.5023 8.07965 59.6023 8.57965C59.9023 9.37965 59.9023 10.1797 59.8023 11.0797C59.5023 12.7797 58.6023 14.3797 57.4023 15.7797C56.2023 17.1797 54.8023 18.3797 53.1023 19.2797C54.0023 19.0797 54.9023 18.5797 55.7023 18.0797C56.5023 17.5797 57.3023 16.9797 58.0023 16.2797C59.4023 14.9797 60.5023 13.2797 61.0023 11.2797C61.3023 10.2797 61.3023 9.17965 61.0023 8.17965Z" fill="#323232"/>
<path d="M58.1012 16.2801C59.2012 15.1801 60.2012 13.8801 60.8012 12.3801C60.4012 12.2801 60.0012 12.1801 59.6012 12.0801C59.2012 13.3801 58.4012 14.6801 57.5012 15.7801C56.3012 17.1801 54.9012 18.3801 53.2012 19.2801C54.1012 19.0801 55.0012 18.5801 55.8012 18.0801C56.6012 17.5801 57.4012 16.9801 58.1012 16.2801Z" fill="#464646"/>
<path d="M49.002 5.2793C48.402 5.5793 47.802 5.9793 47.502 6.5793C47.102 7.2793 47.002 8.0793 47.002 8.7793C47.002 8.9793 47.102 9.1793 47.102 9.3793C47.402 9.5793 47.702 9.6793 48.002 9.8793C47.802 8.8793 47.8019 7.7793 48.3019 7.0793C48.6019 6.6793 49.102 6.3793 49.602 6.2793C49.402 5.9793 49.202 5.5793 49.002 5.2793Z" fill="#464646"/>
<path d="M50.8026 17.0801C26.1026 13.4801 15.1026 34.3801 19.5026 52.5801C20.1026 53.1801 20.8026 53.7801 21.5026 54.2801C21.5026 53.4801 21.5026 52.7801 21.5026 51.9801C21.7026 52.9801 21.9026 53.8801 22.3026 54.7801C22.6026 54.9801 22.9026 55.1801 23.2026 55.3801C23.3026 54.3801 23.3026 53.4801 23.4026 52.4801C23.5026 53.6801 23.9026 54.7801 24.3026 55.8801C25.4026 56.2801 26.6026 56.4801 27.6026 56.2801C29.4026 55.8801 30.9026 56.3801 31.5026 56.6801C32.4026 57.1801 33.3026 57.6801 34.1026 58.1801C34.2026 44.3801 53.0026 26.6801 63.0026 27.6801C61.2026 21.9801 56.5026 17.8801 50.8026 17.0801Z" fill="#1E1E1E"/>
<path d="M28.6024 53.1801C25.9024 47.1801 23.8024 41.0801 23.6024 35.0801C21.2024 40.9801 22.0024 46.6801 28.6024 53.1801Z" fill="#323232"/>
<path d="M21.6036 44.0801C20.6036 47.9801 20.3036 51.0801 20.9036 53.7801C21.1036 53.8801 21.3036 54.0801 21.5036 54.1801C21.5036 53.3801 21.5036 52.6801 21.5036 51.8801C21.7036 52.8801 21.9036 53.7801 22.3036 54.6801C22.6036 54.8801 22.9036 55.0801 23.2036 55.2801C23.2036 54.7801 23.2036 54.3801 23.3036 53.8801C22.1036 50.7801 21.4036 47.5801 21.6036 44.0801Z" fill="#323232"/>
<path d="M31.4028 39.2792C36.3028 27.2792 51.4028 19.8792 58.6028 23.9792C55.6028 18.9792 49.0028 16.0792 41.1028 16.9792C40.9028 16.9792 40.8028 16.9792 40.6028 17.0792C40.4028 17.0792 40.3028 17.0792 40.1028 17.1792C34.3028 18.1792 29.6028 20.7792 26.2028 24.4792C25.0028 30.5792 26.3028 40.1792 30.9028 42.9792C28.9028 40.5792 28.4028 37.3792 27.9028 34.2792C28.4028 36.1792 29.7028 38.0792 31.4028 39.2792Z" fill="#323232"/>
<path d="M29.1035 29.1797C30.2035 31.7797 31.7035 33.7797 33.5035 35.3797C33.7035 35.0797 33.9035 34.6797 34.2035 34.3797C32.4035 32.7797 30.8035 31.1797 29.1035 29.1797Z" fill="#464646"/>
<path d="M27.8033 26.6797C27.3033 28.7797 27.4033 31.5797 29.3033 33.0797C28.4033 31.1797 28.5033 28.6797 27.8033 26.6797Z" fill="#464646"/>
<path d="M28.6035 25.6797C30.6035 29.7797 35.2035 31.5797 39.5035 33.1797C36.4035 29.6797 32.7035 27.5797 28.6035 25.6797Z" fill="#1E1E1E"/>
<path d="M28.0039 23.8805C33.3039 26.1805 36.6039 25.6805 40.9039 26.1805C36.3039 23.5805 31.3039 23.4805 28.0039 23.8805Z" fill="#1E1E1E"/>
<path d="M34.4031 61.0805C34.2031 60.0805 34.1031 59.0805 34.1031 57.9805C34.1031 57.3805 34.2031 56.7805 34.2031 56.1805C31.5031 54.4805 28.9031 52.1805 28.9031 49.2805C28.3031 50.2805 27.9031 51.3805 27.7031 52.5805C27.5031 51.8805 27.3031 51.1805 27.1031 50.5805C26.3031 51.3805 25.8031 52.3805 25.7031 53.4805C25.5031 52.4805 25.2031 51.5805 25.0031 50.5805C24.4031 51.9805 24.1031 53.4805 23.9031 54.9805C22.7031 53.2805 21.9031 51.1805 21.7031 49.0805C21.4031 50.4805 21.2031 51.8805 21.2031 53.2805C19.6031 49.3805 18.9031 45.1805 19.0031 40.9805L18.7031 41.2805C18.3031 44.9805 18.6031 48.8805 19.5031 52.5805C19.9031 54.3805 20.5031 56.0805 21.2031 57.7805C21.8031 59.2805 22.6031 60.6805 23.4031 62.0805C23.3031 61.6805 23.3031 61.3805 23.3031 61.0805C23.3031 60.0805 23.7031 59.1805 24.4031 58.4805C26.0031 56.7805 29.1031 56.5805 31.2031 60.4805C31.2031 60.7805 31.2031 61.1805 31.3031 61.5805C32.3031 61.0805 33.3031 60.8805 34.4031 61.0805Z" fill="#7E20B8" fill-opacity="0.4"/>
<path d="M23.5031 62.0789C23.4031 61.6789 23.4031 61.3789 23.4031 61.0789C23.4031 60.0789 23.8031 59.1789 24.5031 58.4789C24.4031 58.3789 24.4031 58.1789 24.3031 58.0789C24.0031 58.2789 23.8031 58.5789 23.6031 58.8789C23.0031 58.3789 22.6031 57.6789 22.5031 56.8789C22.0031 57.3789 21.8031 58.1789 21.8031 58.8789L21.7031 58.7789C22.2031 59.8789 22.8031 60.9789 23.5031 62.0789Z" fill="#7E20B8" fill-opacity="0.4"/>
<path d="M36.3028 52.0796C37.3028 34.5796 47.1028 28.1796 60.7028 26.4796C52.1028 18.5796 28.3028 31.0796 29.7028 54.9796C30.0028 59.9796 30.8028 70.7796 28.7028 73.3796C25.7028 77.0796 17.7028 82.3796 20.7028 89.2796C22.4028 93.1796 26.5028 95.5796 30.4028 94.8796C33.0028 94.4796 32.4028 92.4796 31.0028 90.6796C30.6028 90.1796 31.3028 89.1796 32.0028 88.9796C44.0028 84.4796 44.3028 77.0796 38.2028 66.9796C35.5028 62.5796 36.0028 57.0796 36.3028 52.0796Z" fill="#323232"/>
<path d="M35.8035 38.8793C35.1035 38.4793 34.4035 38.0793 33.6035 37.7793C32.3035 40.0793 31.2035 42.7793 30.6035 45.5793C31.2035 45.2793 31.8035 45.0793 32.4035 44.6793C32.8035 47.4793 33.9035 47.7793 34.4035 46.0793C34.5035 48.4793 35.2035 50.8793 36.6035 49.0793C37.0035 45.9793 37.7035 43.2793 38.6035 40.9793C38.4035 40.8793 38.2035 40.6793 38.0035 40.5793C36.5035 42.6793 35.6035 41.0793 35.8035 38.8793Z" fill="#1E1E1E"/>
<path d="M35.4024 62.9795C34.4024 59.0795 31.6024 58.6795 30.2024 63.0795C30.3024 67.4795 30.0024 71.7795 28.8024 73.3795C25.8024 77.0795 17.8024 82.3795 20.8024 89.2795C22.5024 93.1795 26.6024 95.5795 30.5024 94.8795C33.1024 94.4795 32.5024 92.4795 31.1024 90.6795C30.7024 90.1795 31.4024 89.1795 32.1024 88.9795C42.6024 85.0795 44.1024 78.8795 40.3024 70.6795C37.9024 68.6795 36.1024 65.9795 35.4024 62.9795Z" fill="#464646"/>
<path d="M29.9033 57.1793C30.0033 57.3793 30.0033 57.5793 30.1033 57.8793C30.2033 56.6793 30.5033 55.5793 30.8033 54.3793C31.0033 55.1793 31.3033 55.8793 31.5033 56.6793C31.8033 55.6793 32.6033 54.3793 33.6033 54.7793C34.2033 55.0793 34.4033 55.7793 34.6033 56.4793C34.9033 57.3793 35.4033 58.1793 36.1033 58.8793C36.0033 56.6793 36.2033 54.3793 36.3033 52.2793C36.3033 51.4793 36.4033 50.7793 36.5033 49.9793C36.4033 49.2793 36.4033 48.4793 36.5033 47.7793C35.5033 48.3793 34.6033 48.9793 33.8033 49.7793C33.8033 48.8793 33.7033 47.9793 33.7033 47.0793C33.7033 46.8793 33.7033 46.6793 33.5033 46.4793C33.3033 46.1793 32.8033 46.2793 32.5033 46.4793C31.7033 46.7793 31.1033 47.4793 30.7033 48.1793C30.7033 46.8793 30.7033 45.7793 30.7033 44.7793C29.9033 47.8793 29.5033 51.2793 29.7033 54.9793C29.8033 55.5793 29.9033 56.3793 29.9033 57.1793Z" fill="#9426D9" fill-opacity="0.25"/>
<path d="M62.2035 26.7787C56.7035 22.5787 45.1035 26.4787 43.1035 34.6787C45.7035 33.0787 56.5035 27.7787 62.2035 26.7787Z" fill="#1E1E1E"/>
<path d="M62.2038 27.1803C55.4038 22.2803 31.6038 30.5803 36.4038 55.2803C37.2038 55.3803 38.0038 55.4803 38.8038 55.4803C38.8038 54.9803 38.8038 54.4803 38.9038 53.8803C39.2038 54.3803 39.4038 54.8803 39.6038 55.4803C41.1038 55.4803 42.6038 55.3803 44.1038 54.9803C44.1038 52.3803 44.5038 49.9803 45.1038 48.3803C44.9038 50.1803 44.8038 52.6803 45.0038 54.7803C50.2038 53.3803 55.1038 50.0803 58.3038 44.4803C57.6038 46.9803 57.0038 48.9803 56.4038 51.1803C59.4038 47.7803 64.6038 40.2803 62.2038 27.1803Z" fill="#464646"/>
<path d="M57.1035 50.5797C62.4035 42.7797 62.8035 35.9797 62.2035 27.1797C65.8035 32.2797 64.4035 44.1797 57.1035 50.5797Z" fill="#323232"/>
<path d="M46.6035 45.5797C46.9035 45.3797 47.2035 45.1797 47.5035 44.9797C47.5035 45.1797 47.5035 45.2797 47.6035 45.4797C47.9035 45.4797 48.1035 45.2797 48.4035 45.0797C48.9035 44.7797 49.4035 44.4797 49.9035 44.3797C50.5035 44.2797 51.1035 44.4797 51.4035 44.8797C51.5035 45.0797 51.6035 45.1797 51.8035 45.3797C52.3035 45.7797 53.1035 45.5797 53.6035 45.0797C54.1035 44.5797 55.5035 43.3797 55.7035 42.7797C55.7035 45.0797 54.4035 46.5797 53.5035 48.1797C55.8035 46.4797 58.2035 42.7797 58.4035 38.6797C57.6035 39.4797 56.2035 39.5797 55.3035 38.8797C54.2035 40.6797 50.6035 43.2797 48.8035 40.4797C48.2035 39.8797 46.6035 42.6797 46.6035 45.5797Z" fill="#323232"/>
<path d="M44.9027 44.7805C44.5027 46.7805 43.9027 48.5805 43.9027 50.8805C43.4027 49.6805 42.9027 49.0805 41.9027 49.2805C41.4027 47.4805 39.5027 47.9805 39.3027 50.1805C39.4027 47.1805 40.0027 42.9805 41.0027 41.4805C41.1027 43.5805 43.6027 44.8805 44.9027 44.7805Z" fill="#323232"/>
<path d="M37.9027 46.9805C38.2027 45.2805 38.2027 43.2805 38.8027 42.3805C38.1027 42.3805 37.4027 41.9805 36.8027 41.4805C36.2027 43.4805 35.8027 45.6805 35.8027 48.0805C36.5027 48.3805 37.2027 47.9805 37.9027 46.9805Z" fill="#323232"/>
<path d="M62.0039 27.2796C63.8039 29.4796 65.4039 39.2796 64.2039 48.6796C65.2039 50.1796 67.7039 52.2796 70.6039 53.8796C71.3039 54.2796 71.6039 54.4796 72.4039 54.7796C73.1039 53.1796 73.6039 49.2796 73.9039 47.1796C74.3039 49.1796 74.4039 52.0796 73.9039 55.3796C74.9039 55.6796 75.9039 55.9796 76.9039 56.0796C77.1039 56.4796 77.1039 56.7796 77.0039 57.3796C84.3039 51.3796 76.3039 26.0796 62.0039 27.2796Z" fill="#464646"/>
<path d="M77.1031 45.5789C77.1031 44.0789 76.8031 42.2789 76.5031 40.9789C76.2031 41.1789 73.9031 40.3789 73.2031 39.8789C73.7031 41.5789 73.6031 43.2789 73.7031 45.0789C73.8031 44.5789 74.2031 44.1789 74.7031 44.2789C75.0031 44.2789 76.0031 44.7789 76.2031 47.4789C76.3031 45.9789 76.7031 45.5789 77.1031 45.5789Z" fill="#323232"/>
<path d="M74.7039 36.8805C74.6039 38.2805 73.2039 37.5805 71.5039 35.4805C72.4039 37.3805 72.9039 39.7805 73.2039 41.7805C73.4039 41.2805 73.6039 40.6805 73.5039 40.1805C74.2039 42.2805 75.7039 43.2805 76.8039 42.8805C76.8039 41.5805 75.4039 38.5805 74.7039 36.8805Z" fill="#5A5A5A"/>
<path d="M65.3027 47.2805C65.8027 46.8805 66.6027 46.7805 67.2027 47.0805C67.8027 47.3805 68.2027 47.9805 68.2027 48.6805C68.4027 48.4805 68.6027 48.2805 68.9027 48.3805C69.3027 48.4805 69.4027 49.0805 69.5027 49.4805C69.7027 51.4805 71.4027 51.0805 71.7027 48.6805C71.7027 47.2805 71.8027 45.8805 71.8027 44.5805C70.7027 43.8805 67.6027 43.7805 66.5027 43.4805C66.4027 44.5805 65.6027 46.2805 65.3027 47.2805Z" fill="#323232"/>
<path d="M68.7031 42.5788C68.6031 42.2788 68.4031 41.9788 68.1031 41.6788C68.0031 42.0788 67.8031 42.3788 67.7031 42.6788C67.5031 41.9788 67.0031 41.3788 66.5031 40.8788C66.4031 42.3788 66.2031 43.9788 65.7031 45.3788C66.2031 45.1788 66.6031 44.8788 66.8031 44.3788C66.7031 45.1788 67.5031 45.9788 68.3031 45.9788C69.1031 45.9788 69.8031 45.1788 69.9031 44.3788C70.4031 44.9788 71.0031 45.5788 71.6031 45.9788C72.0031 43.6788 71.6031 40.6788 71.1031 39.3788C69.9031 38.6788 69.0031 40.2788 68.7031 42.5788Z" fill="#5A5A5A"/>
<path d="M63.1024 21.2788C63.0024 21.2788 62.9024 21.2788 62.9024 21.2788C62.8024 21.1788 62.6024 21.2788 62.4024 21.2788C62.2024 21.2788 62.1024 21.3788 61.9024 21.3788C61.6024 21.4788 61.3024 21.5788 61.1024 21.7788C61.0024 21.8788 60.9024 22.0788 61.0024 22.2788C61.1024 22.3788 61.2024 22.5788 61.4024 22.4788C61.6024 22.4788 61.7024 22.3788 61.9024 22.3788C62.0024 22.3788 62.0024 22.3788 62.1024 22.2788C62.2024 22.2788 62.2024 22.2788 62.3024 22.1788C62.4024 22.1788 62.4024 22.1788 62.5024 22.0788H62.6024C62.8024 22.0788 62.9024 21.9788 63.0024 21.8788H63.1024H63.2024C63.3024 21.7788 63.4024 21.6788 63.4024 21.4788C63.4024 21.4788 63.3024 21.3788 63.1024 21.2788Z" fill="#464646"/>
<path d="M64.4035 22.3804C64.3035 22.3804 64.3035 22.2804 64.2035 22.3804C64.1035 22.3804 64.1035 22.3804 64.0035 22.4804C63.9035 22.4804 63.8035 22.4804 63.8035 22.5804C63.7035 22.5804 63.6035 22.6804 63.5035 22.6804C63.5035 22.6804 63.5035 22.6804 63.4035 22.6804C63.4035 22.6804 63.3035 22.6804 63.3035 22.7804C63.2035 22.8804 63.1035 22.9804 63.2035 23.0804C63.2035 23.1804 63.3035 23.2804 63.5035 23.2804C63.6035 23.2804 63.7035 23.2804 63.8035 23.2804H63.7035C63.9035 23.2804 64.1035 23.1804 64.2035 23.1804C64.3035 23.1804 64.3035 23.1804 64.4035 23.0804C64.4035 23.0804 64.5035 23.0804 64.5035 22.9804C64.6035 22.9804 64.6035 22.8804 64.6035 22.8804C64.6035 22.5804 64.6035 22.3804 64.4035 22.3804Z" fill="#464646"/>
<path d="M65.2023 25.6801C65.1023 25.6801 65.1023 25.6801 65.0023 25.6801C64.9023 25.6801 64.9023 25.6801 64.8023 25.5801C64.7023 25.5801 64.5023 25.5801 64.4023 25.5801C64.3023 25.5801 64.1023 25.5801 64.0023 25.5801C63.9023 25.5801 63.7023 25.5801 63.6023 25.5801C63.5023 25.5801 63.4023 25.6801 63.4023 25.7801C63.4023 25.8801 63.5023 25.9801 63.6023 25.9801C63.7023 25.9801 63.9023 25.9801 64.0023 25.9801C64.1023 25.9801 64.3023 25.9801 64.4023 25.9801C64.5023 25.9801 64.7023 25.9801 64.8023 25.9801C64.9023 25.9801 64.9023 25.9801 65.0023 25.8801C65.1023 25.8801 65.1023 25.8801 65.2023 25.8801C65.4023 25.9801 65.4023 25.7801 65.2023 25.6801Z" fill="#464646"/>
<path d="M59.0039 18.1801C59.0039 18.1801 58.9039 18.0801 58.8039 18.0801C58.8039 18.0801 58.7039 18.0801 58.7039 18.1801L58.6039 18.2801C58.5039 18.3801 58.5039 18.3801 58.4039 18.4801C58.3039 18.5801 58.3039 18.5801 58.2039 18.6801C58.2039 18.7801 58.1039 18.7801 58.1039 18.8801C58.1039 18.9801 58.0039 18.9801 58.0039 19.0801C58.0039 19.1801 58.0039 19.1801 58.1039 19.2801C58.2039 19.3801 58.4039 19.3801 58.5039 19.2801C58.6039 19.1801 58.6039 19.1801 58.7039 19.0801L58.8039 18.9801L58.9039 18.8801L59.0039 18.6801C59.0039 18.6801 59.0039 18.5801 59.1039 18.5801L59.2039 18.4801C59.2039 18.4801 59.2039 18.4801 59.2039 18.3801C59.0039 18.2801 59.0039 18.2801 59.0039 18.1801Z" fill="#464646"/>
<path d="M64.4039 27.3793C63.6039 27.2793 62.8039 27.2793 62.0039 27.2793C63.7039 29.4793 65.3039 38.5793 64.3039 47.7793C67.1039 40.5793 67.0039 30.6793 64.4039 27.3793Z" fill="#323232"/>
<path d="M61.5039 51.5805C64.6039 42.3805 63.2039 32.6805 62.1039 27.4805C65.3039 28.4805 66.5039 44.0805 61.5039 51.5805Z" fill="#464646"/>
<path d="M30.6023 62.8797C30.9023 62.1797 31.2023 61.4797 31.5023 60.6797C31.6023 61.4797 32.1023 62.2797 32.9023 62.6797C33.3023 62.1797 33.6023 61.7797 34.0023 61.2797C34.4023 62.0797 34.8023 62.9797 35.6023 63.5797C36.0023 63.8797 36.4023 63.9797 36.9023 63.9797C36.4023 62.2797 36.2023 60.4797 36.1023 58.6797C35.4023 57.9797 34.9023 57.1797 34.6023 56.2797C34.4023 55.6797 34.2023 54.8797 33.6023 54.5797C32.6023 54.1797 31.8023 55.4797 31.5023 56.4797C31.3023 55.6797 31.0023 54.9797 30.8023 54.1797C30.5023 55.2797 30.2023 56.4797 30.1023 57.6797C30.0023 57.4797 30.0023 57.2797 29.9023 56.9797C30.0023 58.4797 30.1023 60.1797 30.1023 61.8797C30.3023 62.2797 30.4023 62.5797 30.6023 62.8797Z" fill="#9426D9" fill-opacity="0.4"/>
<path d="M30.1035 67.4797C30.2035 67.7797 30.4035 67.9797 30.6035 68.2797C30.5035 67.0797 32.2035 66.3797 33.3035 66.9797C34.4035 67.5797 34.9035 68.7797 35.4035 69.8797C35.6035 69.3797 36.0035 68.9797 36.3035 68.5797C36.7035 69.0797 37.2035 69.4797 37.7035 69.8797C37.8035 69.3797 37.8035 68.8797 37.9035 68.3797C38.5035 69.2797 39.3035 70.0797 40.1035 70.6797C39.5035 69.4797 38.9035 68.2797 38.1035 66.9797C37.5035 66.0797 37.1035 65.0797 36.8035 63.9797C36.3035 63.9797 35.9035 63.7797 35.5035 63.5797C34.7035 62.9797 34.3035 62.1797 33.9035 61.2797C33.5035 61.7797 33.2035 62.1797 32.8035 62.6797C32.0035 62.2797 31.5035 61.5797 31.4035 60.6797C31.1035 61.3797 30.8035 62.0797 30.5035 62.8797C30.3035 62.5797 30.2035 62.3797 30.1035 62.0797C30.2035 63.8797 30.2035 65.7797 30.1035 67.4797Z" fill="#2260E6" fill-opacity="0.5"/>
<path d="M30.1031 72.3805C30.1031 72.8805 30.1031 73.4805 30.0031 73.9805C30.8031 72.8805 32.2031 72.0805 33.5031 72.3805C34.8031 72.6805 35.9031 74.0805 35.5031 75.3805C35.9031 74.9805 36.4031 74.7805 36.9031 74.5805C37.1031 75.0805 37.3031 75.6805 37.5031 76.1805C38.2031 75.5805 38.8031 74.8805 39.5031 74.2805C40.6031 75.1805 41.4031 76.3805 42.1031 77.5805C42.0031 75.4805 41.4031 73.1805 40.2031 70.6805C39.3031 70.0805 38.5031 69.2805 38.0031 68.3805C37.9031 68.8805 37.9031 69.3805 37.8031 69.8805C37.3031 69.5805 36.8031 69.0805 36.4031 68.5805C36.0031 68.9805 35.7031 69.3805 35.5031 69.8805C35.0031 68.7805 34.5031 67.5805 33.4031 66.9805C32.3031 66.3805 30.6031 67.0805 30.7031 68.2805C30.5031 67.9805 30.4031 67.7805 30.2031 67.4805C30.1031 69.6805 29.8031 71.5805 29.2031 72.6805C29.4031 72.6805 29.8031 72.4805 30.1031 72.3805Z" fill="#2EA0E6" fill-opacity="0.55"/>
<path d="M26.5035 76.5801C26.3035 76.9801 26.2035 77.3801 26.0035 77.6801C27.1035 76.9801 28.4035 76.2802 29.7035 76.4802C31.0035 76.7802 31.9035 78.5802 30.9035 79.4802C31.4035 79.3802 32.0035 79.3801 32.5035 79.2801C32.5035 79.6801 32.5035 80.1801 32.5035 80.5801C34.1035 80.4801 35.7035 79.8801 37.0035 78.7801C37.1035 79.4801 37.1035 80.0801 37.2035 80.7801C37.9035 79.6801 39.7035 79.5801 40.5035 80.5801C40.8035 80.9801 41.0035 81.5801 41.1035 82.0801C41.8035 80.6801 42.1035 79.1802 42.1035 77.4802C41.4035 76.2802 40.6035 75.0801 39.5035 74.1801C38.8035 74.7801 38.2035 75.4801 37.5035 76.0801C37.3035 75.5801 37.1035 74.9802 36.9035 74.4802C36.4035 74.5802 35.9035 74.8801 35.5035 75.2801C35.9035 73.9801 34.9035 72.5801 33.5035 72.2801C32.2035 72.0801 30.8035 72.7801 30.0035 73.8801C30.0035 73.3801 30.0035 72.7801 30.1035 72.2801C29.8035 72.4801 29.5035 72.5801 29.2035 72.6801C29.1035 72.8801 29.0035 73.1801 28.8035 73.2801C28.0035 74.2801 26.8035 75.3801 25.6035 76.6801C25.8035 76.6801 26.2035 76.5801 26.5035 76.5801Z" fill="#6AD933" fill-opacity="0.6"/>
<path d="M40.6031 80.6804C39.8031 79.6804 38.0031 79.7804 37.3031 80.8804C37.2031 80.1804 37.2031 79.5804 37.1031 78.8804C35.8031 79.8804 34.2031 80.5804 32.6031 80.6804C32.6031 80.2804 32.6031 79.7804 32.6031 79.3804C32.1031 79.4804 31.5031 79.4804 31.0031 79.5804C32.0031 78.6804 31.1031 76.8804 29.8031 76.5804C28.5031 76.2804 27.2031 77.0804 26.1031 77.7804C26.3031 77.3804 26.4031 76.9804 26.6031 76.6804C26.3031 76.6804 26.0031 76.7804 25.6031 76.8804C23.7031 78.7804 21.6031 81.0804 20.7031 83.5804C20.8031 83.4804 20.9031 83.3804 21.0031 83.2804C21.1031 83.7804 21.0031 84.2804 20.7031 84.5804C21.3031 83.7804 22.0031 83.1804 22.9031 82.7804C23.6031 82.4804 24.4031 82.2804 25.1031 82.5804C25.7031 82.9804 25.8031 84.1804 25.1031 84.3804C25.9031 84.1804 26.8031 84.2804 27.6031 84.2804C27.4031 84.8804 27.3031 85.4804 27.1031 86.0804C28.0031 85.5804 29.2031 85.1804 30.1031 85.5804C31.1031 85.9804 31.6031 87.4804 30.8031 88.0804C31.5031 88.0804 32.3031 88.2804 32.9031 88.5804C37.1031 86.8804 39.8031 84.6804 41.1031 82.1804C41.0031 81.5804 40.9031 81.0804 40.6031 80.6804Z" fill="#F2D750" fill-opacity="0.65"/>
<path d="M20.4031 87.1794C20.4031 87.9794 20.8031 88.7794 21.4031 89.2794C21.2031 88.1794 21.8031 86.9794 22.7031 86.3794C23.0031 87.2794 23.3031 88.2794 23.9031 88.9794C24.5031 89.7794 25.4031 90.2794 26.4031 90.1794C27.3031 89.9794 28.1031 88.9794 27.7031 88.0794C27.9031 89.2794 29.4031 89.9794 30.4031 89.3794C30.4031 89.9794 30.6031 90.4794 31.0031 90.8794C31.0031 90.7794 30.9031 90.7794 30.9031 90.6794C30.5031 90.1794 31.2031 89.1794 31.9031 88.9794C32.2031 88.8794 32.5031 88.6794 32.9031 88.5794C32.2031 88.2794 31.5031 88.1794 30.8031 88.0794C31.6031 87.3794 31.1031 85.9794 30.1031 85.5794C29.1031 85.1794 28.0031 85.5794 27.1031 86.0794C27.3031 85.4794 27.4031 84.8794 27.6031 84.2794C26.7031 84.3794 25.9031 84.1794 25.1031 84.3794C25.8031 84.1794 25.7031 82.9794 25.1031 82.5794C24.5031 82.1794 23.6031 82.3794 22.9031 82.7794C22.0031 83.1794 21.3031 83.7794 20.7031 84.5794C21.0031 84.1794 21.1031 83.6794 21.0031 83.2794C20.9031 83.3794 20.8031 83.4794 20.7031 83.5794C20.2031 84.8794 20.0031 86.3794 20.3031 87.8794C20.3031 87.4794 20.4031 87.3794 20.4031 87.1794Z" fill="#F2834D" fill-opacity="0.7"/>
<path d="M30.5027 89.3789C29.5027 89.9789 28.0027 89.1789 27.8027 88.0789C28.2027 88.9789 27.4027 90.0789 26.5027 90.1789C25.6027 90.3789 24.6027 89.7789 24.0027 88.9789C23.4027 88.1789 23.1027 87.2789 22.8027 86.3789C21.8027 86.9789 21.3027 88.1789 21.5027 89.2789C20.9027 88.7789 20.5027 87.9789 20.5027 87.1789C20.4027 87.3789 20.4027 87.4789 20.3027 87.6789C20.4027 88.1789 20.6027 88.6789 20.8027 89.2789C22.5027 93.1789 26.6027 95.5789 30.5027 94.8789C33.0027 94.4789 32.5027 92.5789 31.2027 90.8789C30.7027 90.4789 30.5027 89.8789 30.5027 89.3789Z" fill="#F23E33" fill-opacity="0.75"/>
<path d="M39.3026 18.5802C37.7026 18.9802 35.9026 19.5802 34.6026 20.8802C34.3026 20.9802 34.0026 21.0802 33.7026 21.2802C30.4026 23.1802 36.1026 23.0802 37.1026 22.9802C37.5026 22.8802 37.9026 22.7802 38.2026 22.5802C39.1026 21.8802 38.7026 21.3802 38.0026 21.0802C38.3026 20.4802 39.2026 19.4802 40.1026 18.7802C40.4026 18.5802 39.9026 18.4802 39.3026 18.5802Z" fill="#464646"/>
<path d="M56.5031 22.6797C53.9031 19.4797 47.0031 18.6797 42.7031 19.9797C46.9031 19.2797 52.9031 20.9797 56.5031 22.6797Z" fill="#464646"/>
<path d="M24.2035 39.1797C23.4035 41.5797 24.1035 44.0797 25.7035 45.4797C24.8035 43.6797 25.0035 40.7797 24.2035 39.1797Z" fill="#464646"/>
<path d="M36.1023 40.9793C36.5023 39.5793 37.1023 38.2793 37.7023 37.1793C37.6023 37.1793 37.5023 37.1793 37.5023 37.2793C37.8023 36.3793 37.9023 35.4793 37.8023 34.5793C37.3023 34.7793 36.8023 35.0793 36.3023 35.2793C36.5023 35.1793 36.6023 34.7793 36.7023 34.2793C39.8023 30.2793 42.8023 28.2793 43.8023 27.2793C40.8023 28.2793 33.3023 33.1793 30.4023 45.6793C31.3023 43.1793 32.3023 40.9793 33.4023 39.0793C33.4023 41.0793 34.6023 41.5793 36.1023 40.9793Z" fill="#464646"/>
<path d="M37.4038 34.3789C36.2038 34.7789 33.6038 38.4789 34.2038 40.5789C34.8038 38.9789 36.7038 36.2789 37.4038 34.3789Z" fill="#5A5A5A"/>
<path d="M53.0023 29.1797C48.6023 29.4797 43.2023 36.9797 42.9023 44.1797C45.2023 35.3797 49.2023 30.8797 53.0023 29.1797Z" fill="#5A5A5A"/>
<path d="M59.7035 27.3796C54.8035 26.0796 45.5035 34.8796 44.6035 45.9796C48.1035 32.9796 54.7035 28.5796 59.7035 27.3796Z" fill="#323232"/>
<path d="M39.8027 38.9797C39.4027 38.6797 38.8027 39.0797 38.4027 39.4797C38.3027 39.0797 38.2027 38.5797 38.1027 38.1797C37.3027 39.7797 36.7027 41.4797 36.3027 43.3797C36.7027 42.8797 37.2027 42.4797 37.7027 42.0797C37.5027 42.8797 37.9027 43.7797 38.7027 44.1797C39.0027 42.8797 39.3027 41.6797 39.8027 40.4797C40.0027 39.9797 40.3027 39.2797 39.8027 38.9797Z" fill="#5A5A5A"/>
<path d="M43.8023 41.0806C44.1023 40.9806 45.1023 40.9806 45.2023 41.3806C44.7023 42.3806 43.9023 44.5806 43.8023 46.1806C43.1023 46.1806 42.6023 45.5806 42.5023 44.8806C42.1023 45.3806 41.8023 45.8806 41.6023 46.4806C41.1023 46.3806 40.8023 45.7806 40.7023 45.2806C40.6023 43.7806 41.6023 41.0806 42.1023 40.0806C43.1023 38.4806 44.3023 38.8806 43.8023 41.0806Z" fill="#5A5A5A"/>
<path d="M47.0022 42.7789C46.9022 43.0789 46.8022 43.4789 47.0022 43.6789C47.3022 44.0789 48.0022 43.7789 48.3022 43.3789C48.6022 42.9789 48.7022 42.4789 49.2022 42.1789C49.2022 42.9789 50.1022 43.4789 51.0022 43.4789C51.8022 43.3789 52.5022 42.8789 53.2022 42.3789C53.7022 41.9789 54.2022 41.5789 54.7022 41.2789C54.8022 41.6789 54.9022 42.0789 55.2022 42.2789C55.7022 42.5789 56.3022 42.1789 56.7022 41.7789C57.7022 40.7789 58.2022 39.3789 58.2022 37.9789C57.8022 37.7789 57.2022 37.8789 56.8022 38.1789C57.0022 37.7789 56.9022 37.2789 56.7022 36.8789C56.4022 36.9789 56.3022 37.1789 56.1022 37.4789C56.0022 37.6789 55.8022 37.9789 55.5022 38.0789C55.2022 38.1789 54.9022 37.9789 54.9022 37.6789C54.4022 39.0789 53.4022 40.3789 52.1022 41.1789C51.6022 41.4789 50.9022 41.6789 50.5022 41.2789C50.0022 40.6789 50.8022 39.7789 50.3022 39.1789C48.8022 37.0789 47.3022 41.9789 47.0022 42.7789Z" fill="#5A5A5A"/>
<path d="M61.1027 38.5793C61.0027 38.1793 60.2027 38.1793 60.1027 38.5793C59.8027 39.5793 59.7027 40.4793 59.5027 41.4793C59.4027 41.9793 59.3027 42.4793 59.1027 42.8793C59.0027 43.3793 58.8027 43.8793 58.8027 44.2793C58.8027 44.4793 59.2027 44.6793 59.4027 44.4793C59.8027 44.0793 60.1027 43.5793 60.3027 43.0793C60.5027 42.5793 60.7027 42.0793 60.9027 41.5793C61.2027 40.6793 61.3027 39.6793 61.1027 38.5793Z" fill="#323232"/>
<path d="M60.7023 35.6789C60.6023 35.2789 60.0023 35.2789 59.9023 35.6789C59.7023 36.5789 59.6023 37.5789 59.4023 38.5789C59.3023 39.0789 59.2023 39.5789 59.1023 39.9789C59.0023 40.4789 58.9023 40.9789 58.9023 41.3789C58.9023 41.5789 59.2023 41.7789 59.4023 41.5789C59.7023 41.1789 60.0023 40.6789 60.1023 40.2789C60.3023 39.7789 60.4023 39.2789 60.6023 38.7789C60.8023 37.7789 60.9023 36.7789 60.7023 35.6789Z" fill="#5A5A5A"/>
<path d="M70.2035 53.6801C70.3035 53.7801 70.5035 53.8801 70.6035 53.8801C74.9035 45.4801 70.2035 29.6801 65.1035 28.0801C69.2035 32.7801 73.1035 43.4801 70.2035 53.6801Z" fill="#323232"/>
<path d="M74.4023 60.8801C78.4023 50.0801 77.2023 39.5801 72.4023 34.0801C77.9023 36.6801 80.6023 52.4801 74.4023 60.8801Z" fill="#323232"/>
<path d="M38.5031 38.6801C38.0031 38.9801 37.7031 39.6801 37.5031 40.1801C37.4031 40.4801 37.3031 40.6801 37.3031 40.9801C37.2031 41.2801 37.2031 41.5801 37.2031 41.8801C37.2031 42.1801 37.5031 42.2801 37.7031 41.9801C37.9031 41.7801 37.9031 41.4801 38.1031 41.2801C38.2031 40.9801 38.3031 40.6801 38.4031 40.4801C38.5031 40.2801 38.6031 39.9801 38.7031 39.6801C38.8031 39.3801 38.9031 39.0801 38.9031 38.7801C38.9031 38.6801 38.6031 38.5801 38.5031 38.6801Z" fill="#787878"/>
<path d="M44.303 42.1799C44.103 42.0799 43.903 42.1799 43.803 42.3799C43.503 42.8799 43.303 43.3799 43.203 43.8799C43.203 43.9799 43.103 44.0799 43.103 44.2799C43.103 44.3799 43.103 44.3799 43.103 44.4799C43.103 44.5799 43.103 44.5799 43.103 44.6799C43.103 44.9799 43.003 45.1799 43.103 45.4799C43.203 45.7799 43.503 45.8799 43.703 45.5799C43.803 45.3799 43.903 45.0799 43.903 44.7799C43.903 44.6799 44.003 44.5799 44.003 44.4799C44.003 44.3799 44.103 44.2799 44.103 44.1799V44.0799C44.103 43.9799 44.203 43.8799 44.203 43.6799C44.203 43.5799 44.203 43.5799 44.303 43.4799V43.3799C44.303 43.2799 44.303 43.2799 44.303 43.3799C44.403 43.0799 44.403 42.8799 44.503 42.6799C44.503 42.4799 44.503 42.2799 44.303 42.1799Z" fill="#787878"/>
<path d="M56.4023 38.0789C56.2023 38.6789 56.0023 39.1789 55.7023 39.7789C55.6023 40.0789 55.5023 40.3789 55.4023 40.5789C55.3023 40.8789 55.1023 41.0789 55.0023 41.3789C54.9023 41.6789 55.2023 41.7789 55.4023 41.6789C55.7023 41.4789 55.9023 41.1789 56.0023 40.9789C56.2023 40.6789 56.4023 40.3789 56.5023 40.0789C56.8023 39.4789 56.9023 38.8789 57.0023 38.1789C57.1023 37.7789 56.5023 37.6789 56.4023 38.0789Z" fill="#787878"/>
<path d="M73.0023 73.4793C74.0023 73.2793 74.7023 72.0793 74.6023 70.9793C75.1023 71.6793 75.8023 72.1793 76.7023 72.5793C76.9023 71.9793 77.0023 71.3793 77.2023 70.7793C78.1023 71.7793 79.2023 72.6793 80.5023 73.1793C79.0023 71.9793 77.5023 70.5793 76.7023 68.0793C76.4023 67.1793 76.2023 66.1793 76.2023 65.1793C76.1023 65.0793 76.0023 64.9793 76.0023 64.7793C75.4023 65.1793 74.9024 65.5793 74.3024 66.0793C73.9024 65.7793 73.6023 65.3793 73.6023 64.8793C73.5023 65.0793 73.4024 65.2793 73.3024 65.4793C73.2024 66.2793 73.1023 67.1793 73.0023 68.0793C72.8023 69.9793 72.2023 71.4793 71.4023 72.6793C71.7023 73.2793 72.4023 73.6793 73.0023 73.4793Z" fill="#2260E6" fill-opacity="0.5"/>
<path d="M70.2041 80.7797C69.6041 79.7797 69.9041 78.3797 70.7041 77.5797C71.5041 76.7797 72.9041 76.6797 73.9041 77.3797C74.3041 77.6797 74.6041 77.9797 75.0041 78.1797C75.8041 78.6797 77.0041 78.4797 77.6041 77.7797C78.2041 77.0797 78.3041 75.8797 77.7041 75.0797C78.6041 75.5797 79.4041 75.9797 80.3041 76.3797C80.6041 76.4797 80.8041 76.6797 81.1041 76.5797C81.9041 76.4797 81.8041 75.3797 81.6041 74.5797C81.8041 74.4797 82.1041 74.4797 82.4041 74.5797C81.8041 74.0797 81.2041 73.5797 80.5041 73.0797C79.2041 72.4797 78.1041 71.6797 77.2041 70.6797C77.0041 71.2797 76.9041 71.8797 76.7041 72.4797C75.9041 72.1797 75.2041 71.5797 74.6041 70.8797C74.7041 71.9797 74.1041 73.0797 73.0041 73.3797C72.4041 73.4797 71.7041 73.1797 71.3041 72.6797C70.4041 74.2797 69.3041 75.5797 68.8041 77.2797C68.4041 78.3797 68.4041 79.4797 68.7041 80.4797C69.2041 80.4797 69.7041 80.4797 70.2041 80.7797Z" fill="#2EA0E6" fill-opacity="0.55"/>
<path d="M70.7031 83.4801C71.1031 83.2801 71.4031 82.8801 71.5031 82.4801C71.8031 82.9801 72.2031 83.3801 72.7031 83.6801C73.2031 83.9801 73.9031 83.9801 74.3031 83.6801C75.1031 83.0801 75.0031 81.9801 75.6031 81.2801C76.2031 81.6801 76.5031 82.1801 77.0031 82.7801C77.3031 81.3801 78.8031 80.2801 80.2031 80.3801C81.7031 80.5801 82.9031 81.8801 82.9031 83.3801C83.4031 82.8801 83.8031 82.1801 83.9031 81.4801C84.0031 82.2801 84.7031 82.9801 85.5031 82.9801C85.7031 82.9801 85.9031 82.9801 86.1031 82.8801C86.2031 80.6801 85.4031 78.3801 83.6031 76.0801C83.2031 75.5801 82.8031 75.1801 82.3031 74.7801C82.1031 74.6801 81.8031 74.6801 81.5031 74.7801C81.7031 75.4801 81.8031 76.5801 81.0031 76.7801C80.7031 76.7801 80.4031 76.6801 80.2031 76.5801C79.3031 76.1801 78.5031 75.6801 77.6031 75.2801C78.2031 76.0801 78.2031 77.1801 77.5031 77.9801C76.9031 78.6801 75.7031 78.8801 74.9031 78.3801C74.5031 78.1801 74.2031 77.7801 73.8031 77.5801C72.9031 76.8801 71.5031 76.9801 70.6031 77.7801C69.8031 78.5801 69.5031 79.9801 70.1031 80.9801C69.7031 80.6801 69.2031 80.6801 68.7031 80.7801C69.0031 81.5801 69.7031 82.5801 70.7031 83.4801Z" fill="#6AD933" fill-opacity="0.6"/>
<path d="M73.2031 85.1805C73.4031 85.0805 73.5031 84.9805 73.6031 84.7805C74.1031 85.9805 75.4031 86.6805 76.7031 86.4805C77.9031 86.2805 78.9031 85.0805 78.9031 83.7805C78.9031 84.3805 79.3031 84.8805 79.9031 84.9805C80.5031 85.0805 81.1031 84.6805 81.2031 84.1805C81.4031 84.9805 81.7031 85.7805 82.3031 86.3805C82.9031 86.9805 84.0031 87.0805 84.5031 86.3805C84.6031 86.6805 84.7031 86.8805 84.9031 87.1805C85.6031 85.8805 86.0031 84.4805 86.1031 82.9805C85.9031 83.0805 85.7031 83.0805 85.5031 83.0805C84.7031 83.0805 84.0031 82.3805 83.9031 81.5805C83.8031 82.2805 83.4031 82.9805 82.9031 83.4805C82.9031 81.9805 81.7031 80.6805 80.2031 80.4805C78.7031 80.2805 77.3031 81.3805 77.0031 82.8805C76.6031 82.2805 76.2031 81.7805 75.6031 81.3805C75.0031 82.0805 75.0031 83.1805 74.3031 83.7805C73.8031 84.0805 73.2031 84.0805 72.7031 83.7805C72.2031 83.4805 71.8031 83.0805 71.5031 82.5805C71.3031 82.9805 71.0031 83.2805 70.7031 83.5805C71.2031 84.0805 71.9031 84.4805 72.6031 84.7805C72.8031 84.7805 73.0031 84.9805 73.2031 85.1805Z" fill="#F2D750" fill-opacity="0.65"/>
<path d="M84.5039 86.3793C84.0039 87.0793 82.9039 86.9793 82.3039 86.3793C81.7039 85.7793 81.4039 84.9793 81.2039 84.1793C81.1039 84.7793 80.5039 85.1793 79.9039 84.9793C79.3039 84.8793 78.9039 84.2793 78.9039 83.7793C78.9039 85.0793 77.9039 86.1793 76.7039 86.4793C75.5039 86.6793 74.1039 85.9793 73.6039 84.7793C73.5039 84.8793 73.3039 85.0793 73.2039 85.1793C73.8039 85.8793 74.0039 86.7793 73.5039 87.3793C73.3039 87.5793 73.1039 87.7793 73.0039 87.9793C73.1039 89.0793 74.4039 89.8793 75.5039 89.7793C76.8039 89.6793 77.9039 88.7793 78.9039 87.9793C79.0039 88.4793 79.0039 88.9793 79.1039 89.4793C79.8039 88.8793 80.9039 88.9793 81.6039 89.5793C81.9039 89.7793 82.0039 89.9793 82.2039 90.2793C83.3039 89.3793 84.2039 88.2793 84.9039 87.0793C84.8039 86.8793 84.6039 86.5793 84.5039 86.3793Z" fill="#F2834D" fill-opacity="0.7"/>
<path d="M69.8026 40.4795C69.7026 40.1795 69.1026 40.1795 69.2026 40.5795C69.3026 41.4795 69.4026 42.3795 69.4026 43.2795C69.4026 43.6795 69.4026 44.1795 69.4026 44.5795C69.4026 44.7795 69.4026 45.0795 69.4026 45.2795C69.4026 45.4795 69.4026 45.6795 69.5026 45.9795C69.6026 46.1795 69.9026 46.1795 70.0026 46.0795C70.3026 45.7795 70.2026 45.1795 70.3026 44.7795C70.3026 44.2795 70.3026 43.8795 70.3026 43.3795C70.2026 42.2795 70.1026 41.3795 69.8026 40.4795Z" fill="#787878"/>
<path d="M68.2039 44.3805C68.2039 44.1805 67.9039 44.1805 67.8039 44.3805C67.7039 44.7805 67.6039 45.0805 67.6039 45.4805C67.6039 45.6805 67.5039 45.7805 67.5039 45.9805C67.5039 46.0805 67.5039 46.0805 67.5039 46.1805C67.5039 46.2805 67.5039 46.2805 67.5039 46.3805C67.5039 46.4805 67.5039 46.5805 67.5039 46.5805C67.5039 46.8805 67.9039 46.9805 68.0039 46.6805C68.0039 46.5805 68.1039 46.4805 68.1039 46.4805C68.1039 46.3805 68.2039 46.3805 68.2039 46.2805C68.2039 46.1805 68.2039 46.1805 68.2039 46.0805C68.2039 45.8805 68.2039 45.6805 68.3039 45.4805C68.3039 45.1805 68.2039 44.7805 68.2039 44.3805Z" fill="#787878"/>
<path d="M74.5031 38.5789C74.4031 38.2789 74.4031 37.9789 74.2031 37.6789C74.1031 37.3789 74.0031 37.0789 73.8031 36.7789C73.7031 36.4789 73.5031 36.1789 73.2031 35.9789C73.0031 35.7789 72.7031 35.9789 72.8031 36.2789C73.0031 36.8789 73.3031 37.3789 73.5031 37.9789C73.6031 38.2789 73.7031 38.5789 73.9031 38.8789C74.0031 39.1789 74.1031 39.4789 74.3031 39.7789C74.4031 39.9789 74.6031 39.8789 74.6031 39.6789C74.7031 39.2789 74.6031 38.9789 74.5031 38.5789Z" fill="#787878"/>
<path d="M38.4022 55.5789C38.5022 55.5789 38.7022 55.5789 38.8022 55.5789C38.8022 55.0789 38.8022 54.5789 38.9022 53.9789C39.2022 54.4789 39.4022 54.9789 39.6022 55.5789C39.7022 55.5789 39.8022 55.5789 39.9022 55.5789C38.7022 44.4789 43.5022 34.0789 48.0022 29.8789C42.4022 34.7789 38.0022 42.8789 38.4022 55.5789Z" fill="#323232"/>
<path d="M82.2025 90.2805C82.0025 89.9805 81.8025 89.7805 81.6025 89.5805C80.9025 89.0805 79.8025 88.8805 79.1025 89.4805C79.0025 88.9805 79.0025 88.4805 78.9025 87.9805C77.9025 88.7805 76.8025 89.6805 75.5025 89.7805C74.3025 89.8805 73.1025 89.0805 73.0025 87.9805C71.2025 89.9805 70.4025 91.7805 72.4025 92.3805C75.9025 93.3805 79.6025 92.4805 82.2025 90.2805Z" fill="#F23E33" fill-opacity="0.75"/>
<path d="M22.9037 82.6789C22.6037 82.7789 22.4037 82.9789 22.1037 83.1789C21.8037 84.1789 21.6037 85.3789 21.7037 86.5789C22.0037 85.0789 22.8037 83.6789 23.8037 82.3789C23.4037 82.4789 23.1037 82.5789 22.9037 82.6789Z" fill="#FF8A51" fill-opacity="0.7"/>
<path d="M26.0035 77.6787C26.0035 77.5787 26.1035 77.4787 26.1035 77.3787C24.8035 78.6787 22.9035 80.5787 22.1035 83.1787C22.3035 82.9787 22.6035 82.8787 22.9035 82.6787C23.2035 82.5787 23.5035 82.4787 23.8035 82.3787C25.3035 80.4787 27.2035 78.8787 28.2035 77.8787C28.7035 77.3787 29.2035 76.8787 29.6035 76.3787C28.3035 76.2787 27.1035 76.9787 26.0035 77.6787Z" fill="#FFE354" fill-opacity="0.65"/>
<path d="M30.0023 73.9801C30.0023 73.5801 30.0023 73.1801 30.0023 72.7801C29.3023 74.0801 28.3023 75.0801 27.2023 76.2801C26.9023 76.5801 26.5023 76.9801 26.0023 77.3801C26.0023 77.4801 25.9023 77.5801 25.9023 77.6801C27.0023 76.9801 28.2023 76.3801 29.4023 76.4801C30.4023 75.2801 31.1023 73.9801 31.6023 72.5801C31.0023 72.8801 30.4023 73.3801 30.0023 73.9801Z" fill="#76F239" fill-opacity="0.6"/>
<path d="M32.0039 66.7793C31.8039 66.7793 31.7039 66.8793 31.5039 66.8793C31.3039 69.5793 30.8039 71.2793 30.0039 72.6793C30.0039 73.0793 30.0039 73.4793 30.0039 73.8793C30.4039 73.2793 31.0039 72.7793 31.7039 72.4793C32.2039 70.7793 32.3039 68.8793 32.0039 66.7793Z" fill="#33B1FF" fill-opacity="0.55"/>
<path d="M31.6039 64.8789C31.6039 65.6789 31.6039 66.3789 31.5039 66.9789C31.7039 66.8789 31.8039 66.8789 32.0039 66.8789C31.9039 66.1789 31.8039 65.4789 31.6039 64.8789Z" fill="#266AFF" fill-opacity="0.5"/>
<path d="M26.5035 90.1797C25.6035 90.3797 24.7035 89.8797 24.1035 89.1797C24.9035 91.5797 27.1035 93.2797 29.9035 92.8797C28.4035 92.6797 27.1035 91.5797 26.5035 90.1797Z" fill="#FF4136" fill-opacity="0.75"/>
<path d="M26.4025 90.1801C26.5025 90.1801 26.5025 90.1801 26.4025 90.1801C26.3025 89.7801 26.1025 89.4801 26.0025 89.0801C25.6025 87.2801 25.7025 85.6801 26.0025 84.2801C25.6025 84.2801 25.3025 84.2801 24.9025 84.3801C25.6025 84.1801 25.5025 82.9801 24.9025 82.5801C24.0025 83.9801 23.5025 85.5801 23.6025 87.4801C23.6025 88.0801 23.8025 88.6801 24.0025 89.1801C24.7025 89.8801 25.6025 90.2801 26.4025 90.1801Z" fill="#FF8A51" fill-opacity="0.7"/>
<path d="M25.0039 84.3793C25.4039 84.2793 25.7039 84.2793 26.1039 84.2793C26.7039 81.9793 28.0039 80.0793 29.4039 78.2793C27.8039 79.4793 26.1039 80.9793 25.1039 82.6793C25.7039 82.9793 25.7039 84.0793 25.0039 84.3793Z" fill="#FFE354" fill-opacity="0.65"/>
<path d="M27.9027 85.6801C27.8027 86.1801 27.8027 86.7801 27.8027 87.3801C27.9027 86.6801 28.1027 86.0801 28.3027 85.5801C28.1027 85.5801 28.0027 85.6801 27.9027 85.6801Z" fill="#FF8A51" fill-opacity="0.7"/>
<path d="M27.9023 85.6797C28.0023 85.6797 28.1023 85.5797 28.3023 85.5797C29.2023 83.1797 31.0023 81.9797 32.7023 80.5797C32.7023 80.5797 32.7023 80.5797 32.6023 80.5797C32.6023 80.1797 32.6023 79.6797 32.6023 79.2797C32.1023 79.3797 31.5023 79.3797 31.0023 79.4797C31.1023 79.3797 31.2023 79.2797 31.2023 79.1797C29.8023 80.5797 28.3023 82.4797 27.9023 85.6797Z" fill="#FFE354" fill-opacity="0.65"/>
<path d="M36.9035 74.5801C36.4035 74.6801 35.9035 74.9801 35.5035 75.3801C35.8035 74.5801 35.4035 73.6801 34.8035 73.0801C34.7035 74.2801 34.3035 75.4801 33.6035 76.8801C33.2035 77.5801 32.3035 78.2801 31.3035 79.2801C31.2035 79.3801 31.2035 79.4801 31.1035 79.5801C31.6035 79.4801 32.2035 79.4801 32.7035 79.3801C32.7035 79.7801 32.7035 80.2801 32.7035 80.6801C32.7035 80.6801 32.7035 80.6801 32.8035 80.6801C34.4035 79.4801 35.9035 78.2801 36.9035 76.0801C37.0035 75.7801 37.1035 75.3801 37.2035 75.0801C37.0035 74.8801 36.9035 74.6801 36.9035 74.5801Z" fill="#76F239" fill-opacity="0.6"/>
<path d="M36.3027 68.5789C35.9027 68.9789 35.6027 69.3789 35.4027 69.8789C35.1027 69.1789 34.8027 68.4789 34.3027 67.8789C34.6027 69.6789 35.0027 71.2789 34.8027 73.0789C35.4027 73.6789 35.8027 74.5789 35.5027 75.3789C35.9027 74.9789 36.4027 74.7789 36.9027 74.5789C37.0027 74.6789 37.0027 74.8789 37.1027 74.9789C37.5027 73.0789 37.0027 70.6789 36.3027 68.5789Z" fill="#33B1FF" fill-opacity="0.55"/>
<path d="M34.6035 63.9789C34.3035 63.1789 34.1035 62.2789 33.8035 61.3789C33.6035 61.6789 33.3035 61.9789 33.1035 62.2789C33.4035 64.1789 33.8035 65.9789 34.1035 67.5789C34.1035 67.6789 34.1035 67.7789 34.1035 67.7789C34.6035 68.3789 34.9035 69.0789 35.2035 69.7789C35.4035 69.2789 35.8035 68.8789 36.1035 68.4789L36.2035 68.5789C35.8035 66.6789 35.0035 64.9789 34.6035 63.9789Z" fill="#266AFF" fill-opacity="0.5"/>
<path d="M33.2034 62.2797C33.4034 61.9797 33.7034 61.6797 33.9034 61.3797C33.4034 59.3797 33.0034 57.0797 32.9034 54.6797C32.8034 54.6797 32.7034 54.7797 32.6034 54.8797C32.5034 57.4797 32.8034 59.9797 33.2034 62.2797Z" fill="#A52AF2" fill-opacity="0.25"/>
<path d="M32.6035 54.8805C32.7035 54.7805 32.8035 54.6805 32.9035 54.6805C32.9035 53.6805 32.9035 52.5805 33.0035 51.4805C32.7035 52.6805 32.6035 53.7805 32.6035 54.8805Z" fill="#A52AF2" fill-opacity="0.25"/>
<path d="M39.2035 79.9789C38.5035 79.8789 37.7035 80.1789 37.3035 80.8789C37.3035 80.5789 37.2035 80.1789 37.2035 79.8789C37.2035 79.8789 37.2035 79.8789 37.2035 79.9789C36.6035 80.8789 35.8035 81.6789 35.6035 82.6789C36.7035 81.6789 38.2035 80.9789 39.2035 79.9789Z" fill="#FFE354" fill-opacity="0.65"/>
<path d="M39.5027 74.2793C39.2027 74.5793 38.8027 74.9793 38.5027 75.2793C38.5027 75.7793 38.4027 76.3793 38.4027 76.8793C38.2027 77.9793 37.9027 78.9793 37.3027 79.8793C37.3027 80.1793 37.4027 80.5793 37.4027 80.8793C37.8027 80.2793 38.6027 79.9793 39.3027 79.9793L39.4027 79.8793C39.7027 79.5793 39.9027 79.1793 40.1027 78.8793C40.6027 77.7793 40.7027 76.4793 40.5027 75.2793C40.1027 74.8793 39.8027 74.5793 39.5027 74.2793Z" fill="#76F239" fill-opacity="0.6"/>
<path d="M39.5027 74.2789C39.8027 74.5789 40.2027 74.8789 40.5027 75.2789C40.4027 74.7789 40.3027 74.3789 40.2027 73.8789C39.8027 72.6789 39.4027 71.5789 38.9027 70.4789C38.7027 69.9789 38.3027 69.3789 37.9027 68.8789C37.9027 69.0789 37.8027 69.3789 37.8027 69.5789C38.3027 71.4789 38.6027 73.3789 38.5027 75.2789C38.8027 74.8789 39.1027 74.5789 39.5027 74.2789Z" fill="#33B1FF" fill-opacity="0.55"/>
<path d="M37.8031 69.5801C37.8031 69.3801 37.9031 69.0801 37.9031 68.8801C37.6031 68.4801 37.4031 67.9801 37.2031 67.5801C37.4031 68.1801 37.6031 68.8801 37.8031 69.5801Z" fill="#266AFF" fill-opacity="0.5"/>
<path d="M84.5031 82.6801C84.1031 82.3801 83.9031 81.9801 83.8031 81.5801C83.8031 81.7801 83.7031 81.9801 83.7031 82.1801C83.9031 82.9801 83.9031 83.9801 83.8031 85.0801C84.2031 84.1801 84.4031 83.3801 84.5031 82.6801Z" fill="#FFE354" fill-opacity="0.65"/>
<path d="M81.7039 75.7793C81.7039 76.2793 81.5039 76.6793 81.1039 76.7793C80.8039 76.7793 80.5039 76.6793 80.3039 76.5793C79.9039 76.3793 79.4039 76.0793 79.0039 75.8793C79.4039 76.1793 79.7039 76.3793 79.9039 76.6793C81.2039 78.0793 83.3039 79.2793 83.9039 82.1793C84.0039 81.9793 84.0039 81.7793 84.0039 81.5793C84.0039 82.0793 84.3039 82.4793 84.7039 82.6793C85.0039 79.0793 82.7039 76.6793 81.7039 75.7793Z" fill="#76F239" fill-opacity="0.6"/>
<path d="M81.5039 75.5801C80.6039 74.7801 78.4039 73.6801 76.9039 71.5801C76.8039 71.8801 76.7039 72.2801 76.6039 72.5801C76.4039 72.4801 76.2039 72.3801 76.0039 72.2801C76.8039 73.9801 77.9039 75.0801 78.8039 75.7801C79.2039 75.9801 79.7039 76.2801 80.1039 76.4801C80.4039 76.5801 80.6039 76.7801 80.9039 76.6801C81.4039 76.5801 81.5039 76.1801 81.5039 75.6801C81.6039 75.6801 81.6039 75.6801 81.5039 75.5801Z" fill="#33B1FF" fill-opacity="0.55"/>
<path d="M75.3039 66.5801C75.1039 69.0801 75.4039 70.9801 76.0039 72.3801C76.2039 72.4801 76.4039 72.5801 76.6039 72.6801C76.7039 72.3801 76.8039 71.9801 76.9039 71.6801C76.0039 70.2801 75.3039 68.6801 75.3039 66.5801Z" fill="#266AFF" fill-opacity="0.5"/>
<path d="M80.6035 89.1789C80.1035 89.0789 79.5035 89.1789 79.1035 89.5789C79.1035 89.3789 79.0035 89.1789 79.0035 88.8789C78.1035 90.0789 76.7035 90.9789 74.6035 91.2789C77.4035 91.2789 79.3035 90.3789 80.6035 89.1789Z" fill="#FF4136" fill-opacity="0.75"/>
<path d="M81.3035 84.1797C81.2035 84.6797 80.7035 85.0797 80.2035 84.9797C80.2035 86.3797 79.9035 87.7797 79.1035 88.7797C79.1035 88.9797 79.2035 89.1797 79.2035 89.4797C79.6035 89.1797 80.1035 89.0797 80.7035 89.0797C81.5035 88.2797 82.1035 87.1797 82.3035 86.0797C81.7035 85.6797 81.5035 84.8797 81.3035 84.1797Z" fill="#FF8A51" fill-opacity="0.7"/>
<path d="M81.5027 80.8789C81.1027 80.6789 80.7027 80.4789 80.3027 80.3789C80.0027 80.3789 79.6027 80.3789 79.3027 80.4789C79.9027 81.8789 80.2027 83.4789 80.2027 84.9789C80.7027 84.9789 81.2027 84.6789 81.3027 84.1789C81.5027 84.8789 81.7027 85.6789 82.2027 86.1789C82.6027 84.4789 82.3027 82.5789 81.5027 80.8789Z" fill="#FFE354" fill-opacity="0.65"/>
<path d="M81.3031 80.4793C80.4031 78.9793 79.2031 77.8793 78.0031 76.7793C78.0031 77.0793 77.9031 77.3793 77.7031 77.6793C78.0031 78.0793 78.2031 78.5793 78.5031 78.9793C78.8031 79.4793 79.0031 79.9793 79.3031 80.5793C79.6031 80.4793 80.0031 80.4793 80.3031 80.4793C80.7031 80.4793 81.2031 80.6793 81.5031 80.9793C81.4031 80.7793 81.3031 80.5793 81.3031 80.4793Z" fill="#76F239" fill-opacity="0.6"/>
<path d="M77.7035 77.5801C77.9035 77.2801 78.0035 76.9801 78.0035 76.6801C77.3035 75.8801 76.6035 75.0801 76.1035 74.0801C76.4035 75.3801 77.0035 76.4801 77.7035 77.5801Z" fill="#33B1FF" fill-opacity="0.55"/>
</svg>
