<svg width="233" height="84" viewBox="0 0 233 84" fill="none" xmlns="http://www.w3.org/2000/svg">
<path d="M232.384 62.7928L232.172 48.7093C232.151 47.2727 230.86 46.1899 229.442 46.419C226.015 46.9728 220.472 47.8661 220.01 47.9389C220.01 47.1894 220.004 43.7247 220.006 42.7253C221.276 42.5212 225.226 41.9174 227.666 41.5426C228.822 41.3657 229.634 40.3704 229.628 39.2023V25.6872C229.619 24.2381 228.282 23.1408 226.852 23.3761C224.347 23.7904 220.895 24.3588 220.023 24.4963C220.021 23.2678 220.021 22.0269 220.027 20.7859C221.153 20.6089 226.85 19.7032 229.942 19.2118C231.095 19.0286 231.937 18.0292 231.926 16.8611L231.782 2.8567C231.768 1.42004 230.483 0.333165 229.063 0.55387L203.478 4.55364C202.331 4.7327 201.488 5.71963 201.488 6.88145V13.057C199.012 9.61945 195.21 7.18129 190.908 6.58788L190.9 6.58579C190.038 6.4692 189.153 6.40881 188.27 6.40881C181.516 6.40881 175.294 9.74438 172.086 14.9913V12.2284C172.086 10.775 170.78 9.66735 169.348 9.90471L155.166 12.2471C154.023 12.4366 153.188 13.4277 153.195 14.5853C153.211 17.1359 153.238 21.3856 153.238 22.8639C152.789 22.0664 152.268 21.3106 151.681 20.611C150.305 18.9703 148.581 17.6377 146.705 16.7403C144.408 15.641 141.793 15.0725 138.922 15.0725C137.712 15.0725 136.446 15.1746 135.157 15.3745L120.959 17.6273V2.35491C120.959 0.907831 119.666 -0.195693 118.238 0.0291765L87.0996 4.92634C85.9544 5.10748 85.1111 6.09441 85.1111 7.25207V15.3182C83.8556 13.107 82.1316 11.2102 80.0453 9.81309C77.3115 7.98082 74.0113 6.98973 70.4655 6.98973C69.2391 6.98973 68.0023 7.11882 66.7843 7.34369C61.3124 8.34727 56.6984 11.2394 54.0708 15.3849C53.7918 15.8242 53.5336 16.2781 53.2942 16.7487V12.9592C53.2942 11.51 51.9991 10.4044 50.5666 10.6335L1.98427 18.3998C0.841179 18.583 0 19.5679 0 20.7255V80.7928C0 82.2399 1.293 83.3455 2.72343 83.1186L51.3057 75.4397C52.4509 75.2585 53.2921 74.2716 53.2921 73.1139V64.6189C54.5289 66.9196 56.2674 68.9018 58.3725 70.3551C61.1563 72.2769 64.548 73.318 68.2126 73.318C69.3765 73.318 70.5508 73.2035 71.7064 73.0015C74.0821 72.5892 76.3933 71.8064 78.3879 70.6945C80.7095 69.3994 82.5918 67.7004 84.0159 65.6703C84.4157 65.0998 84.7801 64.5064 85.1091 63.886V67.3111C85.1091 68.7602 86.4042 69.8637 87.8346 69.6368L119.824 64.5481V79.8871C119.824 81.3342 121.115 82.4377 122.544 82.2128L136.423 80.037C137.566 79.858 138.409 78.8752 138.414 77.7175C138.42 75.6875 138.428 72.7308 138.428 71.8917C138.649 72.6496 139.448 75.4209 140.011 77.3656C140.34 78.5067 141.468 79.2229 142.64 79.0376L170.097 74.6922C171.243 74.511 172.084 73.5241 172.084 72.3665V65.9597C173.562 68.0814 175.525 69.8283 177.824 70.9964C180.137 72.1707 182.817 72.8016 185.586 72.8016C186.925 72.8016 188.279 72.6517 189.615 72.3769C191.97 71.8896 194.167 71.0693 196.136 69.895C198.325 68.5895 200.117 66.9238 201.485 64.9582V66.9633C201.485 68.4104 202.778 69.516 204.209 69.2891L230.396 65.1477C231.553 64.9728 232.401 63.9651 232.384 62.7928ZM153.23 49.1507C153.245 49.1278 153.257 49.1028 153.27 49.0799C153.274 51.8825 153.278 54.6746 153.28 57.3543C152.31 54.3311 151.573 52.0366 151.427 51.5785C152.083 50.8768 152.678 50.0606 153.23 49.1507ZM172.084 35.8126C173.814 39.0753 176.373 42.186 179.738 45.0864C179.738 45.0864 180.906 46.0838 181.453 46.5689C180.4 46.7459 175.457 47.5392 172.084 48.0805V35.8126ZM195.297 33.5348C195.297 33.5348 193.271 31.7483 192.863 31.3819C194.606 31.0945 198.672 30.474 201.485 30.0472V41.0408C199.934 38.382 197.858 35.8522 195.297 33.5348Z" fill="white"/>
<path d="M115.484 60.6803C113.139 61.0655 110.789 61.4257 108.438 61.8005C107.699 61.9171 107.028 61.3508 107.026 60.6033C106.997 53.0556 107.014 45.5037 106.932 37.956C104.363 38.3703 101.792 38.7742 99.2223 39.1782C99.1911 46.8633 99.2202 54.5443 99.2057 62.2232C99.2036 62.8207 98.7684 63.3309 98.1792 63.4245C95.8409 63.7973 93.5006 64.1741 91.1603 64.5385C90.4232 64.653 89.7549 64.0825 89.7549 63.335C89.7341 45.6182 89.6716 27.8972 89.7132 10.1825C89.7153 9.58488 90.1505 9.07476 90.7418 8.98107C93.0696 8.61045 95.3995 8.24191 97.7294 7.87338C98.4707 7.75678 99.139 8.32936 99.1369 9.07893C99.1265 15.9229 99.1494 22.7689 99.0974 29.6129C101.713 29.1548 104.338 28.7363 106.97 28.3657C106.97 21.3885 106.912 14.4071 107.012 7.42988C107.02 6.83647 107.455 6.33677 108.04 6.24307C110.362 5.87453 112.683 5.50183 115.009 5.14162C115.746 5.02711 116.412 5.59761 116.414 6.34301C116.481 24.0536 116.448 41.7663 116.504 59.4748C116.504 60.0723 116.073 60.5845 115.484 60.6803Z" fill="#F06289"/>
<path d="M81.5056 36.2709C77.8494 36.8268 74.2036 37.4473 70.5453 37.9949C69.9477 38.0844 69.5063 38.5966 69.5084 39.2025C69.5146 40.8953 69.5146 42.5901 69.5105 44.285C69.5084 45.0345 70.1747 45.6071 70.9159 45.4926C71.8425 45.3469 72.7711 45.2011 73.6976 45.0595C73.7018 48.3451 73.7434 51.6328 73.7226 54.9184C73.7122 56.5445 73.2083 58.3539 71.7654 59.2659C71.0054 59.7448 70.0622 60.0092 69.144 60.0092C68.2674 60.0092 67.4159 59.7468 66.7246 59.1701C65.4503 58.1061 65.1484 56.3613 65.1713 54.7851C65.3129 45.1553 65.2442 35.5213 65.2275 25.8873C65.2255 24.4006 65.4462 22.7141 66.6455 21.696C67.4429 21.0193 68.5173 20.6487 69.575 20.6487C70.2455 20.6487 70.918 20.7923 71.5031 21.1275C72.8398 21.8917 73.3645 23.4991 73.3916 24.9691C73.4186 26.5598 73.4228 28.1547 73.4061 29.7475C73.3978 30.5034 74.0682 31.0843 74.8137 30.9656C77.154 30.5929 79.4984 30.2223 81.8408 29.8558C82.4238 29.7642 82.8569 29.2687 82.8694 28.6794C82.909 26.8367 82.9631 24.9899 82.8527 23.1493C82.6258 19.4077 80.7144 15.7286 77.5641 13.6152C75.4841 12.2223 73.0105 11.5664 70.5266 11.5664C69.5667 11.5664 68.6089 11.6726 67.672 11.8454C63.8533 12.5471 60.1097 14.496 57.9901 17.8399C56.3473 20.43 55.783 23.5324 55.7851 26.5536C55.7892 34.524 55.7351 42.4943 55.7913 50.4606C55.808 52.7863 55.6914 55.1162 55.8788 57.4357C56.1724 61.0336 58.0275 64.5337 61.03 66.6054C63.1537 68.0712 65.7106 68.7604 68.2758 68.7604C69.1857 68.7604 70.0955 68.6667 70.9846 68.5126C74.6075 67.8817 78.1888 66.1223 80.3396 63.0574C82.2698 60.3069 82.9256 56.8839 82.911 53.5796C82.8861 48.2098 82.9277 42.84 82.9069 37.4722C82.9048 36.7289 82.2406 36.1584 81.5056 36.2709Z" fill="#3CC0E2"/>
<path d="M30.3747 74.1608C28.0302 74.546 25.6795 74.9062 23.3287 75.281C22.5896 75.3976 21.9191 74.8312 21.9171 74.0837C21.8879 66.536 21.9046 58.9841 21.8234 51.4385C19.254 51.8508 16.6847 52.2547 14.1132 52.6586C14.0841 60.3438 14.1112 68.0227 14.0966 75.7057C14.0945 76.3033 13.6593 76.8134 13.068 76.9071C10.7298 77.2777 8.38947 77.6546 6.04916 78.019C5.31209 78.1335 4.64372 77.563 4.64372 76.8155C4.6229 59.0987 4.56252 41.3777 4.60416 23.6629C4.60624 23.0654 5.04141 22.5552 5.63273 22.4615C7.96263 22.0909 10.2884 21.7224 12.6183 21.3538C13.3595 21.2372 14.0279 21.8098 14.0279 22.5594C14.0175 29.4034 14.0424 36.2494 13.9883 43.0933C16.6076 42.6353 19.229 42.2168 21.8608 41.8461C21.8608 34.8689 21.8025 27.8876 21.9025 20.9104C21.9108 20.3169 22.346 19.8172 22.931 19.7235C25.2526 19.355 27.5763 18.9823 29.902 18.6221C30.6391 18.5076 31.3054 19.0781 31.3074 19.8235C31.3762 37.532 31.3387 55.2467 31.3949 72.9573C31.3949 73.5528 30.9639 74.065 30.3747 74.1608Z" fill="#3CC0E2"/>
<path d="M47.7944 71.408C45.3813 71.7953 42.9639 72.1763 40.5486 72.5552C39.8095 72.6718 39.1432 72.1013 39.1411 71.3538C39.1161 54.7093 39.0932 24.202 39.1182 18.1929C39.1203 17.5954 39.5555 17.0894 40.1447 16.9957C42.5454 16.6126 44.9482 16.2462 47.3468 15.8526C48.088 15.7298 48.7626 16.3003 48.7647 17.0519C48.7814 34.7688 48.823 52.4877 48.8209 70.2045C48.8209 70.8021 48.3858 71.3122 47.7944 71.408Z" fill="#3CC0E2"/>
<path d="M197.855 62.29C195.763 65.334 192.314 67.1809 188.758 67.9159C187.74 68.1262 186.697 68.2469 185.654 68.2469C183.684 68.2469 181.723 67.8326 179.959 66.9352C177.232 65.5485 175.199 62.9812 174.285 60.0746C173.615 57.9508 173.648 55.7208 173.621 53.52C173.615 52.9162 174.05 52.3957 174.646 52.2999C176.867 51.9439 179.093 51.6066 181.31 51.2422C182.066 51.1173 182.749 51.7107 182.728 52.4748C182.672 54.4945 182.52 56.6057 183.851 58.2444C184.542 59.096 185.564 59.4812 186.605 59.4812C188.329 59.4812 190.126 58.4318 190.559 56.6953C191.323 53.6429 190.59 50.2636 188.777 47.6942C187.128 45.356 184.94 43.4821 182.785 41.6332C179.555 38.8619 176.711 35.4888 175.181 31.4745C173.555 27.1999 173.536 22.2048 175.645 18.0989C178.008 13.4953 183.259 10.9863 188.333 10.9863C189.01 10.9863 189.683 11.0301 190.347 11.1217C194.597 11.7047 198.251 14.9549 199.504 19.0733C200.054 20.8806 200.097 22.7608 200.06 24.6263C200.048 25.2177 199.608 25.7132 199.023 25.8007C196.806 26.1338 194.59 26.4857 192.379 26.848C191.623 26.9729 190.94 26.3774 190.963 25.6112C191.015 23.9476 191.003 22.2298 189.905 20.8931C189.264 20.1102 188.329 19.7354 187.359 19.7354C185.902 19.7354 184.405 20.5558 183.878 21.9466C183.009 24.2328 183.576 26.8334 184.731 28.903C186.551 32.1595 189.564 34.4706 192.298 36.9276C196.064 40.3152 199.14 44.7418 200.031 49.8138C200.776 54.0343 200.339 58.6795 197.855 62.29Z" fill="#3CC0E2"/>
<path d="M166.59 70.6599C164.3 71.0264 161.141 71.524 159.34 71.8093C158.601 71.9259 157.935 71.3554 157.933 70.6079C157.927 62.7041 157.895 24.3284 157.914 17.447C157.916 16.8494 158.349 16.3414 158.941 16.2477C161.339 15.8646 163.742 15.4981 166.141 15.1046C166.882 14.9817 167.556 15.5522 167.559 16.3039C167.573 34.0207 167.613 51.7396 167.615 69.4565C167.615 70.0561 167.182 70.5662 166.59 70.6599Z" fill="#3CC0E2"/>
<path d="M226.799 61.1194C220.382 62.1417 213.963 63.162 207.541 64.1697C206.802 64.2863 206.134 63.7158 206.134 62.9662C206.113 45.2494 206.053 27.5367 206.09 9.81992C206.092 9.22027 206.527 8.71223 207.119 8.61854C213.405 7.62744 219.684 6.59887 225.979 5.64317C226.714 5.53074 227.374 6.09708 227.38 6.8404C227.405 9.21402 227.38 11.5876 227.392 13.9592C227.394 14.5609 226.961 15.0752 226.366 15.171C222.768 15.7436 219.17 16.3224 215.568 16.8742C215.487 21.1946 215.533 25.5192 215.53 29.8396C218.235 29.419 220.942 29.0005 223.645 28.5591C224.39 28.4383 225.062 29.013 225.058 29.7667C225.046 31.9321 225.023 34.0975 225.056 36.2609C225.065 36.8709 224.627 37.3935 224.023 37.4872C221.19 37.9203 218.362 38.3805 215.533 38.8344C215.46 43.667 215.555 48.5059 215.466 53.3385C219.083 52.6993 222.718 52.1683 226.347 51.5853C227.08 51.4666 227.753 52.0247 227.761 52.768C227.794 55.1458 227.792 57.5215 227.823 59.8993C227.832 60.5052 227.397 61.0257 226.799 61.1194Z" fill="#3CC0E2"/>
<path d="M146.248 50.1744C147.434 49.2416 148.573 48.2026 149.342 46.8742C150.932 44.1154 151.189 40.8527 151.134 37.742C151.074 34.2898 151.399 30.7523 150.327 27.4042C149.431 24.6121 147.457 22.1448 144.798 20.8726C142.983 20.0044 140.988 19.6504 138.985 19.6504C137.957 19.6504 136.926 19.742 135.92 19.8982C132.429 20.4395 128.943 21.0017 125.456 21.5555C124.864 21.6492 124.429 22.1573 124.427 22.7569C124.392 40.4738 124.452 58.1885 124.471 75.9074C124.471 76.6549 125.139 77.2254 125.876 77.1109C128.216 76.7465 130.557 76.3717 132.895 75.999C133.486 75.9053 133.921 75.3973 133.924 74.7997C133.94 68.0453 133.842 61.2846 133.932 54.5302C135.291 54.3241 136.653 54.1159 138.009 53.8806C139.868 60.3289 141.765 66.771 143.628 73.2173C143.799 73.8065 144.378 74.1772 144.984 74.0814C147.232 73.7295 150.308 73.2402 152.073 72.9591C152.811 72.8425 153.269 72.095 153.04 71.385C151.803 67.5123 148.199 56.2646 146.248 50.1744ZM140.434 44.3611C138.802 46.2142 136.056 45.9268 133.842 46.4786C133.928 40.7215 133.817 34.9603 133.865 29.2053C134.962 29.0345 136.189 28.7326 137.355 28.7326C138.396 28.7326 139.4 28.9617 140.205 29.755C142.09 31.6143 141.625 34.4939 141.673 36.9029C141.586 39.391 142.227 42.3248 140.434 44.3611Z" fill="#F06289"/>
</svg>
