<svg width="146" height="121" viewBox="0 0 146 121" fill="none" xmlns="http://www.w3.org/2000/svg">
<mask id="path-1-outside-1_855_1740" maskUnits="userSpaceOnUse" x="0.882812" y="0.630859" width="145" height="120" fill="black">
<rect fill="white" x="0.882812" y="0.630859" width="145" height="120"/>
<path fill-rule="evenodd" clip-rule="evenodd" d="M73.1119 5.63086V43.4692C70.8719 42.3462 68.855 40.8249 67.1598 38.9797C65.0879 36.6139 63.7948 33.6567 62.4994 30.6941L62.4992 30.6938L62.4991 30.6935L62.499 30.6932L62.4988 30.6929L62.4987 30.6926L62.4986 30.6923L62.4984 30.692C62.1338 29.8582 61.7691 29.024 61.3867 28.2025C61.7657 29.0179 62.1279 29.8462 62.4901 30.6744C63.7921 33.6516 65.0939 36.6286 67.1767 39.0097C68.868 40.8487 70.8789 42.3655 73.1118 43.4865V93.8921L73.1118 93.8921V107.544L55.6086 111.485L55.6084 111.485L39.5037 115.107V14.5338L46.6164 12.6504C52.2786 15.5767 56.9537 20.0903 60.077 25.6264C56.9537 20.0766 52.2719 15.552 46.5995 12.6203L73.1119 5.63086ZM140.337 69.5438V87.2981L139.911 87.5277C135.754 89.9255 131.528 93.6456 131.251 98.7006C131.117 101.129 131.931 103.47 132.741 105.801C133.113 106.873 133.485 107.943 133.764 109.019L106.724 115.102L106.724 115.107L106.714 115.105L106.703 115.107V115.102L98.1703 113.185C98.1192 113.172 98.076 113.138 98.0513 113.092L96.593 110.541C96.5864 110.528 96.5733 110.52 96.559 110.52C96.5447 110.52 96.5315 110.528 96.525 110.541L95.5896 112.458C95.555 112.537 95.4693 112.58 95.3856 112.56L73.1119 107.548L73.1119 93.8921C78.6601 89.3387 84.1063 84.5898 87.7966 78.2891C92.4945 70.2537 93.4511 58.7321 87.3162 51.9C84.6116 48.8898 80.9624 47.2086 77.3224 45.5316C75.8985 44.8756 74.476 44.2203 73.1119 43.4863V5.63086L89.3187 9.92488L89.3187 9.92597L106.722 14.5329L140.337 5.63086V69.5437C140.164 69.5069 139.992 69.4656 139.821 69.4201C139.992 69.4657 140.164 69.507 140.337 69.5438ZM89.626 13.0079C90.5825 19.6405 93.403 25.944 97.5669 30.9612C93.4107 25.9461 90.5904 19.6391 89.626 13.0079ZM106.72 38.6368C106.442 38.4606 106.166 38.2873 105.891 38.117C106.119 38.256 106.347 38.4 106.575 38.5449L106.72 38.6368ZM106.724 38.6423V38.6532C115.037 43.9232 122.183 50.8389 127.722 58.9746C129.496 61.5602 131.601 64.1458 133.952 66.1374C131.603 64.1458 129.504 61.5601 127.739 58.9745C122.196 50.8332 115.044 43.9136 106.724 38.6423ZM140.358 87.2979L140.358 107.544L133.802 109.019C133.525 107.952 133.155 106.889 132.785 105.822C131.973 103.486 131.155 101.135 131.289 98.7004C131.549 93.6453 135.775 89.9168 139.933 87.5274L140.358 87.2979ZM5.88281 107.544L15.6145 109.734L20.0956 110.75L39.4952 115.108V14.534L24.666 10.6099C24.5926 10.5895 24.5141 10.6145 24.4661 10.6736L22.6848 12.6506L20.9842 9.7468C20.936 9.66213 20.8567 9.5996 20.7631 9.57249L5.88281 5.63135L5.88281 107.544Z"/>
</mask>
<path d="M73.1119 43.4692L70.8708 47.9389C72.4208 48.716 74.2627 48.6347 75.7382 47.724C77.2136 46.8132 78.1119 45.2031 78.1119 43.4692H73.1119ZM73.1119 5.63086H78.1119C78.1119 4.07995 77.3922 2.61685 76.1637 1.67024C74.9352 0.723629 73.3369 0.400692 71.8373 0.79605L73.1119 5.63086ZM67.1598 38.9797L63.3983 42.2738C63.4245 42.3037 63.451 42.3332 63.4778 42.3624L67.1598 38.9797ZM62.4994 30.6941L67.0806 28.6909C67.0765 28.6817 67.0725 28.6726 67.0684 28.6634L62.4994 30.6941ZM62.4984 30.692L57.9172 32.6952C57.9213 32.7043 57.9253 32.7135 57.9294 32.7227L62.4984 30.692ZM61.3867 28.2025L65.9196 26.0924C64.7545 23.5894 61.7812 22.5045 59.2779 23.6689C56.7746 24.8333 55.6888 27.8063 56.8525 30.31L61.3867 28.2025ZM62.4901 30.6744L67.0712 28.6711L67.0712 28.6711L62.4901 30.6744ZM67.1767 39.0097L63.4132 42.3016C63.4406 42.3329 63.4684 42.3638 63.4965 42.3944L67.1767 39.0097ZM73.1118 43.4865H78.1118C78.1118 41.5956 77.0451 39.8665 75.3552 39.0181L73.1118 43.4865ZM73.1118 93.8921H68.1118C68.1118 95.8322 69.2341 97.5972 70.991 98.4201C72.7479 99.243 74.8223 98.9752 76.3127 97.7332L73.1118 93.8921ZM73.1118 93.8921H78.1118C78.1118 91.952 76.9895 90.187 75.2326 89.3641C73.4757 88.5412 71.4013 88.809 69.9109 90.051L73.1118 93.8921ZM73.1118 107.544L74.2102 112.422C76.4913 111.908 78.1118 109.882 78.1118 107.544H73.1118ZM55.6086 111.485L54.5102 106.607C53.1969 106.903 52.0583 107.715 51.352 108.862L55.6086 111.485ZM55.6084 111.485L56.7056 116.363C58.0194 116.068 59.1584 115.255 59.8649 114.108L55.6084 111.485ZM39.5037 115.107H34.5037C34.5037 116.626 35.1941 118.063 36.38 119.012C37.566 119.96 39.119 120.319 40.6009 119.986L39.5037 115.107ZM39.5037 14.5338L38.2238 9.70039C36.0309 10.2811 34.5037 12.2653 34.5037 14.5338H39.5037ZM46.6164 12.6504L48.9121 8.20854C47.8101 7.63901 46.5357 7.49944 45.3366 7.81697L46.6164 12.6504ZM60.077 25.6264L55.7222 28.0833C57.0786 30.4874 60.1266 31.3376 62.5315 29.9825C64.9364 28.6274 65.7882 25.5798 64.4344 23.1742L60.077 25.6264ZM46.5995 12.6203L45.3249 7.78552C43.3248 8.31282 41.8558 10.0173 41.6295 12.0733C41.4032 14.1294 42.4663 16.1125 44.3038 17.0622L46.5995 12.6203ZM140.337 87.2981L142.713 91.6976C144.329 90.8246 145.337 89.1353 145.337 87.2981H140.337ZM140.337 69.5438H145.337C145.337 67.1851 143.688 65.1471 141.382 64.6542L140.337 69.5438ZM139.911 87.5277L137.536 83.1282C137.495 83.1504 137.454 83.1731 137.414 83.1963L139.911 87.5277ZM131.251 98.7006L136.244 98.976L136.244 98.9736L131.251 98.7006ZM132.741 105.801L128.018 107.442L128.018 107.442L132.741 105.801ZM133.764 109.019L134.861 113.897C136.182 113.6 137.326 112.78 138.032 111.624C138.737 110.468 138.944 109.076 138.604 107.765L133.764 109.019ZM106.724 115.102L105.627 110.224C103.345 110.738 101.724 112.764 101.724 115.102L106.724 115.102ZM106.724 115.107L105.629 119.986C107.11 120.318 108.663 119.96 109.849 119.011C111.034 118.062 111.724 116.626 111.724 115.107L106.724 115.107ZM106.714 115.105L107.809 110.226C107.088 110.064 106.339 110.064 105.617 110.227L106.714 115.105ZM106.703 115.107H101.703C101.703 116.626 102.393 118.063 103.579 119.011C104.765 119.96 106.318 120.319 107.8 119.985L106.703 115.107ZM106.703 115.102H111.703C111.703 112.763 110.081 110.737 107.799 110.224L106.703 115.102ZM98.1703 113.185L96.9365 118.031C96.9823 118.042 97.0283 118.053 97.0743 118.064L98.1703 113.185ZM98.0513 113.092L102.467 110.746C102.443 110.7 102.418 110.655 102.392 110.61L98.0513 113.092ZM96.593 110.541L92.1494 112.833C92.1823 112.897 92.2166 112.96 92.2522 113.022L96.593 110.541ZM96.525 110.541L92.0803 108.251C92.0636 108.283 92.0472 108.316 92.0311 108.349L96.525 110.541ZM95.5896 112.458L91.0958 110.266C91.0668 110.326 91.0389 110.386 91.0123 110.446L95.5896 112.458ZM95.3856 112.56L96.5224 107.691C96.5094 107.688 96.4964 107.685 96.4833 107.682L95.3856 112.56ZM73.1119 107.548L68.1119 107.548C68.1119 109.886 69.7328 111.913 72.0142 112.426L73.1119 107.548ZM73.1119 93.8921L69.9399 90.0271C68.7827 90.9768 68.1119 92.395 68.1119 93.8921L73.1119 93.8921ZM87.7966 78.2891L92.1111 80.816L92.113 80.8127L87.7966 78.2891ZM87.3162 51.9L91.0365 48.5594L91.0355 48.5583L87.3162 51.9ZM77.3224 45.5316L79.4146 40.9904L79.4146 40.9904L77.3224 45.5316ZM73.1119 43.4863H68.1119C68.1119 45.3261 69.1224 47.0174 70.7426 47.8892L73.1119 43.4863ZM73.1119 5.63086L74.3925 0.797629C72.8923 0.40014 71.2925 0.721841 70.0626 1.66835C68.8326 2.61487 68.1119 4.07887 68.1119 5.63086H73.1119ZM89.3187 9.92488L94.3109 9.6456C94.1899 7.48419 92.6918 5.64608 90.5993 5.09165L89.3187 9.92488ZM89.3187 9.92597L84.3265 10.2053C84.4475 12.3671 85.9461 14.2054 88.0392 14.7595L89.3187 9.92597ZM106.722 14.5329L105.443 19.3664C106.281 19.5884 107.164 19.5884 108.002 19.3663L106.722 14.5329ZM140.337 5.63086H145.337C145.337 4.07897 144.616 2.61505 143.386 1.66853C142.156 0.722009 140.557 0.400191 139.057 0.79748L140.337 5.63086ZM140.337 69.5437L139.293 74.4335C140.769 74.7486 142.308 74.3802 143.481 73.4309C144.655 72.4815 145.337 71.053 145.337 69.5437H140.337ZM139.821 69.4201L141.108 64.5884C138.439 63.878 135.7 65.465 134.99 68.1331C134.279 70.8013 135.866 73.5404 138.534 74.2515L139.821 69.4201ZM89.626 13.0079L94.5739 12.2882C94.1766 9.55674 91.6411 7.6639 88.9093 8.05953C86.1776 8.45516 84.2832 10.9896 84.6772 13.7216L89.626 13.0079ZM97.5669 30.9612L93.7193 34.1544C95.4824 36.2788 98.6337 36.5722 100.759 34.8099C102.884 33.0475 103.178 29.8964 101.417 27.7707L97.5669 30.9612ZM105.891 38.117L108.491 33.8463C106.139 32.4141 103.072 33.1536 101.63 35.5003C100.189 37.8471 100.917 40.9174 103.258 42.3676L105.891 38.117ZM106.72 38.6368L104.046 42.8618C106.379 44.3381 109.467 43.6444 110.944 41.3121C112.421 38.9799 111.729 35.8917 109.397 34.4137L106.72 38.6368ZM106.575 38.5449L103.897 42.7675L103.898 42.768L106.575 38.5449ZM106.724 38.6532H101.724C101.724 40.3657 102.601 41.9591 104.047 42.876L106.724 38.6532ZM106.724 38.6423L109.4 34.4187C107.86 33.4429 105.911 33.3828 104.314 34.2616C102.717 35.1405 101.724 36.8192 101.724 38.6423H106.724ZM127.722 58.9746L123.59 61.7886C123.593 61.7935 123.596 61.7983 123.599 61.8032L127.722 58.9746ZM133.952 66.1374L130.721 69.9527C132.828 71.7372 135.982 71.4762 137.767 69.3699C139.552 67.2635 139.292 64.1091 137.186 62.3236L133.952 66.1374ZM127.739 58.9745L123.606 61.7885L123.61 61.793L127.739 58.9745ZM140.358 107.544L141.456 112.422C143.737 111.908 145.358 109.882 145.358 107.544L140.358 107.544ZM140.358 87.2979L145.358 87.2979C145.358 85.5369 144.432 83.9058 142.919 83.0037C141.407 82.1017 139.532 82.0616 137.982 82.8983L140.358 87.2979ZM133.802 109.019L128.963 110.277C129.642 112.887 132.268 114.489 134.9 113.897L133.802 109.019ZM132.785 105.822L128.062 107.464L128.062 107.464L132.785 105.822ZM131.289 98.7004L136.282 98.9757C136.282 98.9694 136.283 98.963 136.283 98.9566L131.289 98.7004ZM139.933 87.5274L137.557 83.1279C137.518 83.1488 137.48 83.1703 137.442 83.1922L139.933 87.5274ZM15.6145 109.734L16.7202 104.857L16.712 104.856L15.6145 109.734ZM5.88281 107.544L0.882812 107.544C0.882812 109.883 2.50378 111.909 4.7853 112.422L5.88281 107.544ZM20.0956 110.75L18.9899 115.626L18.9997 115.628L20.0956 110.75ZM39.4952 115.108L38.3993 119.986C39.881 120.319 41.4337 119.96 42.6194 119.011C43.805 118.062 44.4952 116.626 44.4952 115.108H39.4952ZM39.4952 14.534H44.4952C44.4952 12.2652 42.9676 10.2808 40.7743 9.70037L39.4952 14.534ZM24.666 10.6099L23.3263 15.427C23.3464 15.4327 23.3666 15.4381 23.3869 15.4435L24.666 10.6099ZM24.4661 10.6736L28.1806 14.0207C28.2383 13.9566 28.2943 13.8911 28.3487 13.8242L24.4661 10.6736ZM22.6848 12.6506L18.3702 15.1774C19.1761 16.5535 20.5901 17.4626 22.1766 17.6247C23.7631 17.7868 25.3317 17.1823 26.3992 15.9976L22.6848 12.6506ZM20.9842 9.7468L16.6386 12.2199C16.6488 12.2379 16.6592 12.2558 16.6696 12.2736L20.9842 9.7468ZM20.7631 9.57249L22.1541 4.76988C22.1172 4.75921 22.0803 4.74897 22.0432 4.73915L20.7631 9.57249ZM5.88281 5.63135L7.16296 0.798002C5.66277 0.400668 4.06313 0.722458 2.83328 1.66898C1.60343 2.6155 0.882813 4.07944 0.882813 5.63135L5.88281 5.63135ZM78.1119 43.4692V5.63086H68.1119V43.4692H78.1119ZM63.4778 42.3624C65.5835 44.6543 68.0886 46.5439 70.8708 47.9389L75.3529 38.9996C73.6552 38.1484 72.1266 36.9954 70.8417 35.5969L63.4778 42.3624ZM57.9182 32.6973C59.1524 35.5198 60.7281 39.2248 63.3983 42.2738L70.9212 35.6855C69.4478 34.0031 68.4373 31.7937 67.0806 28.6909L57.9182 32.6973ZM57.9302 32.7245L57.9303 32.7248L67.0684 28.6634L67.0683 28.6631L57.9302 32.7245ZM57.93 32.7242L57.9302 32.7245L67.0683 28.6631L67.0682 28.6628L57.93 32.7242ZM57.9299 32.7239L57.93 32.7242L67.0682 28.6628L67.068 28.6625L57.9299 32.7239ZM57.9298 32.7236L57.9299 32.7239L67.068 28.6625L67.0679 28.6622L57.9298 32.7236ZM57.9296 32.7233L57.9298 32.7236L67.0679 28.6622L67.0678 28.6619L57.9296 32.7233ZM57.9295 32.723L57.9296 32.7233L67.0678 28.6619L67.0676 28.6616L57.9295 32.723ZM57.9294 32.7227L57.9295 32.723L67.0676 28.6616L67.0675 28.6613L57.9294 32.7227ZM56.8537 30.3125C57.2072 31.072 57.5487 31.8522 57.9172 32.6952L67.0796 28.6888C66.719 27.8641 66.3309 26.976 65.9196 26.0924L56.8537 30.3125ZM67.0712 28.6711C66.7129 27.8518 66.328 26.9709 65.9208 26.095L56.8525 30.31C57.2034 31.0649 57.5429 31.8407 57.909 32.6778L67.0712 28.6711ZM70.9402 35.7179C69.4541 34.0189 68.4344 31.7882 67.0712 28.6711L57.909 32.6778C59.1498 35.5151 60.7337 39.2382 63.4132 42.3016L70.9402 35.7179ZM75.3552 39.0181C73.6629 38.1685 72.1388 37.0188 70.8569 35.625L63.4965 42.3944C65.5972 44.6786 68.095 46.5626 70.8684 47.955L75.3552 39.0181ZM78.1118 93.8921V43.4865H68.1118V93.8921H78.1118ZM69.9109 90.051L69.9109 90.051L76.3127 97.7332L76.3128 97.7332L69.9109 90.051ZM78.1118 107.544V93.8921H68.1118V107.544H78.1118ZM56.7069 116.363L74.2102 112.422L72.0135 102.666L54.5102 106.607L56.7069 116.363ZM59.8649 114.108L59.8651 114.108L51.352 108.862L51.3518 108.862L59.8649 114.108ZM40.6009 119.986L56.7056 116.363L54.5112 106.607L38.4065 110.229L40.6009 119.986ZM34.5037 14.5338V115.107H44.5037V14.5338H34.5037ZM45.3366 7.81697L38.2238 9.70039L40.7835 19.3672L47.8963 17.4838L45.3366 7.81697ZM64.4318 23.1696C60.8307 16.7866 55.4404 11.5825 48.9121 8.20854L44.3208 17.0922C49.1168 19.5709 53.0768 23.3941 55.7222 28.0833L64.4318 23.1696ZM44.3038 17.0622C49.1085 19.5453 53.0741 23.3779 55.7196 28.0787L64.4344 23.1742C60.8332 16.7754 55.4353 11.5586 48.8951 8.17848L44.3038 17.0622ZM71.8373 0.79605L45.3249 7.78552L47.8741 17.4551L74.3865 10.4657L71.8373 0.79605ZM145.337 87.2981V69.5438H135.337V87.2981H145.337ZM142.287 91.9272L142.713 91.6976L137.961 82.8986L137.536 83.1282L142.287 91.9272ZM136.244 98.9736C136.371 96.6449 138.496 94.1158 142.409 91.8591L137.414 83.1963C133.011 85.7353 126.684 90.6463 126.259 98.4277L136.244 98.9736ZM137.464 104.16C136.59 101.645 136.173 100.25 136.244 98.976L126.259 98.4253C126.061 102.008 127.272 105.296 128.018 107.442L137.464 104.16ZM138.604 107.765C138.266 106.46 137.824 105.197 137.464 104.16L128.018 107.442C128.403 108.55 128.704 109.427 128.924 110.273L138.604 107.765ZM107.822 119.98L134.861 113.897L132.666 104.141L105.627 110.224L107.822 119.98ZM111.724 115.107L111.724 115.102L101.724 115.102L101.724 115.107L111.724 115.107ZM105.618 119.983L105.629 119.986L107.82 110.229L107.809 110.226L105.618 119.983ZM107.8 119.985L107.811 119.983L105.617 110.227L105.606 110.229L107.8 119.985ZM101.703 115.102V115.107H111.703V115.102H101.703ZM97.0743 118.064L105.607 119.981L107.799 110.224L99.2662 108.307L97.0743 118.064ZM93.6358 115.438C94.3212 116.728 95.5193 117.67 96.9365 118.031L99.4041 108.34C100.719 108.675 101.831 109.549 102.467 110.746L93.6358 115.438ZM92.2522 113.022L93.7105 115.573L102.392 110.61L100.934 108.06L92.2522 113.022ZM96.559 115.52C94.6999 115.52 92.9997 114.481 92.1494 112.833L101.037 108.249C100.173 106.575 98.4467 105.52 96.559 105.52V115.52ZM100.97 112.831C100.119 114.482 98.4171 115.52 96.559 115.52V105.52C94.6722 105.52 92.9442 106.574 92.0803 108.251L100.97 112.831ZM100.083 114.651L101.019 112.733L92.0311 108.349L91.0958 110.266L100.083 114.651ZM94.2487 117.429C96.6763 117.996 99.1636 116.753 100.167 114.47L91.0123 110.446C91.9465 108.321 94.2622 107.164 96.5224 107.691L94.2487 117.429ZM72.0142 112.426L94.2878 117.438L96.4833 107.682L74.2097 102.67L72.0142 112.426ZM68.1119 93.8921L68.1119 107.548L78.1119 107.548L78.1119 93.8921L68.1119 93.8921ZM83.4822 75.7621C80.2897 81.2128 75.4928 85.4699 69.9399 90.0271L76.2839 97.7571C81.8275 93.2076 87.9229 87.9667 92.1111 80.816L83.4822 75.7621ZM83.5959 55.2406C85.613 57.4869 86.6674 60.7385 86.6191 64.5805C86.5709 68.423 85.408 72.4681 83.4802 75.7654L92.113 80.8127C94.8831 76.0747 96.5476 70.3413 96.6183 64.7061C96.6891 59.0705 95.1543 53.1452 91.0365 48.5594L83.5959 55.2406ZM75.2303 50.0729C79.0392 51.8277 81.6966 53.1266 83.5969 55.2417L91.0355 48.5583C87.5267 44.653 82.8857 42.5896 79.4146 40.9904L75.2303 50.0729ZM70.7426 47.8892C72.2662 48.7091 73.8311 49.4283 75.2303 50.0729L79.4146 40.9904C77.9659 40.323 76.6857 39.7314 75.4813 39.0833L70.7426 47.8892ZM68.1119 5.63086V43.4863H78.1119V5.63086H68.1119ZM90.5993 5.09165L74.3925 0.797629L71.8314 10.4641L88.0381 14.7581L90.5993 5.09165ZM94.3109 9.64669L94.3109 9.6456L84.3265 10.2042L84.3265 10.2053L94.3109 9.64669ZM108.002 9.69939L90.5982 5.09245L88.0392 14.7595L105.443 19.3664L108.002 9.69939ZM139.057 0.79748L105.442 9.69953L108.002 19.3663L141.617 10.4642L139.057 0.79748ZM145.337 69.5437V5.63086H135.337V69.5437H145.337ZM138.535 74.2518C138.785 74.3183 139.037 74.379 139.293 74.4335L141.381 64.6539C141.291 64.6348 141.2 64.613 141.108 64.5884L138.535 74.2518ZM141.382 64.6542C141.292 64.6351 141.201 64.6133 141.109 64.5887L138.534 74.2515C138.784 74.3181 139.036 74.3789 139.292 74.4334L141.382 64.6542ZM84.6772 13.7216C85.7648 21.2635 88.965 28.4258 93.7193 34.1544L101.414 27.768C97.841 23.4622 95.4001 18.0174 94.5748 12.2942L84.6772 13.7216ZM101.417 27.7707C97.8498 23.4667 95.4069 18.0156 94.5739 12.2882L84.678 13.7276C85.774 21.2625 88.9717 28.4256 93.7171 34.1516L101.417 27.7707ZM103.258 42.3676C103.514 42.5262 103.775 42.6901 104.046 42.8618L109.394 34.4118C109.108 34.2311 108.818 34.0485 108.524 33.8664L103.258 42.3676ZM109.253 34.3223C109.031 34.1816 108.765 34.013 108.491 33.8463L103.291 42.3876C103.474 42.499 103.662 42.6184 103.897 42.7675L109.253 34.3223ZM109.397 34.4137L109.252 34.3218L103.898 42.768L104.043 42.8599L109.397 34.4137ZM111.724 38.6532V38.6423H101.724V38.6532H111.724ZM131.855 56.1605C125.932 47.4608 118.29 40.0657 109.402 34.4303L104.047 42.876C111.783 47.7807 118.434 54.2169 123.59 61.7886L131.855 56.1605ZM137.184 62.322C135.298 60.7248 133.482 58.5313 131.845 56.146L123.599 61.8032C125.511 64.5891 127.904 67.5668 130.721 69.9527L137.184 62.322ZM123.61 61.793C125.514 64.5829 127.902 67.5632 130.719 69.9512L137.186 62.3236C135.304 60.7284 133.494 58.5373 131.869 56.156L123.61 61.793ZM104.048 42.8659C111.791 47.7718 118.448 54.2117 123.606 61.7885L131.872 56.1604C125.945 47.4548 118.297 40.0555 109.4 34.4187L104.048 42.8659ZM145.358 107.544L145.358 87.2979L135.358 87.2979L135.358 107.544L145.358 107.544ZM134.9 113.897L141.456 112.422L139.26 102.666L132.704 104.141L134.9 113.897ZM128.062 107.464C128.445 108.565 128.745 109.438 128.963 110.277L138.641 107.761C138.305 106.467 137.866 105.213 137.507 104.181L128.062 107.464ZM126.297 98.425C126.099 102.014 127.314 105.313 128.062 107.464L137.507 104.181C136.631 101.66 136.211 100.255 136.282 98.9757L126.297 98.425ZM137.442 83.1922C133.032 85.7264 126.696 90.6513 126.296 98.4442L136.283 98.9566C136.402 96.6394 138.518 94.1072 142.424 91.8626L137.442 83.1922ZM137.982 82.8983L137.557 83.1279L142.309 91.927L142.734 91.6974L137.982 82.8983ZM16.712 104.856L6.98032 102.666L4.7853 112.422L14.517 114.612L16.712 104.856ZM21.2013 105.874L16.7202 104.857L14.5088 114.61L18.9899 115.626L21.2013 105.874ZM40.5911 110.229L21.1914 105.871L18.9997 115.628L38.3993 119.986L40.5911 110.229ZM34.4952 14.534V115.108H44.4952V14.534H34.4952ZM23.3869 15.4435L38.2161 19.3676L40.7743 9.70037L25.945 5.77623L23.3869 15.4435ZM28.3487 13.8242C27.1427 15.3103 25.1702 15.9399 23.3263 15.427L26.0056 5.79268C24.015 5.23906 21.8855 5.91868 20.5836 7.52308L28.3487 13.8242ZM26.3992 15.9976L28.1806 14.0207L20.7516 7.3266L18.9703 9.30355L26.3992 15.9976ZM16.6696 12.2736L18.3702 15.1774L26.9993 10.1238L25.2987 7.21999L16.6696 12.2736ZM19.3721 14.3751C18.215 14.04 17.2344 13.2668 16.6386 12.2199L25.3297 7.27372C24.6375 6.05749 23.4983 5.1592 22.1541 4.76988L19.3721 14.3751ZM4.60267 10.4647L19.4829 14.4058L22.0432 4.73915L7.16296 0.798002L4.60267 10.4647ZM10.8828 107.544L10.8828 5.63135L0.882813 5.63135L0.882812 107.544L10.8828 107.544Z" fill="white" mask="url(#path-1-outside-1_855_1740)"/>
<path d="M73.028 5.66406V43.5024C70.7881 42.3794 68.7712 40.8581 67.0759 39.0129C64.0488 35.5564 62.6841 30.8372 60.5456 26.6835C57.4357 20.6661 52.533 15.7635 46.5156 12.6535L73.028 5.66406Z" fill="#87D4FF" stroke="#0D052C" stroke-width="0.637726" stroke-linecap="round" stroke-linejoin="round"/>
<path d="M73.0261 43.5198V93.9256C71.5041 95.1755 69.9735 96.4127 68.4685 97.6627C63.6473 101.663 58.8558 106.166 55.5227 111.518L39.418 115.141L39.418 14.567L46.5307 12.6836C52.5482 15.7935 57.4508 20.6961 60.5607 26.7136C62.6864 30.863 64.0639 35.5822 67.091 39.0429C68.7823 40.8819 70.7932 42.3987 73.0261 43.5198Z" fill="#7774FF" stroke="#0D052C" stroke-width="0.637726" stroke-linecap="round" stroke-linejoin="round"/>
<path d="M73.0269 93.9258V107.577L55.5234 111.518C58.8566 106.145 63.6481 101.664 68.4693 97.6629C69.9743 96.4129 71.5048 95.1757 73.0269 93.9258Z" fill="#87D4FF" stroke="#0D052C" stroke-width="0.637726" stroke-linecap="round" stroke-linejoin="round"/>
<path d="M106.64 38.6727V115.14L98.0857 113.219C98.0346 113.206 97.9914 113.172 97.9667 113.125L96.5084 110.574C96.5018 110.561 96.4887 110.553 96.4744 110.553C96.4601 110.553 96.4469 110.561 96.4404 110.574L95.505 112.492C95.4705 112.57 95.3847 112.613 95.301 112.594L73.0273 107.581V93.9253C78.5756 89.3719 84.0217 84.623 87.712 78.3223C92.4099 70.2869 93.3665 58.7653 87.2316 51.9332C83.469 47.7454 77.8783 46.1299 73.0273 43.5195V5.66406L89.2341 9.95808C89.8335 20.8249 95.5306 31.2156 104.114 37.0657C104.612 37.4058 105.126 37.7332 105.641 38.0478C105.972 38.2518 106.304 38.4602 106.64 38.6727Z" fill="#87D4FF" stroke="#0D052C" stroke-width="0.637726" stroke-linecap="round" stroke-linejoin="round"/>
<path d="M87.712 78.3223C84.0217 84.6231 78.5756 89.3763 73.0273 93.9254V43.5195C77.8953 46.13 83.469 47.7455 87.2316 51.9333C93.3665 58.7612 92.41 70.287 87.712 78.3223Z" fill="#7774FF" stroke="#0D052C" stroke-width="0.637726" stroke-linecap="round" stroke-linejoin="round"/>
<path d="M106.64 14.5676V38.6736C106.305 38.4611 105.973 38.2485 105.637 38.0487C105.123 37.7341 104.608 37.4067 104.111 37.0666C95.544 31.2335 89.8469 20.8258 89.2305 9.95898L106.64 14.5676Z" fill="#7774FF" stroke="#0D052C" stroke-width="0.637726" stroke-linecap="round" stroke-linejoin="round"/>
<path d="M140.251 69.5761V87.3303L139.826 87.5599C135.668 89.9578 131.442 93.6778 131.165 98.7329C130.97 102.279 132.794 105.637 133.678 109.051L106.617 115.139V38.6719C114.939 43.9436 122.092 50.8641 127.637 59.0068C130.898 63.76 135.277 68.5132 140.251 69.5761Z" fill="#87D4FF" stroke="#0D052C" stroke-width="0.637726" stroke-linecap="round" stroke-linejoin="round"/>
<path d="M140.249 5.66406V69.5769C135.271 68.514 130.896 63.7609 127.652 59.0077C122.108 50.865 114.955 43.9444 106.633 38.6727V14.5667L140.249 5.66406Z" fill="#7774FF" stroke="#0D052C" stroke-width="0.637726" stroke-linecap="round" stroke-linejoin="round"/>
<path d="M139.845 87.5616L140.271 87.332V107.578L133.715 109.053C132.83 105.652 131.006 102.28 131.202 98.7346C131.461 93.6795 135.687 89.951 139.845 87.5616Z" fill="#7774FF" stroke="#0D052C" stroke-width="0.637726" stroke-linecap="round" stroke-linejoin="round"/>
<g opacity="0.3">
<path opacity="0.3" d="M106.64 38.6727V115.14L98.0857 113.219C98.0346 113.206 97.9914 113.172 97.9667 113.125L96.5084 110.574C96.5018 110.561 96.4887 110.553 96.4744 110.553C96.4601 110.553 96.4469 110.561 96.4404 110.574L95.505 112.492C95.4704 112.57 95.3847 112.613 95.301 112.594L73.0273 107.581V93.9253C78.5756 89.3719 84.0217 84.623 87.712 78.3223C92.4099 70.2869 93.3665 58.7653 87.2316 51.9332C83.469 47.7454 77.8783 46.1299 73.0273 43.5195V5.66406L89.2341 9.95808C89.8335 20.8249 95.5306 31.2156 104.114 37.0657C104.612 37.4058 105.126 37.7332 105.641 38.0478C105.972 38.2518 106.304 38.4602 106.64 38.6727Z" fill="white" stroke="#0D052C" stroke-width="0.637726" stroke-linecap="round" stroke-linejoin="round"/>
<path opacity="0.3" d="M87.712 78.3223C84.0217 84.6231 78.5756 89.3763 73.0273 93.9254V43.5195C77.8953 46.13 83.469 47.7455 87.2316 51.9333C93.3665 58.7612 92.41 70.287 87.712 78.3223Z" fill="white" stroke="#0D052C" stroke-width="0.637726" stroke-linecap="round" stroke-linejoin="round"/>
<path opacity="0.3" d="M106.64 14.5657V38.6717C106.305 38.4591 105.973 38.2465 105.637 38.0467C105.123 37.7321 104.608 37.4047 104.111 37.0646C95.544 31.2316 89.8469 20.8239 89.2305 9.95703L106.64 14.5657Z" fill="white" stroke="#0D052C" stroke-width="0.637726" stroke-linecap="round" stroke-linejoin="round"/>
</g>
<path d="M15.5286 109.766L5.79688 107.577L5.79688 5.66406L20.6771 9.60521C20.7707 9.63231 20.85 9.69485 20.8982 9.77952L22.5988 12.6833L24.3802 10.7063C24.4282 10.6472 24.5067 10.6222 24.58 10.6426L39.4093 14.5667V115.14L20.0097 110.782" fill="#7774FF"/>
<path d="M15.5286 109.766L5.79688 107.577L5.79688 5.66406L20.6771 9.60521C20.7707 9.63231 20.85 9.69485 20.8982 9.77952L22.5988 12.6833L24.3802 10.7063C24.4282 10.6472 24.5067 10.6222 24.58 10.6426L39.4093 14.5667V115.14L20.0097 110.782" stroke="#0D052C" stroke-width="0.637726" stroke-linecap="round" stroke-linejoin="round"/>
<g opacity="0.3">
<g opacity="0.3">
<path d="M15.5286 109.766L5.79688 107.577L5.79688 5.66406L20.6771 9.60521C20.7707 9.63231 20.85 9.69485 20.8982 9.77952L22.5988 12.6833L24.3802 10.7063C24.4282 10.6472 24.5067 10.6222 24.58 10.6426L39.4093 14.5667V115.14L20.0097 110.782" fill="white"/>
<path d="M15.5286 109.766L5.79688 107.577L5.79688 5.66406L20.6771 9.60521C20.7707 9.63231 20.85 9.69485 20.8982 9.77952L22.5988 12.6833L24.3802 10.7063C24.4282 10.6472 24.5067 10.6222 24.58 10.6426L39.4093 14.5667V115.14L20.0097 110.782" stroke="#0D052C" stroke-width="0.637726" stroke-linecap="round" stroke-linejoin="round"/>
</g>
</g>
<path d="M30.2148 63.6977C30.8336 63.1162 31.5219 62.6136 32.2641 62.2012" stroke="#0D052C" stroke-width="0.637726" stroke-linecap="round" stroke-linejoin="round"/>
<path d="M37.3399 61.1074C39.07 61.0143 40.8141 61.2887 42.3973 61.9073C42.5613 61.9714 42.7462 61.8904 42.8103 61.7263C42.8744 61.5623 42.7934 61.3774 42.6293 61.3133C40.9607 60.6614 39.1259 60.3727 37.3057 60.4706C37.1298 60.4801 36.9949 60.6303 37.0044 60.8061C37.0138 60.982 37.1641 61.1169 37.3399 61.1074ZM46.555 64.8358C47.541 65.9989 48.3126 67.3479 49.1896 69.2986C49.2618 69.4592 49.4505 69.5309 49.6111 69.4587C49.7718 69.3865 49.8434 69.1978 49.7712 69.0371C48.8719 67.0366 48.0735 65.6409 47.0415 64.4234C46.9276 64.2891 46.7264 64.2725 46.592 64.3864C46.4577 64.5002 46.4411 64.7014 46.555 64.8358ZM51.3681 74.1336C52.0042 75.359 52.6653 76.3724 53.4358 77.2538C53.8037 77.6745 54.1976 78.065 54.6189 78.4275C54.7524 78.5424 54.9537 78.5273 55.0686 78.3939C55.1835 78.2604 55.1684 78.0591 55.0349 77.9442C54.6364 77.6012 54.2638 77.232 53.9159 76.834C53.1823 75.9949 52.5483 75.023 51.9341 73.8398C51.853 73.6835 51.6605 73.6226 51.5042 73.7037C51.3479 73.7849 51.287 73.9773 51.3681 74.1336ZM59.3644 81.0009C61.0204 81.5153 62.8246 81.7688 64.6916 81.7631C64.8677 81.7625 65.01 81.6193 65.0095 81.4432C65.0089 81.2671 64.8657 81.1248 64.6896 81.1253C62.8855 81.1309 61.1456 80.8864 59.5535 80.3919C59.3854 80.3397 59.2067 80.4337 59.1544 80.6018C59.1022 80.77 59.1962 80.9487 59.3644 81.0009ZM70.0117 81.0614L70.2611 80.9943L70.9501 80.7975L72.0187 80.478L72.332 80.3877L72.6236 80.3067L72.8958 80.2348L73.151 80.1715C73.1922 80.1616 73.2328 80.1521 73.2728 80.143L73.5065 80.092C73.6961 80.0529 73.8738 80.022 74.0455 79.9983L74.249 79.9734C74.4504 79.952 74.6465 79.9406 74.8475 79.9377L75.0593 79.9379C75.2354 79.9404 75.3802 79.7997 75.3827 79.6236C75.385 79.4622 75.2669 79.3271 75.1116 79.3037L75.059 79.3001C74.9845 79.2991 74.9111 79.299 74.8385 79.3L74.6224 79.3059C74.3004 79.3195 73.9852 79.3546 73.6405 79.416L73.406 79.4609C73.3661 79.4691 73.3256 79.4776 73.2847 79.4864L73.0326 79.5437L72.7657 79.6095L72.4818 79.6843L72.1783 79.7683L71.8529 79.862L70.7198 80.2006L70.4267 80.2851L70.3352 80.3108C70.1724 80.3578 70.0115 80.4021 69.8499 80.4445C69.6795 80.4892 69.5777 80.6636 69.6224 80.8339C69.6671 81.0042 69.8414 81.1061 70.0117 81.0614ZM79.7775 81.7137L80.0323 81.8916L80.3709 82.1366L80.6347 82.3342L81.0154 82.6277L81.5653 83.0633L82.7934 84.0534L83.0787 84.2808L83.3421 84.488L83.5894 84.6793L83.8266 84.8593C83.8656 84.8886 83.9044 84.9177 83.9433 84.9465C84.0846 85.0515 84.2843 85.0221 84.3894 84.8807C84.4944 84.7394 84.465 84.5396 84.3236 84.4346L84.2092 84.3491L83.9762 84.1723L83.7329 83.984L83.3355 83.6703L81.8404 82.4668L81.4026 82.1209L81.0155 81.8226L80.7466 81.6213L80.5727 81.4942L80.4003 81.3708L80.139 81.1883C79.9939 81.0885 79.7954 81.1252 79.6955 81.2703C79.5957 81.4154 79.6324 81.6139 79.7775 81.7137ZM88.6261 87.5639C90.2962 88.2288 92.0461 88.6716 93.8299 88.8818C94.0048 88.9024 94.1633 88.7773 94.1839 88.6024C94.2045 88.4275 94.0794 88.2691 93.9045 88.2484C92.1759 88.0448 90.4803 87.6157 88.862 86.9714C88.6984 86.9063 88.5129 86.9861 88.4478 87.1497C88.3827 87.3133 88.4625 87.4988 88.6261 87.5639ZM99.1786 88.8116C99.9973 88.6932 100.809 88.5254 101.611 88.3085C102.552 88.0533 103.462 87.7365 104.346 87.3573C104.508 87.2879 104.583 87.1004 104.513 86.9386C104.444 86.7767 104.256 86.7018 104.095 86.7712C103.238 87.1387 102.356 87.4456 101.444 87.693C100.668 87.9031 99.8807 88.0658 99.0874 88.1804C98.9131 88.2056 98.7922 88.3673 98.8174 88.5416C98.8426 88.7159 99.0043 88.8368 99.1786 88.8116ZM108.957 84.6184C110.369 83.5079 111.63 82.2166 112.707 80.7773C112.813 80.6363 112.784 80.4365 112.643 80.331C112.502 80.2254 112.302 80.2542 112.197 80.3952C111.153 81.7898 109.931 83.0411 108.563 84.1173C108.425 84.2262 108.401 84.4266 108.51 84.565C108.618 84.7034 108.819 84.7273 108.957 84.6184ZM115.333 76.1036C115.976 74.5029 116.439 72.7967 116.753 70.9424C116.783 70.7688 116.666 70.6042 116.492 70.5747C116.319 70.5453 116.154 70.6621 116.124 70.8358C115.817 72.6471 115.366 74.3096 114.741 75.8659C114.675 76.0293 114.754 76.215 114.918 76.2806C115.081 76.3462 115.267 76.267 115.333 76.1036ZM117.266 65.6368L117.288 64.9905L117.301 64.5008L117.313 63.8276L117.32 63.1162L117.322 62.1475L117.315 60.8257L117.311 60.3374C117.31 60.1613 117.166 60.0198 116.989 60.0214C116.813 60.023 116.672 60.1671 116.673 60.3432L116.682 61.5122L116.684 62.5432L116.681 63.2903L116.673 63.9863L116.667 64.3204L116.65 64.971L116.628 65.612C116.622 65.788 116.759 65.9362 116.935 65.943C117.111 65.9499 117.259 65.8127 117.266 65.6368ZM117.302 55.0629L117.308 54.7625L117.323 54.1764C117.367 52.7033 117.49 51.2459 117.694 49.8325C117.719 49.6582 117.598 49.4965 117.424 49.4714C117.25 49.4462 117.088 49.5672 117.063 49.7415C116.856 51.1792 116.731 52.6605 116.686 54.1571C116.677 54.4483 116.67 54.7458 116.664 55.0513C116.661 55.2274 116.801 55.3727 116.977 55.376C117.153 55.3791 117.299 55.2389 117.302 55.0629ZM118.861 44.7359C119.435 42.9832 120.164 41.3991 121.05 40.0142C121.145 39.8658 121.101 39.6686 120.953 39.5737C120.805 39.4788 120.607 39.5222 120.513 39.6705C119.596 41.103 118.845 42.7358 118.255 44.5374C118.2 44.7048 118.291 44.8849 118.459 44.9397C118.626 44.9945 118.806 44.9033 118.861 44.7359Z" fill="#0D052C"/>
<path d="M124.234 36.0495C124.912 35.536 125.638 35.0903 126.403 34.7188" stroke="#0D052C" stroke-width="0.637726" stroke-linecap="round" stroke-linejoin="round"/>
<path d="M19.8438 62.1328L26.7567 68.7226" stroke="white" stroke-width="0.637726" stroke-linecap="round" stroke-linejoin="round"/>
<path d="M26.7567 62.1328L19.8438 68.7226" stroke="white" stroke-width="0.637726" stroke-linecap="round" stroke-linejoin="round"/>
<path d="M18.7266 30.3867L21.3582 35.1186" stroke="#0D052C" stroke-width="0.637726" stroke-linecap="round" stroke-linejoin="round"/>
<path d="M20.6914 27.2793L25.164 35.3146" stroke="#0D052C" stroke-width="0.637726" stroke-linecap="round" stroke-linejoin="round"/>
<path d="M25.0156 28.4102L26.4909 31.0588" stroke="#0D052C" stroke-width="0.637726" stroke-linecap="round" stroke-linejoin="round"/>
<path d="M118.395 103.299L119.122 104.604" stroke="#0D052C" stroke-width="0.637726" stroke-linecap="round" stroke-linejoin="round"/>
<path d="M115.66 98.3848L117.539 101.765" stroke="#0D052C" stroke-width="0.637726" stroke-linecap="round" stroke-linejoin="round"/>
<path d="M119.008 99.2598L120.147 101.313" stroke="#0D052C" stroke-width="0.637726" stroke-linecap="round" stroke-linejoin="round"/>
<path d="M131.173 34.7226C133.065 34.7226 134.6 33.1884 134.6 31.2959C134.6 29.4033 133.065 27.8691 131.173 27.8691C129.28 27.8691 127.746 29.4033 127.746 31.2959C127.746 33.1884 129.28 34.7226 131.173 34.7226Z" fill="#FF81AF" stroke="#0D052C" stroke-width="0.637726" stroke-linecap="round" stroke-linejoin="round"/>
<path d="M132.597 31.278C132.607 31.906 132.202 32.4655 131.602 32.6523C131.003 32.8391 130.352 32.6085 130.003 32.0859C129.655 31.5633 129.693 30.8737 130.096 30.3921C130.499 29.9104 131.171 29.7518 131.747 30.0026" stroke="#0D052C" stroke-width="0.297605" stroke-linecap="round" stroke-linejoin="round"/>
</svg>
