<svg width="161" height="147" viewBox="0 0 161 147" fill="none" xmlns="http://www.w3.org/2000/svg">
<mask id="path-1-outside-1_792_10207" maskUnits="userSpaceOnUse" x="0" y="0" width="161" height="147" fill="black">
<rect fill="white" width="161" height="147"/>
<path fill-rule="evenodd" clip-rule="evenodd" d="M68.2832 8L51.3134 37.6902H35.8896L68.2832 8ZM123.465 8H68.2833L51.3135 37.6902H93.1733L122.266 87.7758L110.384 109.37H110.384H66.4825L66.4825 109.37L38.2874 60.4834L51.3133 37.6903H35.8896L8 87.7757L35.8896 138.463L94.3721 138.463L125.539 109.37H125.539L125.863 109.069L152.859 59.2844L123.465 8Z"/>
</mask>
<path d="M51.3134 37.6902V45.6902C54.184 45.6902 56.8345 44.1523 58.2589 41.6601L51.3134 37.6902ZM68.2832 8L75.2288 11.9698C77.1849 8.54744 76.3564 4.21023 73.2766 1.74975C70.1969 -0.710732 65.7838 -0.561066 62.8778 2.10242L68.2832 8ZM35.8896 37.6902L30.4842 31.7927C28.0521 34.0218 27.2378 37.5154 28.4338 40.5902C29.6297 43.665 32.5905 45.6902 35.8896 45.6902V37.6902ZM68.2833 8V0C65.4127 0 62.7622 1.53798 61.3378 4.03019L68.2833 8ZM123.465 8L130.406 4.02185C128.98 1.53433 126.332 0 123.465 0V8ZM51.3135 37.6902L44.3679 33.7204C42.9527 36.1964 42.9627 39.2386 44.394 41.7053C45.8253 44.172 48.4616 45.6902 51.3135 45.6902V37.6902ZM93.1733 37.6902L100.091 33.672C98.6591 31.2071 96.0239 29.6902 93.1733 29.6902V37.6902ZM122.266 87.7758L129.275 91.6326C130.629 89.1733 130.594 86.1847 129.184 83.7575L122.266 87.7758ZM110.384 109.37V117.37C113.301 117.37 115.986 115.782 117.393 113.227L110.384 109.37ZM66.4825 109.37V101.37C65.9287 101.37 65.3764 101.427 64.8345 101.541L66.4825 109.37ZM66.4825 109.37L59.5525 113.367C61.2818 116.365 64.7434 117.911 68.1306 117.198L66.4825 109.37ZM38.2874 60.4834L31.3416 56.514C29.9304 58.9834 29.9364 62.0164 31.3574 64.4802L38.2874 60.4834ZM51.3133 37.6903L58.2591 41.6597C59.6741 39.1837 59.664 36.1416 58.2327 33.675C56.8013 31.2084 54.1651 29.6903 51.3133 29.6903V37.6903ZM35.8896 37.6903V29.6903C32.987 29.6903 30.3122 31.2624 28.9001 33.7983L35.8896 37.6903ZM8 87.7757L1.01056 83.8837C-0.329845 86.2909 -0.337255 89.2184 0.990948 91.6323L8 87.7757ZM35.8896 138.463L28.8805 142.32C30.2867 144.875 32.9725 146.463 35.8896 146.463L35.8896 138.463ZM94.3721 138.463V146.463C96.3986 146.463 98.3496 145.694 99.831 144.311L94.3721 138.463ZM125.539 109.37V101.37C123.512 101.37 121.561 102.139 120.08 103.522L125.539 109.37ZM125.539 109.37V117.37C127.558 117.37 129.503 116.606 130.983 115.232L125.539 109.37ZM125.863 109.069L131.307 114.931C131.944 114.339 132.481 113.647 132.896 112.883L125.863 109.069ZM152.859 59.2844L159.892 63.0979C161.214 60.6603 161.179 57.712 159.8 55.3063L152.859 59.2844ZM58.2589 41.6601L75.2288 11.9698L61.3377 4.03019L44.3678 33.7204L58.2589 41.6601ZM35.8896 45.6902H51.3134V29.6902H35.8896V45.6902ZM62.8778 2.10242L30.4842 31.7927L41.2951 43.5878L73.6886 13.8976L62.8778 2.10242ZM68.2833 16H123.465V0H68.2833V16ZM58.259 41.6601L75.2288 11.9698L61.3378 4.03019L44.3679 33.7204L58.259 41.6601ZM93.1733 29.6902H51.3135V45.6902H93.1733V29.6902ZM129.184 83.7575L100.091 33.672L86.2557 41.7085L115.349 91.794L129.184 83.7575ZM117.393 113.227L129.275 91.6326L115.258 83.9189L103.375 105.513L117.393 113.227ZM110.384 117.37H110.384V101.37H110.384V117.37ZM66.4825 117.37H110.384V101.37H66.4825V117.37ZM68.1306 117.198L68.1306 117.198L64.8345 101.541L64.8344 101.541L68.1306 117.198ZM31.3574 64.4802L59.5525 113.367L73.4125 105.373L45.2174 56.4865L31.3574 64.4802ZM44.3675 33.7209L31.3416 56.514L45.2332 64.4528L58.2591 41.6597L44.3675 33.7209ZM35.8896 45.6903H51.3133V29.6903H35.8896V45.6903ZM14.9894 91.6677L42.879 41.5823L28.9001 33.7983L1.01056 83.8837L14.9894 91.6677ZM42.8986 134.606L15.0091 83.9191L0.990948 91.6323L28.8805 142.32L42.8986 134.606ZM94.3721 130.463L35.8896 130.463L35.8896 146.463L94.3721 146.463V130.463ZM120.08 103.522L88.9131 132.615L99.831 144.311L130.998 115.218L120.08 103.522ZM125.539 101.37H125.539V117.37H125.539V101.37ZM120.419 103.207L120.095 103.508L130.983 115.232L131.307 114.931L120.419 103.207ZM145.827 55.4709L118.83 105.256L132.896 112.883L159.892 63.0979L145.827 55.4709ZM116.525 11.9782L145.919 63.2626L159.8 55.3063L130.406 4.02185L116.525 11.9782Z" fill="white" mask="url(#path-1-outside-1_792_10207)"/>
<path d="M123.464 8L93.1723 37.6902H51.3125L68.2823 8H123.464Z" fill="#FFE483" stroke="#0D052C" stroke-width="0.694346" stroke-linecap="round" stroke-linejoin="round"/>
<path d="M152.86 59.2844L122.267 87.7758L93.1738 37.6902L123.466 8L152.86 59.2844Z" fill="#9AF3FF" stroke="#0D052C" stroke-width="0.694346" stroke-linecap="round" stroke-linejoin="round"/>
<path d="M68.2822 8L51.3124 37.6902H35.8887L68.2822 8Z" fill="#FFFEAA" stroke="#0D052C" stroke-width="0.694346" stroke-linecap="round" stroke-linejoin="round"/>
<path d="M51.3133 37.6895L38.2874 60.4825L8 87.775L35.8896 37.6895H51.3133Z" fill="#7774FF" stroke="#0D052C" stroke-width="0.694346" stroke-linecap="round" stroke-linejoin="round"/>
<path d="M66.4825 109.369L35.8896 138.462L8 87.7749L38.2874 60.4824L66.4825 109.369Z" fill="#62A3FF" stroke="#0D052C" stroke-width="0.694346" stroke-linecap="round" stroke-linejoin="round"/>
<path d="M125.538 109.369L94.3711 138.462L110.383 109.369H125.538Z" fill="#7774FF" stroke="#0D052C" stroke-width="0.694346" stroke-linecap="round" stroke-linejoin="round"/>
<path d="M152.858 59.2852L125.862 109.07L125.538 109.371H110.383L122.265 87.7765L152.858 59.2852Z" fill="#62A3FF" stroke="#0D052C" stroke-width="0.694346" stroke-linecap="round" stroke-linejoin="round"/>
<path d="M122.266 87.775L110.383 109.369H66.4822L38.2871 60.4825L51.313 37.6895H93.1729L122.266 87.775Z" fill="#FF81AF" stroke="#0D052C" stroke-width="0.694346" stroke-linecap="round" stroke-linejoin="round"/>
<path d="M110.383 109.369L94.3711 138.462H35.8887L66.4816 109.369H110.383Z" fill="#9AF3FF" stroke="#0D052C" stroke-width="0.694346" stroke-linecap="round" stroke-linejoin="round"/>
</svg>
