<svg width="204" height="200" viewBox="0 0 204 200" fill="none" xmlns="http://www.w3.org/2000/svg">
<path d="M199.691 148.684L190.14 138.146C194.44 137.599 198.278 134.979 200.32 131.026C203.352 125.206 201.247 117.25 195.763 113.678C195.739 113.661 195.714 113.644 195.688 113.628C191.791 111.139 186.886 110.838 182.714 112.831C179.021 114.596 176.366 117.936 175.449 121.867L167.01 112.563C167.01 112.563 167.01 112.563 167.01 112.563C167.01 112.563 167.01 112.563 167.01 112.562C165.499 110.895 163.388 109.897 161.141 109.787C158.894 109.678 156.695 110.465 155.029 111.977C155.029 111.977 155.029 111.978 155.029 111.978L143.056 122.833C143.054 122.835 143.052 122.837 143.05 122.839C142.138 123.659 141.778 124.93 142.125 126.107C142.473 127.287 143.469 128.161 144.684 128.352C144.699 128.354 144.713 128.356 144.728 128.358C145.933 128.52 147.094 128.919 148.144 129.531L148.15 129.535C151.999 131.76 153.752 136.385 152.347 140.603C150.941 144.821 146.764 147.469 142.349 146.941C137.94 146.413 134.508 142.862 134.131 138.438C134.039 137.136 133.218 135.997 132.01 135.499C130.793 134.998 129.398 135.234 128.414 136.108L128.4 136.12L117.877 145.644L117.876 145.645C116.208 147.157 115.21 149.269 115.1 151.517C114.99 153.766 115.778 155.965 117.291 157.632L117.294 157.636L126.78 168.047C127.621 169.026 128.956 169.429 130.201 169.076C131.459 168.718 132.389 167.655 132.576 166.361C133.324 161.476 137.74 158.013 142.664 158.451C147.59 158.89 151.326 163.084 151.195 168.028C151.064 172.972 147.11 176.962 142.167 177.139L142.152 177.139C140.894 177.194 139.783 177.974 139.304 179.139C138.828 180.299 139.066 181.63 139.915 182.553C139.918 182.556 139.921 182.559 139.924 182.563L150.058 193.728L150.058 193.728C153.143 197.123 158.394 197.379 161.793 194.3L161.794 194.299L172.182 184.877C172.646 190.068 176.121 194.612 181.19 196.338C187.007 198.319 193.424 196.081 196.748 190.913L196.75 190.91C199.309 186.912 199.556 181.857 197.4 177.629C195.497 173.896 191.974 171.301 187.914 170.552L199.111 160.422L199.113 160.42C202.51 157.339 202.77 152.088 199.693 148.686L199.691 148.684Z" stroke="white" stroke-width="4" stroke-linecap="round" stroke-linejoin="round"/>
<path d="M194.697 115.206C199.38 118.197 201.224 125.086 198.649 130.025C196.545 134.099 192.2 136.512 187.63 136.144C187.306 136.114 186.996 136.286 186.85 136.578C186.705 136.869 186.753 137.22 186.971 137.461L198.313 149.975C200.653 152.562 200.455 156.556 197.871 158.899L185.496 170.096C185.145 170.449 185.023 170.969 185.18 171.442C185.337 171.914 185.748 172.257 186.24 172.329C190.275 172.565 193.882 174.924 195.718 178.525C197.554 182.126 197.343 186.43 195.164 189.835C192.334 194.236 186.869 196.142 181.915 194.455C176.962 192.768 173.796 187.922 174.24 182.708C174.27 182.295 174.044 181.905 173.67 181.726C173.296 181.547 172.851 181.615 172.547 181.898L160.501 192.825C157.916 195.167 153.923 194.972 151.577 192.39L141.414 181.194C141.088 180.842 140.996 180.332 141.178 179.888C141.361 179.444 141.784 179.146 142.264 179.126C148.271 178.911 153.075 174.063 153.235 168.054C153.394 162.046 148.854 156.949 142.867 156.416C136.881 155.883 131.511 160.097 130.606 166.039C130.534 166.556 130.164 166.981 129.662 167.123C129.16 167.266 128.621 167.099 128.288 166.697L118.764 156.245C117.607 154.969 117.004 153.286 117.088 151.565C117.172 149.844 117.936 148.228 119.212 147.07L129.75 137.534C130.163 137.167 130.748 137.068 131.258 137.279C131.768 137.489 132.113 137.971 132.148 138.522C132.598 143.906 136.772 148.231 142.137 148.873C147.501 149.515 152.578 146.297 154.286 141.171C155.994 136.045 153.863 130.425 149.186 127.72C147.907 126.974 146.492 126.488 145.024 126.291C144.571 126.22 144.2 125.894 144.071 125.455C143.941 125.016 144.076 124.541 144.418 124.236L156.418 113.356C157.693 112.199 159.375 111.596 161.095 111.68C162.814 111.764 164.43 112.528 165.586 113.804L175.03 124.216C175.36 124.583 175.872 124.728 176.345 124.587C176.818 124.446 177.168 124.045 177.243 123.558C177.68 119.644 180.106 116.232 183.659 114.535C187.213 112.837 191.391 113.093 194.71 115.213L194.697 115.206Z" fill="#87D4FF" stroke="#0D052C" stroke-width="0.987931" stroke-linecap="round" stroke-linejoin="round"/>
<path d="M90.6746 49.8386V33.9791C90.6746 32.1362 91.4066 30.3688 92.7097 29.0658C94.0128 27.7627 95.7802 27.0306 97.623 27.0306H114.06C113.285 26.4347 112.584 25.7632 111.965 25.0306M90.6746 49.8386L130.031 25.0306C133.851 21.7094 135.11 16.25 133.037 11.5535C130.838 6.57003 125.476 3.77876 120.133 4.83538C114.789 5.89199 110.893 10.5138 110.756 15.9592C110.668 19.4473 112.154 22.7717 114.77 25.0306H111.965M90.6746 49.8386C90.441 50.1023 90.2162 50.3766 90.0011 50.6612L90.6746 51.1702V49.8386ZM111.965 25.0306C109.838 22.5137 108.671 19.2762 108.757 15.9087C108.917 9.52752 113.483 4.11155 119.745 2.87336C126.007 1.63516 132.29 4.90613 134.867 10.746C137.003 15.5871 136.119 21.1198 132.829 25.0306M111.965 25.0306H97.623C95.2497 25.0306 92.9737 25.9734 91.2955 27.6515C89.6173 29.3297 88.6746 31.6058 88.6746 33.9791V51.5456M132.829 25.0306L157.2 84.1111M132.829 25.0306H148.185C153.164 25.0306 157.2 29.0664 157.2 34.0449V49.9177L157.2 49.9355C157.188 51.2829 156.362 52.4892 155.11 52.9877C153.858 53.4863 152.429 53.1781 151.494 52.2078L151.488 52.2019C148.707 49.2919 144.41 48.4156 140.711 50.0038C137.014 51.5911 134.692 55.3064 134.883 59.3245M132.829 25.0306C132.216 25.7584 131.521 26.4301 130.746 27.0306L144.167 68.5014M88.6746 51.5456V51.5511H90.6746L88.6746 51.5337C88.6746 51.5377 88.6746 51.5417 88.6746 51.5456ZM88.6746 51.5456C88.6703 52.6228 89.3531 53.5837 90.373 53.9333C91.3966 54.2843 92.5299 53.9408 93.1865 53.0807L93.1921 53.0732C95.6896 49.7691 100.019 48.4302 103.946 49.7473C107.872 51.0644 110.518 54.743 110.518 58.8848C110.518 63.0266 107.872 66.7052 103.946 68.0223C100.019 69.3394 95.6896 68.0005 93.1921 64.6964C93.1837 64.6852 93.1751 64.6741 93.1664 64.6631C92.5048 63.8251 91.3868 63.4948 90.376 63.839C89.3652 64.1831 88.681 65.1268 88.6681 66.1944L88.668 66.2185V83.0858C88.668 88.1752 92.7814 92.3075 97.8708 92.3306H97.8799H111.766C109.756 94.7527 108.627 97.8247 108.631 101.032C108.613 108.484 114.577 114.572 122.028 114.707C129.478 114.841 135.659 108.974 135.912 101.528C136.045 98.1425 134.91 94.8672 132.789 92.3109H149.009C151.182 92.3109 153.267 91.4467 154.804 89.9087C156.34 88.3707 157.202 86.285 157.2 84.1111M157.2 84.1111V84.1133H155.203L157.2 84.1111ZM144.167 68.5014C139.175 68.2802 135.162 64.3134 134.883 59.3245M144.167 68.5014C144.166 68.5013 144.164 68.5013 144.163 68.5012L144.082 70.4996M144.167 68.5014C144.168 68.5014 144.169 68.5015 144.17 68.5015L144.082 70.4996M134.883 59.3245C134.883 59.3269 134.883 59.3292 134.883 59.3316L132.886 59.4282M134.883 59.3245C134.883 59.3223 134.883 59.32 134.883 59.3178L132.886 59.4282M132.886 59.4282C133.218 65.4475 138.059 70.2346 144.082 70.4996M132.886 59.4282C132.651 54.5735 135.456 50.0837 139.922 48.1661C144.388 46.2485 149.576 47.3065 152.934 50.82C153.305 51.2052 153.873 51.3276 154.37 51.1297C154.867 50.9317 155.195 50.4527 155.2 49.9177L144.082 70.4996M144.082 70.4996C147.409 70.6343 150.634 69.3315 152.934 66.9233C153.306 66.5372 153.875 66.4152 154.373 66.6148C154.871 66.8145 155.198 67.2959 155.2 67.8322V84.1133C155.201 85.7564 154.55 87.3328 153.389 88.4952C152.227 89.6577 150.652 90.3109 149.009 90.3109H130.738L144.082 70.4996ZM130.713 90.3109H130.053C129.681 90.3101 129.349 90.5427 129.222 90.8924C129.095 91.2421 129.201 91.6338 129.487 91.8718M130.713 90.3109L114.51 91.2188L115.07 91.8916M130.713 90.3109L130.053 91.1505L130.052 91.1528L130.027 91.1844L129.487 91.8718M130.713 90.3109L129.487 91.8718M129.487 91.8718C132.415 94.1708 134.061 97.7353 133.913 101.455C133.7 107.812 128.424 112.822 122.064 112.707C115.704 112.592 110.614 107.394 110.631 101.033C110.626 97.4654 112.263 94.0938 115.07 91.8916M115.07 91.8916C115.355 91.6544 115.461 91.2643 115.336 90.9152C115.211 90.5662 114.881 90.3326 114.51 90.3306M115.07 91.8916L114.531 91.2041L114.51 91.178V90.3306M114.51 90.3306H113.845L114.506 91.1723L114.51 90.3306ZM113.791 90.3542L114.505 91.2132L114.499 92.3306C114.03 92.3281 113.612 92.0324 113.454 91.5904C113.295 91.1484 113.43 90.6545 113.791 90.3542ZM113.819 90.3306H97.8799C93.8915 90.3125 90.668 87.0742 90.668 83.0858V67.9236C90.4367 67.6621 90.2142 67.3903 90.0011 67.1084L90.668 66.6044V66.2185C90.6706 65.9981 90.8119 65.8033 91.0206 65.7323C91.2292 65.6612 91.46 65.7294 91.5966 65.9024C91.6776 66.0095 91.7601 66.1149 91.8442 66.2185H92.668V67.1312C95.756 70.2088 100.361 71.334 104.582 69.9185C109.323 68.328 112.518 63.886 112.518 58.8848C112.518 53.8836 109.323 49.4415 104.582 47.8511C100.364 46.4365 95.7625 47.5591 92.6746 50.6318V51.5511C92.6738 51.2911 92.6054 51.0429 92.4835 50.8265C92.2618 51.0577 92.0484 51.2993 91.8442 51.5511C91.8415 51.5544 91.8388 51.5578 91.8361 51.5611C91.7548 51.6615 91.675 51.7636 91.5966 51.8672L113.819 90.3306ZM90.6746 51.1634V50.1608C90.4157 50.2561 90.1824 50.4237 90.0068 50.6537L90.6746 51.1634ZM92.6678 66.2426C92.6648 66.4934 92.5987 66.7325 92.4825 66.9421C92.2654 66.7156 92.0562 66.4791 91.8558 66.2328L92.6678 66.2426ZM90.0269 67.1417L90.668 66.6355V67.61C90.4211 67.5174 90.198 67.3585 90.0269 67.1417ZM113.896 25.8847C114.03 25.4605 114.381 25.1499 114.802 25.0584C114.886 25.1301 114.971 25.2006 115.057 25.2701C115.061 25.2733 115.065 25.2765 115.069 25.2798C115.211 25.3945 115.356 25.5061 115.505 25.6146C115.785 25.8087 115.906 26.1628 115.803 26.4878C115.7 26.8128 115.398 27.0329 115.057 27.0306H114.524H114.469H114.118C113.859 26.7166 113.769 26.2865 113.896 25.8847Z" fill="#7774FF" stroke="white" stroke-width="4" stroke-linecap="round" stroke-linejoin="round"/>
<path d="M105.453 45.9781C101.038 44.4109 96.2317 45.2377 92.6356 47.9648V34.2748C92.6356 29.169 88.4965 25.0299 83.3907 25.0299H68.8342C72.0881 21.1519 72.9869 15.6781 70.908 10.8575C68.3713 4.97529 62.084 1.64977 55.7941 2.86336C49.5048 4.07683 44.9064 9.50169 44.7392 15.9046C44.6455 19.2717 45.8031 22.5096 47.9202 25.0299H32.7889C27.9411 25.0299 24.0098 28.9574 24.0051 33.8052V33.8071V48.0777C20.3546 45.2624 15.4522 44.4408 10.9973 46.0661C5.61222 48.0307 2.0293 53.1518 2.0293 58.8841C2.0293 64.6164 5.61222 69.7375 10.9973 71.7021C15.4522 73.3274 20.3546 72.5058 24.0051 69.6905L24.0051 82.6768L24.0051 82.6784C24.0095 87.9852 28.2885 92.2975 33.595 92.3431L33.6122 92.3431H51.4466C52.4872 92.3917 53.4458 91.7471 53.7855 90.7482C54.1329 89.7262 53.7408 88.6035 52.8436 88.0179C52.6876 87.9096 52.5387 87.8011 52.4055 87.6975C50.3725 86.1117 49.0629 83.7747 48.7718 81.2128C48.7624 81.1304 48.748 81.0486 48.7284 80.968C48.7283 80.9667 48.7282 80.9651 48.7281 80.9634C48.7273 80.9523 48.7265 80.9342 48.7259 80.9036C48.7254 80.8708 48.7253 80.8355 48.7253 80.78C48.7253 80.7428 48.7243 80.7056 48.7222 80.6684C48.7002 80.2739 48.7 79.8784 48.7217 79.4838C48.7511 79.0342 48.8113 78.5871 48.9019 78.1457L48.9064 78.1227C48.9584 77.8535 49.0238 77.6246 49.1236 77.2786C50.0157 74.3619 52.2359 72.0396 55.1097 71.0174C55.33 70.942 55.517 70.8804 55.691 70.8321C55.7551 70.8142 55.8183 70.7932 55.8804 70.7691C55.9101 70.7576 55.941 70.7493 55.9725 70.7446C56.0221 70.7372 56.0714 70.7279 56.1203 70.7167L56.5691 70.6145L56.9956 70.5497L57.0451 70.5433C57.4054 70.4965 57.6065 70.4703 57.8099 70.4703C57.8204 70.4703 57.831 70.4703 57.8415 70.4701C57.8646 70.4697 57.8876 70.469 57.9107 70.4678C58.5161 70.4373 59.1231 70.4643 59.7234 70.5485C59.9113 70.5764 60.0077 70.5919 60.0869 70.6101C60.0982 70.6127 60.1095 70.6152 60.1209 70.6177L60.6116 70.7219C63.9417 71.5654 66.5851 74.0966 67.5714 77.389L67.5767 77.4064C67.6395 77.6093 67.6917 77.8197 67.7445 78.0606C67.7508 78.0893 67.7578 78.1179 67.7653 78.1464C67.7689 78.1703 67.7728 78.1942 67.7772 78.218C67.7951 78.3151 67.8149 78.4065 67.8286 78.4699L67.8323 78.4866C67.8458 78.5489 67.854 78.587 67.8614 78.6244C67.8656 78.6458 67.8681 78.6606 67.8696 78.6697C67.8717 78.784 67.8836 78.8976 67.905 79.0094C67.9084 79.073 67.9148 79.1365 67.9243 79.1996C67.9578 79.4228 67.9615 79.6686 67.9615 80.095V80.0964V80.0978V80.0992V80.1006V80.1019V80.1033V80.1047V80.1061V80.1075V80.1089V80.1103V80.1117V80.1131V80.1144V80.1158V80.1172V80.1186V80.12V80.1214V80.1228V80.1242V80.1256V80.1269V80.1283V80.1297V80.1311V80.1325V80.1339V80.1353V80.1367V80.1381V80.1395V80.1408V80.1422V80.1436V80.145V80.1464V80.1478V80.1492V80.1506V80.152V80.1533V80.1547V80.1561V80.1575V80.1589V80.1603V80.1617V80.1631V80.1645V80.1658V80.1672V80.1686V80.17V80.1714V80.1728V80.1742V80.1756V80.177V80.1784V80.1797V80.1811V80.1825V80.1839V80.1853V80.1867V80.1881V80.1895V80.1909V80.1922V80.1936V80.195V80.1964V80.1978V80.1992V80.2006V80.202V80.2034V80.2048V80.2061V80.2075V80.2089V80.2103V80.2117V80.2131V80.2145V80.2159V80.2173V80.2186V80.22V80.2214V80.2228V80.2242V80.2256V80.227V80.2284V80.2298V80.2311V80.2325V80.2339V80.2353V80.2367V80.2381V80.2395V80.2409V80.2423V80.2436V80.245V80.2464V80.2478V80.2492V80.2506V80.252V80.2534V80.2548V80.2561V80.2575V80.2589V80.2603V80.2617V80.2631V80.2645V80.2659V80.2673V80.2687V80.27V80.2714V80.2728V80.2742V80.2756V80.277V80.2784V80.2798V80.2812V80.2825V80.2839V80.2853V80.2867V80.2881V80.2895V80.2909V80.2923V80.2937V80.2951V80.2964V80.2978V80.2992V80.3006V80.302V80.3034V80.3048V80.3062V80.3076V80.3089V80.3103V80.3117V80.3131V80.3145V80.3159V80.3173V80.3187V80.3201V80.3214V80.3228V80.3242V80.3256V80.327V80.3284V80.3298V80.3312V80.3326V80.334V80.3353V80.3367V80.3381V80.3395V80.3409V80.3423V80.3437V80.3451V80.3465V80.3478V80.3492V80.3506V80.352V80.3534V80.3548V80.3562V80.3576V80.359V80.3603V80.3617V80.3631V80.3645V80.3659V80.3673V80.3687V80.3701V80.3715V80.3728V80.3742V80.3756V80.377V80.3784V80.3798V80.3812V80.3826V80.384V80.3854V80.3867V80.3881V80.3895V80.3909V80.3923V80.3937V80.3951V80.3965V80.3979V80.3992V80.4006V80.402V80.4034V80.4048V80.4062V80.4076V80.409V80.4104V80.4118V80.4131V80.4145V80.4159V80.4173V80.4187V80.4201V80.4215V80.4229V80.4243V80.4256V80.427V80.4284V80.4298V80.4312V80.4326V80.434V80.4354V80.4368V80.4381V80.4395V80.4409V80.4423V80.4437V80.4451V80.4465V80.4479V80.4493V80.4507V80.452V80.4534V80.4548V80.4562V80.4576V80.459V80.4604V80.4618V80.4632V80.4645V80.4659V80.4673V80.4687V80.4701V80.4715V80.4729V80.4743V80.4757V80.477V80.4784V80.4798V80.4812V80.4826V80.484V80.4854V80.4868V80.4882V80.4895V80.4909V80.4923V80.4937V80.4951V80.4965V80.4979V80.4993V80.5007V80.5021V80.5034V80.5048V80.5062V80.5076V80.509V80.5104V80.5118V80.5132V80.5146V80.5159V80.5173V80.5187V80.5201V80.5215V80.5229V80.5243V80.5257V80.5271V80.5285V80.5298V80.5312V80.5326V80.534V80.5354V80.5368V80.5382V80.5396V80.541V80.5423V80.5437V80.5451V80.5465V80.5479V80.5493V80.5507V80.5521V80.5535V80.5548V80.5562V80.5576V80.559V80.5604V80.5618V80.5632V80.5646V80.566V80.5674V80.5687V80.5701V80.5715V80.5729V80.5743V80.5757V80.5771V80.5785V80.5799V80.5812V80.5826V80.584V80.5854V80.5868V80.5882V80.5896V80.591V80.5924V80.5938V80.5951V80.5965V80.5979V80.5993V80.6007V80.6021V80.6035V80.6049V80.6062V80.6076V80.609V80.6104V80.6118V80.6132V80.6146V80.616V80.6174V80.6188V80.6201V80.6215V80.6229V80.6243V80.6257V80.6271V80.6285V80.6299V80.6313V80.6326V80.634V80.6354V80.6368V80.6382V80.6396V80.641V80.6424V80.6438V80.6451V80.6465V80.6479V80.6493V80.6507V80.6521V80.6535V80.6549V80.6563V80.6577V80.659V80.6604V80.6618V80.6632V80.6646V80.666V80.6674V80.6688V80.6702V80.6715V80.6729V80.6743V80.6757V80.6771V80.6785V80.6799V80.6813V80.6827V80.6841V80.6854V80.6868V80.6882V80.6896V80.691V80.6924V80.6938V80.6952V80.6966V80.6979V80.6993V80.7007V80.7021V80.7035V80.7049V80.7063V80.7077V80.7091V80.7104V80.7118V80.7132V80.7146V80.716V80.7174V80.7188V80.7202V80.7216V80.7229V80.7243V80.7257V80.7271V80.7285V80.7299V80.7313V80.7327V80.7341V80.7355V80.7368V80.7382V80.7396V80.741V80.7424V80.7438V80.7452V80.7466V80.748V80.7493V80.7504C67.9547 80.8569 67.9431 80.9631 67.9265 81.0686C67.9066 81.1949 67.8989 81.3229 67.9035 81.4506L67.9029 81.4579L67.9009 81.4842C67.8974 81.4949 67.8941 81.5057 67.8908 81.5166C67.8425 81.676 67.8197 81.8147 67.8077 81.9181C67.8021 81.9663 67.7989 82.0066 67.7971 82.0309L67.7963 82.0433C67.7952 82.0485 67.7938 82.0551 67.792 82.0634L67.7687 82.1721C67.7396 82.3082 67.7043 82.4454 67.6566 82.6293C67.6372 82.7042 67.6222 82.7801 67.6116 82.8566C67.6072 82.8711 67.6028 82.8859 67.5982 82.901C67.573 82.9838 67.5493 83.0594 67.5322 83.1143C67.5216 83.1482 67.5117 83.1809 67.5048 83.2037L67.503 83.2097C67.4962 83.2322 67.4922 83.2454 67.489 83.2554C67.4757 83.2884 67.4632 83.3216 67.4516 83.3552C67.4057 83.4884 67.3527 83.6253 67.2819 83.8027L67.0642 84.2926C67.0636 84.2939 67.063 84.2953 67.0624 84.2966C66.3882 85.7921 65.3141 87.0722 63.9587 87.9959C63.0939 88.5609 62.696 89.6268 62.9851 90.6238C63.2786 91.636 64.2083 92.3293 65.2607 92.3234H83.8188C88.7064 92.3234 92.6685 88.3613 92.6685 83.4737V69.7672C96.0903 72.3452 100.606 73.2151 104.85 71.9263C110.369 70.2507 114.239 65.288 114.519 59.5279C114.822 53.5044 111.136 47.996 105.453 45.9781ZM68.0688 81.0897C68.0686 81.0901 68.0684 81.0905 68.0682 81.0909L68.0688 81.0897ZM67.7999 82.0258C67.7998 82.0261 67.7997 82.0265 67.7996 82.027L67.7999 82.0258Z" fill="#FF81AF" stroke="white" stroke-width="4" stroke-linecap="round" stroke-linejoin="round"/>
<path d="M44.8564 81.4144C44.8564 81.4971 44.8616 81.5798 44.8719 81.6619C45.1773 84.0985 46.1181 86.3892 47.573 88.3177H33.6115C28.3457 88.3177 24.0769 92.5865 24.0769 97.8523V111.962C20.5828 109.219 15.8825 108.296 11.4962 109.7C5.84809 111.508 2.01562 116.759 2.01562 122.689C2.01562 128.619 5.84809 133.87 11.4962 135.678C15.8825 137.082 20.5828 136.159 24.0769 133.416V146.215C24.0769 151.277 28.1804 155.381 33.2427 155.381H49.2735L49.2926 155.381C50.4434 155.37 51.4789 154.674 51.9219 153.609C52.3614 152.552 52.1322 151.336 51.3403 150.512C49.6691 148.73 48.7405 146.378 48.7444 143.935C48.7697 138.681 52.9959 134.414 58.2496 134.338C63.5023 134.262 67.8491 138.404 68.0275 143.654C68.0954 146.192 67.1496 148.652 65.3993 150.491C64.5833 151.331 64.3565 152.582 64.8276 153.656C65.296 154.724 66.36 155.402 67.5208 155.381H84.2397C88.8946 155.381 92.6678 151.607 92.6678 146.952V133.531C96.0959 136.174 100.658 137.081 104.946 135.782C110.31 134.156 114.115 129.422 114.577 123.872C114.634 123.701 114.668 123.521 114.677 123.334C114.953 117.334 111.273 111.859 105.612 109.849C101.174 108.273 96.3364 109.119 92.7337 111.886L50.2115 88.3177C48.372 86.4581 47.1849 84.0341 46.8564 81.4131C46.8564 81.2728 46.8399 81.1352 46.8229 80.9933C46.8136 80.9154 46.8041 80.8362 46.7971 80.7545C46.7708 80.2829 46.7708 79.8101 46.7971 79.3385C46.8322 78.794 46.9048 78.2527 47.0144 77.7183C47.0681 77.4646 47.1326 77.2253 47.2026 76.9657C47.2271 76.8749 47.2523 76.7815 47.2779 76.6842C48.3833 73.1686 51.0608 70.367 54.5227 69.1035C54.7532 69.0245 54.9903 68.9454 55.2274 68.8796C55.2827 68.8642 55.3308 68.8507 55.3743 68.8384C55.5176 68.798 55.6113 68.7716 55.7477 68.7413L56.1956 68.6491L56.7225 68.5569C57.0782 68.5107 57.4404 68.4712 57.8158 68.4581M44.8564 81.4144C44.8564 81.414 44.8564 81.4135 44.8564 81.4131L44.8564 81.4144C44.8564 81.4144 44.8564 81.4144 44.8564 81.4144ZM44.8564 81.4144C44.8563 81.4132 44.8555 81.3897 44.8469 81.3146C44.8404 81.2568 44.8378 81.2382 44.8282 81.1559C44.8207 81.0919 44.8119 81.0125 44.8044 80.9253C44.8027 80.9056 44.8013 80.8858 44.8002 80.866C44.7697 80.3201 44.7697 79.7729 44.8002 79.227L44.8012 79.2099C44.8422 78.5736 44.9271 77.9409 45.0552 77.3163L45.0577 77.3043L45.0577 77.3043C45.124 76.9913 45.2093 76.675 45.2825 76.4039C45.3043 76.3233 45.325 76.2466 45.3437 76.1752C45.3518 76.1447 45.3605 76.1144 45.37 76.0843C46.6619 71.9756 49.791 68.7014 53.837 67.2247C53.8493 67.2202 53.8617 67.2159 53.8741 67.2116C54.1105 67.1306 54.3945 67.0352 54.6921 66.9525C54.7296 66.9421 54.767 66.9316 54.8049 66.9209C54.9577 66.8777 55.1174 66.8326 55.3139 66.7889L55.3444 66.7824L55.7923 66.6901C55.8118 66.6861 55.8313 66.6824 55.8508 66.679L56.3777 66.5868C56.4069 66.5817 56.4361 66.5772 56.4654 66.5734C56.8406 66.5248 57.2687 66.4768 57.7301 66.4598M57.7301 66.4598C57.7251 66.4601 57.7201 66.4603 57.715 66.4606L57.8158 68.4581M57.7301 66.4598C58.5515 66.4193 59.3747 66.4535 60.1898 66.562M57.7301 66.4598C57.7353 66.4597 57.7405 66.4595 57.7457 66.4593L57.8158 68.4581M57.8158 68.4581C58.5506 68.421 59.2872 68.4541 60.0156 68.5569M83.5858 88.3177H83.5876V90.3135L83.5858 88.3177ZM83.5858 88.3177H69.3755H83.5858ZM60.1898 66.562L69.9344 78.6272C69.9015 78.3637 69.8554 78.1003 69.8093 77.85C69.7632 77.7775 69.7632 77.6985 69.7632 77.6261C69.7039 77.356 69.6381 77.086 69.5524 76.8094C68.3517 72.8123 65.1241 69.75 61.0694 68.761L60.5425 68.6491C60.5117 68.6419 60.4806 68.6344 60.4494 68.6268C60.3072 68.5923 60.1614 68.5569 60.0156 68.5569M60.1898 66.562C60.2249 66.5667 60.26 66.5715 60.295 66.5765L60.0156 68.5569M60.1898 66.562C60.134 66.5587 60.0758 66.5569 60.0156 66.5569V68.5569" fill="#FFE483" stroke="white" stroke-width="4" stroke-linecap="round" stroke-linejoin="round"/>
<path d="M69.5455 76.8218C68.3448 72.8247 65.1172 69.7624 61.0625 68.7734C65.1299 69.739 68.3676 72.8108 69.5455 76.8218Z" fill="#98F8FF" stroke="#0D052C" stroke-width="0.395172" stroke-linecap="round" stroke-linejoin="round"/>
<path d="M112.522 59.4275C112.283 64.345 108.98 68.5822 104.269 70.0126C99.5583 71.443 94.4568 69.7579 91.5247 65.8029C91.403 65.6375 91.1887 65.5692 90.9938 65.6337C90.7988 65.6982 90.6675 65.8808 90.6685 66.0861V83.4737C90.6685 87.2567 87.6018 90.3234 83.8188 90.3234H65.2523C65.0923 90.3255 64.9505 90.2205 64.906 90.0668C64.8614 89.9131 64.925 89.7486 65.0613 89.6648C66.7337 88.5314 68.0585 86.9558 68.8879 85.1137L69.125 84.5802C69.204 84.3826 69.2765 84.1982 69.3424 84.0072C69.3819 83.915 69.4082 83.8162 69.4411 83.7108C69.4741 83.6054 69.5465 83.3749 69.5926 83.2037V83.1312C69.6387 82.9534 69.6848 82.7756 69.7244 82.5912C69.7639 82.4068 69.7705 82.3804 69.7836 82.275C69.7968 82.1697 69.7836 82.1235 69.8297 82.0379C69.8758 81.9523 69.889 81.7086 69.9022 81.544C69.9052 81.4891 69.9052 81.4342 69.9022 81.3793C69.932 81.1895 69.9518 80.9982 69.9615 80.8063C69.9615 80.5692 69.9615 80.3321 69.9615 80.095C69.9615 79.6932 69.9615 79.2981 69.9022 78.9029C69.9022 78.8107 69.9022 78.7185 69.8693 78.6329C69.8693 78.3694 69.7902 78.106 69.7441 77.8557C69.7441 77.7832 69.7441 77.7042 69.698 77.6318C69.6387 77.3617 69.5729 77.0917 69.4873 76.8151C68.2952 72.8357 65.0938 69.7795 61.0635 68.7733L60.5366 68.6613C60.3654 68.6218 60.1875 68.5955 60.0097 68.5691C59.2812 68.4664 58.5446 68.4333 57.8099 68.4703C57.4345 68.4703 57.0723 68.523 56.7166 68.5691L56.1963 68.6482L55.676 68.7667C55.498 68.7934 55.3234 68.8398 55.1557 68.905C54.9186 68.9709 54.6815 69.0499 54.4509 69.129C50.9699 70.3631 48.2814 73.1763 47.2061 76.7097C47.1073 77.0522 47.0151 77.3683 46.9427 77.7437C46.833 78.2781 46.7604 78.8195 46.7253 79.3639C46.699 79.8356 46.699 80.3083 46.7253 80.78C46.7253 80.9907 46.7253 81.2015 46.7846 81.4386C47.1364 84.5352 48.7197 87.36 51.1776 89.2762C51.3554 89.4145 51.5464 89.5528 51.7374 89.6845C51.8815 89.7705 51.9459 89.9455 51.8919 90.1044C51.8379 90.2633 51.6802 90.3628 51.5135 90.3431H33.6122C29.4028 90.307 26.0086 86.8863 26.0051 82.6768V66.8962C25.9855 66.5679 25.7723 66.2828 25.4629 66.171C25.1536 66.0593 24.8074 66.1425 24.5825 66.3825C21.4323 70.1253 16.2786 71.4999 11.6828 69.8233C7.08703 68.1466 4.0293 63.7762 4.0293 58.8841C4.0293 53.9921 7.08703 49.6216 11.6828 47.945C16.2786 46.2683 21.4323 47.643 24.5825 51.3857C24.8082 51.6264 25.1559 51.709 25.4657 51.5957C25.7756 51.4823 25.9879 51.1949 26.0051 50.8654V33.8071C26.0087 30.0631 29.0449 27.0299 32.7889 27.0299H51.1513C51.4605 27.0184 51.7296 26.8151 51.8252 26.5208C51.9209 26.2265 51.8227 25.9038 51.5794 25.7127C48.4448 23.468 46.6306 19.8124 46.7385 15.9585C46.8804 10.4934 50.805 5.86285 56.173 4.82715C61.5409 3.79144 66.9066 6.6295 69.0715 11.6495C71.2364 16.6696 69.6175 22.5197 65.1799 25.7127C64.9365 25.9038 64.8383 26.2265 64.934 26.5208C65.0296 26.8151 65.2988 27.0184 65.608 27.0299H83.3907C87.3919 27.0299 90.6356 30.2735 90.6356 34.2748V51.6623C90.6327 51.8665 90.7608 52.0496 90.9535 52.1168C91.1463 52.1841 91.3605 52.1204 91.4852 51.9587C94.5264 47.8057 99.9326 46.1406 104.783 47.8629C109.634 49.5851 112.78 54.2865 112.522 59.4275Z" fill="#FF81AF" stroke="#0D052C" stroke-width="0.987931" stroke-linecap="round" stroke-linejoin="round"/>
<path d="M39.3809 45.4785L43.8727 50.7607" stroke="#0D052C" stroke-width="0.987931" stroke-linecap="round" stroke-linejoin="round"/>
<path d="M41.0684 41.0781L48.7018 50.0551" stroke="#0D052C" stroke-width="0.987931" stroke-linecap="round" stroke-linejoin="round"/>
<path d="M46.7852 41.4199L49.3011 44.3771" stroke="#0D052C" stroke-width="0.987931" stroke-linecap="round" stroke-linejoin="round"/>
<path d="M59.9961 73.6543C62.2349 74.1829 64.156 75.6129 65.3046 77.606" stroke="#0D052C" stroke-width="0.395172" stroke-linecap="round" stroke-linejoin="round"/>
<path d="M112.613 123.253C112.393 128.182 109.088 132.435 104.366 133.866C99.6451 135.296 94.5349 133.593 91.6162 129.616C91.4809 129.435 91.2457 129.361 91.0312 129.431C90.8167 129.501 90.6706 129.7 90.6678 129.925V146.951C90.6678 150.501 87.7898 153.379 84.2397 153.379H67.4975C67.1364 153.391 66.8043 153.182 66.6592 152.851C66.514 152.52 66.5853 152.134 66.8389 151.877C68.9633 149.65 70.1108 146.668 70.0266 143.592C69.8152 137.25 64.5653 132.245 58.2207 132.336C51.8762 132.428 46.7728 137.582 46.7444 143.927C46.7391 146.886 47.8654 149.735 49.8926 151.89C50.1382 152.141 50.2101 152.515 50.0752 152.839C49.9403 153.163 49.6247 153.376 49.2735 153.379H33.2427C29.2851 153.379 26.0769 150.17 26.0769 146.213V129.747C26.0801 129.518 25.9332 129.314 25.715 129.244C25.4967 129.175 25.2586 129.256 25.1285 129.444C22.19 133.565 16.9257 135.314 12.1059 133.771C7.28606 132.228 4.01562 127.748 4.01562 122.687C4.01562 117.626 7.28606 113.146 12.1059 111.603C16.9257 110.06 22.19 111.809 25.1285 115.929C25.258 116.117 25.4943 116.198 25.7118 116.13C25.9292 116.062 26.0772 115.861 26.0769 115.633V97.8503C26.0769 93.6891 29.4502 90.3157 33.6115 90.3157H51.5853C51.7519 90.3354 51.9097 90.2359 51.9637 90.077C52.0177 89.9181 51.9533 89.7431 51.8092 89.6571C51.6182 89.5254 51.4272 89.3871 51.2494 89.2488C48.8194 87.3087 47.2431 84.4964 46.8564 81.4112C46.8564 81.1938 46.8169 80.9831 46.7971 80.7526C46.7708 80.2809 46.7708 79.8082 46.7971 79.3365C46.8322 78.7921 46.9048 78.2507 47.0144 77.7163C47.0869 77.3738 47.1791 77.0577 47.2779 76.6823C48.3833 73.1667 51.0608 70.365 54.5227 69.1016C54.7532 69.0225 54.9903 68.9435 55.2274 68.8776C55.4645 68.8118 55.5699 68.7788 55.7477 68.7393L56.1956 68.6471L56.7225 68.5549C57.0782 68.5088 57.4404 68.4693 57.8158 68.4561C58.5506 68.419 59.2872 68.4521 60.0156 68.5549C60.1934 68.5549 60.3713 68.6076 60.5425 68.6471L61.0694 68.7591C65.1241 69.748 68.3517 72.8103 69.5524 76.8074C69.6381 77.084 69.7039 77.3541 69.7632 77.6241C69.7632 77.6966 69.7632 77.7756 69.8093 77.848C69.8554 78.0983 69.9015 78.3618 69.9344 78.6252C69.9344 78.7108 69.9344 78.803 69.9674 78.8952C70.0069 79.2904 70.0266 79.6856 70.0266 80.0873C70.0266 80.3245 70.0266 80.5616 70.0266 80.7987C70.0266 81.0358 70.0069 81.2268 69.9674 81.3717C69.9704 81.4265 69.9704 81.4815 69.9674 81.5363C69.9674 81.701 69.9213 81.8656 69.8949 82.0303C69.8686 82.1949 69.8949 82.1883 69.8488 82.2674C69.8027 82.3464 69.8093 82.4847 69.7895 82.5835C69.7698 82.6823 69.7039 82.9458 69.6578 83.1236V83.196C69.6117 83.3673 69.5656 83.5319 69.5063 83.7032C69.4471 83.8744 69.4471 83.9073 69.4075 83.9996C69.3417 84.1906 69.2692 84.375 69.1902 84.5726L68.9531 85.106C68.1237 86.9482 66.7989 88.5238 65.1265 89.6571C64.9902 89.7409 64.9266 89.9055 64.9712 90.0592C65.0157 90.2129 65.1575 90.3179 65.3175 90.3157H83.5876C85.4823 90.314 87.2999 91.0654 88.6403 92.4045C89.9806 93.7436 90.7337 95.5605 90.7337 97.4552V115.475C90.7274 115.705 90.8734 115.912 91.0924 115.984C91.3114 116.055 91.5513 115.974 91.6821 115.785C94.7286 111.662 100.113 110.017 104.943 111.732C109.774 113.447 112.914 118.12 112.679 123.24L112.613 123.253Z" fill="#FFE483" stroke="#0D052C" stroke-width="0.987931" stroke-linecap="round" stroke-linejoin="round"/>
<path d="M64.0996 129.148C64.0996 129.148 70.1721 128.753 72.7407 136.228" stroke="#0D052C" stroke-width="0.987931" stroke-linecap="round" stroke-linejoin="round"/>
<path d="M122.92 10.0312C125.153 10.5528 127.072 11.97 128.228 13.95" stroke="#0D052C" stroke-width="0.987931" stroke-linecap="round" stroke-linejoin="round"/>
<path d="M108.273 73.3363C108.273 73.3363 114.339 71.9269 115.953 67.4746" stroke="#0D052C" stroke-width="0.987931" stroke-linecap="round" stroke-linejoin="round"/>
<path d="M132.823 59.059C133.156 65.0783 137.997 69.8654 144.02 70.1304C147.347 70.2651 150.572 68.9624 152.871 66.5541C153.244 66.168 153.813 66.046 154.31 66.2457C154.808 66.4454 155.135 66.9268 155.137 67.463V83.7441C155.139 85.3872 154.487 86.9636 153.326 88.1261C152.165 89.2886 150.589 89.9417 148.946 89.9417H129.991C129.619 89.9409 129.286 90.1735 129.159 90.5232C129.033 90.873 129.139 91.2647 129.425 91.5027C132.352 93.8017 133.998 97.3661 133.851 101.086C133.637 107.443 128.362 112.453 122.002 112.338C115.642 112.223 110.551 107.025 110.568 100.664C110.563 97.0963 112.2 93.7247 115.007 91.5224C115.292 91.2852 115.399 90.8951 115.274 90.5461C115.148 90.197 114.818 89.9635 114.448 89.9615H97.8174C93.829 89.9434 90.6055 86.7051 90.6055 82.7167V65.8494C90.6081 65.629 90.7494 65.4341 90.9581 65.3631C91.1667 65.2921 91.3975 65.3602 91.5341 65.5333C94.5499 69.523 99.7774 71.1398 104.519 69.5493C109.261 67.9589 112.456 63.5169 112.456 58.5157C112.456 53.5144 109.261 49.0724 104.519 47.482C99.7774 45.8915 94.5499 47.5084 91.5341 51.498C91.4 51.6738 91.1683 51.744 90.9591 51.6723C90.75 51.6006 90.6101 51.403 90.6121 51.1819V33.6099C90.6121 31.7671 91.3441 29.9997 92.6472 28.6966C93.9503 27.3935 95.7177 26.6615 97.5605 26.6615H114.994C115.335 26.6638 115.638 26.4437 115.741 26.1187C115.843 25.7936 115.722 25.4395 115.442 25.2454C112.372 23.0003 110.597 19.3925 110.693 15.59C110.831 10.1446 114.726 5.52285 120.07 4.46623C125.414 3.40962 130.775 6.20089 132.975 11.1843C135.174 16.1678 133.622 22.0099 129.24 25.2454C128.961 25.4389 128.84 25.7912 128.941 26.1155C129.042 26.4398 129.342 26.6609 129.681 26.6615H148.123C151.997 26.6615 155.137 29.8019 155.137 33.6758V49.5485C155.132 50.0836 154.804 50.5626 154.307 50.7605C153.81 50.9585 153.243 50.8361 152.871 50.4508C149.513 46.9374 144.326 45.8793 139.86 47.7969C135.394 49.7145 132.588 54.2043 132.823 59.059Z" fill="#7774FF" stroke="#0D052C" stroke-width="0.987931" stroke-linecap="round" stroke-linejoin="round"/>
</svg>
